<svg xmlns="http://www.w3.org/2000/svg" width="15.528" height="10.5" viewBox="0 0 15.528 10.5">
  <g id="arrow-right" transform="translate(0.25 0.25)">
    <g id="Group_192" data-name="Group 192" transform="translate(0 0)">
      <path id="Path_564" data-name="Path 564" d="M14.908,91.068l-4.687-4.625a.277.277,0,0,0-.442,0,.43.43,0,0,0,0,.53l4.154,3.985H.313a.381.381,0,0,0,0,.75H13.933L9.779,95.693a.43.43,0,0,0,0,.53.277.277,0,0,0,.442,0L14.908,91.6A.43.43,0,0,0,14.908,91.068Z" transform="translate(0 -86.333)" fill="#5551ef" stroke="#5551ef" stroke-width="0.5"/>
    </g>
  </g>
</svg>
