<svg xmlns="http://www.w3.org/2000/svg" width="16.735" height="10.7" viewBox="0 0 16.735 10.7">
  <g id="pagination_arrow" transform="translate(0.35 -85.983)">
    <g id="Group_192" data-name="Group 192" transform="translate(0 85.333)">
      <path id="Path_564" data-name="Path 564" d="M15.9,91.068l-5-4.625a.308.308,0,0,0-.471,0,.409.409,0,0,0,0,.53l4.431,3.985H.333a.378.378,0,0,0,0,.75H14.862l-4.431,3.985a.409.409,0,0,0,0,.53.308.308,0,0,0,.471,0l5-4.625A.409.409,0,0,0,15.9,91.068Z" transform="translate(0 -85.333)" fill="#fff" stroke="#5551ef" stroke-width="0.7"/>
    </g>
  </g>
</svg>
