<svg xmlns="http://www.w3.org/2000/svg" width="11.98" height="9.7" viewBox="0 0 11.98 9.7">
  <g id="right-arrow" transform="translate(-2.65 -85.983)">
    <g id="Group_192" data-name="Group 192" transform="translate(3 86.333)">
      <path id="Path_564" data-name="Path 564" d="M14.165,90.594,9.839,86.432a.26.26,0,0,0-.408,0,.379.379,0,0,0,0,.477L13.265,90.5H3.288a.342.342,0,0,0,0,.675h9.977L9.431,94.757a.379.379,0,0,0,0,.477.26.26,0,0,0,.408,0l4.327-4.162A.379.379,0,0,0,14.165,90.594Z" transform="translate(-3 -86.333)" fill="#5551ef" stroke="#5551ef" stroke-width="0.7"/>
    </g>
  </g>
</svg>
