<?xml version="1.0" encoding="utf-8"?>
<!-- Generator: Adobe Illustrator 23.0.3, SVG Export Plug-In . SVG Version: 6.00 Build 0)  -->
<svg version="1.1" id="Calque_1" xmlns="http://www.w3.org/2000/svg" xmlns:xlink="http://www.w3.org/1999/xlink" x="0px" y="0px"
	 viewBox="0 0 400 420" style="enable-background:new 0 0 400 420;" xml:space="preserve">
<style type="text/css">
	.st0{opacity:0.1;fill:#6C63FF;enable-background:new    ;}
	.st1{fill:#5F5D7E;}
	.st2{opacity:0.1;enable-background:new    ;}
	.st3{fill:#6C63FF;}
	.st4{fill:#474157;}
	.st5{fill:#FFD037;}
	.st6{fill:#65617D;}
	.st7{fill:#9D9CB5;}
	.st8{fill:#C8CAD7;}
	.st9{fill:#FFFFFF;}
	.st10{fill:#EDEDF4;}
	.st11{fill:url(#SVGID_1_);}
	.st12{fill:#67647E;}
	.st13{fill:#444053;}
	.st14{fill:#EFB7B9;}
	.st15{fill:#A36468;}
	.st16{fill:#B07473;}
	.st17{fill:#E1E7EF;}
	.st18{opacity:0.2;enable-background:new    ;}
	.st19{opacity:0.1;fill:#FFFFFF;enable-background:new    ;}
	.st20{fill:#585268;}
	.st21{opacity:0.1;}
	.st22{display:none;fill:#F2F2F2;}
	.st23{display:none;fill:#6ED397;}
	.st24{display:none;fill:#F9F9FD;}
	.st25{fill:#F2F2F2;}
	.st26{fill:#4C4C4C;}
	.st27{fill:#000333;}
</style>
<g id="b5fd0f28-1473-49d3-b766-fd4b3ddcb807">
	<title>quitting time</title>
	<path class="st0" d="M241.5,252.1c-26.3-0.5-51.3-5.7-75.1-11.4s-47.5-11.9-73.1-14.8c-16.5-1.9-35.3-2.2-48.6,3.2
		c-12.8,5.1-16.9,14.1-19.1,22.4c-1.7,6.2-2.7,12.8,1.9,18.6c3.2,4.1,8.8,7.5,12.7,11.3c13.6,13.5,4,30.1-10.7,43.3
		c-6.9,6.2-14.9,12.1-20.2,18.6c-5.3,6.6-7.8,14.1-3.1,20.8c4.6,6.6,15.6,11.6,27.5,15.2c24.2,7.1,52.7,9.2,80.6,10.3
		c61.6,2.6,123.4,1.4,185.2,0.4c22.9-0.4,45.8-0.8,68.3-3c12.5-1.2,25.4-3.1,34.4-7.6c11.5-5.8,14.4-15.6,6.6-22.9
		c-12.9-12.2-48.7-15.2-57.7-28.3c-5-7.2,0.2-15.3,7.4-21.9C374,292,400,279.4,401.4,263c0.9-11.2-11.5-22.5-30.9-27.9
		c-20.2-5.6-48.3-4.9-63.3,4.4C291.7,249,264.6,252.6,241.5,252.1z"/>
	<ellipse class="st0" cx="290.1" cy="413.8" rx="50.3" ry="8.2"/>
	<polygon class="st1" points="92.1,275.3 92,282.2 91,338 82.2,358.4 52.1,358.8 52.1,278.5 83.5,276 	"/>
	<polygon class="st2" points="92.1,275.3 92,282.2 91,338 82.2,358.4 52.1,358.8 52.1,278.5 83.5,276 	"/>
	<polygon class="st1" points="92.1,275.3 92,282.2 91,338 82.2,358.4 84.5,282.3 84.5,282.2 83.5,276 	"/>
	<polygon class="st2" points="83.5,276 92.1,275.3 92,282.2 84.5,282.2 52.1,282.6 52.1,278.5 	"/>
	<polygon class="st1" points="362.9,278.5 362.9,358.3 355.9,358.3 327.9,337.8 327.9,276.2 352.9,273.9 354.5,274.6 355.9,275.2 	
		"/>
	<rect x="355.9" y="274.6" class="st2" width="7" height="83.8"/>
	<polygon class="st2" points="362.9,274.6 362.9,279.2 355.9,279.2 327.9,279.6 327.9,276.2 352.9,273.9 354.5,274.6 355.9,275.2 
		355.9,274.6 	"/>
	<polygon class="st1" points="362.9,271.9 362.9,278.5 18.2,282.3 18.2,274 50.7,267.5 332.9,265.4 	"/>
	<polygon class="st2" points="362.9,271.9 362.9,278.5 18.2,282.3 18.2,274 	"/>
	<ellipse class="st2" cx="77" cy="269.6" rx="15.5" ry="1"/>
	<path class="st3" d="M90,231.1c-0.3,0.5-0.6,0.9-0.8,1.5c0,0.1-0.1,0.3-0.2,0.4c-0.1,0-0.2-0.1-0.3-0.1c-0.4-0.1-0.8-0.2-1.2-0.1
		c0-0.2,0-0.3,0-0.5c0-1.8-0.2-4.4-1.9-3.3c-1.7,1-0.5,2.8,0.6,3.9c0.1,0.1,0.2,0.2,0.3,0.3c-1,0.7-1.2,2.3-1.3,4s-1.6,3.6-2.5,4.6
		l-0.3,0.3c-0.8-0.6-1.8-0.9-2.8-0.7c0-0.2-0.1-0.3-0.1-0.5c-0.8-2.8-2.4-7.6-4.4-8.7l0.3-0.4c0.9-1.1,1.8-2.8,0.4-3.3
		c-1.4-0.4-1.6,1.5-1.5,2.9c0,0.2,0,0.4,0,0.5c-0.6,0-1.1,0.3-1.5,0.7c-0.1-0.1-0.2-0.2-0.2-0.3c-1.2-1.4-3.3-3.6-4-1.9
		c-0.6,1.6,1.3,3.6,2.6,4.7l0.1,0.1c-0.9,3.6,3,6.6,5.1,7.9l0.3,0.2c-2.9,3.4-4.7,9.8-4.7,9.8l8.1,1.4c0,0,5.4-4.6,4.7-9l0,0
		c5.4-1.1,6.6-6.8,5.8-10.2h0.1c1-0.4,1.8-1.1,2.5-1.9C94.7,231.4,91.6,229,90,231.1z"/>
	<path class="st2" d="M90,231.1c-0.3,0.5-0.6,0.9-0.8,1.5c0,0.1-0.1,0.3-0.2,0.4c-0.1,0-0.2-0.1-0.3-0.1c-0.4-0.1-0.8-0.2-1.2-0.1
		c0-0.2,0-0.3,0-0.5c0-1.8-0.2-4.4-1.9-3.3c-1.7,1-0.5,2.8,0.6,3.9c0.1,0.1,0.2,0.2,0.3,0.3c-1,0.7-1.2,2.3-1.3,4s-1.6,3.6-2.5,4.6
		l-0.3,0.3c-0.8-0.6-1.8-0.9-2.8-0.7c0-0.2-0.1-0.3-0.1-0.5c-0.8-2.8-2.4-7.6-4.4-8.7l0.3-0.4c0.9-1.1,1.8-2.8,0.4-3.3
		c-1.4-0.4-1.6,1.5-1.5,2.9c0,0.2,0,0.4,0,0.5c-0.6,0-1.1,0.3-1.5,0.7c-0.1-0.1-0.2-0.2-0.2-0.3c-1.2-1.4-3.3-3.6-4-1.9
		c-0.6,1.6,1.3,3.6,2.6,4.7l0.1,0.1c-0.9,3.6,3,6.6,5.1,7.9l0.3,0.2c-2.9,3.4-4.7,9.8-4.7,9.8l8.1,1.4c0,0,5.4-4.6,4.7-9l0,0
		c5.4-1.1,6.6-6.8,5.8-10.2h0.1c1-0.4,1.8-1.1,2.5-1.9C94.7,231.4,91.6,229,90,231.1z"/>
	<path class="st3" d="M73.9,233.4l-0.9,2.8c0,0-0.5-0.4-1.2-1c-1.3-1.2-3.2-3.2-2.6-4.7c0.7-1.7,2.8,0.5,4,1.9
		C73.6,233,73.9,233.4,73.9,233.4z"/>
	<path class="st3" d="M75.9,231.8c-0.3,0.4-0.6,0.7-0.9,1.1c-0.1-0.5-0.2-1-0.2-1.5c-0.1-1.4,0.1-3.3,1.5-2.9
		C77.7,229,76.8,230.7,75.9,231.8z"/>
	<path class="st3" d="M88.1,232.3c0,0.9-0.1,1.6-0.1,1.6c-0.4-0.3-0.8-0.7-1.2-1.1c-1.1-1.1-2.3-2.8-0.6-3.9
		C88,227.9,88.1,230.5,88.1,232.3z"/>
	<path class="st3" d="M93.7,233.5c-0.7,0.8-1.5,1.5-2.5,1.9c-0.3,0.1-0.5,0.2-0.8,0.3l-1.1-1.6c0.1-0.5,0.3-1,0.5-1.5s0.5-1,0.8-1.5
		C92.1,229,95.2,231.4,93.7,233.5z"/>
	<path class="st2" d="M73.1,232.5c0.5,0.5,0.8,1,0.8,1l-0.9,2.8c0,0-0.5-0.4-1.2-1c0.2-0.9,0.5-1.7,1.1-2.5
		C72.9,232.7,73,232.6,73.1,232.5z"/>
	<path class="st2" d="M75.9,231.8c-0.3,0.4-0.6,0.7-0.9,1.1c-0.1-0.5-0.2-1-0.2-1.5C75.2,231.5,75.5,231.6,75.9,231.8z"/>
	<path class="st3" d="M80.5,242.9l-2.3,1.1c-0.4-0.2-0.9-0.5-1.2-0.7c-2.5-1.5-7.5-5.4-4.1-9.9s6.1,3.6,7.2,7.6
		C80.3,242.1,80.5,242.9,80.5,242.9z"/>
	<path class="st2" d="M86.8,232.9c0.4-0.4,0.8-0.5,1.3-0.6c0,0.9-0.1,1.6-0.1,1.6C87.6,233.6,87.2,233.2,86.8,232.9z"/>
	<path class="st2" d="M91.2,235.4c-0.3,0.1-0.5,0.2-0.8,0.3l-1.1-1.6c0.1-0.5,0.3-1,0.5-1.5C90.4,233,91,234.1,91.2,235.4z"/>
	<path class="st3" d="M85.4,245.6c-0.1,0-0.3,0-0.4,0.1c-7.9,1.2-2.6-3.1-2.6-3.1s0.4-0.3,0.8-0.9c0.9-1.1,2.4-2.9,2.5-4.6
		c0.2-2.6,0.5-5,3.6-4.3S92.9,244.1,85.4,245.6z"/>
	<rect x="70.1" y="265.3" class="st4" width="15.1" height="4"/>
	<rect x="67.7" y="252.4" class="st4" width="19.7" height="13.9"/>
	<rect x="70" y="265.3" class="st2" width="15.1" height="4"/>
	<rect x="67.6" y="252.4" class="st2" width="19.7" height="13.9"/>
	<rect x="71.1" y="265.3" class="st4" width="15.1" height="4"/>
	<path class="st2" d="M80,240.9c0.4,1.2,0.5,2,0.5,2l-2.3,1.1c-0.4-0.2-0.9-0.5-1.2-0.7C77.8,242,78.9,241.2,80,240.9z"/>
	<path class="st2" d="M85.4,245.6c-0.1,0-0.3,0-0.4,0.1c-7.9,1.2-2.6-3.1-2.6-3.1s0.4-0.3,0.8-0.9C84.7,243,85.3,244.3,85.4,245.6z"
		/>
	<path class="st3" d="M72.5,253.2c0,0,4.4-15.8,10.7-11s-2.5,12.4-2.5,12.4L72.5,253.2z"/>
	<circle class="st2" cx="74.7" cy="235.8" r="0.5"/>
	<circle class="st2" cx="74.7" cy="238.1" r="0.5"/>
	<circle class="st2" cx="89.1" cy="236.2" r="0.5"/>
	<circle class="st2" cx="77.5" cy="248.1" r="0.5"/>
	<circle class="st2" cx="88.1" cy="240.1" r="0.5"/>
	<circle class="st2" cx="83" cy="245.2" r="0.5"/>
	<circle class="st2" cx="76.4" cy="236.8" r="0.5"/>
	<circle class="st2" cx="87.8" cy="237.7" r="0.5"/>
	<circle class="st2" cx="86" cy="241.6" r="0.5"/>
	<circle class="st2" cx="80.8" cy="247.8" r="0.5"/>
	<circle class="st2" cx="79.8" cy="245.3" r="0.5"/>
	<circle class="st2" cx="77.2" cy="239.8" r="0.5"/>
	<rect x="71.1" y="265.3" class="st2" width="15.1" height="1.4"/>
	<rect x="68.7" y="252.4" class="st4" width="19.7" height="13.9"/>
	<circle class="st2" cx="81.5" cy="250" r="0.5"/>
	<circle class="st2" cx="78.5" cy="250.6" r="0.5"/>
	<path class="st3" d="M125.9,305.4c0,0,2.5,3.2-1.1,8.1c-3.6,4.8-6.6,9-5.4,12c0,0,5.4-9,9.8-9.2S130.7,310.8,125.9,305.4z"/>
	<path class="st2" d="M125.9,305.4c0.2,0.3,0.4,0.7,0.5,1c4.3,5.1,6.6,9.8,2.5,9.9c-3.9,0.1-8.5,7-9.6,8.7c0,0.1,0.1,0.3,0.1,0.4
		c0,0,5.4-9,9.8-9.2C133.6,316.1,130.7,310.8,125.9,305.4z"/>
	<path class="st5" d="M130.4,309.5c0,1.1-0.1,2.1-0.3,2.1s-0.3-0.9-0.3-2.1s0.2-0.6,0.3-0.6C130.4,308.9,130.4,308.4,130.4,309.5z"
		/>
	<path class="st5" d="M132,310.9c-1,0.5-1.9,0.9-2,0.7s0.7-0.7,1.7-1.2s0.6-0.2,0.7,0C132.5,310.5,133,310.3,132,310.9z"/>
	<path class="st3" d="M112.8,305.4c0,0-2.5,3.2,1.1,8.1c3.6,4.8,6.6,9,5.4,12c0,0-5.4-9-9.8-9.2S108,310.8,112.8,305.4z"/>
	<path class="st2" d="M112.8,305.4c-0.2,0.3-0.4,0.7-0.5,1c-4.3,5.1-6.6,9.8-2.5,9.9c3.9,0.1,8.5,7,9.6,8.7c0,0.1-0.1,0.3-0.1,0.4
		c0,0-5.4-9-9.8-9.2S108,310.8,112.8,305.4z"/>
	<path class="st5" d="M108.3,309.5c0,1.1,0.1,2.1,0.3,2.1s0.3-0.9,0.3-2.1s-0.2-0.6-0.3-0.6C108.4,308.9,108.3,308.4,108.3,309.5z"
		/>
	<path class="st5" d="M106.7,310.9c1,0.5,1.9,0.9,2,0.7c0.1-0.1-0.7-0.7-1.7-1.2s-0.6-0.2-0.7,0
		C106.2,310.5,105.7,310.3,106.7,310.9z"/>
	<ellipse class="st0" cx="119.4" cy="346.1" rx="25.7" ry="3.9"/>
	<path class="st6" d="M132.6,321.1l-0.1,1l-0.2,1.4l-0.1,0.6l-0.2,1.4l-0.1,0.6l-0.2,1.4l-2,16.2c-0.2,1.4-2.5,2.6-5.4,2.6h-10.2
		c-2.8,0-5.2-1.1-5.4-2.6l-2-16.2l-0.2-1.4l-0.1-0.6l-0.2-1.4l-0.1-0.6l-0.2-1.4l-0.1-1c-0.1-0.8,1.2-1.5,2.8-1.5h20.9
		C131.4,319.7,132.7,320.3,132.6,321.1z"/>
	<polygon class="st7" points="132.5,322.2 132.3,323.6 106.4,323.6 106.2,322.2 	"/>
	<polygon class="st7" points="132.2,324.1 132.1,325.6 106.6,325.6 106.5,324.1 	"/>
	<polygon class="st7" points="132,326.2 131.8,327.6 106.9,327.6 106.7,326.2 	"/>
	<path class="st8" d="M197.5,266.3v0.8h-23.8v-0.7c3.1-1.1,5.1-4.1,5.1-7.3c0-3-1.8-5.8-4.6-7.1h23.1c-3.9,1.8-5.7,6.4-3.9,10.3
		C194.2,264.1,195.7,265.5,197.5,266.3L197.5,266.3z"/>
	<path class="st2" d="M197.3,252c-2.1,1-3.7,2.9-4.3,5.2h-14.4c-0.6-2.3-2.2-4.2-4.3-5.2L197.3,252L197.3,252z"/>
	<path class="st8" d="M146.5,248v4.5c0,2.5,1.8,4.5,4.1,4.5h69.9c2.3,0,4.1-2,4.1-4.5V248H146.5L146.5,248z"/>
	<path class="st2" d="M197.5,266.3v0.8h-23.8v-0.7c0.7-0.2,1.3-0.6,1.8-1H196C196.4,265.8,197,266.1,197.5,266.3z"/>
	<path class="st8" d="M167,265.7h37.1c0.7,0,1.2,0.5,1.2,1.2l0,0c0,0.7-0.5,1.2-1.2,1.2H167c-0.7,0-1.2-0.5-1.2-1.2l0,0
		C165.8,266.3,166.4,265.7,167,265.7z"/>
	<path class="st1" d="M224.5,198.5c0-2.3-1.8-4.1-4.1-4.1l0,0h-69.9c-2.3,0-4.1,1.8-4.1,4.1l0,0v50.3h78.1V198.5L224.5,198.5z"/>
	<path class="st3" d="M222.4,200.3v43.2c0,1.1-0.9,2-2,2l0,0h-69.8c-1.1,0-2-0.9-2-2l0,0v-43.2c0-0.4,0.1-0.7,0.3-1
		c0.4-0.6,1-1,1.8-1h69.8C221.5,198.3,222.4,199.2,222.4,200.3z"/>
	<circle class="st9" cx="185.5" cy="196.4" r="0.9"/>
	<circle class="st9" cx="185.5" cy="252.6" r="2.3"/>
	<path class="st9" d="M222.4,200.3h-73.8c0-1.1,0.9-2,2-2l0,0h69.8C221.5,198.3,222.4,199.2,222.4,200.3L222.4,200.3z"/>
	<circle class="st10" cx="150.6" cy="199.3" r="0.5"/>
	<circle class="st10" cx="152.1" cy="199.3" r="0.5"/>
	<circle class="st10" cx="153.6" cy="199.3" r="0.5"/>
	
		<linearGradient id="SVGID_1_" gradientUnits="userSpaceOnUse" x1="1160.4512" y1="302.9719" x2="1160.4512" y2="584.2599" gradientTransform="matrix(-1 0 0 -1 1450.01 720.86)">
		<stop  offset="0" style="stop-color:#808080;stop-opacity:0.25"/>
		<stop  offset="0.54" style="stop-color:#808080;stop-opacity:0.12"/>
		<stop  offset="1" style="stop-color:#808080;stop-opacity:0.1"/>
	</linearGradient>
	<path class="st11" d="M233.2,287.9c0,0,4.7,1.9,10.4,4.2c0.2,0.7,0.4,1.3,0.5,2c0.1,1.3,2.7,3.2,2.7,3.2s4.9,0.9,8.5,1.9
		c2.8,0.8,3.2-0.8,2.9-1.4l0.9,0.3c0.2,7.9,0.4,13.7,0.4,13.7s1.2,0,3.2,0.1c0,0.2,0,0.5,0.1,0.8c0.7,7.8,2.1,20.7,3.2,21.7
		c1.6,1.5,0.9,12.6,0.3,14.6s0,16.1,0,16.1s2.4,8.7,2.2,18.1c-0.2,9.4,2.6,14.4,2.6,14.4l1,0.1c0,0.3,0,0.5,0,0.8
		c0,0.9-0.1,1.7-0.1,2.5c-0.1,1.2-0.5,2.3-1.2,3.3c-1.6,2.3-2.7,5-3.3,7.7c-0.1,0.6-0.2,1.2-0.2,1.9c0,0.2,0,0.2,0,0.2
		s0.9,2.8,9.7,3.7c8.8,0.9,7.5-5.4,7.5-5.4s0-0.2,0.1-0.5c0.4-2.1,0.4-4.3,0-6.5c-0.3-1.7,0-4.6,0.4-7.3c0-0.3,0.1-0.5,0.1-0.8
		c0.7-0.2,1.4-0.5,2-0.9c2.7-2.5,0-22.4,0-22.4s-5-16.3-3.7-18.7c1.2-2.4,2.6-8.1,2.6-8.1v-19.9c2-3.2,2.8-7.5,3.2-11.4
		c0-0.3,0-0.5,0.1-0.8c1.6,0,3.2,0,4.6-0.1l0.4,0.8c2.3,4.4,4.6,8.9,5.2,9.5c1.2,1.4,0.2,7.7,0,10.8s2.2,9.4,2.2,9.4
		c-3,1.8-3.6,22.6-3.6,22.6s2.2,5.1-2.4,10.8c-4.6,5.7-2.8,16.5-2.2,16.1c0.2-0.1,1.1,0,2.5,0.3c-0.2,0.9-0.7,1.8-1.3,2.5
		c-1.5,1.9-2,4.8-2.1,7.1c-0.1,1.2-0.1,2.4,0,3.6l3.4,2.3c0,0,2.1,0,2.1,1.8s5.1,3.7,5.1,3.7s7.6,2.1,13.4,0
		c1.9-0.7,2.5-1.8,2.3-3.3c-0.5-3-4.4-7-7.3-10c-1.9-2-2.8-4.6-3.2-6.9c0-0.2-0.1-0.5-0.1-0.7c0.2-0.1,0.4-0.3,0.6-0.5
		c2.4-3,5-11,5-11s-1.2-8.2,1.4-15.7c2-5.5,4.3-18.5,5.4-24.9c0.4-2.3,0.5-4.6,0.2-7c-0.5-4.6-1.3-13.2-1-20.1
		c0.1-2.2,0-5.7-0.1-9.9v-0.1c1.4-2.7,4.5-7.1,9.7-7.5c7.5-0.5,3.6-4.6,3.6-4.6s-4.4-30.9-7.3-36.4c0-0.1-0.1-0.2-0.2-0.3
		c-0.4-0.7-0.9-2.1-1.4-3.9c-2.8-10.5-6.5-36.6-6.5-36.6l-0.5-6.3c4.5,2.2,12.8,6.2,16.2,7.4c4.7,1.6,11.2,0.6,12.8-4.8
		s-5.1-16.2-5.1-16.2c-1-3.9-7.8-11.9-11.4-15.9c-0.4-0.5-0.7-1-1-1.5c-0.9-1.4-1.8-2.6-2.3-3.3v0.1c-0.1-0.2-0.2-0.4-0.4-0.5
		l-0.1,0.2c-1.3-2.3-2.7-4.8-3.8-6c-2.6-3-13.8-6.2-14.9-5.3c-0.8,0.6,2.5,3.5,4.9,5.2l-2.2-1.5l-5.2-4.1l-2.2-1.5
		c-0.1-0.1-0.2-0.1-0.3-0.2c1.2-4.6,0.2-9.4-2.5-13.2c-0.2-0.2-0.3-0.4-0.5-0.6c2.3-1.9,3-5.1,3-7.9v-0.1c-0.2-1.1-0.6-2-1.3-2.8
		c0,0.1,0.1,0.2,0.1,0.2c-0.8-1.1-2.1-1.7-3.4-1.7c-2,0-3.6,1.2-5.3,2.1c-3.6,1.8-7.7,1.9-11.4,0.4c-1.1-0.5-2.1-1.1-3.3-1
		s-2.1,0.8-2.8,1.6c-1.9,1.8-3.4,4-4.3,6.4c-0.3,0.7-0.5,1.4-1.1,2c-0.4,0.4-0.9,0.7-1.4,0.9c-1.7,1.1-2.9,2.8-3.3,4.8
		s-0.2,3.9,0.6,5.8c0.5,1.3,1.2,2.4,2.1,3.4c0.7,0.7,1.6,1.2,2.4,1.8c0.4,0.3,0.7,0.6,1,0.9c-3.5,0.8-6.7,2.5-9.2,5.1
		c-1.9,1.8-3.5,3.9-4.7,6.3c-3.3,6.1-5.3,9.9-6.4,12.4c-0.6,0.2-0.9,0.3-0.9,0.3s-4.4,3.9-4.4,15.2l0,0l-3.4,22.5V239
		c0,0-4.4,12.5-3.7,22.9c0,0.2,0,0.3,0,0.4l-0.4,1.8c-0.5,0.7-0.8,1.7-0.8,2.6c0,0.3,0,0.6,0.1,0.9l-1.8,8.9l0.4,0.4l-0.9,2.6
		C231.3,284.9,233.2,287.9,233.2,287.9z M259,224.7c0.2,0.2,0.4,0.2,0.4,0.2s2,17.5,0.8,27.9l-4.1-0.3l-2-0.6l0.7-5.5
		C254.8,246.3,257.3,231.7,259,224.7L259,224.7z M275.2,174l0.4-0.6c-0.1,0.2-0.2,0.4-0.2,0.6H275.2z M256.6,252.7l2.1,0.2l1.4,0.3
		c0,0.2,0,0.4-0.1,0.5L256.6,252.7z M302.3,177.2c0-0.2,0-0.4,0-0.6l1.7,1l0.1,0.1C303.5,177.5,302.9,177.3,302.3,177.2L302.3,177.2
		z M315.3,184.9c-0.2-0.4-0.5-0.7-0.7-1.1c1.2,0.3,1.9,0.4,1.9,0.4c0.9-0.2,1.9-0.1,2.8,0.3c0.3,0.6,0.6,1.1,1,1.7l3.1,6
		c0,0-0.7,0.1-2-0.6C319.9,191,315.3,184.9,315.3,184.9z M256.7,297.3l1,0.4l0,0C257.5,297.7,257.1,297.5,256.7,297.3z"/>
	<path class="st12" d="M290.1,169c1.2,0.7,1.3,3.9,1.1,6.4c-0.1,1.8-0.4,3.3-0.4,3.3l8.1,19.6c0,0,3-14,3-20.2c0-0.5-0.1-1-0.2-1.4
		C300.3,172.2,292.4,169.7,290.1,169z"/>
	<path class="st12" d="M289.5,168.9c0,0,0.2,0,0.6,0.2C290,168.9,289.8,168.8,289.5,168.9z"/>
	<path class="st12" d="M292.3,407.7l3.2,2.3c0,0,2,0,2,1.8s5,3.6,5,3.6s7.3,2.1,13,0c1.8-0.7,2.4-1.8,2.2-3.2
		c-0.5-2.9-4.3-6.9-7.1-9.9c-1.9-2-2.7-4.6-3.1-6.9c-0.3-1.6-0.4-3.3-0.2-5l-11.9-0.9c0.7,1.8,0.7,3.8,0,5.6
		c-0.3,0.6-0.6,1.2-1.1,1.8c-1.4,1.8-2,4.7-2.1,7C292.3,405.3,292.3,406.5,292.3,407.7z"/>
	<path class="st12" d="M267.9,413.1c0,0,0.9,2.7,9.4,3.6s7.3-5.4,7.3-5.4s0-0.2,0.1-0.5c0.4-2.1,0.4-4.3,0-6.4
		c-0.3-1.7,0-4.6,0.3-7.2c0.4-3.2,1.1-6,1.1-6l-13.2,1c0,0-0.2,2.7-0.4,5.4c0,0.9-0.1,1.7-0.1,2.5c-0.1,1.2-0.5,2.3-1.1,3.2
		c-1.6,2.3-2.7,4.9-3.2,7.6c-0.1,0.6-0.2,1.2-0.2,1.9C267.9,413.1,267.9,413.1,267.9,413.1z"/>
	<path class="st12" d="M292.3,407.7l3.2,2.3c0,0,2,0,2,1.8s5,3.6,5,3.6s7.3,2.1,13,0c1.8-0.7,2.4-1.8,2.2-3.2c-0.2,0-0.4,0-0.5,0
		c-2.3,0.1-4.6,0.7-6.9,0.9c-1.3,0.1-2.6,0.1-3.9,0.1c-0.7,0-1.3,0-2-0.2c-1.6-0.3-3-1.1-4.4-1.9c-0.4-0.2-0.6-0.4-0.9-0.7
		c-0.2-0.3-0.3-0.7-0.4-1.1c-0.5-1.8-1.9-3.2-3.4-4.1c-1-0.5-2-1-3-1.3C292.3,405.3,292.3,406.5,292.3,407.7z"/>
	<path class="st12" d="M267.9,413.1c0,0,0.9,2.7,9.4,3.6s7.3-5.4,7.3-5.4s0-0.2,0.1-0.5c-0.4,0.2-0.7,0.4-0.9,0.5
		c-0.8,0.5-1.5,1.1-2.3,1.5c-2,1-4.3,0.7-6.5,0.4c-1.1-0.2-2.1-0.3-3.1-0.5c-0.8-0.1-1.6-0.4-2.3-0.7c-0.5-0.3-1.1-0.7-1.5-1.1
		c-0.1,0.6-0.2,1.2-0.2,1.9C267.9,413.1,267.9,413.1,267.9,413.1z"/>
	<path class="st2" d="M292.3,407.7l3.2,2.3c0,0,2,0,2,1.8s5,3.6,5,3.6s7.3,2.1,13,0c1.8-0.7,2.4-1.8,2.2-3.2c-0.2,0-0.4,0-0.5,0
		c-2.3,0.1-4.6,0.7-6.9,0.9c-1.3,0.1-2.6,0.1-3.9,0.1c-0.7,0-1.3,0-2-0.2c-1.6-0.3-3-1.1-4.4-1.9c-0.4-0.2-0.6-0.4-0.9-0.7
		c-0.2-0.3-0.3-0.7-0.4-1.1c-0.5-1.8-1.9-3.2-3.4-4.1c-1-0.5-2-1-3-1.3C292.3,405.3,292.3,406.5,292.3,407.7z"/>
	<path class="st2" d="M267.9,413.1c0,0,0.9,2.7,9.4,3.6s7.3-5.4,7.3-5.4s0-0.2,0.1-0.5c-0.4,0.2-0.7,0.4-0.9,0.5
		c-0.8,0.5-1.5,1.1-2.3,1.5c-2,1-4.3,0.7-6.5,0.4c-1.1-0.2-2.1-0.3-3.1-0.5c-0.8-0.1-1.6-0.4-2.3-0.7c-0.5-0.3-1.1-0.7-1.5-1.1
		c-0.1,0.6-0.2,1.2-0.2,1.9C267.9,413.1,267.9,413.1,267.9,413.1z"/>
	<path class="st2" d="M295.5,389.7c0.7,1.8,0.7,3.8,0,5.6c3.4,0.6,9.8,1.8,12.1,0.2c-0.3-1.6-0.4-3.3-0.2-5L295.5,389.7z"/>
	<path class="st2" d="M272.5,397.7c2.4,0.2,8.9,0.5,12.5-0.4c0.4-3.2,1.1-6,1.1-6l-13.2,1C272.9,392.3,272.7,395,272.5,397.7z"/>
	<path class="st13" d="M263,306.7c0,0,0.2,2.5,0.5,5.9c0.7,7.8,2.1,20.6,3.1,21.6c1.5,1.5,0.9,12.6,0.3,14.5c-0.6,2,0,16,0,16
		c1.5,5.9,2.2,11.9,2.1,17.9c-0.2,9.4,2.5,14.2,2.5,14.2s12.9,1.2,15.5-1.3c2.7-2.5,0-22.3,0-22.3s-4.8-16.2-3.7-18.5
		c1.2-2.3,2.5-8,2.5-8V327c1.9-3.1,2.7-7.4,3.1-11.3c0.3-3.3,0.3-6.7,0-10c0,0,2.4,5,4.9,9.9c2.2,4.4,4.5,8.8,5.1,9.4
		c1.2,1.4,0.2,7.6,0,10.7s2.1,9.4,2.1,9.4c-2.9,1.8-3.5,22.4-3.5,22.4s2.1,5.1-2.3,10.7s-2.7,16.4-2.1,16s12.5,2.9,14.8,0
		s4.9-10.9,4.9-10.9s-1.2-8.2,1.4-15.6c1.9-5.5,4.2-18.4,5.3-24.7c0.4-2.3,0.4-4.6,0.2-6.9c-0.5-4.6-1.2-13.1-1-19.9
		c0.1-2.2,0-5.7-0.1-9.8c-0.5-14.1-2-35.2-2-35.2L306,264l-6.9-4.7l-1.7,0.3l-31.8,4.9l-1.2,15.7L263,306.7z"/>
	<path class="st2" d="M306.1,264l0.5,3.1c0,0,4.7,22.4,5.7,33.9s5.1,8.2,5.1,8.2c0.4-1,0.8-1.9,1.3-2.8c-0.5-14.1-2-35.2-2-35.2
		L306.1,264z"/>
	<path class="st14" d="M272.6,178.9c0,0,21.8,17.5,17.8,14c-2.2-1.9-0.7-10.1,1.1-17.2c1.5-5.8,3.2-10.8,3.2-10.8
		s-19.1-17.8-17.7-3.2c0.5,5.1,0.1,8.8-0.7,11.4C275.1,177.8,272.6,178.9,272.6,178.9z"/>
	<path class="st2" d="M274.5,174.3l13.8,10.8l4-4.5c0,0,3.4-1.5,3.7,0.2c0.3,1.7,1.2,12.1-0.8,13.1s-4.6,1.6-6.9,1.3
		c-2.3-0.4-4.8-2.8-6.5-3.8s-7.9-6-7.9-6l-3.1-4.4L274.5,174.3z"/>
	<path class="st15" d="M274.5,174.7l13.8,10.8l4-4.5c0,0,3.4-1.5,3.7,0.2c0.3,1.7,1.2,12.1-0.8,13.1s-4.6,1.6-6.9,1.3
		c-2.3-0.4-4.8-2.8-6.5-3.8s-7.9-6-7.9-6l-3.1-4.4L274.5,174.7z"/>
	<path class="st2" d="M263,306.7c0,0,0.2,2.5,0.5,5.9c4.3,0.2,12.6,0.7,18.5,2.2c2.3,0.6,4.7,0.9,7.1,0.9c0.3-3.3,0.3-6.7,0-10
		c0,0,2.4,5,4.9,9.9c2.1-0.2,4.2-0.4,6.3-0.8l-2.6-33.8c0,0,0.1-11.4-0.4-21.4l-31.8,5l-1.2,15.7L263,306.7z"/>
	<path class="st2" d="M287,184.2c0,0-9.5-10.3-11.7-8.7s-3.7,5.7-3.7,5.7l7.7,8.5L287,184.2z"/>
	<path class="st15" d="M286.6,183.8c0,0-9.5-10.3-11.7-8.7s-3.7,5.7-3.7,5.7l7.7,8.5L286.6,183.8z"/>
	<path class="st2" d="M294.4,190.4l-5.5-6.9c0,0,0.9-6.5,2.8-5.7c2,0.8,2.6,4.1,2.6,4.1v8.5H294.4z"/>
	<path class="st15" d="M294.8,190l-5.4-6.9c0,0,0.9-6.5,2.8-5.7c2,0.8,2.6,4.1,2.6,4.1V190L294.8,190z"/>
	<path class="st2" d="M269.8,177.7c0,0,11.2,12.1,17.9,12.9c0.6,0.1,1.2,0.2,1.8,0.3c1.8,0.4,5.5,0,5-10l0.9-1.8l5.2,3.2l1.8,14.3
		l3.1,36.7l4.6,40.8c0,0-14.2-1.4-18.1,2.2c-4,3.6-5.1-19.5-5.1-19.5L276.1,210l-11.8-30L269.8,177.7z"/>
	<path class="st2" d="M264.3,181.5l11.6,30.1l10.8,46.8c0,0,1.1,23.1,5.1,19.5c1.3-1.2,3.7-1.8,6.3-2.1c3.2-0.4,6.5-0.4,9.7-0.2
		c1.3,0.1,2.1,0.2,2.1,0.2l-4.6-40.8l-3.1-36.7l-1.8-14.3l-5.2-3.2l-0.9,1.8c0,0.3,0,0.5,0,0.8c0.4,9.2-3.3,9.6-5,9.2
		c-0.6-0.1-1.2-0.2-1.8-0.3c-4.7-0.6-11.7-6.8-15.4-10.4c-1.5-1.5-2.5-2.5-2.5-2.5L264.3,181.5z"/>
	<path class="st3" d="M264.3,180.3l11.6,30.1l10.8,46.8c0,0,1.1,23.1,5.1,19.5c1.3-1.2,3.7-1.8,6.3-2.1c3.2-0.4,6.5-0.4,9.7-0.2
		c1.3,0.1,2.1,0.2,2.1,0.2l-4.6-40.8l-3.1-36.7l-1.8-14.3l-5.2-3.2l-0.9,1.8c0,0.3,0,0.5,0,0.8c0.4,9.2-3.3,9.6-5,9.2
		c-0.6-0.1-1.2-0.2-1.8-0.3c-4.7-0.6-11.7-6.8-15.4-10.4c-1.5-1.5-2.5-2.5-2.5-2.5L264.3,180.3z"/>
	<path class="st2" d="M294.4,181.3c0,0.3,0,0.5,0,0.8l0.1,0.1c1.4,0.9,3.6,16.2,3.6,16.2l2.8,38.9l5.3,29.1c0,0,0.7,3.3,1.6,8
		c1.3,0.1,2.1,0.2,2.1,0.2l-4.6-40.8l-3.1-36.7l-1.8-14.3l-5.2-3.2L294.4,181.3z"/>
	<path class="st12" d="M290.8,178.7c0,0,3.1,2.5,4.5,3.4s3.6,16.2,3.6,16.2l2.8,38.9l5.3,29.1c0,0,4.7,22.4,5.7,33.9
		s5.1,8.2,5.1,8.2s3-9,10.3-9.5s3.5-4.6,3.5-4.6s-4.3-30.7-7.1-36.2c0-0.1-0.1-0.2-0.2-0.3c-0.4-0.7-0.9-2-1.4-3.8
		c-2.8-10.5-6.3-36.3-6.3-36.3l-2.2-32c-5.6-9.2-23.2-8.9-23.2-8.9L290.8,178.7z"/>
	<path class="st2" d="M264.3,180.3l11.6,30.1l10.8,46.8c0,0,1.1,23.1,5.1,19.5c1.3-1.2,3.7-1.8,6.3-2.1c0-7.9-0.3-22.2-1.4-28.2
		c-1-5.5-1.4-11-1.2-16.6L281.3,199c0,0-10.7-13.1-10.7-15c0-0.7,0.7-2,1.7-3.4c-1.5-1.5-2.5-2.5-2.5-2.5L264.3,180.3z"/>
	<path class="st12" d="M299.9,314l-2.6-33.8c0,0,0.2-25.2-1.4-33.7c-1-5.5-1.4-11-1.2-16.6L280.5,199c0,0-10.7-13.1-10.7-15
		c-0.1-1.9,5.6-8.2,5.6-8.2s-12.3,1.4-14,7c-1.6,5.5-10.5,7.7-10.5,7.7s-4.3,3.9-4.2,15.1c0.1,11.2,13.7,20,13.7,20
		s2.3,21.1,0.3,30.5c-2,9.5-0.3,55.7-0.3,55.7s13.1,0.1,21.3,2.3S299.9,314,299.9,314z"/>
	<path class="st16" d="M280.7,260.4l-10,37.9c0,0-1.4,3.4-8.4,0.8s-27.4-11-27.4-11s-1.8-3,1.6-8.5l10.2-29.9L280.7,260.4z"/>
	<polygon class="st17" points="267.8,277.1 251.6,259.3 241.2,255.1 237,276.5 256.6,297.9 	"/>
	<path class="st14" d="M250.4,283.1c0,0,4.8,2.8,6.1,2.9c1.3,0.1,5.7,8.5,3.9,8.5c-1.9-0.1-6.3-2.3-5.9-1.2c0.4,1.2,3.3,4.7,4.1,4.3
		s1.2,2.6-2.3,1.6c-3.6-1-8.3-1.9-8.3-1.9s-2.5-1.9-2.7-3.2c-0.1-1.3-2.3-8.2-2.3-8.2L250.4,283.1z"/>
	<path class="st14" d="M327.7,183.2c0,0-4.2-9-6.7-12s-13.3-6.2-14.4-5.3s5.5,5.8,6.6,6.4c1.2,0.6-7.6,6.5-7.7,6.6s-6.8-0.6-3.4,1.6
		c3.4,2.2,13.5,4.5,13.5,4.5c1.4-0.2,2.8,0.1,3.9,0.9C321.5,187.5,327.7,183.2,327.7,183.2z"/>
	<path class="st2" d="M241,283.5c0.5,1.8,1.3,3.6,2.2,5.2c1-0.9,10.3-3.9,10.3-3.9l-1.1-1.6l-1.7-2.6c0,0-8.3-1.8-9.7,0
		C240.6,281.2,240.7,282.3,241,283.5z"/>
	<path class="st15" d="M240.6,283.1c0.5,1.8,1.3,3.6,2.2,5.2c1-0.9,10.3-3.9,10.3-3.9l-1.1-1.6l-1.7-2.6c0,0-8.3-1.8-9.7,0
		C240.3,280.8,240.3,281.9,240.6,283.1z"/>
	<path class="st2" d="M318.2,185.2c0.3,0.7,0.7,1.3,1.1,1.9c1.5,2.4,3.8,5.1,3.8,5.1s8.9-4.1,8.9-4.3s-2.7-4.4-4.9-7.8
		c-0.9-1.4-1.7-2.5-2.2-3.2c0,0-3.3,6.9-6.6,7C317.4,184,317.8,184.4,318.2,185.2z"/>
	<path class="st15" d="M318.6,185.6c0.3,0.7,0.7,1.3,1.1,1.9c1.5,2.4,3.8,5.1,3.8,5.1s8.9-4.1,8.9-4.3s-2.7-4.4-4.9-7.8
		c-0.9-1.4-1.7-2.5-2.2-3.2c0,0-3.3,6.9-6.6,7C317.8,184.4,318.2,184.8,318.6,185.6z"/>
	<polygon class="st16" points="268.6,257.2 269.7,253.7 253.7,252.6 259.7,253.3 267.3,254.9 266.7,257.2 	"/>
	<path class="st2" d="M240.6,283.1c1.8-0.8,6.5-2.6,11.5-0.4l-1.7-2.6c0,0-8.3-1.8-9.7,0C240.3,280.8,240.3,281.9,240.6,283.1z"/>
	<path class="st12" d="M239.7,262c0,0.6,0.1,1.1,0.1,1.7c0.1,1.7,0.2,3.4,0.2,5.1c0.2,7.6-0.1,13.9-0.1,13.9s6-3.6,12.5-0.6
		l0.7-12.3v-0.2l0.7-5.4l2.1-17.4c0,0,4-24.2,5.3-25.1c1.2-0.9-9.2-20.5-9.2-20.5l-5.3,4.4l-3.3,22.4v11.4
		C243.3,239.3,239,251.8,239.7,262z"/>
	<path class="st2" d="M318.4,185.1l1.2,2.5c1.5,2.4,3.8,5.1,3.8,5.1s8.9-4.1,8.9-4.3s-2.7-4.4-4.9-7.8c-0.7-0.8-1.1-1.2-1.1-1.2
		C328.9,185.9,318.4,185.1,318.4,185.1z"/>
	<path class="st12" d="M310.9,183.9l3.6,1.8c0,0,4.5,6,5.8,6.7s2,0.6,2,0.6l-3.8-7.6c0,0,10.5,0.9,7.9-5.6c0,0,11.8,12.9,13.1,18.1
		c0,0,6.5,10.8,5,16.1c-1.6,5.3-7.9,6.4-12.4,4.8c-4.5-1.6-18.5-8.8-18.5-8.8L310.9,183.9z"/>
	<path class="st2" d="M323.9,196.6c0,0,9.8,11,9.1,12.5C332.2,210.6,324.4,198.8,323.9,196.6z"/>
	<path class="st18" d="M279.6,167c0,0-13.8-4.2-21.6,10.8c-7.8,15-8.1,16.1-7.7,16.8s15.5-3.2,16.4-1.5c0.9,1.8-8.6,9-8.6,9
		l36.6,27.7l-15.3-32.6c-1-2.3-2.4-4.4-4.1-6.3c-2.5-2.8-6-7.1-4.8-8.5c1.1-1.2,2.8-4.2,5.1-7.7C277.3,172.2,280,169.2,279.6,167z"
		/>
	<path class="st12" d="M280,166.7c0,0-13.8-4.2-21.6,10.8c-7.8,15-8.1,16.1-7.7,16.8s15.5-3.2,16.4-1.5c0.9,1.8-8.6,9-8.6,9
		l36.2,28.1l-14.9-33c-1-2.3-2.4-4.4-4.1-6.3c-2.5-2.8-6-7.1-4.8-8.5c1.1-1.2,2.8-4.2,5.1-7.7C277.7,171.8,280.4,168.8,280,166.7z"
		/>
	<path class="st2" d="M280,166.7c0,0-13.8-4.2-21.6,10.8c-7.8,15-8.1,16.1-7.7,16.8s15.5-3.2,16.4-1.5c0.9,1.8-8.6,9-8.6,9
		l36.2,28.1L279,195.2c-0.6-1.3-1.4-2.6-2.4-3.7c-2.5-2.7-7.1-8-5.7-9.5c1.1-1.2,2.8-4.2,5.1-7.7C277.7,171.8,280.4,168.8,280,166.7
		z"/>
	<circle class="st13" cx="277.2" cy="232.6" r="2.8"/>
	<circle class="st13" cx="277.2" cy="250.4" r="2.8"/>
	<path class="st12" d="M240.1,268.8c1.6,0.4,9.4,0.2,13,1v-0.2l0.7-5.4c-4-0.5-12.7-1.4-13.9-0.5C238.3,265,238.1,268.4,240.1,268.8
		z"/>
	<path class="st2" d="M240.1,269.2c1.6,0.4,9.4,0.2,13,1V270l0.7-5.4c-4-0.5-12.7-1.4-13.9-0.5C238.3,265.4,238.1,268.7,240.1,269.2
		z"/>
	<path class="st2" d="M240.1,268.8c1.6,0.4,9.4,0.2,13,1v-0.2l0.7-5.4c-4-0.5-12.7-1.4-13.9-0.5C238.3,265,238.1,268.4,240.1,268.8z
		"/>
	<circle class="st13" cx="241.7" cy="266.2" r="1.7"/>
	<path class="st19" d="M274.3,273.1L267,298c0,0-2,0.9-2-0.7S274.3,273.1,274.3,273.1z"/>
	<path class="st2" d="M277.1,171.9c0.5,0.4,0.9,0.7,1.4,1c2.5,1.6,4.7,3.7,7.8,3.7c1.8,0,3.5-0.3,5.1-0.9c1.5-5.8,3.2-10.8,3.2-10.8
		s-19.1-17.8-17.7-3.2C277.5,166.8,277.8,169.3,277.1,171.9z"/>
	<path class="st14" d="M270.4,159.8c0,8.9,7.2,16,16,16s16-7.2,16-16c0-8.9-7.2-16-16-16l0,0c-8.8,0-16,7.1-16,15.9
		C270.4,159.7,270.4,159.7,270.4,159.8z"/>
	<path class="st17" d="M295.5,173.2c0.2,0.4,0.4,0.7,0.7,0.9l2.5,1.6l4.8,2.9l7.5,4.6c0.2,0.1,0.4,0.2,0.5,0.3
		c1.8,0.9,3.9,0.9,5.7,0.1c1.4-0.6,2.4-1.8,2.7-3.3c0.4-2.1-0.4-4.2-2-5.5c0,0-0.1-0.1-0.2-0.1c-1.6-0.5-3.1-1.2-4.4-2.2l-4.7-3.3
		l-4.2-3.9l-2.1-1.5c-0.6-0.4-1.5-0.5-2.1-0.1C297.9,165,293.5,168.3,295.5,173.2z"/>
	<path class="st15" d="M298.8,175.6l4.8,2.9c1-4,3.5-6.8,5.7-8.9l-4.8-4.3C300.7,167.1,299.2,173.2,298.8,175.6z"/>
	<path class="st2" d="M311.6,183.3c1.8,0.9,3.9,0.9,5.7,0.1c1.4-0.6,2.4-1.8,2.7-3.3c0.4-2.1-0.4-4.2-2-5.5c-1.2,0.5-2.3,1.2-3.2,2
		c-1.3,1.2-2.3,2.7-2.8,4.4C311.7,181.8,311.6,182.6,311.6,183.3z"/>
	<path class="st2" d="M270.4,159.8c0,2.3,0.5,4.6,1.5,6.7c1,1,1.7,2.1,2.1,3.4c1.1,1.3,1.5,2.1,3,3c0.6-0.6,1.9-1,2.1-1.8
		c0.6-2,0.3-4.2,0.2-6.4c0-0.9,0.1-2.1,1-2.5c0.7-0.4,1.6-0.1,2.2,0.3s1.4,0.9,2.1,1c1.2,0.1,2.2-0.7,2.9-1.7s1.1-2.1,1.6-3.1
		c0.8-1.3,2-2.3,3.2-3.3c1.4-1.1,2.7-2.4,4.1-3.4c0.9-0.6,1.9-0.9,2.8-1.5l0.1-0.1c-5.1-7.2-15.1-8.9-22.3-3.8
		C272.9,149.7,270.4,154.6,270.4,159.8L270.4,159.8z"/>
	<path class="st20" d="M301.9,142.1c-0.4-2.3-2.2-4.4-4.5-4.4c-1.9,0-3.5,1.2-5.1,2.1c-3.4,1.8-7.5,1.9-11.1,0.4
		c-1-0.5-2.1-1.1-3.2-0.9c-1.1,0.1-2,0.8-2.8,1.6c-1.8,1.8-3.2,4-4.2,6.4c-0.3,0.7-0.5,1.4-1.1,2c-0.4,0.4-0.9,0.6-1.3,0.9
		c-1.6,1.1-2.8,2.8-3.2,4.8c-0.4,2-0.2,3.9,0.6,5.8c0.4,1.2,1.2,2.4,2.1,3.3c0.7,0.7,1.6,1.2,2.3,1.8c2.5,2.1,3.7,5.3,3.1,8.5
		c2.1,0.5,4.1-1.4,4.7-3.4s0.3-4.2,0.2-6.4c0-0.9,0.1-2.1,1-2.5c0.7-0.4,1.6-0.1,2.2,0.3s1.4,0.9,2.1,1c1.2,0.1,2.2-0.7,2.9-1.7
		c0.7-1,1-2.1,1.6-3.1c0.8-1.3,2-2.3,3.2-3.3c1.4-1.1,2.7-2.4,4.1-3.4c0.9-0.6,1.9-0.9,2.8-1.5C301.2,148.4,301.9,145,301.9,142.1z"
		/>
	<path class="st2" d="M289.5,168.9c0,0,0.2,0,0.6,0.2C290,168.9,289.8,168.8,289.5,168.9z"/>
	<g class="st21">
		<path d="M277.5,169.5c0.6-2,0.3-4.2,0.2-6.4c0-0.9,0.1-2.1,1-2.5c0.7-0.4,1.6-0.1,2.2,0.3c0.7,0.4,1.4,0.9,2.1,1
			c1.2,0.1,2.2-0.7,2.9-1.7c0.7-1,1-2.1,1.6-3.1c0.8-1.3,2-2.3,3.2-3.3c1.4-1.1,2.7-2.4,4.1-3.4c0.9-0.6,1.9-0.9,2.8-1.5
			c2.6-1.8,3.4-5.2,3.4-8.2c-0.1-0.5-0.3-1.1-0.5-1.6c0.7,0.8,1.1,1.8,1.3,2.8c0,3-0.8,6.3-3.4,8.2c-0.9,0.6-1.9,0.9-2.8,1.5
			c-1.4,1-2.8,2.3-4.1,3.4c-1.2,1-2.4,2-3.2,3.3c-0.6,1-1,2.1-1.6,3.1c-0.7,1-1.7,1.8-2.9,1.7c-0.8-0.1-1.4-0.6-2.1-1
			s-1.6-0.7-2.2-0.3c-0.8,0.5-1,1.6-1,2.5c0,2.1,0.4,4.3-0.2,6.4c-0.6,2.1-2.6,3.9-4.7,3.4c0.1-0.4,0.1-0.7,0.1-1.1
			C275.5,172.8,277,171.3,277.5,169.5z"/>
		<path d="M267.4,162.6c0.7,0.7,1.6,1.2,2.3,1.8c0.8,0.7,1.5,1.5,2,2.5c-0.4-0.5-0.8-0.9-1.2-1.3c-0.7-0.6-1.6-1.1-2.3-1.8
			c-0.6-0.5-1.1-1.2-1.4-1.9C267,162.1,267.2,162.4,267.4,162.6z"/>
	</g>
	<path class="st2" d="M289,301.8c0.3,0.9,0.7,1.7,0.7,2.6c0.1,1.5-0.8,2.9-0.9,4.4c-0.1,1.8,1,3.4,2,4.8c-1.2,0-2.5-0.4-3.2-1.5
		c-0.2-0.4-0.4-0.8-0.5-1.3c-1.1-4.4-2.2-9.2-0.3-13.3c0.3-0.7,0.7-1.4,1.3-1.9C288.6,297.7,288.3,299.8,289,301.8z"/>
	<path class="st2" d="M319.5,270.7l3.2-4.4c0.8-1.1,1.6-2.1,1.9-3.4c0.3-1.4,0-2.9-0.1-4.3c0-0.2,0-0.3,0-0.5c0-0.1-0.1-0.2-0.2-0.3
		c-0.4-0.7-0.9-2-1.4-3.9c-0.5,0.5-0.9,1.1-1.1,1.7c-1.5,3.7-0.1,8-1.4,11.8C320.2,268.6,319.6,269.6,319.5,270.7z"/>
	<path class="st2" d="M311.3,403.1c-3.2,2.3-7.3,3.1-11.2,2.2"/>
	<path class="st2" d="M284.4,403.8c-3.3,3.1-8.5,2.9-11.6-0.4c-0.1-0.1-0.2-0.3-0.4-0.4"/>
	<path class="st2" d="M301.5,345c3.2,0.7,6.5-0.7,8.1-3.6"/>
	<path class="st2" d="M283.1,354.8c-2.5,0.2-4.9-0.5-6.9-1.9"/>
	<path class="st2" d="M295.7,378.4c2.1,0.9,3.9,2.1,6,3.1c2,1,4.4,1.6,6.5,0.9"/>
	<ellipse class="st1" cx="183.3" cy="374.6" rx="33.2" ry="9.6"/>
	<ellipse class="st2" cx="183.3" cy="371.5" rx="6.6" ry="1.9"/>
	<rect x="179.7" y="321" class="st1" width="6.8" height="50.5"/>
	<path class="st2" d="M186.5,323.5v5.9c-1.4-0.4-4.5-2.2-6.8-3.6V321h1.4L186.5,323.5z"/>
	<path class="st4" d="M170.4,299c0,0,22.5-5.8,28.2-10.1c5.6-4.3,27.6,16.1,24.7,23.8c-2.9,7.7-13.5,13.3-13.5,13.3
		s-29.3,4.8-34.3-5.2C170.5,310.8,170.4,299,170.4,299z"/>
	<path class="st2" d="M170.4,299c0,0,22.5-5.8,28.2-10.1c5.6-4.3,27.6,16.1,24.7,23.8c-2.9,7.7-13.5,13.3-13.5,13.3
		s-29.3,4.8-34.3-5.2C170.5,310.8,170.4,299,170.4,299z"/>
	<path class="st4" d="M168.4,296.6c0,0,22.5-5.8,28.2-10.1s27.6,16.1,24.7,23.8c-2.9,7.7-13.5,13.3-13.5,13.3s-29.3,4.8-34.3-5.2
		C168.5,308.5,168.4,296.6,168.4,296.6z"/>
	<path class="st2" d="M214.8,256.9c-0.1,0-0.2,0-0.2,0C214.6,256.8,214.7,256.9,214.8,256.9z"/>
	<path class="st4" d="M148,279.4c-2.3-0.5-8.5-1.1-11.4,8.9c-0.7,2.3-1.6,4.5-2.6,6.7c-2.8,5.8-6.5,17.8,9.6,20.4l38.6,8.8
		c0,0,20.7,2.5,22,1.6c1.4-1,1.2-3.1,1.2-3.1s-22.8,0-27.3-7s-4.7-16.6-4.7-16.6s0.5-14.7-23-19C149.6,279.7,148.8,279.6,148,279.4z
		"/>
	<path class="st2" d="M148,279.4c-2.3-0.5-8.5-1.1-11.4,8.9c-0.7,2.3-1.6,4.5-2.6,6.7c-2.8,5.8-6.5,17.8,9.6,20.4l38.6,8.8
		c0,0,20.7,2.5,22,1.6c1.4-1,1.2-3.1,1.2-3.1s-22.8,0-27.3-7s-4.7-16.6-4.7-16.6s0.5-14.7-23-19C149.6,279.8,148.8,279.6,148,279.4z
		"/>
	<path class="st4" d="M229,269.3c-0.5-3-3-5.1-6-5c-5,0.1-19.1,0.7-27.7,4.5c-1.9,0.8-3.8,1.6-5.7,2.3c-1.8,0.6-3.9,1.6-4.9,3.1
		c-1.1,1.4-25.6,20.3,9.8,38.4c0,0,18.9,5.4,26.3-7.3c0,0,5.3-13.6,4.9-18.3c-0.4-4.7,3.5-17.4,3.5-17.4S229,269.6,229,269.3z"/>
	<path class="st2" d="M229,272.7c-0.4-2.7-3-4.7-6-4.6c-5.5,0.1-22.7,0.8-30.6,5.6c0,0-6,3.6-7.8,3.6s-25.6,18.7,9.8,35.5
		c0,0,18.9,5,26.3-6.7c0,0,5.3-12.5,4.9-16.9c-0.4-4.4,3.5-16,3.5-16S229,273,229,272.7z"/>
	<rect x="203.9" y="312.6" class="st1" width="6.2" height="13.3"/>
	<path class="st22" d="M152.1,246.5h83.4c2.4,0,4.4,2.3,4.4,5.1v22.5c0,2.8-2,5.1-4.4,5.1h-83.4c-2.4,0-4.4-2.3-4.4-5.1v-22.5
		C147.8,248.8,149.7,246.5,152.1,246.5z"/>
	<path class="st23" d="M236.5,274.2h-85.2c-1.9,0-3.4-1.5-3.4-3.4v-20.9c0-1.9,1.5-3.4,3.4-3.4h85.2c1.9,0,3.4,1.5,3.4,3.4v20.9
		C239.9,272.7,238.4,274.2,236.5,274.2z"/>
	<path class="st24" d="M235.4,273.1h-83.1c-1.9,0-3.4-1.5-3.4-3.4V251c0-1.9,1.5-3.4,3.4-3.4h83.1c1.9,0,3.4,1.5,3.4,3.4v18.7
		C238.8,271.6,237.3,273.1,235.4,273.1z"/>
</g>
<path class="st25" d="M264.4,147H24.6C16,147,9,140,9,131.4V22.6C9,14,16,7,24.6,7h239.8C273,7,280,14,280,22.6v108.8
	C280,140,273,147,264.4,147z"/>
<g>
	<path class="st26" d="M39.4,44.7c0.3,0.4,0.5,0.9,0.5,1.6c0,0.8-0.3,1.5-1,2c-0.6,0.5-1.6,0.7-2.8,0.7h-4.7v-9.8h4.4
		c1.1,0,2,0.2,2.6,0.7c0.6,0.4,0.9,1.1,0.9,1.9c0,0.5-0.1,1-0.4,1.3c-0.2,0.4-0.6,0.7-1,0.9C38.6,44,39.1,44.3,39.4,44.7z
		 M32.9,40.3v3.1h2.9c0.7,0,1.3-0.1,1.7-0.4c0.4-0.3,0.6-0.7,0.6-1.2s-0.2-0.9-0.6-1.2s-0.9-0.4-1.7-0.4h-2.9V40.3z M37.9,47.4
		c0.4-0.3,0.6-0.7,0.6-1.2c0-1.1-0.8-1.6-2.4-1.6h-3.2v3.3h3.2C36.9,47.8,37.5,47.7,37.9,47.4z"/>
	<path class="st26" d="M43.1,48.5c-0.6-0.3-1-0.8-1.4-1.4c-0.3-0.6-0.5-1.2-0.5-2s0.2-1.4,0.5-2s0.8-1,1.4-1.3
		c0.6-0.3,1.3-0.5,2-0.5s1.4,0.2,2,0.5s1,0.8,1.4,1.3c0.3,0.6,0.5,1.2,0.5,2s-0.2,1.4-0.5,2s-0.8,1-1.4,1.4c-0.6,0.3-1.2,0.5-2,0.5
		S43.6,48.9,43.1,48.5z M46.3,47.5c0.4-0.2,0.7-0.5,0.9-0.9s0.3-0.9,0.3-1.4s-0.1-1-0.3-1.4s-0.5-0.7-0.9-0.9s-0.8-0.3-1.3-0.3
		s-0.9,0.1-1.3,0.3c-0.4,0.2-0.7,0.5-0.9,0.9s-0.3,0.9-0.3,1.4s0.1,1,0.3,1.4s0.5,0.7,0.9,0.9s0.8,0.3,1.3,0.3S46,47.7,46.3,47.5z"
		/>
	<path class="st26" d="M57,42.3c0.6,0.5,0.8,1.3,0.8,2.4V49h-1.3v-4.1c0-0.7-0.2-1.3-0.5-1.6c-0.3-0.4-0.8-0.5-1.5-0.5
		s-1.3,0.2-1.7,0.6s-0.6,1-0.6,1.8V49h-1.3v-7.4H52v1.1c0.3-0.4,0.6-0.7,1.1-0.9s1-0.3,1.6-0.3C55.7,41.5,56.4,41.7,57,42.3z"/>
	<path class="st26" d="M58.4,51.6c-0.3-0.1-0.5-0.2-0.7-0.3l0.4-1c0.3,0.2,0.6,0.4,1.1,0.4c0.4,0,0.6-0.1,0.8-0.3s0.3-0.5,0.3-1
		v-7.8h1.3v7.8c0,0.8-0.2,1.4-0.6,1.8c-0.4,0.4-1,0.7-1.8,0.7C59,51.7,58.7,51.7,58.4,51.6z M60.4,39.8c-0.2-0.2-0.3-0.4-0.3-0.6
		s0.1-0.5,0.3-0.6c0.2-0.2,0.4-0.3,0.7-0.3s0.5,0.1,0.7,0.2c0.2,0.2,0.3,0.4,0.3,0.6c0,0.3-0.1,0.5-0.3,0.6
		c-0.2,0.2-0.4,0.3-0.7,0.3C60.8,40.1,60.6,40,60.4,39.8z"/>
	<path class="st26" d="M65.5,48.5c-0.6-0.3-1-0.8-1.4-1.4c-0.3-0.6-0.5-1.2-0.5-2s0.2-1.4,0.5-2c0.3-0.6,0.8-1,1.4-1.3
		s1.3-0.5,2-0.5s1.4,0.2,2,0.5s1,0.8,1.4,1.3c0.3,0.6,0.5,1.2,0.5,2s-0.2,1.4-0.5,2s-0.8,1-1.4,1.4c-0.6,0.3-1.2,0.5-2,0.5
		S66,48.9,65.5,48.5z M68.7,47.5c0.4-0.2,0.7-0.5,0.9-0.9c0.2-0.4,0.3-0.9,0.3-1.4s-0.1-1-0.3-1.4c-0.2-0.4-0.5-0.7-0.9-0.9
		s-0.8-0.3-1.3-0.3s-0.9,0.1-1.3,0.3s-0.7,0.5-0.9,0.9c-0.2,0.4-0.3,0.9-0.3,1.4s0.1,1,0.3,1.4c0.2,0.4,0.5,0.7,0.9,0.9
		s0.8,0.3,1.3,0.3S68.4,47.7,68.7,47.5z"/>
	<path class="st26" d="M80.1,41.5v7.4h-1.3v-1.1c-0.3,0.4-0.6,0.7-1.1,0.9c-0.4,0.2-0.9,0.3-1.4,0.3c-1,0-1.8-0.3-2.3-0.8
		c-0.6-0.5-0.9-1.4-0.9-2.4v-4.3h1.3v4.1c0,0.7,0.2,1.3,0.5,1.6s0.8,0.6,1.5,0.6s1.3-0.2,1.7-0.6c0.4-0.4,0.6-1,0.6-1.8v-3.8h1.4
		V41.5z"/>
	<path class="st26" d="M85,41.8c0.5-0.2,1-0.3,1.7-0.3v1.3c-0.1,0-0.2,0-0.3,0c-0.7,0-1.3,0.2-1.7,0.7c-0.4,0.4-0.6,1.1-0.6,1.9v3.7
		h-1.3v-7.4h1.3v1.2C84.2,42.3,84.5,42,85,41.8z"/>
	<path class="st26" d="M89.2,47.4c0.2,0.2,0.3,0.4,0.3,0.7c0,0.1,0,0.3,0,0.4c0,0.1-0.1,0.3-0.2,0.6L88.6,51h-0.9l0.5-2.1
		c-0.2-0.1-0.3-0.2-0.4-0.3c-0.1-0.2-0.2-0.3-0.2-0.5c0-0.3,0.1-0.5,0.3-0.7s0.4-0.3,0.7-0.3C88.8,47.1,89.1,47.2,89.2,47.4z"/>
	<path class="st26" d="M101.4,42.3c0.6,0.5,0.8,1.3,0.8,2.4V49h-1.3v-4.1c0-0.7-0.2-1.3-0.5-1.6c-0.3-0.4-0.8-0.5-1.5-0.5
		s-1.3,0.2-1.7,0.6s-0.6,1-0.6,1.8V49h-1.3v-7.4h1.3v1.1c0.3-0.4,0.6-0.7,1.1-0.9s1-0.3,1.6-0.3C100.1,41.5,100.8,41.7,101.4,42.3z"
		/>
	<path class="st26" d="M105.9,48.5c-0.6-0.3-1-0.8-1.4-1.4c-0.3-0.6-0.5-1.2-0.5-2s0.2-1.4,0.5-2s0.8-1,1.4-1.3s1.3-0.5,2-0.5
		s1.4,0.2,2,0.5s1,0.8,1.4,1.3c0.3,0.6,0.5,1.2,0.5,2s-0.2,1.4-0.5,2s-0.8,1-1.4,1.4c-0.6,0.3-1.2,0.5-2,0.5
		C107.2,49,106.5,48.9,105.9,48.5z M109.2,47.5c0.4-0.2,0.7-0.5,0.9-0.9c0.2-0.4,0.3-0.9,0.3-1.4s-0.1-1-0.3-1.4
		c-0.2-0.4-0.5-0.7-0.9-0.9s-0.8-0.3-1.3-0.3s-0.9,0.1-1.3,0.3s-0.7,0.5-0.9,0.9c-0.2,0.4-0.3,0.9-0.3,1.4s0.1,1,0.3,1.4
		c0.2,0.4,0.5,0.7,0.9,0.9s0.8,0.3,1.3,0.3S108.8,47.7,109.2,47.5z"/>
	<path class="st26" d="M120.6,41.5v7.4h-1.3v-1.1c-0.3,0.4-0.6,0.7-1.1,0.9c-0.4,0.2-0.9,0.3-1.4,0.3c-1,0-1.8-0.3-2.3-0.8
		c-0.6-0.5-0.9-1.4-0.9-2.4v-4.3h1.3v4.1c0,0.7,0.2,1.3,0.5,1.6s0.8,0.6,1.5,0.6s1.3-0.2,1.7-0.6c0.4-0.4,0.6-1,0.6-1.8v-3.8h1.4
		V41.5z"/>
	<path class="st26" d="M123.5,48.8c-0.6-0.2-1-0.4-1.3-0.6l0.6-1.1c0.3,0.2,0.7,0.4,1.2,0.6s0.9,0.2,1.4,0.2c1.2,0,1.8-0.3,1.8-1
		c0-0.2-0.1-0.4-0.2-0.5c-0.2-0.1-0.4-0.2-0.6-0.3s-0.6-0.1-1-0.2c-0.6-0.1-1.1-0.2-1.5-0.3s-0.7-0.3-1-0.6s-0.4-0.7-0.4-1.2
		c0-0.7,0.3-1.2,0.8-1.6c0.6-0.4,1.3-0.6,2.3-0.6c0.5,0,1,0.1,1.5,0.2c0.5,0.1,0.9,0.3,1.2,0.5l-0.6,1.1c-0.6-0.4-1.3-0.6-2.1-0.6
		c-0.6,0-1,0.1-1.3,0.3s-0.4,0.4-0.4,0.7c0,0.2,0.1,0.4,0.3,0.6c0.2,0.1,0.4,0.2,0.6,0.3s0.6,0.1,1,0.2c0.6,0.1,1.1,0.2,1.4,0.3
		s0.7,0.3,0.9,0.6c0.3,0.3,0.4,0.7,0.4,1.2c0,0.7-0.3,1.2-0.9,1.6c-0.6,0.4-1.4,0.6-2.3,0.6C124.6,49,124.1,48.9,123.5,48.8z"/>
	<path class="st26" d="M140.5,41.5l-3.2,7.4h-1.4l-3.2-7.4h1.4l2.5,5.9l2.6-5.9H140.5z"/>
	<path class="st26" d="M142.7,48.5c-0.6-0.3-1-0.8-1.4-1.4c-0.3-0.6-0.5-1.2-0.5-2s0.2-1.4,0.5-2s0.8-1,1.4-1.3
		c0.6-0.3,1.3-0.5,2-0.5s1.4,0.2,2,0.5s1,0.8,1.4,1.3c0.3,0.6,0.5,1.2,0.5,2s-0.2,1.4-0.5,2s-0.8,1-1.4,1.4c-0.6,0.3-1.2,0.5-2,0.5
		C144,49,143.3,48.9,142.7,48.5z M146,47.5c0.4-0.2,0.7-0.5,0.9-0.9s0.3-0.9,0.3-1.4s-0.1-1-0.3-1.4s-0.5-0.7-0.9-0.9
		s-0.8-0.3-1.3-0.3s-0.9,0.1-1.3,0.3c-0.4,0.2-0.7,0.5-0.9,0.9s-0.3,0.9-0.3,1.4s0.1,1,0.3,1.4s0.5,0.7,0.9,0.9s0.8,0.3,1.3,0.3
		S145.6,47.7,146,47.5z"/>
	<path class="st26" d="M157.3,41.5v7.4H156v-1.1c-0.3,0.4-0.6,0.7-1.1,0.9c-0.4,0.2-0.9,0.3-1.4,0.3c-1,0-1.8-0.3-2.3-0.8
		c-0.6-0.5-0.9-1.4-0.9-2.4v-4.3h1.3v4.1c0,0.7,0.2,1.3,0.5,1.6s0.8,0.6,1.5,0.6s1.3-0.2,1.7-0.6c0.4-0.4,0.6-1,0.6-1.8v-3.8h1.4
		V41.5z"/>
	<path class="st26" d="M160.3,48.8c-0.6-0.2-1-0.4-1.3-0.6l0.6-1.1c0.3,0.2,0.7,0.4,1.2,0.6s0.9,0.2,1.4,0.2c1.2,0,1.8-0.3,1.8-1
		c0-0.2-0.1-0.4-0.2-0.5c-0.2-0.1-0.4-0.2-0.6-0.3c-0.2-0.1-0.6-0.1-1-0.2c-0.6-0.1-1.1-0.2-1.5-0.3s-0.7-0.3-1-0.6
		s-0.4-0.7-0.4-1.2c0-0.7,0.3-1.2,0.8-1.6c0.6-0.4,1.3-0.6,2.3-0.6c0.5,0,1,0.1,1.5,0.2c0.5,0.1,0.9,0.3,1.2,0.5l-0.6,1.1
		c-0.6-0.4-1.3-0.6-2.1-0.6c-0.6,0-1,0.1-1.3,0.3s-0.4,0.4-0.4,0.7c0,0.2,0.1,0.4,0.3,0.6c0.2,0.1,0.4,0.2,0.6,0.3
		c0.2,0.1,0.6,0.1,1,0.2c0.6,0.1,1.1,0.2,1.4,0.3s0.7,0.3,0.9,0.6c0.3,0.3,0.4,0.7,0.4,1.2c0,0.7-0.3,1.2-0.9,1.6
		c-0.6,0.4-1.4,0.6-2.3,0.6C161.4,49,160.8,48.9,160.3,48.8z"/>
	<path class="st26" d="M173,41.8c0.5-0.2,1-0.3,1.7-0.3v1.3c-0.1,0-0.2,0-0.3,0c-0.7,0-1.3,0.2-1.7,0.7c-0.4,0.4-0.6,1.1-0.6,1.9
		v3.7h-1.3v-7.4h1.3v1.2C172.2,42.3,172.5,42,173,41.8z"/>
	<path class="st26" d="M181.4,42.2c0.5,0.5,0.8,1.3,0.8,2.3V49h-1.3v-1c-0.2,0.3-0.5,0.6-1,0.8S179,49,178.5,49
		c-0.8,0-1.5-0.2-2-0.6c-0.5-0.4-0.7-0.9-0.7-1.6s0.2-1.2,0.7-1.6c0.5-0.4,1.2-0.6,2.3-0.6h2.1v-0.3c0-0.6-0.2-1-0.5-1.3
		s-0.8-0.5-1.5-0.5c-0.4,0-0.9,0.1-1.3,0.2c-0.4,0.1-0.8,0.3-1.1,0.6l-0.6-1c0.4-0.3,0.8-0.5,1.4-0.7c0.5-0.2,1.1-0.2,1.7-0.2
		C180,41.5,180.8,41.7,181.4,42.2z M180,47.6c0.4-0.2,0.6-0.6,0.8-1v-1h-2.1c-1.1,0-1.7,0.4-1.7,1.1c0,0.4,0.1,0.7,0.4,0.9
		c0.3,0.2,0.7,0.3,1.2,0.3S179.6,47.9,180,47.6z"/>
	<path class="st26" d="M190.5,41.9c0.6,0.3,1,0.8,1.3,1.3c0.3,0.6,0.5,1.2,0.5,2s-0.2,1.4-0.5,2s-0.8,1-1.3,1.3
		c-0.6,0.3-1.2,0.5-1.9,0.5c-0.5,0-1-0.1-1.5-0.3c-0.4-0.2-0.8-0.5-1.1-0.9v3.8h-1.3V41.5h1.3v1.2c0.3-0.4,0.7-0.7,1.1-0.9
		c0.5-0.2,1-0.3,1.5-0.3C189.3,41.5,190,41.6,190.5,41.9z M189.8,47.5c0.4-0.2,0.7-0.5,0.9-0.9s0.3-0.9,0.3-1.4s-0.1-1-0.3-1.4
		s-0.5-0.7-0.9-0.9s-0.8-0.3-1.3-0.3s-0.9,0.1-1.3,0.3s-0.7,0.5-0.9,0.9s-0.3,0.8-0.3,1.4s0.1,1,0.3,1.4s0.5,0.7,0.9,0.9
		s0.8,0.3,1.3,0.3S189.4,47.7,189.8,47.5z"/>
	<path class="st26" d="M200.1,41.9c0.6,0.3,1,0.8,1.3,1.3c0.3,0.6,0.5,1.2,0.5,2s-0.2,1.4-0.5,2s-0.8,1-1.3,1.3
		c-0.6,0.3-1.2,0.5-1.9,0.5c-0.5,0-1-0.1-1.5-0.3c-0.4-0.2-0.8-0.5-1.1-0.9v3.8h-1.3V41.5h1.3v1.2c0.3-0.4,0.7-0.7,1.1-0.9
		c0.5-0.2,1-0.3,1.5-0.3C198.9,41.5,199.5,41.6,200.1,41.9z M199.3,47.5c0.4-0.2,0.7-0.5,0.9-0.9s0.3-0.9,0.3-1.4s-0.1-1-0.3-1.4
		s-0.5-0.7-0.9-0.9s-0.8-0.3-1.3-0.3s-0.9,0.1-1.3,0.3s-0.7,0.5-0.9,0.9s-0.3,0.8-0.3,1.4s0.1,1,0.3,1.4s0.5,0.7,0.9,0.9
		s0.8,0.3,1.3,0.3S198.9,47.7,199.3,47.5z"/>
	<path class="st26" d="M210.4,45.7h-6c0.1,0.7,0.4,1.2,0.9,1.6c0.5,0.4,1.1,0.6,1.8,0.6c0.9,0,1.6-0.3,2.1-0.9l0.7,0.9
		c-0.3,0.4-0.8,0.7-1.3,0.9s-1.1,0.3-1.7,0.3c-0.8,0-1.5-0.2-2.1-0.5s-1.1-0.8-1.4-1.4s-0.5-1.2-0.5-2c0-0.7,0.2-1.4,0.5-1.9
		c0.3-0.6,0.8-1,1.3-1.4c0.6-0.3,1.2-0.5,1.9-0.5s1.3,0.2,1.9,0.5c0.6,0.3,1,0.8,1.3,1.4s0.5,1.2,0.5,2
		C210.5,45.4,210.5,45.5,210.4,45.7z M205.2,43.2c-0.4,0.4-0.7,0.9-0.8,1.5h4.8c-0.1-0.6-0.3-1.1-0.8-1.5c-0.4-0.4-1-0.6-1.6-0.6
		C206.2,42.6,205.6,42.8,205.2,43.2z"/>
	<path class="st26" d="M212.3,38.6h1.3V49h-1.3V38.6z"/>
	<path class="st26" d="M217.4,48.5c-0.6-0.3-1-0.8-1.4-1.4c-0.3-0.6-0.5-1.2-0.5-2s0.2-1.4,0.5-2s0.8-1,1.4-1.3
		c0.6-0.3,1.3-0.5,2-0.5s1.4,0.2,2,0.5s1,0.8,1.4,1.3c0.3,0.6,0.5,1.2,0.5,2s-0.2,1.4-0.5,2s-0.8,1-1.4,1.4c-0.6,0.3-1.2,0.5-2,0.5
		S218,48.9,217.4,48.5z M220.7,47.5c0.4-0.2,0.7-0.5,0.9-0.9s0.3-0.9,0.3-1.4s-0.1-1-0.3-1.4s-0.5-0.7-0.9-0.9s-0.8-0.3-1.3-0.3
		s-0.9,0.1-1.3,0.3c-0.4,0.2-0.7,0.5-0.9,0.9s-0.3,0.9-0.3,1.4s0.1,1,0.3,1.4s0.5,0.7,0.9,0.9s0.8,0.3,1.3,0.3
		S220.3,47.7,220.7,47.5z"/>
	<path class="st26" d="M231.3,42.3c0.6,0.5,0.8,1.3,0.8,2.4V49h-1.3v-4.1c0-0.7-0.2-1.3-0.5-1.6c-0.3-0.4-0.8-0.5-1.5-0.5
		s-1.3,0.2-1.7,0.6s-0.6,1-0.6,1.8V49h-1.3v-7.4h1.3v1.1c0.3-0.4,0.6-0.7,1.1-0.9s1-0.3,1.6-0.3C230,41.5,230.8,41.7,231.3,42.3z"/>
	<path class="st26" d="M235,48.8c-0.6-0.2-1-0.4-1.3-0.6l0.6-1.1c0.3,0.2,0.7,0.4,1.2,0.6s0.9,0.2,1.4,0.2c1.2,0,1.8-0.3,1.8-1
		c0-0.2-0.1-0.4-0.2-0.5c-0.2-0.1-0.4-0.2-0.6-0.3c-0.2-0.1-0.6-0.1-1-0.2c-0.6-0.1-1.1-0.2-1.5-0.3s-0.7-0.3-1-0.6
		s-0.4-0.7-0.4-1.2c0-0.7,0.3-1.2,0.8-1.6c0.6-0.4,1.3-0.6,2.3-0.6c0.5,0,1,0.1,1.5,0.2c0.5,0.1,0.9,0.3,1.2,0.5l-0.6,1.1
		c-0.6-0.4-1.3-0.6-2.1-0.6c-0.6,0-1,0.1-1.3,0.3s-0.4,0.4-0.4,0.7c0,0.2,0.1,0.4,0.3,0.6s0.4,0.2,0.6,0.3c0.2,0.1,0.6,0.1,1,0.2
		c0.6,0.1,1.1,0.2,1.4,0.3c0.4,0.1,0.7,0.3,0.9,0.6c0.3,0.3,0.4,0.7,0.4,1.2c0,0.7-0.3,1.2-0.9,1.6c-0.6,0.4-1.4,0.6-2.3,0.6
		C236.2,49,235.6,48.9,235,48.8z"/>
	<path class="st26" d="M37.8,58.3l-3.2,7.4h-1.4L30,58.3h1.4l2.5,5.9l2.6-5.9C36.5,58.3,37.8,58.3,37.8,58.3z"/>
	<path class="st26" d="M40.1,65.3c-0.6-0.3-1-0.8-1.4-1.4c-0.3-0.6-0.5-1.2-0.5-2s0.2-1.4,0.5-2s0.8-1,1.4-1.3
		c0.6-0.3,1.3-0.5,2-0.5s1.4,0.2,2,0.5s1,0.8,1.4,1.3c0.3,0.6,0.5,1.2,0.5,2s-0.2,1.4-0.5,2s-0.8,1-1.4,1.4c-0.6,0.3-1.2,0.5-2,0.5
		S40.7,65.7,40.1,65.3z M43.3,64.3c0.4-0.2,0.7-0.5,0.9-0.9s0.3-0.9,0.3-1.4s-0.1-1-0.3-1.4s-0.5-0.7-0.9-0.9s-0.8-0.3-1.3-0.3
		s-0.9,0.1-1.3,0.3c-0.4,0.2-0.7,0.5-0.9,0.9s-0.3,0.9-0.3,1.4s0.1,1,0.3,1.4s0.5,0.7,0.9,0.9s0.8,0.3,1.3,0.3S43,64.5,43.3,64.3z"
		/>
	<path class="st26" d="M52,65.3c-0.2,0.2-0.4,0.3-0.7,0.4s-0.6,0.1-0.9,0.1c-0.7,0-1.3-0.2-1.7-0.6s-0.6-1-0.6-1.7v-4.1h-1.3v-1.1
		H48v-1.6h1.3v1.6h2.1v1.1h-2.1v4c0,0.4,0.1,0.7,0.3,0.9s0.5,0.3,0.9,0.3s0.8-0.1,1-0.4L52,65.3z"/>
	<path class="st26" d="M55.9,58.6c0.5-0.2,1-0.3,1.7-0.3v1.3c-0.1,0-0.2,0-0.3,0c-0.7,0-1.3,0.2-1.7,0.7c-0.4,0.4-0.6,1.1-0.6,1.9
		v3.7h-1.3v-7.4H55v1.2C55.1,59.1,55.4,58.8,55.9,58.6z"/>
	<path class="st26" d="M65.8,62.5h-6c0.1,0.7,0.4,1.2,0.9,1.6c0.5,0.4,1.1,0.6,1.8,0.6c0.9,0,1.6-0.3,2.1-0.9l0.7,0.9
		c-0.3,0.4-0.8,0.7-1.3,0.9c-0.5,0.2-1.1,0.3-1.7,0.3c-0.8,0-1.5-0.2-2.1-0.5C59.8,65,59.3,64.6,59,64s-0.5-1.2-0.5-2
		c0-0.7,0.2-1.4,0.5-1.9c0.3-0.6,0.8-1,1.3-1.4c0.6-0.3,1.2-0.5,1.9-0.5s1.3,0.2,1.9,0.5s1,0.8,1.3,1.4c0.3,0.6,0.5,1.2,0.5,2
		C65.9,62.2,65.8,62.3,65.8,62.5z M60.6,60c-0.4,0.4-0.7,0.9-0.8,1.5h4.8c-0.1-0.6-0.3-1.1-0.8-1.5c-0.4-0.4-1-0.6-1.6-0.6
		S61,59.6,60.6,60z"/>
	<path class="st26" d="M78.2,65.7l-2.1-3c-0.3,0-0.5,0-0.6,0h-2.4v3h-1.4v-9.8h3.8c1.3,0,2.3,0.3,3,0.9c0.7,0.6,1.1,1.4,1.1,2.5
		c0,0.8-0.2,1.4-0.6,1.9s-0.9,0.9-1.6,1.2l2.3,3.3C79.7,65.7,78.2,65.7,78.2,65.7z M77.5,61c0.5-0.4,0.7-0.9,0.7-1.6
		c0-0.7-0.2-1.3-0.7-1.6s-1.1-0.6-2-0.6h-2.4v4.4h2.4C76.3,61.6,77,61.4,77.5,61z"/>
	<path class="st26" d="M81.9,55.9H86c1,0,2,0.2,2.8,0.6c0.8,0.4,1.4,1,1.9,1.7c0.4,0.7,0.7,1.6,0.7,2.6s-0.2,1.8-0.7,2.6
		c-0.4,0.7-1.1,1.3-1.9,1.7s-1.7,0.6-2.8,0.6h-4.1V55.9z M85.9,64.5c0.8,0,1.5-0.2,2.1-0.5c0.6-0.3,1.1-0.7,1.4-1.3s0.5-1.2,0.5-1.9
		s-0.2-1.4-0.5-1.9c-0.3-0.6-0.8-1-1.4-1.3s-1.3-0.5-2.1-0.5h-2.6v7.4H85.9z"/>
	<path class="st26" d="M101.6,55.9l-4.3,9.8h-1.4l-4.3-9.8h1.5l3.5,8l3.6-8C100.2,55.9,101.6,55.9,101.6,55.9z"/>
	<path class="st26" d="M106.6,55.4h1.3v10.4h-1.3V55.4z"/>
	<path class="st26" d="M117.2,62.5h-6c0.1,0.7,0.4,1.2,0.9,1.6c0.5,0.4,1.1,0.6,1.8,0.6c0.9,0,1.6-0.3,2.1-0.9l0.7,0.9
		c-0.3,0.4-0.8,0.7-1.3,0.9c-0.5,0.2-1.1,0.3-1.7,0.3c-0.8,0-1.5-0.2-2.1-0.5s-1.1-0.8-1.4-1.4s-0.5-1.2-0.5-2
		c0-0.7,0.2-1.4,0.5-1.9c0.3-0.6,0.8-1,1.3-1.4c0.6-0.3,1.2-0.5,1.9-0.5c0.7,0,1.3,0.2,1.9,0.5s1,0.8,1.3,1.4c0.3,0.6,0.5,1.2,0.5,2
		C117.3,62.2,117.3,62.3,117.2,62.5z M112,60c-0.4,0.4-0.7,0.9-0.8,1.5h4.8c-0.1-0.6-0.3-1.1-0.8-1.5c-0.4-0.4-1-0.6-1.6-0.6
		S112.4,59.6,112,60z"/>
	<path class="st26" d="M125.3,55.9v9.8h-1.4v-8.6h-2.2v-1.2C121.7,55.9,125.3,55.9,125.3,55.9z"/>
	<path class="st26" d="M133.4,60.9c0.5,0.5,0.8,1.1,0.8,1.9c0,0.6-0.1,1.1-0.4,1.5c-0.3,0.5-0.7,0.8-1.3,1.1c-0.6,0.3-1.2,0.4-2,0.4
		c-0.7,0-1.4-0.1-2-0.3s-1.2-0.5-1.6-0.9l0.6-1.1c0.3,0.3,0.8,0.6,1.3,0.8c0.5,0.2,1.1,0.3,1.7,0.3c0.7,0,1.3-0.2,1.7-0.5
		c0.4-0.3,0.6-0.7,0.6-1.3c0-0.5-0.2-1-0.6-1.3s-1-0.4-1.8-0.4h-0.8v-1l2.5-3h-4.7v-1.2h6.5v1l-2.6,3.2
		C132.2,60.2,132.9,60.4,133.4,60.9z"/>
	<path class="st26" d="M139,54h1.2l-4.6,13.2h-1.2L139,54z"/>
	<path class="st26" d="M142.1,65.3c-0.6-0.4-1.1-1-1.4-1.7s-0.5-1.7-0.5-2.7s0.2-1.9,0.5-2.7s0.8-1.3,1.4-1.7s1.3-0.6,2.1-0.6
		s1.4,0.2,2.1,0.6s1.1,1,1.4,1.7c0.3,0.8,0.5,1.7,0.5,2.7s-0.2,1.9-0.5,2.7s-0.8,1.3-1.4,1.7s-1.3,0.6-2.1,0.6
		C143.4,65.9,142.7,65.7,142.1,65.3z M146,63.6c0.5-0.6,0.7-1.6,0.7-2.8s-0.2-2.2-0.7-2.8s-1.1-1-1.9-1c-0.8,0-1.4,0.3-1.9,1
		s-0.7,1.6-0.7,2.8s0.2,2.2,0.7,2.8s1.1,1,1.9,1S145.5,64.3,146,63.6z"/>
	<path class="st26" d="M158,63.3h-1.9v2.4h-1.4v-2.4h-5.4v-1l5-6.4h1.5l-4.8,6.2h3.8V60h1.3v2.1h1.9L158,63.3L158,63.3z"/>
	<path class="st26" d="M168.3,59c0.5,0.5,0.8,1.3,0.8,2.3v4.5h-1.3v-1c-0.2,0.3-0.5,0.6-1,0.8s-0.9,0.3-1.5,0.3
		c-0.8,0-1.5-0.2-2-0.6s-0.7-0.9-0.7-1.6s0.2-1.2,0.7-1.6c0.5-0.4,1.2-0.6,2.3-0.6h2.1v-0.3c0-0.6-0.2-1-0.5-1.3s-0.8-0.5-1.5-0.5
		c-0.4,0-0.9,0.1-1.3,0.2c-0.4,0.1-0.8,0.3-1.1,0.6l-0.6-1c0.4-0.3,0.8-0.5,1.4-0.7c0.5-0.2,1.1-0.2,1.7-0.2
		C166.9,58.3,167.7,58.5,168.3,59z M163.4,55.4h1.7l1.9,1.8h-1.3L163.4,55.4z M166.9,64.4c0.4-0.2,0.6-0.6,0.8-1v-1h-2.1
		c-1.1,0-1.7,0.4-1.7,1.1c0,0.4,0.1,0.7,0.4,0.9c0.3,0.2,0.7,0.3,1.2,0.3S166.5,64.7,166.9,64.4z"/>
	<path class="st26" d="M177.8,55.9v9.8h-1.4v-8.6h-2.2v-1.2C174.2,55.9,177.8,55.9,177.8,55.9z"/>
	<path class="st26" d="M188.4,63.3h-1.9v2.4h-1.4v-2.4h-5.4v-1l5-6.4h1.5l-4.8,6.2h3.8V60h1.3v2.1h1.9L188.4,63.3L188.4,63.3z"/>
	<path class="st26" d="M196.1,59.1c0.6,0.5,0.8,1.3,0.8,2.4v4.3h-1.3v-4.1c0-0.7-0.2-1.3-0.5-1.6c-0.3-0.4-0.8-0.5-1.5-0.5
		s-1.3,0.2-1.7,0.6s-0.6,1-0.6,1.8v3.8H190V55.4h1.3v4c0.3-0.4,0.6-0.6,1.1-0.8s1-0.3,1.5-0.3C194.8,58.3,195.5,58.5,196.1,59.1z"/>
	<path class="st26" d="M208.2,59c0.5,0.5,0.8,1.3,0.8,2.3v4.5h-1.3v-1c-0.2,0.3-0.5,0.6-1,0.8s-0.9,0.3-1.5,0.3
		c-0.8,0-1.5-0.2-2-0.6s-0.7-0.9-0.7-1.6s0.2-1.2,0.7-1.6c0.5-0.4,1.2-0.6,2.3-0.6h2.1v-0.3c0-0.6-0.2-1-0.5-1.3s-0.8-0.5-1.5-0.5
		c-0.4,0-0.9,0.1-1.3,0.2s-0.8,0.3-1.1,0.6l-0.6-1c0.4-0.3,0.8-0.5,1.4-0.7c0.5-0.2,1.1-0.2,1.7-0.2C206.9,58.3,207.7,58.5,208.2,59
		z M203.4,55.4h1.7l1.9,1.8h-1.3L203.4,55.4z M206.9,64.4c0.4-0.2,0.6-0.6,0.8-1v-1h-2.1c-1.1,0-1.7,0.4-1.7,1.1
		c0,0.4,0.1,0.7,0.4,0.9s0.7,0.3,1.2,0.3S206.5,64.7,206.9,64.4z"/>
	<path class="st26" d="M37.5,75.9c0.6,0.5,0.8,1.3,0.8,2.4v4.3H37v-4.1c0-0.7-0.2-1.3-0.5-1.6c-0.3-0.4-0.8-0.5-1.5-0.5
		s-1.3,0.2-1.7,0.6s-0.6,1-0.6,1.8v3.8h-1.3v-7.4h1.3v1.1c0.3-0.4,0.6-0.7,1.1-0.9c0.5-0.2,1-0.3,1.6-0.3
		C36.2,75.1,36.9,75.3,37.5,75.9z"/>
	<path class="st26" d="M42,82.1c-0.6-0.3-1-0.8-1.4-1.4c-0.3-0.6-0.5-1.2-0.5-2s0.2-1.4,0.5-2s0.8-1,1.4-1.3c0.6-0.3,1.3-0.5,2-0.5
		s1.4,0.2,2,0.5s1,0.8,1.4,1.3c0.3,0.6,0.5,1.2,0.5,2s-0.2,1.4-0.5,2s-0.8,1-1.4,1.4c-0.6,0.3-1.2,0.5-2,0.5
		C43.3,82.6,42.6,82.5,42,82.1z M45.3,81.1c0.4-0.2,0.7-0.5,0.9-0.9s0.3-0.9,0.3-1.4s-0.1-1-0.3-1.4s-0.5-0.7-0.9-0.9
		c-0.4-0.2-0.8-0.3-1.3-0.3s-0.9,0.1-1.3,0.3c-0.4,0.2-0.7,0.5-0.9,0.9s-0.3,0.9-0.3,1.4s0.1,1,0.3,1.4s0.5,0.7,0.9,0.9
		s0.8,0.3,1.3,0.3S44.9,81.3,45.3,81.1z"/>
	<path class="st26" d="M53.9,82.1c-0.2,0.2-0.4,0.3-0.7,0.4s-0.6,0.1-0.9,0.1c-0.7,0-1.3-0.2-1.7-0.6S50,81,50,80.3v-4.1h-1.3v-1.1
		H50v-1.6h1.3v1.6h2.1v1.1h-2.1v4c0,0.4,0.1,0.7,0.3,0.9c0.2,0.2,0.5,0.3,0.9,0.3s0.8-0.1,1-0.4L53.9,82.1z"/>
	<path class="st26" d="M57.9,75.4c0.5-0.2,1-0.3,1.7-0.3v1.3c-0.1,0-0.2,0-0.3,0c-0.7,0-1.3,0.2-1.7,0.7C57.2,77.5,57,78.2,57,79
		v3.7h-1.3v-7.4H57v1.2C57.1,75.9,57.4,75.6,57.9,75.4z"/>
	<path class="st26" d="M67.8,79.3h-6c0.1,0.7,0.4,1.2,0.9,1.6s1.1,0.6,1.8,0.6c0.9,0,1.6-0.3,2.1-0.9l0.7,0.9
		c-0.3,0.4-0.8,0.7-1.3,0.9c-0.5,0.2-1.1,0.3-1.7,0.3c-0.8,0-1.5-0.2-2.1-0.5s-1.1-0.8-1.4-1.4c-0.3-0.6-0.5-1.2-0.5-2
		c0-0.7,0.2-1.4,0.5-1.9c0.3-0.6,0.8-1,1.3-1.4c0.6-0.3,1.2-0.5,1.9-0.5s1.3,0.2,1.9,0.5s1,0.8,1.3,1.4s0.5,1.2,0.5,2
		C67.8,79,67.8,79.1,67.8,79.3z M62.5,76.8c-0.4,0.4-0.7,0.9-0.8,1.5h4.8c-0.1-0.6-0.3-1.1-0.8-1.5c-0.4-0.4-1-0.6-1.6-0.6
		S63,76.4,62.5,76.8z"/>
	<path class="st26" d="M78.5,75.8c0.5,0.5,0.8,1.3,0.8,2.3v4.5H78v-1c-0.2,0.3-0.5,0.6-1,0.8s-0.9,0.3-1.5,0.3c-0.8,0-1.5-0.2-2-0.6
		s-0.7-0.9-0.7-1.6s0.2-1.2,0.7-1.6s1.2-0.6,2.3-0.6H78V78c0-0.6-0.2-1-0.5-1.3s-0.8-0.5-1.5-0.5c-0.4,0-0.9,0.1-1.3,0.2
		s-0.8,0.3-1.1,0.6L73,76c0.4-0.3,0.8-0.5,1.4-0.7c0.5-0.2,1.1-0.2,1.7-0.2C77.2,75.1,78,75.3,78.5,75.8z M77.2,81.2
		c0.4-0.2,0.6-0.6,0.8-1v-1h-2.1c-1.1,0-1.7,0.4-1.7,1.1c0,0.4,0.1,0.7,0.4,0.9c0.3,0.2,0.7,0.3,1.2,0.3S76.8,81.5,77.2,81.2z"/>
	<path class="st26" d="M89,75.1v6.4c0,1.3-0.3,2.3-1,2.9c-0.6,0.6-1.6,0.9-2.9,0.9c-0.7,0-1.4-0.1-2-0.3c-0.6-0.2-1.1-0.5-1.5-0.8
		l0.6-1c0.3,0.3,0.8,0.5,1.3,0.7s1,0.3,1.6,0.3c0.9,0,1.5-0.2,1.9-0.6s0.6-1,0.6-1.9v-0.6c-0.3,0.4-0.7,0.7-1.2,0.9
		c-0.5,0.2-1,0.3-1.5,0.3c-0.7,0-1.4-0.2-1.9-0.5c-0.6-0.3-1-0.7-1.4-1.3c-0.3-0.5-0.5-1.2-0.5-1.9c0-0.7,0.2-1.3,0.5-1.9
		c0.3-0.5,0.8-1,1.4-1.3s1.2-0.4,1.9-0.4c0.6,0,1.1,0.1,1.6,0.3c0.5,0.2,0.9,0.5,1.2,0.9v-1.1H89z M86.4,80.7
		c0.4-0.2,0.7-0.5,0.9-0.9s0.3-0.8,0.3-1.3c0-0.7-0.2-1.3-0.7-1.7c-0.5-0.4-1.1-0.7-1.8-0.7c-0.8,0-1.4,0.2-1.8,0.7s-0.7,1-0.7,1.7
		c0,0.5,0.1,0.9,0.3,1.3s0.5,0.7,0.9,0.9c0.4,0.2,0.8,0.3,1.3,0.3C85.6,81.1,86,81,86.4,80.7z"/>
	<path class="st26" d="M98.2,79.3h-6c0.1,0.7,0.4,1.2,0.9,1.6s1.1,0.6,1.8,0.6c0.9,0,1.6-0.3,2.1-0.9l0.7,0.9
		c-0.3,0.4-0.8,0.7-1.3,0.9c-0.5,0.2-1.1,0.3-1.7,0.3c-0.8,0-1.5-0.2-2.1-0.5s-1.1-0.8-1.4-1.4s-0.5-1.2-0.5-2
		c0-0.7,0.2-1.4,0.5-1.9c0.3-0.6,0.8-1,1.3-1.4c0.6-0.3,1.2-0.5,1.9-0.5c0.7,0,1.3,0.2,1.9,0.5s1,0.8,1.3,1.4s0.5,1.2,0.5,2
		C98.2,79,98.2,79.1,98.2,79.3z M92.9,76.8c-0.4,0.4-0.7,0.9-0.8,1.5h4.8c-0.1-0.6-0.3-1.1-0.8-1.5c-0.4-0.4-1-0.6-1.6-0.6
		S93.4,76.4,92.9,76.8z"/>
	<path class="st26" d="M106.3,75.9c0.6,0.5,0.8,1.3,0.8,2.4v4.3h-1.3v-4.1c0-0.7-0.2-1.3-0.5-1.6c-0.3-0.4-0.8-0.5-1.5-0.5
		s-1.3,0.2-1.7,0.6s-0.6,1-0.6,1.8v3.8h-1.3v-7.4h1.3v1.1c0.3-0.4,0.6-0.7,1.1-0.9c0.5-0.2,1-0.3,1.6-0.3
		C105,75.1,105.7,75.3,106.3,75.9z"/>
	<path class="st26" d="M110.9,82.1c-0.6-0.3-1.1-0.8-1.4-1.4s-0.5-1.2-0.5-2s0.2-1.4,0.5-2s0.8-1,1.4-1.3s1.3-0.5,2-0.5
		s1.3,0.1,1.8,0.4s0.9,0.7,1.2,1.2l-1,0.7c-0.2-0.4-0.5-0.6-0.9-0.8c-0.3-0.2-0.7-0.3-1.1-0.3c-0.5,0-0.9,0.1-1.3,0.3
		c-0.4,0.2-0.7,0.5-0.9,0.9c-0.2,0.4-0.3,0.9-0.3,1.4s0.1,1,0.3,1.4c0.2,0.4,0.5,0.7,0.9,0.9c0.4,0.2,0.8,0.3,1.3,0.3
		c0.4,0,0.8-0.1,1.1-0.3c0.3-0.2,0.6-0.4,0.9-0.8l1,0.6c-0.3,0.5-0.7,0.9-1.2,1.2c-0.5,0.3-1.1,0.4-1.8,0.4
		C112.1,82.6,111.5,82.5,110.9,82.1z"/>
	<path class="st26" d="M124.2,79.3h-6c0.1,0.7,0.4,1.2,0.9,1.6s1.1,0.6,1.8,0.6c0.9,0,1.6-0.3,2.1-0.9l0.7,0.9
		c-0.3,0.4-0.8,0.7-1.3,0.9c-0.5,0.2-1.1,0.3-1.7,0.3c-0.8,0-1.5-0.2-2.1-0.5s-1.1-0.8-1.4-1.4s-0.5-1.2-0.5-2
		c0-0.7,0.2-1.4,0.5-1.9c0.3-0.6,0.8-1,1.3-1.4c0.6-0.3,1.2-0.5,1.9-0.5c0.7,0,1.3,0.2,1.9,0.5s1,0.8,1.3,1.4s0.5,1.2,0.5,2
		C124.2,79,124.2,79.1,124.2,79.3z M119,76.8c-0.4,0.4-0.7,0.9-0.8,1.5h4.8c-0.1-0.6-0.3-1.1-0.8-1.5c-0.4-0.4-1-0.6-1.6-0.6
		S119.4,76.4,119,76.8z"/>
	<path class="st26" d="M127.1,81c0.2,0.2,0.3,0.4,0.3,0.7c0,0.1,0,0.3,0,0.4s-0.1,0.3-0.2,0.6l-0.7,1.9h-0.9l0.5-2.1
		c-0.2-0.1-0.3-0.2-0.4-0.3c-0.1-0.2-0.2-0.3-0.2-0.5c0-0.3,0.1-0.5,0.3-0.7s0.4-0.3,0.7-0.3C126.7,80.7,126.9,80.8,127.1,81z"/>
	<path class="st26" d="M135.5,72.7v9.8h-1.4V74h-2.2v-1.2h3.6V72.7z"/>
	<path class="st26" d="M144.5,81.3v1.2h-7v-1l4-3.8c0.5-0.5,0.8-0.9,1-1.2c0.2-0.3,0.3-0.7,0.3-1c0-0.5-0.2-0.9-0.5-1.2
		c-0.4-0.3-0.9-0.4-1.5-0.4c-1.1,0-1.9,0.4-2.5,1.1l-1-0.8c0.4-0.5,0.9-0.8,1.5-1.1c0.6-0.3,1.3-0.4,2.1-0.4c1,0,1.8,0.2,2.5,0.7
		c0.6,0.5,0.9,1.2,0.9,2c0,0.5-0.1,1-0.3,1.5s-0.6,1-1.3,1.6l-3,2.9L144.5,81.3L144.5,81.3z"/>
	<path class="st26" d="M151.6,77c0.5,0.2,0.9,0.6,1.2,1c0.3,0.5,0.4,1,0.4,1.6s-0.2,1.2-0.5,1.6c-0.3,0.5-0.7,0.8-1.2,1.1
		s-1.1,0.4-1.8,0.4c-1.3,0-2.3-0.4-3-1.3c-0.7-0.8-1.1-2.1-1.1-3.6c0-1.1,0.2-2,0.6-2.8s0.9-1.4,1.6-1.8s1.5-0.6,2.4-0.6
		c0.5,0,0.9,0,1.3,0.1c0.4,0.1,0.8,0.2,1.1,0.4l-0.5,1.1c-0.5-0.3-1.1-0.5-1.9-0.5c-1,0-1.8,0.3-2.4,0.9c-0.6,0.6-0.9,1.5-0.9,2.8
		c0,0.1,0,0.3,0,0.4c0.3-0.4,0.7-0.7,1.2-1c0.5-0.2,1-0.3,1.7-0.3C150.5,76.6,151.1,76.7,151.6,77z M151.3,81
		c0.4-0.3,0.6-0.8,0.6-1.4s-0.2-1-0.6-1.4c-0.4-0.3-0.9-0.5-1.6-0.5c-0.4,0-0.8,0.1-1.2,0.3c-0.3,0.2-0.6,0.4-0.8,0.7
		c-0.2,0.3-0.3,0.6-0.3,1c0,0.3,0.1,0.7,0.3,0.9c0.2,0.3,0.4,0.5,0.8,0.7c0.4,0.2,0.8,0.3,1.3,0.3C150.3,81.5,150.9,81.3,151.3,81z"
		/>
	<path class="st26" d="M163.7,75.8c0.5,0.5,0.8,1.3,0.8,2.3v4.5h-1.3v-1c-0.2,0.3-0.5,0.6-1,0.8s-0.9,0.3-1.5,0.3
		c-0.8,0-1.5-0.2-2-0.6s-0.7-0.9-0.7-1.6s0.2-1.2,0.7-1.6s1.2-0.6,2.3-0.6h2.1V78c0-0.6-0.2-1-0.5-1.3s-0.8-0.5-1.5-0.5
		c-0.4,0-0.9,0.1-1.3,0.2c-0.4,0.1-0.8,0.3-1.1,0.6l-0.6-1c0.4-0.3,0.8-0.5,1.4-0.7c0.5-0.2,1.1-0.2,1.7-0.2
		C162.4,75.1,163.1,75.3,163.7,75.8z M162.4,81.2c0.4-0.2,0.6-0.6,0.8-1v-1h-2.1c-1.1,0-1.7,0.4-1.7,1.1c0,0.4,0.1,0.7,0.4,0.9
		c0.3,0.2,0.7,0.3,1.2,0.3S162,81.5,162.4,81.2z"/>
	<path class="st26" d="M173.4,75.1l-3.2,7.4h-1.4l-3.2-7.4h1.4l2.5,5.9l2.6-5.9H173.4z"/>
	<path class="st26" d="M181.2,79.3h-6c0.1,0.7,0.4,1.2,0.9,1.6s1.1,0.6,1.8,0.6c0.9,0,1.6-0.3,2.1-0.9l0.7,0.9
		c-0.3,0.4-0.8,0.7-1.3,0.9c-0.5,0.2-1.1,0.3-1.7,0.3c-0.8,0-1.5-0.2-2.1-0.5s-1.1-0.8-1.4-1.4c-0.3-0.6-0.5-1.2-0.5-2
		c0-0.7,0.2-1.4,0.5-1.9c0.3-0.6,0.8-1,1.3-1.4c0.6-0.3,1.2-0.5,1.9-0.5s1.3,0.2,1.9,0.5c0.6,0.3,1,0.8,1.3,1.4s0.5,1.2,0.5,2
		C181.2,79,181.2,79.1,181.2,79.3z M175.9,76.8c-0.4,0.4-0.7,0.9-0.8,1.5h4.8c-0.1-0.6-0.3-1.1-0.8-1.5c-0.4-0.4-1-0.6-1.6-0.6
		S176.3,76.4,175.9,76.8z"/>
	<path class="st26" d="M189.3,75.9c0.6,0.5,0.8,1.3,0.8,2.4v4.3h-1.3v-4.1c0-0.7-0.2-1.3-0.5-1.6c-0.3-0.4-0.8-0.5-1.5-0.5
		s-1.3,0.2-1.7,0.6s-0.6,1-0.6,1.8v3.8H183v-7.4h1.3v1.1c0.3-0.4,0.6-0.7,1.1-0.9c0.5-0.2,1-0.3,1.6-0.3
		C188,75.1,188.7,75.3,189.3,75.9z"/>
	<path class="st26" d="M199.5,75.1v7.4h-1.3v-1.1c-0.3,0.4-0.6,0.7-1.1,0.9s-0.9,0.3-1.4,0.3c-1,0-1.8-0.3-2.3-0.8
		c-0.6-0.5-0.9-1.4-0.9-2.4v-4.3h1.3v4.1c0,0.7,0.2,1.3,0.5,1.6s0.8,0.6,1.5,0.6s1.3-0.2,1.7-0.6s0.6-1,0.6-1.8v-3.8L199.5,75.1
		L199.5,75.1z"/>
	<path class="st26" d="M208.7,79.3h-6c0.1,0.7,0.4,1.2,0.9,1.6s1.1,0.6,1.8,0.6c0.9,0,1.6-0.3,2.1-0.9l0.7,0.9
		c-0.3,0.4-0.8,0.7-1.3,0.9c-0.5,0.2-1.1,0.3-1.7,0.3c-0.8,0-1.5-0.2-2.1-0.5s-1.1-0.8-1.4-1.4s-0.5-1.2-0.5-2
		c0-0.7,0.2-1.4,0.5-1.9c0.3-0.6,0.8-1,1.3-1.4c0.6-0.3,1.2-0.5,1.9-0.5s1.3,0.2,1.9,0.5c0.6,0.3,1,0.8,1.3,1.4s0.5,1.2,0.5,2
		C208.8,79,208.8,79.1,208.7,79.3z M203.5,76.8c-0.4,0.4-0.7,0.9-0.8,1.5h4.8c-0.1-0.6-0.3-1.1-0.8-1.5c-0.4-0.4-1-0.6-1.6-0.6
		C204.5,76.2,203.9,76.4,203.5,76.8z"/>
	<path class="st26" d="M214.6,72.7h1.4v8.6h5.3v1.2h-6.7V72.7z"/>
	<path class="st26" d="M229.3,79.3h-6c0.1,0.7,0.4,1.2,0.9,1.6s1.1,0.6,1.8,0.6c0.9,0,1.6-0.3,2.1-0.9l0.7,0.9
		c-0.3,0.4-0.8,0.7-1.3,0.9c-0.5,0.2-1.1,0.3-1.7,0.3c-0.8,0-1.5-0.2-2.1-0.5s-1.1-0.8-1.4-1.4s-0.5-1.2-0.5-2
		c0-0.7,0.2-1.4,0.5-1.9c0.3-0.6,0.8-1,1.3-1.4c0.6-0.3,1.2-0.5,1.9-0.5s1.3,0.2,1.9,0.5c0.6,0.3,1,0.8,1.3,1.4s0.5,1.2,0.5,2
		C229.3,79,229.3,79.1,229.3,79.3z M224,76.8c-0.4,0.4-0.7,0.9-0.8,1.5h4.8c-0.1-0.6-0.3-1.1-0.8-1.5c-0.4-0.4-1-0.6-1.6-0.6
		C225,76.2,224.5,76.4,224,76.8z M226.5,72.2h1.7l-2.4,1.8h-1.3L226.5,72.2z"/>
	<path class="st26" d="M232.4,82.1c-0.6-0.3-1-0.8-1.4-1.4c-0.3-0.6-0.5-1.2-0.5-2s0.2-1.4,0.5-2s0.8-1,1.4-1.3
		c0.6-0.3,1.3-0.5,2-0.5s1.4,0.2,2,0.5s1,0.8,1.4,1.3c0.3,0.6,0.5,1.2,0.5,2s-0.2,1.4-0.5,2s-0.8,1-1.4,1.4c-0.6,0.3-1.2,0.5-2,0.5
		S233,82.5,232.4,82.1z M235.6,81.1c0.4-0.2,0.7-0.5,0.9-0.9s0.3-0.9,0.3-1.4s-0.1-1-0.3-1.4s-0.5-0.7-0.9-0.9
		c-0.4-0.2-0.8-0.3-1.3-0.3s-0.9,0.1-1.3,0.3c-0.4,0.2-0.7,0.5-0.9,0.9s-0.3,0.9-0.3,1.4s0.1,1,0.3,1.4s0.5,0.7,0.9,0.9
		s0.8,0.3,1.3,0.3S235.3,81.3,235.6,81.1z"/>
	<path class="st26" d="M246.3,75.9c0.6,0.5,0.8,1.3,0.8,2.4v4.3h-1.3v-4.1c0-0.7-0.2-1.3-0.5-1.6c-0.3-0.4-0.8-0.5-1.5-0.5
		s-1.3,0.2-1.7,0.6s-0.6,1-0.6,1.8v3.8h-1.3v-7.4h1.3v1.1c0.3-0.4,0.6-0.7,1.1-0.9c0.5-0.2,1-0.3,1.6-0.3
		C245,75.1,245.7,75.3,246.3,75.9z"/>
	<path class="st26" d="M39.4,95.1c0.3,0.4,0.5,0.9,0.5,1.6c0,0.8-0.3,1.5-1,2c-0.6,0.5-1.6,0.7-2.8,0.7h-4.7v-9.8h4.4
		c1.1,0,2,0.2,2.6,0.7c0.6,0.4,0.9,1.1,0.9,1.9c0,0.5-0.1,1-0.4,1.3c-0.2,0.4-0.6,0.7-1,0.9C38.6,94.4,39.1,94.7,39.4,95.1z
		 M32.9,90.7v3.1h2.9c0.7,0,1.3-0.1,1.7-0.4s0.6-0.7,0.6-1.2s-0.2-0.9-0.6-1.2s-0.9-0.4-1.7-0.4L32.9,90.7L32.9,90.7z M37.9,97.8
		c0.4-0.3,0.6-0.7,0.6-1.2c0-1.1-0.8-1.6-2.4-1.6h-3.2v3.3h3.2C36.9,98.2,37.5,98.1,37.9,97.8z"/>
	<path class="st26" d="M48.5,96.1h-6c0.1,0.7,0.4,1.2,0.9,1.6s1.1,0.6,1.8,0.6c0.9,0,1.6-0.3,2.1-0.9l0.7,0.9
		c-0.3,0.4-0.8,0.7-1.3,0.9c-0.5,0.2-1.1,0.3-1.7,0.3c-0.8,0-1.5-0.2-2.1-0.5s-1.1-0.8-1.4-1.4c-0.3-0.6-0.5-1.2-0.5-2
		c0-0.7,0.2-1.4,0.5-1.9c0.3-0.6,0.8-1,1.3-1.4c0.6-0.3,1.2-0.5,1.9-0.5s1.3,0.2,1.9,0.5c0.6,0.3,1,0.8,1.3,1.4s0.5,1.2,0.5,2
		C48.6,95.8,48.6,95.9,48.5,96.1z M43.3,93.6c-0.4,0.4-0.7,0.9-0.8,1.5h4.8c-0.1-0.6-0.3-1.1-0.8-1.5c-0.4-0.4-1-0.6-1.6-0.6
		S43.7,93.2,43.3,93.6z M45.7,89h1.7L45,90.8h-1.3L45.7,89z"/>
	<path class="st26" d="M52.8,92.2c0.5-0.2,1-0.3,1.7-0.3v1.3c-0.1,0-0.2,0-0.3,0c-0.7,0-1.3,0.2-1.7,0.7c-0.4,0.4-0.6,1.1-0.6,1.9
		v3.7h-1.3v-7.4h1.3v1.2C52,92.7,52.3,92.4,52.8,92.2z"/>
	<path class="st26" d="M62.7,96.1h-6c0.1,0.7,0.4,1.2,0.9,1.6s1.1,0.6,1.8,0.6c0.9,0,1.6-0.3,2.1-0.9l0.7,0.9
		c-0.3,0.4-0.8,0.7-1.3,0.9c-0.5,0.2-1.1,0.3-1.7,0.3c-0.8,0-1.5-0.2-2.1-0.5s-1.1-0.8-1.4-1.4c-0.3-0.6-0.5-1.2-0.5-2
		c0-0.7,0.2-1.4,0.5-1.9c0.3-0.6,0.8-1,1.3-1.4c0.6-0.3,1.2-0.5,1.9-0.5s1.3,0.2,1.9,0.5c0.6,0.3,1,0.8,1.3,1.4s0.5,1.2,0.5,2
		C62.7,95.8,62.7,95.9,62.7,96.1z M57.4,93.6c-0.4,0.4-0.7,0.9-0.8,1.5h4.8c-0.1-0.6-0.3-1.1-0.8-1.5c-0.4-0.4-1-0.6-1.6-0.6
		S57.9,93.2,57.4,93.6z"/>
	<path class="st26" d="M70.8,92.7c0.6,0.5,0.8,1.3,0.8,2.4v4.3h-1.3v-4.1c0-0.7-0.2-1.3-0.5-1.6c-0.3-0.4-0.8-0.5-1.5-0.5
		s-1.3,0.2-1.7,0.6s-0.6,1-0.6,1.8v3.8h-1.3V92H66v1c0.3-0.4,0.6-0.7,1.1-0.9c0.5-0.2,1-0.3,1.6-0.3C69.5,91.9,70.2,92.1,70.8,92.7z
		"/>
	<path class="st26" d="M81.3,91.9v6.4c0,1.3-0.3,2.3-1,2.9c-0.6,0.6-1.6,0.9-2.9,0.9c-0.7,0-1.4-0.1-2-0.3c-0.6-0.2-1.1-0.5-1.5-0.8
		l0.6-1c0.3,0.3,0.8,0.5,1.3,0.7s1,0.3,1.6,0.3c0.9,0,1.5-0.2,1.9-0.6s0.6-1,0.6-1.9v-0.6c-0.3,0.4-0.7,0.7-1.2,0.9
		c-0.5,0.2-1,0.3-1.5,0.3c-0.7,0-1.4-0.2-1.9-0.5c-0.6-0.3-1-0.7-1.4-1.3c-0.3-0.5-0.5-1.2-0.5-1.9c0-0.7,0.2-1.3,0.5-1.9
		c0.3-0.5,0.8-1,1.4-1.3s1.2-0.4,1.9-0.4c0.6,0,1.1,0.1,1.6,0.3c0.5,0.2,0.9,0.5,1.2,0.9v-1.1H81.3z M78.7,97.5
		c0.4-0.2,0.7-0.5,0.9-0.9s0.3-0.8,0.3-1.3c0-0.7-0.2-1.3-0.7-1.7c-0.5-0.4-1.1-0.7-1.8-0.7c-0.8,0-1.4,0.2-1.8,0.7s-0.7,1-0.7,1.7
		c0,0.5,0.1,0.9,0.3,1.3s0.5,0.7,0.9,0.9c0.4,0.2,0.8,0.3,1.3,0.3C77.9,97.9,78.3,97.8,78.7,97.5z"/>
	<path class="st26" d="M90.5,96.1h-6c0.1,0.7,0.4,1.2,0.9,1.6s1.1,0.6,1.8,0.6c0.9,0,1.6-0.3,2.1-0.9l0.7,0.9
		c-0.3,0.4-0.8,0.7-1.3,0.9c-0.5,0.2-1.1,0.3-1.7,0.3c-0.8,0-1.5-0.2-2.1-0.5s-1.1-0.8-1.4-1.4s-0.5-1.2-0.5-2
		c0-0.7,0.2-1.4,0.5-1.9c0.3-0.6,0.8-1,1.3-1.4c0.6-0.3,1.2-0.5,1.9-0.5c0.7,0,1.3,0.2,1.9,0.5s1,0.8,1.3,1.4s0.5,1.2,0.5,2
		C90.5,95.8,90.5,95.9,90.5,96.1z M85.2,93.6c-0.4,0.4-0.7,0.9-0.8,1.5h4.8c-0.1-0.6-0.3-1.1-0.8-1.5c-0.4-0.4-1-0.6-1.6-0.6
		S85.7,93.2,85.2,93.6z"/>
	<path class="st26" d="M94.7,92.2c0.5-0.2,1-0.3,1.7-0.3v1.3c-0.1,0-0.2,0-0.3,0c-0.7,0-1.3,0.2-1.7,0.7c-0.4,0.4-0.6,1.1-0.6,1.9
		v3.7h-1.3v-7.4h1.3v1.2C93.9,92.7,94.3,92.4,94.7,92.2z"/>
	<path class="st26" d="M97.6,99.2c-0.2-0.2-0.3-0.4-0.3-0.7c0-0.3,0.1-0.5,0.3-0.7s0.4-0.3,0.7-0.3c0.3,0,0.5,0.1,0.7,0.3
		s0.3,0.4,0.3,0.7c0,0.3-0.1,0.5-0.3,0.7s-0.4,0.3-0.7,0.3C98,99.4,97.8,99.3,97.6,99.2z"/>
	<path class="st26" d="M114.2,99.3v-7.1l-3.5,6H110l-3.5-5.9v7.1h-1.3v-9.8h1.1l4.1,6.9l4-6.9h1.1v9.8L114.2,99.3L114.2,99.3z"/>
	<path class="st26" d="M125,96.1h-6c0.1,0.7,0.4,1.2,0.9,1.6s1.1,0.6,1.8,0.6c0.9,0,1.6-0.3,2.1-0.9l0.7,0.9
		c-0.3,0.4-0.8,0.7-1.3,0.9c-0.5,0.2-1.1,0.3-1.7,0.3c-0.8,0-1.5-0.2-2.1-0.5s-1.1-0.8-1.4-1.4s-0.5-1.2-0.5-2
		c0-0.7,0.2-1.4,0.5-1.9c0.3-0.6,0.8-1,1.3-1.4c0.6-0.3,1.2-0.5,1.9-0.5c0.7,0,1.3,0.2,1.9,0.5s1,0.8,1.3,1.4s0.5,1.2,0.5,2
		C125,95.8,125,95.9,125,96.1z M119.7,93.6c-0.4,0.4-0.7,0.9-0.8,1.5h4.8c-0.1-0.6-0.3-1.1-0.8-1.5c-0.4-0.4-1-0.6-1.6-0.6
		S120.2,93.2,119.7,93.6z"/>
	<path class="st26" d="M129.2,92.2c0.5-0.2,1-0.3,1.7-0.3v1.3c-0.1,0-0.2,0-0.3,0c-0.7,0-1.3,0.2-1.7,0.7c-0.4,0.4-0.6,1.1-0.6,1.9
		v3.7H127v-7.4h1.3v1.2C128.4,92.7,128.7,92.4,129.2,92.2z"/>
	<path class="st26" d="M133.6,98.9c-0.6-0.3-1.1-0.8-1.4-1.4c-0.3-0.6-0.5-1.2-0.5-2s0.2-1.4,0.5-2s0.8-1,1.4-1.3
		c0.6-0.3,1.3-0.5,2-0.5s1.3,0.1,1.8,0.4s0.9,0.7,1.2,1.2l-1,0.7c-0.2-0.4-0.5-0.6-0.9-0.8c-0.3-0.2-0.7-0.3-1.1-0.3
		c-0.5,0-0.9,0.1-1.3,0.3c-0.4,0.2-0.7,0.5-0.9,0.9s-0.3,0.9-0.3,1.4s0.1,1,0.3,1.4s0.5,0.7,0.9,0.9c0.4,0.2,0.8,0.3,1.3,0.3
		c0.4,0,0.8-0.1,1.1-0.3c0.3-0.2,0.6-0.4,0.9-0.8l1,0.6c-0.3,0.5-0.7,0.9-1.2,1.2c-0.5,0.3-1.1,0.4-1.8,0.4
		C134.9,99.4,134.2,99.3,133.6,98.9z"/>
	<path class="st26" d="M140.5,90.2c-0.2-0.2-0.3-0.4-0.3-0.6s0.1-0.5,0.3-0.6s0.4-0.3,0.7-0.3s0.5,0.1,0.7,0.2
		c0.2,0.2,0.3,0.4,0.3,0.6c0,0.3-0.1,0.5-0.3,0.6c-0.2,0.2-0.4,0.3-0.7,0.3S140.6,90.4,140.5,90.2z M140.4,91.9h1.3v7.4h-1.3V91.9z"
		/>
	<path class="st26" d="M155.1,89v10.4h-1.3v-1.2c-0.3,0.4-0.7,0.7-1.1,0.9c-0.5,0.2-1,0.3-1.5,0.3c-0.7,0-1.4-0.2-1.9-0.5
		c-0.6-0.3-1-0.8-1.3-1.3c-0.3-0.6-0.5-1.2-0.5-2s0.2-1.4,0.5-2s0.8-1,1.3-1.3c0.6-0.3,1.2-0.5,1.9-0.5c0.5,0,1,0.1,1.5,0.3
		c0.4,0.2,0.8,0.5,1.1,0.9v-4H155.1z M152.6,97.9c0.4-0.2,0.7-0.5,0.9-0.9s0.3-0.9,0.3-1.4s-0.1-1-0.3-1.4s-0.5-0.7-0.9-0.9
		c-0.4-0.2-0.8-0.3-1.3-0.3s-0.9,0.1-1.3,0.3c-0.4,0.2-0.7,0.5-0.9,0.9s-0.3,0.9-0.3,1.4s0.1,1,0.3,1.4s0.5,0.7,0.9,0.9
		s0.8,0.3,1.3,0.3C151.7,98.2,152.2,98.1,152.6,97.9z"/>
	<path class="st26" d="M164.3,96.1h-6c0.1,0.7,0.4,1.2,0.9,1.6s1.1,0.6,1.8,0.6c0.9,0,1.6-0.3,2.1-0.9l0.7,0.9
		c-0.3,0.4-0.8,0.7-1.3,0.9c-0.5,0.2-1.1,0.3-1.7,0.3c-0.8,0-1.5-0.2-2.1-0.5s-1.1-0.8-1.4-1.4c-0.3-0.6-0.5-1.2-0.5-2
		c0-0.7,0.2-1.4,0.5-1.9c0.3-0.6,0.8-1,1.3-1.4c0.6-0.3,1.2-0.5,1.9-0.5s1.3,0.2,1.9,0.5c0.6,0.3,1,0.8,1.3,1.4s0.5,1.2,0.5,2
		C164.4,95.8,164.3,95.9,164.3,96.1z M159.1,93.6c-0.4,0.4-0.7,0.9-0.8,1.5h4.8c-0.1-0.6-0.3-1.1-0.8-1.5c-0.4-0.4-1-0.6-1.6-0.6
		S159.5,93.2,159.1,93.6z"/>
	<path class="st26" d="M176.2,92.7c0.6,0.5,0.8,1.3,0.8,2.4v4.3h-1.3v-4.1c0-0.7-0.2-1.3-0.5-1.6c-0.3-0.4-0.8-0.5-1.5-0.5
		s-1.3,0.2-1.7,0.6s-0.6,1-0.6,1.8v3.8H170V92h1.3v1c0.3-0.4,0.6-0.7,1.1-0.9c0.5-0.2,1-0.3,1.6-0.3
		C174.9,91.9,175.6,92.1,176.2,92.7z"/>
	<path class="st26" d="M180.8,98.9c-0.6-0.3-1-0.8-1.4-1.4c-0.3-0.6-0.5-1.2-0.5-2s0.2-1.4,0.5-2s0.8-1,1.4-1.3
		c0.6-0.3,1.3-0.5,2-0.5s1.4,0.2,2,0.5s1,0.8,1.4,1.3c0.3,0.6,0.5,1.2,0.5,2s-0.2,1.4-0.5,2s-0.8,1-1.4,1.4c-0.6,0.3-1.2,0.5-2,0.5
		S181.3,99.3,180.8,98.9z M184,97.9c0.4-0.2,0.7-0.5,0.9-0.9s0.3-0.9,0.3-1.4s-0.1-1-0.3-1.4s-0.5-0.7-0.9-0.9
		c-0.4-0.2-0.8-0.3-1.3-0.3s-0.9,0.1-1.3,0.3c-0.4,0.2-0.7,0.5-0.9,0.9s-0.3,0.9-0.3,1.4s0.1,1,0.3,1.4s0.5,0.7,0.9,0.9
		s0.8,0.3,1.3,0.3S183.6,98.1,184,97.9z"/>
	<path class="st26" d="M195.4,91.9v7.4h-1.3v-1.1c-0.3,0.4-0.6,0.7-1.1,0.9c-0.4,0.2-0.9,0.3-1.4,0.3c-1,0-1.8-0.3-2.3-0.8
		c-0.6-0.5-0.9-1.4-0.9-2.4v-4.3h1.3V96c0,0.7,0.2,1.3,0.5,1.6s0.8,0.6,1.5,0.6s1.3-0.2,1.7-0.6s0.6-1,0.6-1.8V92L195.4,91.9
		L195.4,91.9z"/>
	<path class="st26" d="M198.3,99.2c-0.6-0.2-1-0.4-1.3-0.6l0.6-1.1c0.3,0.2,0.7,0.4,1.2,0.6s0.9,0.2,1.4,0.2c1.2,0,1.8-0.3,1.8-1
		c0-0.2-0.1-0.4-0.2-0.5c-0.2-0.1-0.4-0.2-0.6-0.3c-0.2-0.1-0.6-0.1-1-0.2c-0.6-0.1-1.1-0.2-1.5-0.3c-0.4-0.1-0.7-0.3-1-0.6
		c-0.3-0.3-0.4-0.7-0.4-1.2c0-0.7,0.3-1.2,0.8-1.6c0.6-0.4,1.3-0.6,2.3-0.6c0.5,0,1,0.1,1.5,0.2s0.9,0.3,1.2,0.5l-0.6,1.1
		c-0.6-0.4-1.3-0.6-2.1-0.6c-0.6,0-1,0.1-1.3,0.3c-0.3,0.2-0.4,0.4-0.4,0.7c0,0.2,0.1,0.4,0.3,0.6s0.4,0.2,0.6,0.3
		c0.2,0.1,0.6,0.1,1,0.2c0.6,0.1,1.1,0.2,1.4,0.3c0.4,0.1,0.7,0.3,0.9,0.6c0.3,0.3,0.4,0.7,0.4,1.2c0,0.7-0.3,1.2-0.9,1.6
		c-0.6,0.4-1.4,0.6-2.3,0.6C199.4,99.4,198.9,99.3,198.3,99.2z"/>
	<path class="st26" d="M32.5,115.7c-0.6-0.3-1.1-0.8-1.4-1.4s-0.5-1.2-0.5-2s0.2-1.4,0.5-2s0.8-1,1.4-1.3c0.6-0.3,1.3-0.5,2-0.5
		s1.3,0.1,1.8,0.4s0.9,0.7,1.2,1.2l-1,0.7c-0.2-0.4-0.5-0.6-0.9-0.8c-0.3-0.2-0.7-0.3-1.1-0.3c-0.5,0-0.9,0.1-1.3,0.3
		c-0.4,0.2-0.7,0.5-0.9,0.9s-0.3,0.9-0.3,1.4s0.1,1,0.3,1.4s0.5,0.7,0.9,0.9c0.4,0.2,0.8,0.3,1.3,0.3c0.4,0,0.8-0.1,1.1-0.3
		c0.3-0.2,0.6-0.4,0.9-0.8l1,0.6c-0.3,0.5-0.7,0.9-1.2,1.2c-0.5,0.3-1.1,0.4-1.8,0.4C33.8,116.2,33.1,116.1,32.5,115.7z"/>
	<path class="st26" d="M40.3,115.7c-0.6-0.3-1-0.8-1.4-1.4c-0.3-0.6-0.5-1.2-0.5-2s0.2-1.4,0.5-2s0.8-1,1.4-1.3
		c0.6-0.3,1.3-0.5,2-0.5s1.4,0.2,2,0.5s1,0.8,1.4,1.3c0.3,0.6,0.5,1.2,0.5,2s-0.2,1.4-0.5,2s-0.8,1-1.4,1.4c-0.6,0.3-1.2,0.5-2,0.5
		C41.6,116.2,40.9,116.1,40.3,115.7z M43.6,114.7c0.4-0.2,0.7-0.5,0.9-0.9s0.3-0.9,0.3-1.4s-0.1-1-0.3-1.4s-0.5-0.7-0.9-0.9
		c-0.4-0.2-0.8-0.3-1.3-0.3s-0.9,0.1-1.3,0.3c-0.4,0.2-0.7,0.5-0.9,0.9s-0.3,0.9-0.3,1.4s0.1,1,0.3,1.4s0.5,0.7,0.9,0.9
		s0.8,0.3,1.3,0.3S43.2,114.9,43.6,114.7z"/>
	<path class="st26" d="M54.3,109.5c0.6,0.5,0.8,1.3,0.8,2.4v4.3h-1.3V112c0-0.7-0.2-1.3-0.5-1.6c-0.3-0.4-0.8-0.5-1.5-0.5
		s-1.3,0.2-1.7,0.6s-0.6,1-0.6,1.8v3.8H48v-7.4h1.3v1.1c0.3-0.4,0.6-0.7,1.1-0.9c0.5-0.2,1-0.3,1.6-0.3
		C53,108.7,53.7,108.9,54.3,109.5z"/>
	<path class="st26" d="M61.8,115.7c-0.2,0.2-0.4,0.3-0.7,0.4s-0.6,0.1-0.9,0.1c-0.7,0-1.3-0.2-1.7-0.6s-0.6-1-0.6-1.7v-4.1h-1.3
		v-1.1h1.3v-1.6h1.3v1.6h2.1v1.1h-2.1v4c0,0.4,0.1,0.7,0.3,0.9c0.2,0.2,0.5,0.3,0.9,0.3s0.8-0.1,1-0.4L61.8,115.7z"/>
	<path class="st26" d="M68.4,109.4c0.5,0.5,0.8,1.3,0.8,2.3v4.5H68v-1c-0.2,0.3-0.5,0.6-1,0.8s-0.9,0.3-1.5,0.3
		c-0.8,0-1.5-0.2-2-0.6s-0.7-0.9-0.7-1.6s0.2-1.2,0.7-1.6s1.2-0.6,2.3-0.6h2.1v-0.3c0-0.6-0.2-1-0.5-1.3s-0.8-0.5-1.5-0.5
		c-0.4,0-0.9,0.1-1.3,0.2s-0.8,0.3-1.1,0.6l-0.6-1c0.4-0.3,0.8-0.5,1.4-0.7c0.5-0.2,1.1-0.2,1.7-0.2
		C67.1,108.7,67.9,108.9,68.4,109.4z M67.1,114.8c0.4-0.2,0.6-0.6,0.8-1v-1h-2.1c-1.1,0-1.7,0.4-1.7,1.1c0,0.4,0.1,0.7,0.4,0.9
		c0.3,0.2,0.7,0.3,1.2,0.3S66.7,115.1,67.1,114.8z"/>
	<path class="st26" d="M73,115.7c-0.6-0.3-1.1-0.8-1.4-1.4s-0.5-1.2-0.5-2s0.2-1.4,0.5-2s0.8-1,1.4-1.3s1.3-0.5,2-0.5
		s1.3,0.1,1.8,0.4s0.9,0.7,1.2,1.2l-1,0.7c-0.2-0.4-0.5-0.6-0.9-0.8c-0.3-0.2-0.7-0.3-1.1-0.3c-0.5,0-0.9,0.1-1.3,0.3
		c-0.4,0.2-0.7,0.5-0.9,0.9c-0.2,0.4-0.3,0.9-0.3,1.4s0.1,1,0.3,1.4c0.2,0.4,0.5,0.7,0.9,0.9c0.4,0.2,0.8,0.3,1.3,0.3
		c0.4,0,0.8-0.1,1.1-0.3c0.3-0.2,0.6-0.4,0.9-0.8l1,0.6c-0.3,0.5-0.7,0.9-1.2,1.2c-0.5,0.3-1.1,0.4-1.8,0.4
		C74.3,116.2,73.6,116.1,73,115.7z"/>
	<path class="st26" d="M84.1,115.7c-0.2,0.2-0.4,0.3-0.7,0.4c-0.3,0.1-0.6,0.1-0.9,0.1c-0.7,0-1.3-0.2-1.7-0.6
		c-0.4-0.4-0.6-1-0.6-1.7v-4.1h-1.3v-1.1h1.3v-1.6h1.3v1.6h2.1v1.1h-2.1v4c0,0.4,0.1,0.7,0.3,0.9c0.2,0.2,0.5,0.3,0.9,0.3
		s0.8-0.1,1-0.4L84.1,115.7z"/>
	<path class="st26" d="M92.1,112.9h-6c0.1,0.7,0.4,1.2,0.9,1.6s1.1,0.6,1.8,0.6c0.9,0,1.6-0.3,2.1-0.9l0.7,0.9
		c-0.3,0.4-0.8,0.7-1.3,0.9c-0.5,0.2-1.1,0.3-1.7,0.3c-0.8,0-1.5-0.2-2.1-0.5s-1.1-0.8-1.4-1.4s-0.5-1.2-0.5-2
		c0-0.7,0.2-1.4,0.5-1.9c0.3-0.6,0.8-1,1.3-1.4c0.6-0.3,1.2-0.5,1.9-0.5c0.7,0,1.3,0.2,1.9,0.5s1,0.8,1.3,1.4s0.5,1.2,0.5,2
		C92.1,112.6,92.1,112.7,92.1,112.9z M86.8,110.4c-0.4,0.4-0.7,0.9-0.8,1.5h4.8c-0.1-0.6-0.3-1.1-0.8-1.5c-0.4-0.4-1-0.6-1.6-0.6
		S87.3,110,86.8,110.4z"/>
	<path class="st26" d="M96.3,109c0.5-0.2,1-0.3,1.7-0.3v1.3c-0.1,0-0.2,0-0.3,0c-0.7,0-1.3,0.2-1.7,0.7c-0.4,0.4-0.6,1.1-0.6,1.9
		v3.7H94v-7.4h1.3v1.2C95.5,109.5,95.9,109.2,96.3,109z"/>
	<path class="st26" d="M108.6,109.4c0.5,0.5,0.8,1.3,0.8,2.3v4.5h-1.3v-1c-0.2,0.3-0.5,0.6-1,0.8s-0.9,0.3-1.5,0.3
		c-0.8,0-1.5-0.2-2-0.6s-0.7-0.9-0.7-1.6s0.2-1.2,0.7-1.6s1.2-0.6,2.3-0.6h2.1v-0.3c0-0.6-0.2-1-0.5-1.3s-0.8-0.5-1.5-0.5
		c-0.4,0-0.9,0.1-1.3,0.2s-0.8,0.3-1.1,0.6l-0.6-1c0.4-0.3,0.8-0.5,1.4-0.7c0.5-0.2,1.1-0.2,1.7-0.2
		C107.2,108.7,108,108.9,108.6,109.4z M107.2,114.8c0.4-0.2,0.6-0.6,0.8-1v-1h-2c-1.1,0-1.7,0.4-1.7,1.1c0,0.4,0.1,0.7,0.4,0.9
		c0.3,0.2,0.7,0.3,1.2,0.3S106.8,115.1,107.2,114.8z"/>
	<path class="st26" d="M118.8,108.7v7.4h-1.3V115c-0.3,0.4-0.6,0.7-1.1,0.9c-0.4,0.2-0.9,0.3-1.4,0.3c-1,0-1.8-0.3-2.3-0.8
		c-0.6-0.5-0.9-1.4-0.9-2.4v-4.3h1.3v4.1c0,0.7,0.2,1.3,0.5,1.6s0.8,0.6,1.5,0.6s1.3-0.2,1.7-0.6c0.4-0.4,0.6-1,0.6-1.8v-3.8
		L118.8,108.7L118.8,108.7z"/>
	<path class="st26" d="M126.5,115.7c-0.6-0.4-1.1-1-1.4-1.7s-0.5-1.7-0.5-2.7s0.2-1.9,0.5-2.7c0.3-0.8,0.8-1.3,1.4-1.7
		s1.3-0.6,2.1-0.6s1.4,0.2,2.1,0.6s1.1,1,1.4,1.7c0.3,0.8,0.5,1.7,0.5,2.7s-0.2,1.9-0.5,2.7s-0.8,1.3-1.4,1.7s-1.3,0.6-2.1,0.6
		C127.7,116.3,127.1,116.1,126.5,115.7z M130.4,114c0.5-0.6,0.7-1.6,0.7-2.8s-0.2-2.2-0.7-2.8c-0.5-0.6-1.1-1-1.9-1
		c-0.8,0-1.4,0.3-1.9,1s-0.7,1.6-0.7,2.8s0.2,2.2,0.7,2.8s1.1,1,1.9,1S129.9,114.7,130.4,114z"/>
	<path class="st26" d="M140.1,107.5c0.7,0.8,1.1,2.1,1.1,3.6c0,1.1-0.2,2-0.6,2.8s-0.9,1.4-1.6,1.8c-0.7,0.4-1.5,0.6-2.4,0.6
		c-0.5,0-0.9,0-1.3-0.1c-0.4-0.1-0.8-0.2-1.1-0.4l0.5-1.1c0.5,0.3,1.1,0.5,1.9,0.5c1,0,1.8-0.3,2.4-0.9c0.6-0.6,0.9-1.5,0.9-2.8V111
		c-0.3,0.4-0.7,0.7-1.2,1c-0.5,0.2-1,0.3-1.7,0.3c-0.6,0-1.2-0.1-1.7-0.4s-0.9-0.6-1.2-1s-0.4-1-0.4-1.6s0.2-1.2,0.5-1.6
		c0.3-0.5,0.7-0.8,1.2-1.1c0.5-0.3,1.1-0.4,1.8-0.4C138.3,106.2,139.4,106.7,140.1,107.5z M138.3,110.9c0.3-0.2,0.6-0.4,0.8-0.7
		c0.2-0.3,0.3-0.6,0.3-1c0-0.3-0.1-0.7-0.3-0.9c-0.2-0.3-0.4-0.5-0.8-0.7c-0.3-0.2-0.8-0.3-1.3-0.3c-0.6,0-1.2,0.2-1.6,0.5
		c-0.4,0.3-0.6,0.8-0.6,1.4s0.2,1,0.6,1.4c0.4,0.3,0.9,0.5,1.6,0.5C137.6,111.2,138,111.1,138.3,110.9z"/>
	<path class="st26" d="M149.8,111.9c0.3,0.4,0.4,0.9,0.4,1.4c0,0.6-0.2,1.1-0.5,1.5s-0.8,0.8-1.4,1s-1.3,0.3-2.1,0.3
		s-1.5-0.1-2.1-0.3s-1-0.6-1.4-1c-0.3-0.4-0.5-0.9-0.5-1.5s0.1-1,0.4-1.4s0.7-0.7,1.3-0.9c-0.4-0.2-0.8-0.5-1-0.9s-0.4-0.8-0.4-1.3
		s0.1-1,0.4-1.4c0.3-0.4,0.7-0.7,1.2-0.9s1.1-0.3,1.8-0.3s1.3,0.1,1.9,0.3s1,0.5,1.2,0.9s0.4,0.9,0.4,1.4s-0.1,0.9-0.4,1.3
		c-0.2,0.4-0.6,0.6-1,0.9C149,111.2,149.5,111.5,149.8,111.9z M148.1,114.6c0.4-0.3,0.7-0.8,0.7-1.3s-0.2-1-0.7-1.3
		c-0.4-0.3-1.1-0.5-1.8-0.5c-0.8,0-1.4,0.2-1.8,0.5c-0.4,0.3-0.7,0.7-0.7,1.3c0,0.6,0.2,1,0.7,1.3c0.4,0.3,1,0.5,1.8,0.5
		S147.7,115,148.1,114.6z M144.7,107.8c-0.4,0.3-0.6,0.7-0.6,1.2s0.2,0.9,0.6,1.1c0.4,0.3,0.9,0.4,1.6,0.4c0.7,0,1.2-0.1,1.6-0.4
		c0.4-0.3,0.6-0.7,0.6-1.1s-0.2-0.9-0.6-1.2c-0.4-0.3-0.9-0.4-1.6-0.4C145.6,107.4,145.1,107.5,144.7,107.8z"/>
	<path class="st26" d="M157.5,111.3c0.5,0.5,0.8,1.1,0.8,1.9c0,0.6-0.1,1.1-0.4,1.5c-0.3,0.5-0.7,0.8-1.3,1.1
		c-0.6,0.3-1.2,0.4-2,0.4c-0.7,0-1.4-0.1-2-0.3s-1.2-0.5-1.6-0.9l0.6-1.1c0.3,0.3,0.8,0.6,1.3,0.8c0.5,0.2,1.1,0.3,1.7,0.3
		c0.7,0,1.3-0.2,1.7-0.5s0.6-0.7,0.6-1.3c0-0.5-0.2-1-0.6-1.3s-1-0.4-1.8-0.4h-0.8v-1l2.5-3h-4.7v-1.2h6.5v1l-2.6,3.2
		C156.2,110.6,157,110.8,157.5,111.3z"/>
	<path class="st26" d="M165.5,110.6c0.5,0.2,0.9,0.6,1.2,1c0.3,0.5,0.4,1,0.4,1.6s-0.2,1.2-0.5,1.6c-0.3,0.5-0.7,0.8-1.2,1.1
		s-1.1,0.4-1.8,0.4c-1.3,0-2.3-0.4-3-1.3c-0.7-0.8-1.1-2.1-1.1-3.6c0-1.1,0.2-2,0.6-2.8s0.9-1.4,1.6-1.8s1.5-0.6,2.4-0.6
		c0.5,0,0.9,0,1.3,0.1c0.4,0.1,0.8,0.2,1.1,0.4l-0.5,1.1c-0.5-0.3-1.1-0.5-1.9-0.5c-1,0-1.8,0.3-2.4,0.9c-0.6,0.6-0.9,1.5-0.9,2.8
		c0,0.1,0,0.3,0,0.4c0.3-0.4,0.7-0.7,1.2-1c0.5-0.2,1-0.3,1.7-0.3C164.4,110.2,165,110.3,165.5,110.6z M165.1,114.6
		c0.4-0.3,0.6-0.8,0.6-1.4s-0.2-1-0.6-1.4c-0.4-0.3-0.9-0.5-1.6-0.5c-0.4,0-0.8,0.1-1.2,0.3c-0.3,0.2-0.6,0.4-0.8,0.7
		c-0.2,0.3-0.3,0.6-0.3,1c0,0.3,0.1,0.7,0.3,0.9c0.2,0.3,0.4,0.5,0.8,0.7c0.4,0.2,0.8,0.3,1.3,0.3
		C164.2,115.1,164.7,114.9,165.1,114.6z"/>
	<path class="st26" d="M174.1,110.6c0.5,0.2,0.9,0.6,1.2,1c0.3,0.5,0.4,1,0.4,1.6s-0.2,1.2-0.5,1.6c-0.3,0.5-0.7,0.8-1.2,1.1
		s-1.1,0.4-1.8,0.4c-1.3,0-2.3-0.4-3-1.3c-0.7-0.8-1.1-2.1-1.1-3.6c0-1.1,0.2-2,0.6-2.8s0.9-1.4,1.6-1.8s1.5-0.6,2.4-0.6
		c0.5,0,0.9,0,1.3,0.1c0.4,0.1,0.8,0.2,1.1,0.4l-0.5,1.1c-0.5-0.3-1.1-0.5-1.9-0.5c-1,0-1.8,0.3-2.4,0.9c-0.6,0.6-0.9,1.5-0.9,2.8
		c0,0.1,0,0.3,0,0.4c0.3-0.4,0.7-0.7,1.2-1c0.5-0.2,1-0.3,1.7-0.3C173,110.2,173.6,110.3,174.1,110.6z M173.8,114.6
		c0.4-0.3,0.6-0.8,0.6-1.4s-0.2-1-0.6-1.4c-0.4-0.3-0.9-0.5-1.6-0.5c-0.4,0-0.8,0.1-1.2,0.3c-0.3,0.2-0.6,0.4-0.8,0.7
		c-0.2,0.3-0.3,0.6-0.3,1c0,0.3,0.1,0.7,0.3,0.9c0.2,0.3,0.4,0.5,0.8,0.7c0.4,0.2,0.8,0.3,1.3,0.3
		C172.9,115.1,173.4,114.9,173.8,114.6z"/>
	<path class="st26" d="M184.1,111.9c0.3,0.4,0.4,0.9,0.4,1.4c0,0.6-0.2,1.1-0.5,1.5s-0.8,0.8-1.4,1s-1.3,0.3-2.1,0.3
		s-1.5-0.1-2.1-0.3s-1-0.6-1.4-1c-0.3-0.4-0.5-0.9-0.5-1.5s0.1-1,0.4-1.4s0.7-0.7,1.3-0.9c-0.4-0.2-0.8-0.5-1-0.9s-0.4-0.8-0.4-1.3
		s0.1-1,0.4-1.4c0.3-0.4,0.7-0.7,1.2-0.9s1.1-0.3,1.8-0.3s1.3,0.1,1.9,0.3s1,0.5,1.2,0.9s0.4,0.9,0.4,1.4s-0.1,0.9-0.4,1.3
		c-0.2,0.4-0.6,0.6-1,0.9C183.3,111.2,183.8,111.5,184.1,111.9z M182.4,114.6c0.4-0.3,0.7-0.8,0.7-1.3s-0.2-1-0.7-1.3
		c-0.4-0.3-1.1-0.5-1.8-0.5c-0.8,0-1.4,0.2-1.8,0.5c-0.4,0.3-0.7,0.7-0.7,1.3c0,0.6,0.2,1,0.7,1.3c0.4,0.3,1,0.5,1.8,0.5
		S182,115,182.4,114.6z M179,107.8c-0.4,0.3-0.6,0.7-0.6,1.2s0.2,0.9,0.6,1.1c0.4,0.3,0.9,0.4,1.6,0.4c0.7,0,1.2-0.1,1.6-0.4
		c0.4-0.3,0.6-0.7,0.6-1.1s-0.2-0.9-0.6-1.2c-0.4-0.3-0.9-0.4-1.6-0.4S179.4,107.5,179,107.8z"/>
	<path class="st26" d="M192.9,106.3v1l-4,8.8h-1.5l3.9-8.6h-4.5v1.8h-1.3v-3C185.5,106.3,192.9,106.3,192.9,106.3z"/>
	<path class="st26" d="M201.8,113.7h-1.9v2.4h-1.4v-2.4h-5.4v-1l5-6.4h1.5l-4.8,6.2h3.8v-2.1h1.3v2.1h1.9L201.8,113.7L201.8,113.7z"
		/>
	<path class="st26" d="M208.5,111c0.7,0.5,1,1.2,1,2.2c0,0.6-0.1,1.1-0.4,1.6s-0.7,0.8-1.2,1.1c-0.6,0.3-1.2,0.4-2.1,0.4
		c-0.7,0-1.4-0.1-2-0.3s-1.2-0.5-1.6-0.9l0.6-1.1c0.3,0.3,0.8,0.6,1.3,0.8s1.1,0.3,1.7,0.3c0.7,0,1.3-0.2,1.7-0.5s0.6-0.7,0.6-1.3
		c0-0.6-0.2-1-0.7-1.3c-0.4-0.3-1.2-0.5-2.3-0.5h-2.2l0.5-5.1h5.5v1.2h-4.4l-0.3,2.7h1.1C206.8,110.2,207.8,110.5,208.5,111z"/>
	<path class="st26" d="M221.7,112.9h-6c0.1,0.7,0.4,1.2,0.9,1.6s1.1,0.6,1.8,0.6c0.9,0,1.6-0.3,2.1-0.9l0.7,0.9
		c-0.3,0.4-0.8,0.7-1.3,0.9c-0.5,0.2-1.1,0.3-1.7,0.3c-0.8,0-1.5-0.2-2.1-0.5s-1.1-0.8-1.4-1.4s-0.5-1.2-0.5-2
		c0-0.7,0.2-1.4,0.5-1.9c0.3-0.6,0.8-1,1.3-1.4c0.6-0.3,1.2-0.5,1.9-0.5s1.3,0.2,1.9,0.5c0.6,0.3,1,0.8,1.3,1.4s0.5,1.2,0.5,2
		C221.7,112.6,221.7,112.7,221.7,112.9z M216.4,110.4c-0.4,0.4-0.7,0.9-0.8,1.5h4.8c-0.1-0.6-0.3-1.1-0.8-1.5
		c-0.4-0.4-1-0.6-1.6-0.6C217.4,109.8,216.8,110,216.4,110.4z"/>
	<path class="st26" d="M229.8,109.5c0.6,0.5,0.8,1.3,0.8,2.4v4.3h-1.3V112c0-0.7-0.2-1.3-0.5-1.6c-0.3-0.4-0.8-0.5-1.5-0.5
		s-1.3,0.2-1.7,0.6s-0.6,1-0.6,1.8v3.8h-1.3v-7.4h1.3v1.1c0.3-0.4,0.6-0.7,1.1-0.9c0.5-0.2,1-0.3,1.6-0.3
		C228.5,108.7,229.2,108.9,229.8,109.5z"/>
	<path class="st26" d="M238.1,115.7c-0.6-0.3-1.1-0.8-1.4-1.4c-0.3-0.6-0.5-1.2-0.5-2s0.2-1.4,0.5-2s0.8-1,1.4-1.3
		c0.6-0.3,1.3-0.5,2-0.5s1.3,0.1,1.8,0.4s0.9,0.7,1.2,1.2l-1,0.7c-0.2-0.4-0.5-0.6-0.9-0.8c-0.3-0.2-0.7-0.3-1.1-0.3
		c-0.5,0-0.9,0.1-1.3,0.3c-0.4,0.2-0.7,0.5-0.9,0.9s-0.3,0.9-0.3,1.4s0.1,1,0.3,1.4s0.5,0.7,0.9,0.9c0.4,0.2,0.8,0.3,1.3,0.3
		c0.4,0,0.8-0.1,1.1-0.3c0.3-0.2,0.6-0.4,0.9-0.8l1,0.6c-0.3,0.5-0.7,0.9-1.2,1.2c-0.5,0.3-1.1,0.4-1.8,0.4
		C239.3,116.2,238.7,116.1,238.1,115.7z"/>
	<path class="st26" d="M249.9,109.4c0.5,0.5,0.8,1.3,0.8,2.3v4.5h-1.3v-1c-0.2,0.3-0.5,0.6-1,0.8s-0.9,0.3-1.5,0.3
		c-0.8,0-1.5-0.2-2-0.6s-0.7-0.9-0.7-1.6s0.2-1.2,0.7-1.6s1.2-0.6,2.3-0.6h2.1v-0.3c0-0.6-0.2-1-0.5-1.3s-0.8-0.5-1.5-0.5
		c-0.4,0-0.9,0.1-1.3,0.2s-0.8,0.3-1.1,0.6l-0.6-1c0.4-0.3,0.8-0.5,1.4-0.7c0.5-0.2,1.1-0.2,1.7-0.2
		C248.6,108.7,249.4,108.9,249.9,109.4z M248.6,114.8c0.4-0.2,0.6-0.6,0.8-1v-1h-2.1c-1.1,0-1.7,0.4-1.7,1.1c0,0.4,0.1,0.7,0.4,0.9
		s0.7,0.3,1.2,0.3S248.2,115.1,248.6,114.8z"/>
	<path class="st26" d="M253.6,116c-0.6-0.2-1-0.4-1.3-0.6l0.6-1.1c0.3,0.2,0.7,0.4,1.2,0.6s0.9,0.2,1.4,0.2c1.2,0,1.8-0.3,1.8-1
		c0-0.2-0.1-0.4-0.2-0.5c-0.2-0.1-0.4-0.2-0.6-0.3c-0.2-0.1-0.6-0.1-1-0.2c-0.6-0.1-1.1-0.2-1.5-0.3c-0.4-0.1-0.7-0.3-1-0.6
		c-0.3-0.3-0.4-0.7-0.4-1.2c0-0.7,0.3-1.2,0.8-1.6c0.6-0.4,1.3-0.6,2.3-0.6c0.5,0,1,0.1,1.5,0.2s0.9,0.3,1.2,0.5l-0.6,1.1
		c-0.6-0.4-1.3-0.6-2.1-0.6c-0.6,0-1,0.1-1.3,0.3c-0.3,0.2-0.4,0.4-0.4,0.7c0,0.2,0.1,0.4,0.3,0.6s0.4,0.2,0.6,0.3
		c0.2,0.1,0.6,0.1,1,0.2c0.6,0.1,1.1,0.2,1.4,0.3c0.4,0.1,0.7,0.3,0.9,0.6c0.3,0.3,0.4,0.7,0.4,1.2c0,0.7-0.3,1.2-0.9,1.6
		s-1.4,0.6-2.3,0.6C254.7,116.2,254.2,116.1,253.6,116z"/>
	<path class="st26" d="M38.3,122.6V133H37v-1.2c-0.3,0.4-0.7,0.7-1.1,0.9c-0.5,0.2-1,0.3-1.5,0.3c-0.7,0-1.4-0.2-1.9-0.5
		c-0.6-0.3-1-0.8-1.3-1.3c-0.3-0.6-0.5-1.2-0.5-2s0.2-1.4,0.5-2s0.8-1,1.3-1.3c0.6-0.3,1.2-0.5,1.9-0.5c0.5,0,1,0.1,1.5,0.3
		c0.4,0.2,0.8,0.5,1.1,0.9v-4.1L38.3,122.6L38.3,122.6z M35.7,131.5c0.4-0.2,0.7-0.5,0.9-0.9s0.3-0.9,0.3-1.4s-0.1-1-0.3-1.4
		s-0.5-0.7-0.9-0.9c-0.4-0.2-0.8-0.3-1.3-0.3s-0.9,0.1-1.3,0.3c-0.4,0.2-0.7,0.5-0.9,0.9s-0.3,0.9-0.3,1.4s0.1,1,0.3,1.4
		s0.5,0.7,0.9,0.9s0.8,0.3,1.3,0.3S35.3,131.7,35.7,131.5z"/>
	<path class="st26" d="M41.8,122.7c0.2,0.2,0.3,0.4,0.3,0.7c0,0.1,0,0.3,0,0.4s-0.1,0.3-0.2,0.6l-0.7,2h-0.9l0.5-2.1
		c-0.2-0.1-0.3-0.2-0.4-0.3s-0.2-0.3-0.2-0.5c0-0.3,0.1-0.5,0.3-0.7s0.4-0.3,0.7-0.3C41.4,122.5,41.6,122.6,41.8,122.7z"/>
	<path class="st26" d="M48.9,126.2c0.5,0.5,0.8,1.3,0.8,2.3v4.5h-1.3v-1c-0.2,0.3-0.5,0.6-1,0.8S46.6,133,46,133
		c-0.8,0-1.5-0.2-2-0.6c-0.5-0.4-0.7-0.9-0.7-1.6s0.2-1.2,0.7-1.6c0.5-0.4,1.2-0.6,2.3-0.6h2.1v-0.3c0-0.6-0.2-1-0.5-1.3
		s-0.8-0.5-1.5-0.5c-0.4,0-0.9,0.1-1.3,0.2c-0.4,0.1-0.8,0.3-1.1,0.6l-0.6-1c0.4-0.3,0.8-0.5,1.4-0.7c0.5-0.2,1.1-0.2,1.7-0.2
		C47.6,125.5,48.4,125.7,48.9,126.2z M47.6,131.6c0.4-0.2,0.6-0.6,0.8-1v-1h-2.1c-1.1,0-1.7,0.4-1.7,1.1c0,0.4,0.1,0.7,0.4,0.9
		c0.3,0.2,0.7,0.3,1.2,0.3S47.2,131.9,47.6,131.6z"/>
	<path class="st26" d="M58.4,126.3c0.6,0.5,0.8,1.3,0.8,2.4v4.3h-1.3v-4.1c0-0.7-0.2-1.3-0.5-1.6c-0.3-0.4-0.8-0.5-1.5-0.5
		s-1.3,0.2-1.7,0.6s-0.6,1-0.6,1.8v3.8h-1.3v-7.4h1.3v1.1c0.3-0.4,0.6-0.7,1.1-0.9c0.5-0.2,1-0.3,1.6-0.3
		C57.1,125.5,57.9,125.7,58.4,126.3z"/>
	<path class="st26" d="M68,126.3c0.6,0.5,0.8,1.3,0.8,2.4v4.3h-1.3v-4.1c0-0.7-0.2-1.3-0.5-1.6c-0.3-0.4-0.8-0.5-1.5-0.5
		s-1.3,0.2-1.7,0.6s-0.6,1-0.6,1.8v3.8h-1.3v-7.4h1.3v1.1c0.3-0.4,0.6-0.7,1.1-0.9c0.5-0.2,1-0.3,1.6-0.3
		C66.7,125.5,67.4,125.7,68,126.3z"/>
	<path class="st26" d="M78.2,125.5v7.4h-1.3v-1.1c-0.3,0.4-0.6,0.7-1.1,0.9c-0.4,0.2-0.9,0.3-1.4,0.3c-1,0-1.8-0.3-2.3-0.8
		c-0.6-0.5-0.9-1.4-0.9-2.4v-4.3h1.3v4.1c0,0.7,0.2,1.3,0.5,1.6s0.8,0.6,1.5,0.6s1.3-0.2,1.7-0.6c0.4-0.4,0.6-1,0.6-1.8v-3.8
		L78.2,125.5L78.2,125.5z"/>
	<path class="st26" d="M80.8,122.6h1.3V133h-1.3V122.6z"/>
	<path class="st26" d="M89.7,126.2c0.5,0.5,0.8,1.3,0.8,2.3v4.5h-1.3v-1c-0.2,0.3-0.5,0.6-1,0.8s-0.9,0.3-1.5,0.3
		c-0.8,0-1.5-0.2-2-0.6c-0.5-0.4-0.7-0.9-0.7-1.6s0.2-1.2,0.7-1.6c0.5-0.4,1.2-0.6,2.3-0.6h2.1v-0.3c0-0.6-0.2-1-0.5-1.3
		s-0.8-0.5-1.5-0.5c-0.4,0-0.9,0.1-1.3,0.2s-0.8,0.3-1.1,0.6l-0.6-1c0.4-0.3,0.8-0.5,1.4-0.7c0.5-0.2,1.1-0.2,1.7-0.2
		C88.4,125.5,89.2,125.7,89.7,126.2z M88.4,131.6c0.4-0.2,0.6-0.6,0.8-1v-1h-2.1c-1.1,0-1.7,0.4-1.7,1.1c0,0.4,0.1,0.7,0.4,0.9
		s0.7,0.3,1.2,0.3S88,131.9,88.4,131.6z"/>
	<path class="st26" d="M97.2,132.5c-0.2,0.2-0.4,0.3-0.7,0.4c-0.3,0.1-0.6,0.1-0.9,0.1c-0.7,0-1.3-0.2-1.7-0.6
		c-0.4-0.4-0.6-1-0.6-1.7v-4.1H92v-1.1h1.3v-1.6h1.3v1.6h2.1v1.1h-2.1v4c0,0.4,0.1,0.7,0.3,0.9c0.2,0.2,0.5,0.3,0.9,0.3
		s0.8-0.1,1-0.4L97.2,132.5z"/>
	<path class="st26" d="M98.9,123.8c-0.2-0.2-0.3-0.4-0.3-0.6s0.1-0.5,0.3-0.6s0.4-0.3,0.7-0.3s0.5,0.1,0.7,0.2
		c0.2,0.2,0.3,0.4,0.3,0.6c0,0.3-0.1,0.5-0.3,0.6c-0.2,0.2-0.4,0.3-0.7,0.3S99,124,98.9,123.8z M98.9,125.5h1.3v7.4h-1.3V125.5z"/>
	<path class="st26" d="M103.9,132.5c-0.6-0.3-1-0.8-1.4-1.4c-0.3-0.6-0.5-1.2-0.5-2s0.2-1.4,0.5-2s0.8-1,1.4-1.3s1.3-0.5,2-0.5
		s1.4,0.2,2,0.5s1,0.8,1.4,1.3c0.3,0.6,0.5,1.2,0.5,2s-0.2,1.4-0.5,2s-0.8,1-1.4,1.4c-0.6,0.3-1.2,0.5-2,0.5
		C105.2,133,104.5,132.9,103.9,132.5z M107.2,131.5c0.4-0.2,0.7-0.5,0.9-0.9c0.2-0.4,0.3-0.9,0.3-1.4s-0.1-1-0.3-1.4
		c-0.2-0.4-0.5-0.7-0.9-0.9c-0.4-0.2-0.8-0.3-1.3-0.3s-0.9,0.1-1.3,0.3c-0.4,0.2-0.7,0.5-0.9,0.9c-0.2,0.4-0.3,0.9-0.3,1.4
		s0.1,1,0.3,1.4c0.2,0.4,0.5,0.7,0.9,0.9s0.8,0.3,1.3,0.3S106.8,131.7,107.2,131.5z"/>
	<path class="st26" d="M117.9,126.3c0.6,0.5,0.8,1.3,0.8,2.4v4.3h-1.3v-4.1c0-0.7-0.2-1.3-0.5-1.6c-0.3-0.4-0.8-0.5-1.5-0.5
		s-1.3,0.2-1.7,0.6s-0.6,1-0.6,1.8v3.8h-1.3v-7.4h1.3v1.1c0.3-0.4,0.6-0.7,1.1-0.9c0.5-0.2,1-0.3,1.6-0.3
		C116.6,125.5,117.3,125.7,117.9,126.3z"/>
	<path class="st26" d="M120.8,132.8c-0.2-0.2-0.3-0.4-0.3-0.7s0.1-0.5,0.3-0.7s0.4-0.3,0.7-0.3c0.3,0,0.5,0.1,0.7,0.3
		s0.3,0.4,0.3,0.7s-0.1,0.5-0.3,0.7s-0.4,0.3-0.7,0.3C121.2,133,121,132.9,120.8,132.8z"/>
</g>
<g>
	<path class="st27" d="M37.6,22.2c0.6,0.6,0.9,1.3,0.9,2.2c0,0.6-0.2,1.2-0.5,1.7c-0.3,0.5-0.8,0.9-1.4,1.2
		c-0.6,0.3-1.4,0.5-2.3,0.5c-0.8,0-1.6-0.1-2.3-0.4c-0.7-0.2-1.3-0.6-1.8-1l0.7-1.3c0.4,0.4,0.9,0.7,1.5,0.9
		c0.6,0.2,1.2,0.3,1.9,0.3c0.8,0,1.5-0.2,1.9-0.5c0.5-0.4,0.7-0.8,0.7-1.5s-0.2-1.1-0.7-1.4c-0.5-0.3-1.2-0.5-2.1-0.5h-0.9v-1.1
		l2.8-3.5h-5.4v-1.4H38v1.1l-2.9,3.6C36.2,21.3,37,21.6,37.6,22.2z"/>
	<path class="st27" d="M48.2,22.9c0.3,0.5,0.5,1,0.5,1.6c0,0.7-0.2,1.3-0.5,1.8c-0.4,0.5-0.9,0.9-1.6,1.1s-1.5,0.4-2.4,0.4
		c-0.9,0-1.7-0.1-2.3-0.4s-1.2-0.6-1.5-1.1c-0.4-0.5-0.5-1.1-0.5-1.8c0-0.6,0.2-1.2,0.5-1.6s0.8-0.8,1.5-1.1c-0.5-0.2-0.9-0.6-1.2-1
		c-0.3-0.4-0.4-0.9-0.4-1.4c0-0.6,0.2-1.2,0.5-1.6s0.8-0.8,1.4-1.1c0.6-0.2,1.3-0.4,2.1-0.4c0.8,0,1.5,0.1,2.1,0.4
		c0.6,0.2,1.1,0.6,1.4,1.1c0.3,0.5,0.5,1,0.5,1.6c0,0.5-0.1,1-0.4,1.4s-0.7,0.7-1.2,1C47.4,22.1,47.9,22.4,48.2,22.9z M46.4,26
		c0.5-0.4,0.8-0.9,0.8-1.5c0-0.6-0.3-1.1-0.8-1.5c-0.5-0.4-1.2-0.5-2.1-0.5c-0.9,0-1.6,0.2-2.1,0.5c-0.5,0.4-0.8,0.8-0.8,1.5
		c0,0.6,0.3,1.1,0.8,1.5c0.5,0.4,1.2,0.6,2.1,0.6C45.2,26.5,45.9,26.3,46.4,26z M42.5,18.2c-0.4,0.3-0.7,0.8-0.7,1.3
		c0,0.6,0.2,1,0.6,1.3c0.4,0.3,1,0.5,1.8,0.5c0.8,0,1.4-0.2,1.8-0.5c0.4-0.3,0.7-0.8,0.7-1.3c0-0.6-0.2-1-0.7-1.3
		c-0.5-0.3-1.1-0.5-1.8-0.5C43.5,17.7,42.9,17.8,42.5,18.2z"/>
	<path class="st27" d="M53.7,16.5v11.2h-1.6v-9.8h-2.5v-1.4H53.7z"/>
	<path class="st27" d="M64,26.3v1.4h-8v-1.1l4.6-4.4c0.6-0.5,0.9-1,1.1-1.4c0.2-0.4,0.3-0.8,0.3-1.2c0-0.6-0.2-1-0.6-1.4
		c-0.4-0.3-1-0.5-1.8-0.5c-1.2,0-2.2,0.4-2.9,1.2l-1.1-0.9c0.4-0.5,1-0.9,1.7-1.2s1.5-0.4,2.4-0.4c1.2,0,2.1,0.3,2.8,0.8
		c0.7,0.6,1,1.3,1,2.3c0,0.6-0.1,1.2-0.4,1.7c-0.3,0.5-0.7,1.1-1.5,1.8l-3.4,3.3H64z"/>
	<path class="st27" d="M72.1,22.2c0.6,0.6,0.9,1.3,0.9,2.2c0,0.6-0.2,1.2-0.5,1.7c-0.3,0.5-0.8,0.9-1.4,1.2
		c-0.6,0.3-1.4,0.5-2.3,0.5c-0.8,0-1.6-0.1-2.3-0.4c-0.7-0.2-1.3-0.6-1.8-1l0.7-1.3c0.4,0.4,0.9,0.7,1.5,0.9
		c0.6,0.2,1.2,0.3,1.9,0.3c0.8,0,1.5-0.2,1.9-0.5c0.5-0.4,0.7-0.8,0.7-1.5s-0.2-1.1-0.7-1.4c-0.5-0.3-1.2-0.5-2.1-0.5h-0.9v-1.1
		l2.8-3.5h-5.4v-1.4h7.4v1.1l-2.9,3.6C70.7,21.3,71.6,21.6,72.1,22.2z"/>
</g>
</svg>
