<?xml version="1.0" encoding="utf-8"?>
<!-- Generator: Adobe Illustrator 23.0.3, SVG Export Plug-In . SVG Version: 6.00 Build 0)  -->
<svg version="1.1" xmlns="http://www.w3.org/2000/svg" xmlns:xlink="http://www.w3.org/1999/xlink" x="0px" y="0px"
	 viewBox="0 0 974 805" style="enable-background:new 0 0 974 805;" xml:space="preserve">
<style type="text/css">
	.st0{fill:#3F3D56;}
	.st1{opacity:0.1;enable-background:new    ;}
	.st2{display:none;opacity:0.5;}
	.st3{display:inline;fill:#36334A;}
	.st4{display:inline;fill:#6C63FF;}
	.st5{display:inline;opacity:0.3;fill:#6C63FF;enable-background:new    ;}
	.st6{fill:#E6E8EC;}
	.st7{fill:#36334A;}
	.st8{fill:#3195FF;}
	.st9{fill:#6ED397;}
	.st10{fill:none;stroke:#FFFFFF;stroke-linecap:round;stroke-miterlimit:10;}
	.st11{fill:none;stroke:#FF00FF;stroke-miterlimit:10;}
	.st12{fill:none;stroke:#3F3D56;stroke-width:4;stroke-miterlimit:10;}
	.st13{fill:#57B894;}
	.st14{fill:#656380;}
	.st15{opacity:0.2;enable-background:new    ;}
	.st16{display:none;fill:#6ED397;}
	.st17{fill:#F2F2F2;}
	.st18{fill:#FBBEBE;}
	.st19{fill:#FF6584;}
	.st20{display:none;fill:#F9F9FD;}
	.st21{enable-background:new    ;}
	.st22{fill:#4C4C4C;}
	.st23{fill:#000333;}
	.st24{fill:none;}
	.st25{display:none;}
	.st26{display:inline;}
	.st27{fill:#F9F9FD;}
</style>
<g id="Calque_1">
	<g id="ada6f7ae-8394-4767-8700-18704e9e9034">
		<title>note list</title>
		<path class="st0" d="M974,768.8v5c0,10.6-8.6,19.1-19.1,19.1c-0.6,0-1.2,0-1.8-0.1c-39.2-3.7-78.1-10.6-117.4-9.4
			c-72.4,2.2-145.4,31.8-215.5,13.5c-19.8-5.2-39.3-14.1-59.7-12.2c-18.3,1.7-34.5,12-52.2,16.9c-53.8,14.8-108.5-22.5-164.3-21
			c-36.7,1-71.9,18.9-108.6,16.9c-21.3-1.1-41.5-8.9-62.3-13.7c-51.7-11.9-104.9-5.3-158.1-1.1c-7.7,0.6-14.4-5.2-15-12.9
			c0-0.3,0-0.7,0-1v-4.3c0-7.7,6.3-14,14-14l940.9-0.8C965.5,749.6,974,758.2,974,768.8C974,768.7,974,768.7,974,768.8z"/>
		<path class="st1" d="M974,768.8v5c0,10.6-8.6,19.1-19.1,19.1c-0.6,0-1.2,0-1.8-0.1c-39.2-3.7-78.1-10.6-117.4-9.4
			c-72.4,2.2-145.4,31.8-215.5,13.5c-19.8-5.2-39.3-14.1-59.7-12.2c-18.3,1.7-34.5,12-52.2,16.9c-53.8,14.8-108.5-22.5-164.3-21
			c-36.7,1-71.9,18.9-108.6,16.9c-21.3-1.1-41.5-8.9-62.3-13.7c-51.7-11.9-104.9-5.3-158.1-1.1c-7.7,0.6-14.4-5.2-15-12.9
			c0-0.3,0-0.7,0-1v-4.3c0-7.7,6.3-14,14-14l940.9-0.8C965.5,749.6,974,758.2,974,768.8C974,768.7,974,768.7,974,768.8z"/>
		<path class="st0" d="M974,759.6v5c0,0.7,0,1.4-0.1,2.1c-1.1,10.4-10.4,18-20.8,17c-39.2-3.7-78.1-10.7-117.4-9.4
			c-72.4,2.2-145.4,31.8-215.5,13.5c-19.8-5.2-39.3-14.1-59.7-12.2c-18.3,1.7-34.5,12-52.2,16.9c-53.8,14.7-108.5-22.6-164.3-21.1
			c-36.7,1-71.9,18.9-108.6,16.9c-21.3-1.2-41.5-8.9-62.3-13.7c-51.6-11.9-104.9-5.3-158.1-1.1C7.9,774,1.5,769.1,0.2,762
			c-0.1-0.8-0.2-1.6-0.2-2.5v-4.3c0-7.7,6.3-14,14-14l235.8-0.2l481.8-0.4l223.3-0.2C965.5,740.5,974,749,974,759.6L974,759.6z"/>
		<path class="st1" d="M743.6,743.5c0,2.2-4.4,4.3-12.4,6.3c-32.2,8-123.2,13.7-230.6,13.7c-105.7,0-195.6-5.5-229-13.3
			c-9-2.1-14-4.3-14-6.7c0-0.8,0.6-1.6,1.8-2.4l481.8-0.4C742.8,741.6,743.6,742.5,743.6,743.5z"/>
		<g class="st2">
			<path class="st3" d="M571,0h364c10.5,0,19,8.5,19,19v83c0,10.5-8.5,19-19,19H571c-10.5,0-19-8.5-19-19V19C552,8.5,560.5,0,571,0z
				"/>
			<rect x="601" y="26" class="st4" width="93" height="21"/>
			<rect x="601" y="60" class="st5" width="285" height="11"/>
			<rect x="601" y="84" class="st5" width="114" height="11"/>
		</g>
		<g class="st2">
			<path class="st3" d="M67,98.5h364c10.5,0,19,8.5,19,19v82.9c0,10.5-8.5,19-19,19H67c-10.5,0-19-8.5-19-19v-82.9
				C48,107,56.5,98.5,67,98.5z"/>
			<rect x="97" y="124.5" class="st3" width="93" height="21"/>
			<rect x="97" y="158.5" class="st3" width="285" height="11"/>
			<rect x="97" y="182.5" class="st3" width="114" height="11"/>
			<path class="st3" d="M67,98.5h364c10.5,0,19,8.5,19,19v82.9c0,10.5-8.5,19-19,19H67c-10.5,0-19-8.5-19-19v-82.9
				C48,107,56.5,98.5,67,98.5z"/>
			<rect x="97" y="124.5" class="st4" width="93" height="21"/>
			<rect x="97" y="158.5" class="st5" width="285" height="11"/>
			<rect x="97" y="182.5" class="st5" width="114" height="11"/>
		</g>
		<path class="st0" d="M669.9,211.5h5.7c1.3,0,2.3,1,2.3,2.3v80.4c0,1.3-1,2.3-2.3,2.3h-5.7c-1.3,0-2.3-1-2.3-2.3v-80.4
			C667.6,212.6,668.6,211.5,669.9,211.5z"/>
		<path class="st0" d="M326.3,144.9h2.8c0.8,0,1.5,0.7,1.5,1.5v25c0,0.8-0.7,1.5-1.5,1.5h-2.8c-0.8,0-1.5-0.7-1.5-1.5v-25
			C324.8,145.6,325.4,144.9,326.3,144.9z"/>
		<path class="st0" d="M326.2,196.2h3.1c0.9,0,1.7,0.8,1.7,1.7v45.3c0,0.9-0.8,1.7-1.7,1.7h-3.1c-0.9,0-1.7-0.8-1.7-1.7v-45.3
			C324.5,196.9,325.3,196.2,326.2,196.2z"/>
		<path class="st0" d="M326.3,261.9h3c0.9,0,1.6,0.7,1.6,1.6v45.9c0,0.9-0.7,1.6-1.6,1.6h-3c-0.9,0-1.6-0.7-1.6-1.6v-45.9
			C324.6,262.7,325.4,261.9,326.3,261.9z"/>
		<path class="st0" d="M363.7,52.4h273.7c19.7,0,35.7,16,35.7,35.7v630c0,19.7-16,35.7-35.7,35.7H363.7c-19.7,0-35.7-16-35.7-35.7
			v-630C328,68.4,344,52.4,363.7,52.4z"/>
		<path class="st6" d="M469.8,73.4H513c1.4,0,2.5,1.1,2.5,2.5v4.7c0,1.4-1.1,2.5-2.5,2.5h-43.1c-1.4,0-2.5-1.1-2.5-2.5v-4.7
			C467.3,74.5,468.4,73.4,469.8,73.4z"/>
		<circle class="st6" cx="528.3" cy="78.3" r="5.5"/>
		<path class="st7" d="M651.8,98.1v610c0,15.1-12.3,27.4-27.4,27.4H376.8c-15.1,0-27.4-12.3-27.4-27.4v-610
			c0-15.1,12.3-27.4,27.4-27.4l0,0h37.1v4.8c0,12.5,10.1,22.6,22.6,22.6h126c12.4,0,22.5-10.1,22.5-22.6v-4.8h39.5
			C639.5,70.7,651.8,83,651.8,98.1z"/>
		<rect x="358" y="129" class="st0" width="31" height="4"/>
		<rect x="358" y="136" class="st0" width="31" height="4"/>
		<rect x="358" y="143" class="st0" width="31" height="4"/>
		<rect x="358" y="129" class="st0" width="31" height="4"/>
		<rect x="358" y="136" class="st0" width="31" height="4"/>
		<rect x="358" y="143" class="st0" width="31" height="4"/>
		<path class="st0" d="M637.7,139h-0.9l-0.3-0.3c1.1-1.4,1.8-3.1,1.8-4.9c0-4.1-3.4-7.4-7.5-7.4s-7.4,3.4-7.4,7.5
			c0,4.1,3.4,7.4,7.5,7.4c1.8,0,3.5-0.6,4.9-1.8l0.3,0.3v0.9l5.7,5.8l1.7-1.7L637.7,139z M630.8,139c-2.9,0-5.2-2.3-5.2-5.2
			s2.3-5.2,5.2-5.2s5.2,2.3,5.2,5.2l0,0C636,136.7,633.7,139,630.8,139L630.8,139L630.8,139z"/>
		<rect x="358" y="200" class="st8" width="93" height="21"/>
		<rect x="358" y="234" class="st9" width="285" height="11"/>
		<rect x="358" y="258" class="st9" width="114" height="11"/>
		<rect x="358" y="314" class="st8" width="93" height="21"/>
		<rect x="358" y="348" class="st9" width="285" height="11"/>
		<rect x="358" y="372" class="st9" width="114" height="11"/>
		<rect x="358" y="444" class="st8" width="93" height="21"/>
		<rect x="358" y="478" class="st9" width="285" height="11"/>
		<rect x="358" y="502" class="st9" width="114" height="11"/>
		<rect x="358" y="566" class="st8" width="93" height="21"/>
		<rect x="358" y="600" class="st9" width="285" height="11"/>
		<rect x="358" y="624" class="st9" width="114" height="11"/>
		<circle class="st8" cx="592" cy="676" r="34"/>
		<path class="st10" d="M609.3,673.3v16.4c0,0.7-0.6,1.3-1.3,1.3h-33.5c-0.7,0-1.3-0.6-1.3-1.3v-26.2c0-0.7,0.6-1.3,1.3-1.3h23.3"/>
		<line class="st10" x1="579.7" y1="672" x2="602.3" y2="672"/>
		<line class="st10" x1="580" y1="676.7" x2="602.7" y2="676.7"/>
		<line class="st10" x1="580.3" y1="681.3" x2="603" y2="681.3"/>
		<line class="st11" x1="605" y1="661" x2="605" y2="672.3"/>
		<line class="st11" x1="610.7" y1="666.7" x2="599.3" y2="666.7"/>
		<line class="st10" x1="605" y1="661" x2="605" y2="672.3"/>
		<line class="st10" x1="610.7" y1="666.7" x2="599.3" y2="666.7"/>
		<path class="st12" d="M888.6,745.2c3-5.5-0.4-12.3-4.3-17.2s-8.6-10-8.5-16.3c0.2-9,9.7-14.3,17.3-19.1
			c5.7-3.5,10.9-7.7,15.6-12.5c2-1.8,3.6-4,4.8-6.4c1.6-3.5,1.5-7.5,1.4-11.4c-0.3-12.8-1-25.7-1.9-38.5"/>
		<path class="st13" d="M927.5,623.1c-0.2-4.8-2.9-9.1-7-11.5l-3.1,6.2l0.1-7.5c-1.5-0.4-3.1-0.6-4.6-0.6c-7.7,0.4-13.7,7-13.3,14.7
			s7,13.7,14.7,13.3C921.9,637.4,927.9,630.8,927.5,623.1L927.5,623.1z"/>
		<path class="st13" d="M902.5,718.1c-3.5,6.9-12,9.6-18.9,6c-6.9-3.5-9.6-12-6-18.9c3.5-6.9,12-9.6,18.9-6c3.1,1.6,5.5,4.3,6.7,7.6
			l-8.8,7.1l9.7-2.2C904,714,903.5,716.2,902.5,718.1z"/>
		<path class="st13" d="M895.5,690.9c-7.7,0.5-14.4-5.3-15-13c-0.5-6.8,3.9-12.9,10.5-14.6l-0.1,5.8l3.2-6.3l0,0
			c7.7-0.4,14.3,5.6,14.7,13.3c0,0,0,0,0,0.1c0.1,1.6-0.1,3.2-0.6,4.8C906.5,686.6,901.5,690.6,895.5,690.9z"/>
		<path class="st13" d="M929.6,668.2c-7.7,0.3-14.2-5.7-14.5-13.5c-0.3-7.7,5.7-14.2,13.5-14.5c2.5-0.1,5,0.5,7.2,1.7l-2.5,6.8
			l5.1-4.9c2.7,2.5,4.4,6,4.6,9.7c0.1,1.3-0.1,2.6-0.3,3.9C941.2,663.5,935.9,667.9,929.6,668.2z"/>
		<path class="st1" d="M925.6,626.9c-3.2,0.3-6.4,1.4-9.6,1.6s-6.8-0.6-8.9-3.1c-1.1-1.4-1.7-3.1-2.6-4.6c-0.9-1.4-2.1-2.5-3.5-3.3
			c-3.3,7-0.4,15.3,6.6,18.7c7,3.3,15.3,0.4,18.7-6.6c0.4-0.9,0.8-1.8,1-2.8C926.7,626.8,926.2,626.8,925.6,626.9z"/>
		<path class="st1" d="M929.6,668.2c-7.7,0.4-14.3-5.6-14.7-13.3c-0.1-2.3,0.3-4.6,1.3-6.7c1.1,0.7,2.1,1.7,2.8,2.8
			c1,1.5,1.6,3.3,2.8,4.6c2.2,2.6,5.9,3.4,9.3,3.3s6.7-1.1,10-1.4c0.5,0,0.9-0.1,1.4-0.1C941.2,663.5,935.9,667.9,929.6,668.2z"/>
		<path class="st1" d="M895.5,690.9c-7.7,0.4-14.3-5.6-14.7-13.3c-0.1-2.2,0.3-4.5,1.2-6.5c1.2,0.8,2.2,1.7,3,2.8
			c1.1,1.5,1.8,3.3,3,4.7c2.4,2.6,6.3,3.6,9.9,3.5s6.8-0.9,10.3-1.2C906.6,686.7,901.5,690.6,895.5,690.9z"/>
		<path class="st1" d="M902.5,718.1c-3.2,7.1-11.5,10.2-18.5,7.1s-10.2-11.5-7.1-18.5l0,0c1.2,0.8,2.2,1.7,3.1,2.8
			c1.3,1.6,2.2,3.5,3.8,5c2.9,2.8,7.5,4,11.6,4.1C897.7,718.5,900.1,718.4,902.5,718.1z"/>
		<path class="st14" d="M867.4,738.8c0,0,11.1-0.3,14.4-2.7s17-5.2,17.9-1.4s16.7,19,4.2,19.1s-29.1-1.9-32.4-4
			S867.4,738.8,867.4,738.8z"/>
		<path class="st15" d="M904.1,752.4c-12.5,0.1-29.1-2-32.4-4c-2.5-1.5-3.5-7.1-3.9-9.7h-0.4c0,0,0.7,8.9,4,11s19.9,4.1,32.4,4
			c3.6,0,4.8-1.3,4.8-3.2C908.1,751.7,906.8,752.4,904.1,752.4z"/>
		<path class="st16" d="M227,295h364c10.5,0,19,8.5,19,19v83c0,10.5-8.5,19-19,19H227c-10.5,0-19-8.5-19-19v-83
			C208,303.5,216.5,295,227,295z"/>
		<circle class="st0" cx="92.3" cy="246.8" r="35.8"/>
		<path class="st0" d="M71.6,524.9c3.7,25.9-0.8,52.3-7.8,77.5c-1.3,4.7-2.7,9.4-5.2,13.6s-5.9,7.8-8.7,11.8
			c-6,8.3-9.5,18-12.8,27.6c-9.1,26.7-16.7,53.8-22.8,81.3c-0.4,1.1-0.4,2.3,0,3.5c0.9,2,3.5,2.3,5.7,2.3l28.1-0.2
			c1-1.9-0.9-4-2-5.8c-4-6.2-0.2-14.3,3.4-20.8c8.6-15.8,15.2-32.6,19.8-50c1.9-7.3,3.5-14.8,6.6-21.7c3.8-8.4,9.7-15.6,14.5-23.4
			c5.6-9.1,9.6-19,13.7-28.9c5.6-13.8,11.3-27.7,13.6-42.5c2.1-13.8,1.1-27.9-0.3-41.8c0.2-1.4-0.8-2.8-2.2-3c-0.3,0-0.6,0-0.8,0
			l-37.6-1.9c-7.8-0.4-9.6-2.1-8.4,5.5C68.8,513.6,70.8,519.2,71.6,524.9z"/>
		<path class="st1" d="M71.6,524.9c3.7,25.9-0.8,52.3-7.8,77.5c-1.3,4.7-2.7,9.4-5.2,13.6s-5.9,7.8-8.7,11.8
			c-6,8.3-9.5,18-12.8,27.6c-9.1,26.7-16.7,53.8-22.8,81.3c-0.4,1.1-0.4,2.3,0,3.5c0.9,2,3.5,2.3,5.7,2.3l28.1-0.2
			c1-1.9-0.9-4-2-5.8c-4-6.2-0.2-14.3,3.4-20.8c8.6-15.8,15.2-32.6,19.8-50c1.9-7.3,3.5-14.8,6.6-21.7c3.8-8.4,9.7-15.6,14.5-23.4
			c5.6-9.1,9.6-19,13.7-28.9c5.6-13.8,11.3-27.7,13.6-42.5c2.1-13.8,1.1-27.9-0.3-41.8c0.2-1.4-0.8-2.8-2.2-3c-0.3,0-0.6,0-0.8,0
			l-37.6-1.9c-7.8-0.4-9.6-2.1-8.4,5.5C68.8,513.6,70.8,519.2,71.6,524.9z"/>
		<path class="st0" d="M79,462c-7.6,11-15.7,23.7-13.1,36.8c1.9,10,9.6,17.8,16.7,25c28.7,28.9,57,60.9,66.8,100.5
			c2.5,10.2,3.7,20.7,5.9,31c3.9,18.7,11,36.6,18,54.3L192,757c11.9,0.3,22.7-6.9,27.1-18c-2.5-0.2-5.7-2.6-7.1-4.6
			c-8-11.1-9.6-25.3-11.7-38.8c-2.3-14.9-5.3-29.7-8.3-44.5l-13.4-65.4c-1.5-7.5-3.1-15.1-5.1-22.5c-7.8-28.8-22.6-56-24.9-85.8
			c-0.3-4.4-0.5-9.2-3.5-12.4c-3.1-3.4-8.2-4-12.9-4.3C113.4,459.4,97.3,457.6,79,462z"/>
		<path class="st17" d="M28.5,736.1c-2-0.5-4.1-0.8-6.2-0.8c-4.1,0.1-7.8,2.2-10.2,5.5c-1.2,1.9-2.1,3.9-2.7,6l-2.7,7.8
			c-0.8,2.3-1.6,4.9-0.4,7c0.9,1.3,2.2,2.3,3.6,2.8c6.6,2.9,14,3.1,21.1,3.8c6.9,0.7,13.8,1.9,20.7,3.2c2.4,0.4,4.7,0.9,7.1,1.1
			c5.3,0.5,10.7,0,16.1-0.5l5.5-0.5c1.8-0.1,3.7-0.4,5.4-1c1.8-0.6,3.2-1.9,4-3.6c1.4-3.4-1.6-7.4-5.1-8c-1.4-0.3-2.9-0.2-4.4-0.3
			c-1.7-0.3-3.3-0.8-4.8-1.5c-7.1-2.8-14.2-5.6-20.4-9.9c-1.7-1.2-3.5-2.9-3.3-5c0.2-0.9,0.5-1.8,0.9-2.6c0.8-2.1,0.9-4.5,0.1-6.7
			c-0.3-0.9-1-1.9-1.9-2c-2.6-0.3-2.3,3.5-2.7,5c-0.5,2-1.5,2.2-3.4,2C39.2,737.4,33.8,737.2,28.5,736.1z"/>
		<path class="st17" d="M186.3,763c0,3.9,1.4,7.7,3.8,10.8c0.7,0.9,1.7,1.7,2.7,2.2c1.6,0.6,3.3,0.9,5,0.8c4.8-0.1,9.5-1.1,13.9-2.8
			c1.6-0.7,3.2-1.3,4.8-1.8c2.1-0.4,4.1-0.7,6.2-0.9c8.3-1.2,15.5-6.1,23.5-8.5c2.4-0.6,4.7-1.4,7-2.3c3.2-1.5,5.7-4,8.2-6.4
			c1.5-1.3,2.8-2.8,3.8-4.5c1.5-2.7,1.6-6,1.6-9.1c0.1-0.5,0-1-0.2-1.4c-0.2-0.3-0.5-0.6-0.9-0.7c-2.4-1.2-5.3-0.6-8-0.1
			c-9.7,1.7-19.7,1.4-29.5,1.1c-1.9,0.3-3.8-0.8-4.5-2.6l-3.8-6c-1.1-1.7-2.8-3.7-4.7-3.1c-1.5,0.5-2.2,2.4-2.1,4s0.6,3.3,0.3,4.8
			c-0.4,1.8-1.6,3.3-3.2,4.2c-1.6,0.9-3.3,1.5-5,1.9c-5.5,1.6-11.9,3.3-16.2,7.4C185.9,752.7,186.1,759.1,186.3,763z"/>
		<path class="st18" d="M184.4,366.3c2.2-1.6,4-3.7,5.5-5.9c1.3-2.6,2-5.4,2.3-8.2l1.6-9.9c0.9-5.5,1.9-11.3,5.5-15.4
			s10.9-5.7,14.6-1.5c1.6,1.8,2.3,4.3,2.7,6.6c2.3,14.4-2,29.1-11.8,40c-4.5,4.9-10,8.8-14.8,13.5c-4.1,4-7.7,8.6-11.5,12.9
			c-9.2,10.5-19.8,19.8-31.5,27.5c0.1-7.4,1.1-15.4,0-22.8c-0.8-5.3-3-8.2,2.2-11.7C161.2,383.1,173.3,375.7,184.4,366.3z"/>
		<path class="st18" d="M83.6,293.1c-0.4,5.3-2.6,10.8-7,13.8c12.5,4.4,24.8,9.2,36.9,14.4c-2.3-2.3-3.1-5.7-3.2-8.9
			c-0.3-8.5,2.6-16.8,6.9-24.1c0.7-0.9,1.1-2,1.1-3.2c-0.1-2.4-2.9-3.5-5.2-4c-7.8-1.9-15.9-3.1-23.9-3.5c-3.4-0.1-7.5-1.2-6.8,3.2
			C83.1,284.9,83.9,288.9,83.6,293.1z"/>
		<circle class="st18" cx="107.7" cy="266.7" r="29.2"/>
		<path class="st19" d="M136.6,345.7c-1-2.2-2.3-4.3-3.7-6.2c-5.3-7.6-10.7-15.2-17.5-21.5c-5.2-4.6-10.7-8.7-16.6-12.2
			c-3.2-2.2-6.7-3.9-10.4-5c-2.2-0.5-4.4-0.8-6.7-0.9l-7.6-0.6c-0.7-0.1-1.3-0.1-2,0.1c-2.1,0.5-3,3.1-2.6,5.1s2,3.8,3.4,5.3
			c0.3,15.5-6.6,30.8-7.5,46.2c-1.6,27,14.9,52.2,16.2,79.3c0.1,1.2,0,2.5-0.4,3.6c-0.2,0.6-0.6,1.1-0.8,1.6
			c-0.8,1.7-0.8,3.6-0.9,5.5c-0.5,6.7-3.5,12.9-8.2,17.6c1.2,1.5,2.8,2.8,4.6,3.5c3.2,1.4,7,1.5,10.4,2.5c8.8,2.6,17.9,5.2,27.1,4.6
			c1.1-2.5,1.8-5.1,2.1-7.9c1.3-0.8,2.8,0.9,3,2.4s-0.1,3.3,1,4.4s2.5,0.9,3.8,0.8c5.6-0.7,11-2.6,16.5-3.9s11.4-1.9,16.7-0.1
			c1.1-1.4,0.6-3.4-0.3-4.9s-2.1-2.8-2.6-4.5c-0.3-1-0.4-2-0.3-3c0-8.5,1.8-17.2,0.1-25.6c-0.5-2.5-1.3-4.9-1.8-7.3
			c-1-4.8-0.9-9.7-0.7-14.6s-0.5-10.2-0.6-15.1c0-2-0.1-4.1-0.4-6.1c-0.3-2.1-1-4.2-1.2-6.4c-0.5-5.5,1.7-10.9,1.3-16.4
			C149.5,357.8,139.8,353.3,136.6,345.7z"/>
		<path class="st18" d="M70.6,341.7c-7.1,18.8-10.5,38.7-14,58.5l-8,46.5c-2.3,13.1-4.6,26.3-4.5,39.7c0,3.7,0.2,7.5-0.7,11.2
			c-1.3,4.7-4.5,8.7-6.9,13c-4.9,8.8-6.5,19-4.6,28.9c0.8,4.2,3.1,8.9,7.3,9.3c3.5,0.4,6.4-2.4,8.5-5.2c4.6-6.5,6.9-14.4,9-22.1
			c6.6-25.3,11.3-51.1,13.9-77.1c0.2-3.3,0.7-6.6,1.4-9.8c0.9-3.3,2-6.6,3.4-9.8c3.1-7.6,6.1-15.2,9.2-22.8
			c7.1-17.5,14.2-35.1,23.9-51.4c-9.6-2.8-19.6-6-29.2-8.7C76.5,341.1,73.5,341.6,70.6,341.7z"/>
		<path class="st19" d="M87.3,356c-6.7-1.5-13.7-1-20.5-1.2c-1,0.1-1.9-0.2-2.8-0.7c-1.4-1.2-0.8-3.4-0.1-5.1l3.3-8
			c0.5-1.7,1.5-3.2,2.7-4.4c1.7-1.5,4.1-1.9,6.3-2.1c7.3-0.8,14.8-1.1,21.9,0.9s13.7,6.5,16.9,13.1c1.3,2.8,1.9,6.2,0.2,8.8
			c-2.6,3.7-8.4,7.9-12.8,5.9C97.1,360.5,93.1,357.2,87.3,356z"/>
		<path class="st0" d="M123,221.3c-5.8-0.1-11.4,1.6-16.3,4.7c-9.4-8.9-22.8-12-35.1-8.2c-1.9-11.1-12.5-18.5-23.6-16.6
			s-18.5,12.5-16.6,23.6c1.5,8.5,8.1,15.1,16.6,16.6c-6.2,18.7,3.9,39,22.6,45.2c18.7,6.2,39-3.9,45.2-22.6c0.3-0.8,0.5-1.7,0.7-2.5
			c2.1,0.4,4.3,0.6,6.4,0.6c14.1,0,25.5-9.2,25.5-20.4S137.1,221.3,123,221.3z"/>
		<path class="st1" d="M128.1,251.9c-2.2,0-4.3-0.2-6.4-0.6c-1,3.7-2.6,7.1-4.7,10.3c2,0.4,4,0.6,6,0.6c13.2,0,24-8,25.4-18.2
			C143.7,248.8,136.4,251.9,128.1,251.9z"/>
		<path class="st1" d="M87.2,277.5c-19.8,0-35.8-16.1-35.7-35.9c0-3.5,0.5-7,1.6-10.4c-9.8-1.7-16.9-10.2-16.9-20.1
			c0-1.2,0.1-2.5,0.3-3.7c-7.7,8.3-7.2,21.2,1.1,28.9c2.9,2.7,6.5,4.4,10.3,5.1c-5.8,18.9,4.9,38.9,23.8,44.6
			c18.8,5.7,38.6-4.7,44.5-23.4C109.5,272,98.7,277.5,87.2,277.5z"/>
	</g>
</g>
<g id="Message3">
	<path class="st17" d="M420,287.5h363.9c10.5,0,19,8.5,19,19v82.9c0,10.5-8.5,19-19,19H420c-10.5,0-19-8.5-19-19v-82.9
		C401,296,409.5,287.5,420,287.5z"/>
	<path class="st16" d="M788,408.5H416c-8.3,0-15-6.7-15-15v-91c0-8.3,6.7-15,15-15h372c8.3,0,15,6.7,15,15v91
		C803,401.8,796.3,408.5,788,408.5z"/>
	<path class="st20" d="M783.3,403.5H420.6c-8.1,0-14.7-6.6-14.7-14.7v-81.6c0-8.1,6.6-14.7,14.7-14.7h362.7
		c8.1,0,14.7,6.6,14.7,14.7v81.6C798,396.9,791.4,403.5,783.3,403.5z"/>
	<g>
		<g class="st21">
			<path class="st22" d="M451,352.8c0.6,0.7,0.8,1.6,0.8,2.7c0,1.4-0.5,2.5-1.6,3.3c-1.1,0.8-2.7,1.2-4.7,1.2h-7.9v-16.6h7.5
				c1.9,0,3.4,0.4,4.4,1.1c1,0.8,1.6,1.8,1.6,3.2c0,0.9-0.2,1.6-0.6,2.3c-0.4,0.6-0.9,1.1-1.6,1.4
				C449.6,351.6,450.4,352.1,451,352.8z M439.9,345.3v5.3h4.9c1.2,0,2.2-0.2,2.8-0.7c0.7-0.5,1-1.1,1-2c0-0.9-0.3-1.5-1-2
				s-1.6-0.7-2.8-0.7L439.9,345.3L439.9,345.3z M448.4,357.4c0.7-0.4,1-1.1,1-2.1c0-1.9-1.4-2.8-4.1-2.8h-5.4v5.5h5.5
				C446.7,358.1,447.7,357.8,448.4,357.4z"/>
			<path class="st22" d="M466.5,354.5h-10.2c0.1,1.1,0.6,2,1.5,2.7c0.9,0.7,1.9,1,3.1,1c1.5,0,2.7-0.5,3.6-1.5l1.3,1.5
				c-0.6,0.7-1.3,1.2-2.1,1.5c-0.8,0.3-1.8,0.5-2.8,0.5c-1.3,0-2.5-0.3-3.5-0.8s-1.8-1.3-2.4-2.3c-0.6-1-0.8-2.1-0.8-3.3
				s0.3-2.3,0.8-3.3s1.3-1.7,2.3-2.3c1-0.5,2-0.8,3.2-0.8s2.3,0.3,3.2,0.8s1.7,1.3,2.2,2.3s0.8,2.1,0.8,3.4
				C466.5,353.9,466.5,354.2,466.5,354.5z M457.5,350.2c-0.7,0.7-1.2,1.5-1.3,2.6h8.1c-0.1-1.1-0.6-1.9-1.3-2.6
				c-0.7-0.7-1.7-1-2.7-1S458.3,349.5,457.5,350.2z M461.7,342.5h2.9l-4,3.1h-2.1L461.7,342.5z"/>
			<path class="st22" d="M480.2,348.7c0.9,0.9,1.4,2.3,1.4,4.1v7.2h-2.3v-7c0-1.2-0.3-2.1-0.9-2.8c-0.6-0.6-1.4-0.9-2.5-0.9
				c-1.2,0-2.2,0.4-2.9,1.1s-1.1,1.8-1.1,3.1v6.5h-2.3v-12.6h2.2v1.9c0.5-0.6,1.1-1.1,1.9-1.5c0.8-0.3,1.7-0.5,2.7-0.5
				C478,347.3,479.3,347.7,480.2,348.7z"/>
			<path class="st22" d="M497.3,354.5h-10.2c0.1,1.1,0.6,2,1.5,2.7c0.9,0.7,1.9,1,3.1,1c1.5,0,2.7-0.5,3.6-1.5l1.3,1.5
				c-0.6,0.7-1.3,1.2-2.1,1.5c-0.8,0.3-1.8,0.5-2.8,0.5c-1.3,0-2.5-0.3-3.5-0.8s-1.8-1.3-2.4-2.3c-0.6-1-0.8-2.1-0.8-3.3
				s0.3-2.3,0.8-3.3s1.3-1.7,2.3-2.3c1-0.5,2-0.8,3.2-0.8s2.3,0.3,3.2,0.8s1.7,1.3,2.2,2.3s0.8,2.1,0.8,3.4
				C497.3,353.9,497.3,354.2,497.3,354.5z M488.3,350.2c-0.7,0.7-1.2,1.5-1.3,2.6h8.1c-0.1-1.1-0.6-1.9-1.3-2.6
				c-0.7-0.7-1.7-1-2.7-1S489.1,349.5,488.3,350.2z M492.5,342.5h2.9l-4,3.1h-2.1L492.5,342.5z"/>
			<path class="st22" d="M503,346.3v1.1h3.7v1.9h-3.6V360h-2.3v-10.7h-2.1v-1.9h2.1v-1.1c0-1.3,0.4-2.2,1.1-3
				c0.7-0.7,1.8-1.1,3.1-1.1c0.5,0,1,0.1,1.4,0.2s0.8,0.3,1.1,0.5l-0.7,1.7c-0.5-0.4-1.1-0.6-1.8-0.6
				C503.7,344.1,503,344.8,503,346.3z M510.8,344.5c-0.3-0.3-0.4-0.6-0.4-1s0.1-0.8,0.4-1.1c0.3-0.3,0.7-0.4,1.1-0.4
				c0.4,0,0.8,0.1,1.1,0.4c0.3,0.3,0.4,0.6,0.4,1s-0.1,0.8-0.4,1.1c-0.3,0.3-0.7,0.4-1.1,0.4C511.4,345,511.1,344.8,510.8,344.5z
				 M510.7,347.4h2.3V360h-2.3V347.4z"/>
			<path class="st22" d="M519.4,359.3c-1-0.6-1.8-1.3-2.4-2.3c-0.6-1-0.9-2.1-0.9-3.3c0-1.2,0.3-2.3,0.9-3.3s1.4-1.7,2.4-2.3
				c1-0.5,2.2-0.8,3.4-0.8c1.1,0,2.2,0.2,3.1,0.7c0.9,0.5,1.6,1.1,2.1,2l-1.7,1.1c-0.4-0.6-0.9-1.1-1.5-1.4s-1.2-0.5-1.9-0.5
				c-0.8,0-1.6,0.2-2.2,0.5c-0.7,0.4-1.2,0.9-1.5,1.6c-0.4,0.7-0.6,1.4-0.6,2.3c0,0.9,0.2,1.7,0.6,2.3s0.9,1.2,1.5,1.6
				c0.6,0.4,1.4,0.5,2.2,0.5c0.7,0,1.4-0.2,1.9-0.5c0.5-0.3,1.1-0.8,1.5-1.4l1.7,1.1c-0.5,0.9-1.2,1.5-2.1,2
				c-0.9,0.5-1.9,0.7-3.1,0.7C521.6,360.1,520.4,359.9,519.4,359.3z"/>
			<path class="st22" d="M531,344.5c-0.3-0.3-0.4-0.6-0.4-1s0.1-0.8,0.4-1.1c0.3-0.3,0.7-0.4,1.1-0.4s0.8,0.1,1.1,0.4
				c0.3,0.3,0.4,0.6,0.4,1s-0.1,0.8-0.4,1.1s-0.7,0.4-1.1,0.4S531.3,344.8,531,344.5z M530.9,347.4h2.3V360h-2.3V347.4z"/>
			<path class="st22" d="M548.9,354.5h-10.2c0.1,1.1,0.6,2,1.5,2.7c0.9,0.7,1.9,1,3.1,1c1.5,0,2.7-0.5,3.6-1.5l1.3,1.5
				c-0.6,0.7-1.3,1.2-2.1,1.5c-0.8,0.3-1.8,0.5-2.8,0.5c-1.3,0-2.5-0.3-3.5-0.8s-1.8-1.3-2.4-2.3c-0.6-1-0.8-2.1-0.8-3.3
				s0.3-2.3,0.8-3.3s1.3-1.7,2.3-2.3c1-0.5,2-0.8,3.2-0.8s2.3,0.3,3.2,0.8s1.7,1.3,2.2,2.3s0.8,2.1,0.8,3.4
				C548.9,353.9,548.9,354.2,548.9,354.5z M540,350.2c-0.7,0.7-1.2,1.5-1.3,2.6h8.1c-0.1-1.1-0.6-1.9-1.3-2.6c-0.7-0.7-1.7-1-2.7-1
				S540.7,349.5,540,350.2z"/>
			<path class="st22" d="M561.3,358.1v1.9h-10.5v-1.5l7.4-9.2h-7.3v-1.9h10.2v1.5l-7.4,9.2H561.3z"/>
			<path class="st22" d="M582.6,342.4V360h-2.2v-2c-0.5,0.7-1.1,1.2-1.9,1.6c-0.8,0.4-1.6,0.5-2.6,0.5c-1.2,0-2.3-0.3-3.3-0.8
				s-1.7-1.3-2.3-2.3c-0.5-1-0.8-2.1-0.8-3.4c0-1.3,0.3-2.4,0.8-3.3c0.5-1,1.3-1.7,2.3-2.3s2.1-0.8,3.3-0.8c0.9,0,1.7,0.2,2.5,0.5
				c0.8,0.3,1.4,0.8,1.9,1.5v-6.9h2.3V342.4z M578.3,357.6c0.6-0.4,1.2-0.9,1.5-1.6s0.5-1.4,0.5-2.3c0-0.9-0.2-1.6-0.5-2.3
				c-0.4-0.7-0.9-1.2-1.5-1.6c-0.6-0.4-1.4-0.5-2.2-0.5s-1.5,0.2-2.2,0.5c-0.6,0.4-1.1,0.9-1.5,1.6s-0.6,1.4-0.6,2.3
				c0,0.9,0.2,1.6,0.6,2.3s0.9,1.2,1.5,1.6s1.4,0.6,2.2,0.6C576.9,358.1,577.7,357.9,578.3,357.6z"/>
			<path class="st22" d="M598.3,354.5h-10.2c0.1,1.1,0.6,2,1.5,2.7c0.8,0.7,1.9,1,3.1,1c1.5,0,2.7-0.5,3.6-1.5l1.3,1.5
				c-0.6,0.7-1.3,1.2-2.1,1.5c-0.8,0.3-1.8,0.5-2.8,0.5c-1.3,0-2.5-0.3-3.5-0.8s-1.8-1.3-2.4-2.3c-0.6-1-0.8-2.1-0.8-3.3
				s0.3-2.3,0.8-3.3s1.3-1.7,2.3-2.3c1-0.5,2-0.8,3.2-0.8s2.3,0.3,3.2,0.8s1.7,1.3,2.2,2.3s0.8,2.1,0.8,3.4
				C598.3,353.9,598.3,354.2,598.3,354.5z M589.4,350.2c-0.7,0.7-1.2,1.5-1.3,2.6h8.1c-0.1-1.1-0.6-1.9-1.3-2.6
				c-0.7-0.7-1.7-1-2.7-1C591,349.2,590.1,349.5,589.4,350.2z"/>
			<path class="st22" d="M616.8,351.3c1.1,0.9,1.7,2.1,1.7,3.7c0,1-0.2,1.9-0.7,2.6s-1.2,1.4-2.1,1.9c-0.9,0.5-2.1,0.7-3.5,0.7
				c-1.2,0-2.3-0.2-3.4-0.5c-1.1-0.3-2-0.9-2.7-1.5l1.1-1.9c0.6,0.5,1.3,1,2.2,1.3s1.8,0.5,2.8,0.5c1.3,0,2.2-0.3,2.9-0.8
				s1-1.3,1-2.2c0-1-0.4-1.8-1.1-2.3c-0.8-0.5-2.1-0.8-3.9-0.8h-3.8l0.9-8.7h9.4v2.1h-7.4l-0.5,4.6h1.9
				C614,350,615.7,350.4,616.8,351.3z"/>
			<path class="st22" d="M636.1,356.1l1.5,1.5c-0.7,0.9-1.7,1.5-2.8,1.9s-2.3,0.7-3.6,0.7c-1.4,0-2.7-0.3-3.8-0.8s-2.2-1.2-3-2.2
				c-0.8-0.9-1.4-2-1.7-3.3H620v-1.3h2.5c0-0.4,0-0.7,0-1c0-0.2,0-0.6,0-1H620v-1.3h2.7c0.3-1.2,0.9-2.3,1.7-3.3s1.8-1.7,3-2.2
				s2.4-0.8,3.8-0.8c1.3,0,2.5,0.2,3.6,0.7s2,1.1,2.7,1.9l-1.5,1.5c-1.3-1.3-2.8-2-4.7-2c-1.4,0-2.7,0.4-3.8,1.1s-1.9,1.7-2.3,3h7.5
				v1.3h-7.9c0,0.3-0.1,0.6-0.1,1c0,0.3,0,0.7,0.1,1h7.9v1.3h-7.5c0.4,1.2,1.2,2.2,2.3,3c1.1,0.7,2.4,1.1,3.8,1.1
				C633.3,358.1,634.8,357.4,636.1,356.1z"/>
			<path class="st22" d="M658.9,342.4V360h-2.2v-2c-0.5,0.7-1.1,1.2-1.9,1.6c-0.8,0.4-1.6,0.5-2.6,0.5c-1.2,0-2.3-0.3-3.3-0.8
				s-1.7-1.3-2.3-2.3s-0.8-2.1-0.8-3.4c0-1.3,0.3-2.4,0.8-3.3c0.5-1,1.3-1.7,2.3-2.3s2.1-0.8,3.3-0.8c0.9,0,1.7,0.2,2.5,0.5
				c0.8,0.3,1.4,0.8,1.9,1.5v-6.9h2.3V342.4z M654.6,357.6c0.6-0.4,1.2-0.9,1.5-1.6c0.4-0.7,0.5-1.4,0.5-2.3c0-0.9-0.2-1.6-0.5-2.3
				c-0.4-0.7-0.9-1.2-1.5-1.6c-0.6-0.4-1.4-0.5-2.2-0.5s-1.5,0.2-2.2,0.5c-0.6,0.4-1.1,0.9-1.5,1.6s-0.6,1.4-0.6,2.3
				c0,0.9,0.2,1.6,0.6,2.3s0.9,1.2,1.5,1.6s1.4,0.6,2.2,0.6C653.3,358.1,654,357.9,654.6,357.6z"/>
			<path class="st22" d="M674.6,354.5h-10.2c0.1,1.1,0.6,2,1.5,2.7c0.9,0.7,1.9,1,3.1,1c1.5,0,2.7-0.5,3.6-1.5l1.3,1.5
				c-0.6,0.7-1.3,1.2-2.1,1.5c-0.8,0.3-1.8,0.5-2.8,0.5c-1.3,0-2.5-0.3-3.5-0.8s-1.8-1.3-2.4-2.3c-0.6-1-0.8-2.1-0.8-3.3
				s0.3-2.3,0.8-3.3s1.3-1.7,2.3-2.3c1-0.5,2-0.8,3.2-0.8s2.3,0.3,3.2,0.8s1.7,1.3,2.2,2.3s0.8,2.1,0.8,3.4
				C674.6,353.9,674.6,354.2,674.6,354.5z M665.7,350.2c-0.7,0.7-1.2,1.5-1.3,2.6h8.1c-0.1-1.1-0.6-1.9-1.3-2.6
				c-0.7-0.7-1.7-1-2.7-1S666.4,349.5,665.7,350.2z"/>
			<path class="st22" d="M688.1,347.8c0.8-0.4,1.7-0.6,2.8-0.6v2.2c-0.1,0-0.3,0-0.5,0c-1.2,0-2.2,0.4-2.9,1.1s-1.1,1.8-1.1,3.1v6.3
				h-2.3v-12.6h2.2v2.1C686.8,348.8,687.4,348.2,688.1,347.8z"/>
			<path class="st22" d="M705,354.5h-10.2c0.1,1.1,0.6,2,1.5,2.7c0.8,0.7,1.9,1,3.1,1c1.5,0,2.7-0.5,3.6-1.5l1.3,1.5
				c-0.6,0.7-1.3,1.2-2.1,1.5c-0.8,0.3-1.8,0.5-2.8,0.5c-1.3,0-2.5-0.3-3.5-0.8s-1.8-1.3-2.4-2.3c-0.6-1-0.8-2.1-0.8-3.3
				s0.3-2.3,0.8-3.3s1.3-1.7,2.3-2.3c1-0.5,2-0.8,3.2-0.8s2.3,0.3,3.2,0.8s1.7,1.3,2.2,2.3s0.8,2.1,0.8,3.4
				C705,353.9,705,354.2,705,354.5z M696.1,350.2c-0.7,0.7-1.2,1.5-1.3,2.6h8.1c-0.1-1.1-0.6-1.9-1.3-2.6c-0.7-0.7-1.7-1-2.7-1
				C697.7,349.2,696.8,349.5,696.1,350.2z"/>
			<path class="st22" d="M727.7,348.7c0.9,0.9,1.4,2.3,1.4,4.1v7.2h-2.3v-7c0-1.2-0.3-2.1-0.8-2.8c-0.6-0.6-1.4-0.9-2.4-0.9
				c-1.2,0-2.1,0.4-2.8,1.1s-1,1.8-1,3.1v6.5h-2.3v-7c0-1.2-0.3-2.1-0.8-2.8c-0.6-0.6-1.4-0.9-2.4-0.9c-1.2,0-2.1,0.4-2.8,1.1
				s-1,1.8-1,3.1v6.5h-2.3v-12.6h2.2v1.9c0.5-0.6,1.1-1.1,1.8-1.5c0.7-0.3,1.6-0.5,2.5-0.5c1,0,1.9,0.2,2.6,0.6s1.3,1,1.8,1.7
				c0.5-0.7,1.1-1.3,2-1.7c0.8-0.4,1.8-0.6,2.9-0.6C725.5,347.3,726.8,347.7,727.7,348.7z"/>
			<path class="st22" d="M733.3,344.5c-0.3-0.3-0.4-0.6-0.4-1s0.1-0.8,0.4-1.1c0.3-0.3,0.7-0.4,1.1-0.4s0.8,0.1,1.1,0.4
				c0.3,0.3,0.4,0.6,0.4,1s-0.1,0.8-0.4,1.1s-0.7,0.4-1.1,0.4S733.6,344.8,733.3,344.5z M733.3,347.4h2.3V360h-2.3V347.4z"/>
			<path class="st22" d="M740.6,359.7c-0.9-0.3-1.7-0.6-2.2-1.1l1-1.8c0.6,0.4,1.2,0.7,2,1c0.8,0.2,1.6,0.4,2.4,0.4c2,0,3-0.6,3-1.7
				c0-0.4-0.1-0.7-0.4-0.9c-0.3-0.2-0.6-0.4-1-0.5c-0.4-0.1-1-0.2-1.7-0.3c-1-0.2-1.8-0.3-2.5-0.5c-0.6-0.2-1.2-0.6-1.7-1
				c-0.5-0.5-0.7-1.2-0.7-2.1c0-1.1,0.5-2.1,1.4-2.7c1-0.7,2.2-1,3.8-1c0.8,0,1.7,0.1,2.5,0.3s1.5,0.5,2.1,0.8l-1,1.8
				c-1-0.7-2.2-1-3.6-1c-1,0-1.7,0.2-2.2,0.5s-0.8,0.7-0.8,1.3c0,0.4,0.1,0.7,0.4,1c0.3,0.3,0.6,0.4,1.1,0.5c0.4,0.1,1,0.2,1.8,0.4
				c1,0.2,1.8,0.4,2.5,0.6c0.7,0.2,1.2,0.5,1.6,1c0.4,0.5,0.7,1.1,0.7,2c0,1.1-0.5,2-1.5,2.7s-2.3,1-4,1
				C742.5,360.1,741.5,360,740.6,359.7z"/>
			<path class="st22" d="M763.2,354.5h-10.3c0.1,1.1,0.6,2,1.5,2.7c0.8,0.7,1.9,1,3.1,1c1.5,0,2.7-0.5,3.6-1.5l1.3,1.5
				c-0.6,0.7-1.3,1.2-2.1,1.5c-0.8,0.3-1.8,0.5-2.8,0.5c-1.3,0-2.5-0.3-3.5-0.8s-1.8-1.3-2.4-2.3c-0.6-1-0.8-2.1-0.8-3.3
				s0.3-2.3,0.8-3.3s1.3-1.7,2.3-2.3c1-0.5,2-0.8,3.2-0.8s2.3,0.3,3.2,0.8s1.7,1.3,2.2,2.3s0.8,2.1,0.8,3.4
				C763.2,353.9,763.2,354.2,763.2,354.5z M754.2,350.2c-0.7,0.7-1.2,1.5-1.3,2.6h8.1c-0.1-1.1-0.6-1.9-1.3-2.6
				c-0.7-0.7-1.7-1-2.7-1C755.9,349.2,755,349.5,754.2,350.2z"/>
		</g>
		<g class="st21">
			<path class="st22" d="M437.8,388.2c-0.9-0.3-1.7-0.6-2.2-1.1l1-1.8c0.6,0.4,1.2,0.7,2,1c0.8,0.2,1.6,0.4,2.4,0.4c2,0,3-0.6,3-1.7
				c0-0.4-0.1-0.7-0.4-0.9c-0.3-0.2-0.6-0.4-1-0.5c-0.4-0.1-1-0.2-1.7-0.3c-1-0.2-1.8-0.3-2.5-0.5c-0.6-0.2-1.2-0.6-1.7-1
				c-0.5-0.5-0.7-1.2-0.7-2.1c0-1.1,0.5-2.1,1.4-2.7c1-0.7,2.2-1,3.8-1c0.8,0,1.7,0.1,2.5,0.3s1.5,0.5,2.1,0.8l-1,1.8
				c-1-0.7-2.2-1-3.6-1c-1,0-1.7,0.2-2.2,0.5s-0.8,0.7-0.8,1.3c0,0.4,0.1,0.7,0.4,1c0.3,0.3,0.6,0.4,1.1,0.5c0.4,0.1,1,0.2,1.8,0.4
				c1,0.2,1.8,0.4,2.5,0.6s1.2,0.5,1.6,1c0.4,0.5,0.7,1.1,0.7,2c0,1.1-0.5,2-1.5,2.7s-2.3,1-4,1
				C439.7,388.6,438.7,388.5,437.8,388.2z"/>
			<path class="st22" d="M460.8,375.9v12.6h-2.2v-1.9c-0.5,0.6-1.1,1.2-1.8,1.5c-0.8,0.4-1.6,0.5-2.5,0.5c-1.7,0-3-0.5-4-1.4
				s-1.4-2.3-1.4-4.1v-7.2h2.3v7c0,1.2,0.3,2.1,0.9,2.8c0.6,0.6,1.4,0.9,2.5,0.9c1.2,0,2.2-0.4,2.8-1.1c0.7-0.7,1-1.8,1-3.1v-6.5
				H460.8z"/>
			<path class="st22" d="M469.1,376.3c0.8-0.4,1.7-0.6,2.8-0.6v2.2c-0.1,0-0.3,0-0.5,0c-1.2,0-2.2,0.4-2.9,1.1s-1.1,1.8-1.1,3.1v6.3
				h-2.3v-12.6h2.2v2.1C467.7,377.3,468.3,376.7,469.1,376.3z"/>
			<path class="st22" d="M491.2,376.6c1,0.5,1.7,1.3,2.3,2.3c0.5,1,0.8,2.1,0.8,3.3c0,1.3-0.3,2.4-0.8,3.4s-1.3,1.7-2.3,2.3
				c-1,0.5-2.1,0.8-3.3,0.8c-0.9,0-1.7-0.2-2.5-0.5s-1.4-0.9-1.9-1.5v6.5h-2.3V376h2.2v2c0.5-0.7,1.1-1.2,1.9-1.6
				c0.8-0.4,1.6-0.5,2.6-0.5C489.2,375.8,490.3,376,491.2,376.6z M489.9,386.1c0.6-0.4,1.1-0.9,1.5-1.6s0.6-1.4,0.6-2.3
				c0-0.9-0.2-1.6-0.6-2.3c-0.4-0.7-0.9-1.2-1.5-1.6c-0.6-0.4-1.4-0.5-2.2-0.5s-1.5,0.2-2.1,0.6s-1.1,0.9-1.5,1.6s-0.6,1.4-0.6,2.3
				c0,0.9,0.2,1.6,0.5,2.3s0.9,1.2,1.5,1.6c0.6,0.4,1.4,0.6,2.2,0.6C488.6,386.6,489.3,386.4,489.9,386.1z"/>
			<path class="st22" d="M501.4,376.3c0.8-0.4,1.7-0.6,2.8-0.6v2.2c-0.1,0-0.3,0-0.5,0c-1.2,0-2.2,0.4-2.9,1.1s-1.1,1.8-1.1,3.1v6.3
				h-2.3v-12.6h2.2v2.1C500,377.3,500.6,376.7,501.4,376.3z"/>
			<path class="st22" d="M518.3,383h-10.2c0.1,1.1,0.6,2,1.5,2.7c0.8,0.7,1.9,1,3.1,1c1.5,0,2.7-0.5,3.6-1.5l1.3,1.5
				c-0.6,0.7-1.3,1.2-2.1,1.5c-0.8,0.3-1.8,0.5-2.8,0.5c-1.3,0-2.5-0.3-3.5-0.8s-1.8-1.3-2.4-2.3c-0.6-1-0.8-2.1-0.8-3.3
				s0.3-2.3,0.8-3.3s1.3-1.7,2.3-2.3c1-0.5,2-0.8,3.2-0.8s2.3,0.3,3.2,0.8s1.7,1.3,2.2,2.3s0.8,2.1,0.8,3.4
				C518.3,382.4,518.3,382.7,518.3,383z M509.3,378.7c-0.7,0.7-1.2,1.5-1.3,2.6h8.1c-0.1-1.1-0.6-1.9-1.3-2.6s-1.7-1-2.7-1
				C511,377.7,510.1,378,509.3,378.7z"/>
			<path class="st22" d="M522.1,388.2c-0.9-0.3-1.7-0.6-2.2-1.1l1-1.8c0.6,0.4,1.2,0.7,2,1c0.8,0.2,1.6,0.4,2.4,0.4c2,0,3-0.6,3-1.7
				c0-0.4-0.1-0.7-0.4-0.9c-0.3-0.2-0.6-0.4-1-0.5c-0.4-0.1-1-0.2-1.7-0.3c-1-0.2-1.8-0.3-2.5-0.5c-0.6-0.2-1.2-0.6-1.7-1
				c-0.5-0.5-0.7-1.2-0.7-2.1c0-1.1,0.5-2.1,1.4-2.7c1-0.7,2.2-1,3.8-1c0.8,0,1.7,0.1,2.5,0.3s1.5,0.5,2.1,0.8l-1,1.8
				c-1-0.7-2.2-1-3.6-1c-1,0-1.7,0.2-2.2,0.5s-0.8,0.7-0.8,1.3c0,0.4,0.1,0.7,0.4,1c0.3,0.3,0.6,0.4,1.1,0.5c0.4,0.1,1,0.2,1.8,0.4
				c1,0.2,1.8,0.4,2.5,0.6s1.2,0.5,1.6,1c0.4,0.5,0.7,1.1,0.7,2c0,1.1-0.5,2-1.5,2.7s-2.3,1-4,1C524,388.6,523,388.5,522.1,388.2z"
				/>
			<path class="st22" d="M544.7,383h-10.2c0.1,1.1,0.6,2,1.5,2.7c0.9,0.7,1.9,1,3.1,1c1.5,0,2.7-0.5,3.6-1.5l1.3,1.5
				c-0.6,0.7-1.3,1.2-2.1,1.5c-0.8,0.3-1.8,0.5-2.8,0.5c-1.3,0-2.5-0.3-3.5-0.8s-1.8-1.3-2.4-2.3c-0.6-1-0.8-2.1-0.8-3.3
				s0.3-2.3,0.8-3.3s1.3-1.7,2.3-2.3c1-0.5,2-0.8,3.2-0.8s2.3,0.3,3.2,0.8s1.7,1.3,2.2,2.3s0.8,2.1,0.8,3.4
				C544.7,382.4,544.7,382.7,544.7,383z M535.8,378.7c-0.7,0.7-1.2,1.5-1.3,2.6h8.1c-0.1-1.1-0.6-1.9-1.3-2.6s-1.7-1-2.7-1
				S536.5,378,535.8,378.7z"/>
			<path class="st22" d="M558.4,377.2c0.9,0.9,1.4,2.3,1.4,4.1v7.2h-2.3v-7c0-1.2-0.3-2.1-0.9-2.8c-0.6-0.6-1.4-0.9-2.5-0.9
				c-1.2,0-2.2,0.4-2.9,1.1c-0.7,0.7-1.1,1.8-1.1,3.1v6.5h-2.2v-12.6h2.2v1.9c0.5-0.6,1.1-1.1,1.9-1.5c0.8-0.3,1.7-0.5,2.7-0.5
				C556.2,375.8,557.5,376.2,558.4,377.2z"/>
			<path class="st22" d="M571.2,387.8c-0.3,0.3-0.7,0.5-1.2,0.7s-1,0.2-1.5,0.2c-1.3,0-2.2-0.3-2.9-1c-0.7-0.7-1-1.7-1-2.9v-6.9
				h-2.1V376h2.1v-2.8h2.3v2.8h3.6v1.9h-3.6v6.8c0,0.7,0.2,1.2,0.5,1.6s0.8,0.5,1.5,0.5s1.3-0.2,1.8-0.6L571.2,387.8z"/>
			<path class="st22" d="M582.5,377.1c0.9,0.9,1.4,2.1,1.4,3.8v7.6h-2.2v-1.7c-0.4,0.6-0.9,1-1.6,1.3c-0.7,0.3-1.5,0.5-2.5,0.5
				c-1.4,0-2.5-0.3-3.4-1c-0.8-0.7-1.3-1.6-1.3-2.7c0-1.1,0.4-2,1.2-2.7c0.8-0.7,2.1-1,3.8-1h3.6v-0.5c0-1-0.3-1.7-0.9-2.3
				s-1.4-0.8-2.5-0.8c-0.7,0-1.5,0.1-2.2,0.4c-0.7,0.2-1.3,0.6-1.8,1l-1-1.7c0.6-0.5,1.4-0.9,2.3-1.2c0.9-0.3,1.9-0.4,2.9-0.4
				C580.2,375.8,581.6,376.2,582.5,377.1z M580.2,386.3c0.6-0.4,1.1-0.9,1.4-1.7v-1.8h-3.5c-1.9,0-2.9,0.6-2.9,1.9
				c0,0.6,0.2,1.1,0.7,1.5c0.5,0.4,1.2,0.5,2,0.5S579.6,386.7,580.2,386.3z"/>
			<path class="st22" d="M595.2,387.8c-0.3,0.3-0.7,0.5-1.2,0.7s-1,0.2-1.5,0.2c-1.3,0-2.2-0.3-2.9-1c-0.7-0.7-1-1.7-1-2.9v-6.9
				h-2.1V376h2.1v-2.8h2.3v2.8h3.6v1.9h-3.6v6.8c0,0.7,0.2,1.2,0.5,1.6s0.8,0.5,1.5,0.5s1.3-0.2,1.8-0.6L595.2,387.8z"/>
			<path class="st22" d="M598,373c-0.3-0.3-0.4-0.6-0.4-1s0.1-0.8,0.4-1.1c0.3-0.3,0.7-0.4,1.1-0.4s0.8,0.1,1.1,0.4
				c0.3,0.3,0.4,0.6,0.4,1s-0.1,0.8-0.4,1.1s-0.7,0.4-1.1,0.4S598.3,373.3,598,373z M597.9,375.9h2.3v12.6h-2.3V375.9z"/>
			<path class="st22" d="M606.6,387.8c-1-0.6-1.8-1.3-2.3-2.3c-0.6-1-0.8-2.1-0.8-3.3c0-1.2,0.3-2.3,0.8-3.3c0.6-1,1.3-1.7,2.3-2.3
				c1-0.5,2.1-0.8,3.4-0.8s2.4,0.3,3.4,0.8s1.8,1.3,2.3,2.3c0.6,1,0.8,2.1,0.8,3.3c0,1.2-0.3,2.3-0.8,3.3c-0.6,1-1.3,1.7-2.3,2.3
				c-1,0.6-2.1,0.8-3.4,0.8S607.6,388.4,606.6,387.8z M612.1,386.1c0.6-0.4,1.1-0.9,1.5-1.6s0.5-1.4,0.5-2.3c0-0.9-0.2-1.6-0.5-2.3
				c-0.4-0.7-0.9-1.2-1.5-1.6c-0.6-0.4-1.4-0.5-2.2-0.5s-1.5,0.2-2.2,0.5c-0.6,0.4-1.1,0.9-1.5,1.6c-0.4,0.7-0.6,1.4-0.6,2.3
				c0,0.9,0.2,1.6,0.6,2.3s0.9,1.2,1.5,1.6s1.4,0.6,2.2,0.6S611.5,386.4,612.1,386.1z"/>
			<path class="st22" d="M630.2,377.2c0.9,0.9,1.4,2.3,1.4,4.1v7.2h-2.3v-7c0-1.2-0.3-2.1-0.9-2.8c-0.6-0.6-1.4-0.9-2.5-0.9
				c-1.2,0-2.2,0.4-2.9,1.1c-0.7,0.7-1.1,1.8-1.1,3.1v6.5h-2.3v-12.6h2.2v1.9c0.5-0.6,1.1-1.1,1.9-1.5c0.8-0.3,1.7-0.5,2.7-0.5
				C628,375.8,629.2,376.2,630.2,377.2z"/>
			<path class="st22" d="M654.1,370.9v17.6h-2.2v-2c-0.5,0.7-1.1,1.2-1.9,1.6c-0.8,0.4-1.6,0.5-2.6,0.5c-1.2,0-2.3-0.3-3.3-0.8
				s-1.7-1.3-2.3-2.3s-0.8-2.1-0.8-3.4c0-1.3,0.3-2.4,0.8-3.3c0.5-1,1.3-1.7,2.3-2.3s2.1-0.8,3.3-0.8c0.9,0,1.7,0.2,2.5,0.5
				c0.8,0.3,1.4,0.8,1.9,1.5v-6.9h2.3V370.9z M649.8,386.1c0.6-0.4,1.2-0.9,1.5-1.6c0.4-0.7,0.5-1.4,0.5-2.3c0-0.9-0.2-1.6-0.5-2.3
				c-0.4-0.7-0.9-1.2-1.5-1.6c-0.6-0.4-1.4-0.5-2.2-0.5s-1.5,0.2-2.2,0.5c-0.6,0.4-1.1,0.9-1.5,1.6c-0.4,0.7-0.6,1.4-0.6,2.3
				c0,0.9,0.2,1.6,0.6,2.3s0.9,1.2,1.5,1.6s1.4,0.6,2.2,0.6C648.4,386.6,649.1,386.4,649.8,386.1z"/>
			<path class="st22" d="M669.8,383h-10.2c0.1,1.1,0.6,2,1.5,2.7c0.9,0.7,1.9,1,3.1,1c1.5,0,2.7-0.5,3.6-1.5l1.3,1.5
				c-0.6,0.7-1.3,1.2-2.1,1.5c-0.8,0.3-1.8,0.5-2.8,0.5c-1.3,0-2.5-0.3-3.5-0.8s-1.8-1.3-2.4-2.3c-0.6-1-0.8-2.1-0.8-3.3
				s0.3-2.3,0.8-3.3s1.3-1.7,2.3-2.3c1-0.5,2-0.8,3.2-0.8s2.3,0.3,3.2,0.8s1.7,1.3,2.2,2.3s0.8,2.1,0.8,3.4
				C669.8,382.4,669.8,382.7,669.8,383z M660.8,378.7c-0.7,0.7-1.2,1.5-1.3,2.6h8.1c-0.1-1.1-0.6-1.9-1.3-2.6s-1.7-1-2.7-1
				S661.6,378,660.8,378.7z"/>
			<path class="st22" d="M681.4,387.8c-1-0.6-1.8-1.3-2.4-2.3c-0.6-1-0.9-2.1-0.9-3.3c0-1.2,0.3-2.3,0.9-3.3s1.4-1.7,2.4-2.3
				c1-0.5,2.2-0.8,3.4-0.8c1.1,0,2.2,0.2,3.1,0.7c0.9,0.5,1.6,1.1,2.1,2l-1.7,1.1c-0.4-0.6-0.9-1.1-1.5-1.4s-1.2-0.5-1.9-0.5
				c-0.8,0-1.6,0.2-2.2,0.5c-0.7,0.4-1.2,0.9-1.5,1.6c-0.4,0.7-0.6,1.4-0.6,2.3s0.2,1.7,0.6,2.3c0.4,0.6,0.9,1.2,1.5,1.6
				c0.6,0.4,1.4,0.5,2.2,0.5c0.7,0,1.4-0.2,1.9-0.5c0.5-0.3,1.1-0.8,1.5-1.4l1.7,1.1c-0.5,0.9-1.2,1.5-2.1,2
				c-0.9,0.5-1.9,0.7-3.1,0.7C683.6,388.6,682.4,388.4,681.4,387.8z"/>
			<path class="st22" d="M704.1,383h-10.2c0.1,1.1,0.6,2,1.5,2.7c0.9,0.7,1.9,1,3.1,1c1.5,0,2.7-0.5,3.6-1.5l1.3,1.5
				c-0.6,0.7-1.3,1.2-2.1,1.5c-0.8,0.3-1.8,0.5-2.8,0.5c-1.3,0-2.5-0.3-3.5-0.8s-1.8-1.3-2.4-2.3c-0.6-1-0.8-2.1-0.8-3.3
				s0.3-2.3,0.8-3.3s1.3-1.7,2.3-2.3c1-0.5,2-0.8,3.2-0.8s2.3,0.3,3.2,0.8s1.7,1.3,2.2,2.3s0.8,2.1,0.8,3.4
				C704.1,382.4,704.1,382.7,704.1,383z M695.1,378.7c-0.7,0.7-1.2,1.5-1.3,2.6h8.1c-0.1-1.1-0.6-1.9-1.3-2.6s-1.7-1-2.7-1
				S695.9,378,695.1,378.7z"/>
			<path class="st22" d="M715.2,388.1c-1.2-0.4-2.1-0.9-2.7-1.5l0.9-1.9c0.6,0.6,1.4,1,2.4,1.4s2,0.5,3.1,0.5c1.4,0,2.4-0.2,3.1-0.7
				c0.7-0.5,1-1.1,1-1.9c0-0.6-0.2-1-0.6-1.4c-0.4-0.4-0.8-0.6-1.4-0.8c-0.5-0.2-1.3-0.4-2.3-0.6c-1.3-0.3-2.3-0.6-3-0.9
				c-0.8-0.3-1.4-0.8-2-1.4c-0.5-0.6-0.8-1.5-0.8-2.5c0-0.9,0.2-1.7,0.7-2.4s1.2-1.3,2.1-1.7c0.9-0.4,2.1-0.6,3.5-0.6
				c1,0,1.9,0.1,2.9,0.4s1.8,0.6,2.4,1.1l-0.8,1.9c-0.7-0.4-1.4-0.8-2.2-1c-0.8-0.2-1.6-0.3-2.3-0.3c-1.3,0-2.4,0.2-3,0.7
				c-0.7,0.5-1,1.1-1,1.9c0,0.6,0.2,1,0.6,1.4c0.4,0.4,0.9,0.6,1.4,0.8c0.6,0.2,1.3,0.4,2.3,0.6c1.3,0.3,2.3,0.6,3,0.9
				c0.8,0.3,1.4,0.8,2,1.4c0.5,0.6,0.8,1.4,0.8,2.5c0,0.9-0.2,1.7-0.7,2.4s-1.2,1.3-2.2,1.7c-1,0.4-2.2,0.6-3.6,0.6
				C717.6,388.7,716.4,388.5,715.2,388.1z"/>
			<path class="st22" d="M744.2,388.5v-12.1l-6,10.1h-1.1l-6-10v12h-2.3v-16.6h1.9l6.9,11.7l6.8-11.7h1.9v16.6H744.2z"/>
			<path class="st22" d="M752.6,388.1c-1.2-0.4-2.1-0.9-2.7-1.5l0.9-1.9c0.6,0.6,1.4,1,2.4,1.4s2,0.5,3.1,0.5c1.4,0,2.4-0.2,3.1-0.7
				c0.7-0.5,1-1.1,1-1.9c0-0.6-0.2-1-0.6-1.4c-0.4-0.4-0.8-0.6-1.4-0.8c-0.5-0.2-1.3-0.4-2.3-0.6c-1.3-0.3-2.3-0.6-3-0.9
				c-0.8-0.3-1.4-0.8-2-1.4c-0.5-0.6-0.8-1.5-0.8-2.5c0-0.9,0.2-1.7,0.7-2.4s1.2-1.3,2.1-1.7c0.9-0.4,2.1-0.6,3.5-0.6
				c1,0,1.9,0.1,2.9,0.4s1.8,0.6,2.4,1.1l-0.8,1.9c-0.7-0.4-1.4-0.8-2.2-1c-0.8-0.2-1.6-0.3-2.3-0.3c-1.3,0-2.4,0.2-3,0.7
				c-0.7,0.5-1,1.1-1,1.9c0,0.6,0.2,1,0.6,1.4c0.4,0.4,0.9,0.6,1.4,0.8c0.6,0.2,1.3,0.4,2.3,0.6c1.3,0.3,2.3,0.6,3,0.9
				c0.8,0.3,1.4,0.8,2,1.4c0.5,0.6,0.8,1.4,0.8,2.5c0,0.9-0.2,1.7-0.7,2.4s-1.2,1.3-2.2,1.7c-1,0.4-2.2,0.6-3.6,0.6
				C755,388.7,753.8,388.5,752.6,388.1z"/>
			<path class="st22" d="M765.7,388.2c-0.3-0.3-0.5-0.7-0.5-1.2s0.2-0.8,0.5-1.2c0.3-0.4,0.7-0.5,1.1-0.5c0.4,0,0.8,0.2,1.1,0.5
				c0.3,0.3,0.5,0.7,0.5,1.2s-0.2,0.9-0.5,1.2c-0.3,0.3-0.7,0.5-1.1,0.5C766.4,388.6,766,388.5,765.7,388.2z"/>
		</g>
	</g>
	<g class="st21">
		<path class="st23" d="M439.1,324c-1.3-0.4-2.3-1-3-1.7l1-2.1c0.7,0.6,1.6,1.1,2.7,1.5c1.1,0.4,2.2,0.6,3.4,0.6
			c1.5,0,2.7-0.3,3.4-0.8c0.8-0.5,1.1-1.2,1.1-2.1c0-0.6-0.2-1.1-0.6-1.5c-0.4-0.4-0.9-0.7-1.5-0.9s-1.5-0.4-2.6-0.7
			c-1.4-0.3-2.5-0.7-3.4-1c-0.9-0.3-1.6-0.8-2.2-1.5c-0.6-0.7-0.9-1.6-0.9-2.8c0-1,0.3-1.9,0.8-2.7c0.5-0.8,1.3-1.4,2.4-1.9
			c1.1-0.5,2.4-0.7,3.9-0.7c1.1,0,2.2,0.1,3.2,0.4c1.1,0.3,2,0.7,2.7,1.2l-0.9,2.1c-0.8-0.5-1.6-0.9-2.5-1.1
			c-0.9-0.3-1.7-0.4-2.6-0.4c-1.5,0-2.6,0.3-3.4,0.8s-1.1,1.2-1.1,2.1c0,0.6,0.2,1.1,0.6,1.5c0.4,0.4,0.9,0.7,1.6,0.9
			c0.6,0.2,1.5,0.5,2.5,0.7c1.4,0.3,2.5,0.7,3.3,1c0.8,0.3,1.6,0.8,2.2,1.5c0.6,0.7,0.9,1.6,0.9,2.8c0,1-0.3,1.8-0.8,2.6
			c-0.5,0.8-1.3,1.4-2.4,1.9c-1.1,0.5-2.4,0.7-3.9,0.7C441.7,324.7,440.4,324.5,439.1,324z"/>
		<path class="st23" d="M470,306v18.4h-2.6v-8.2h-10.6v8.2h-2.6V306h2.6v8h10.6v-8H470z"/>
		<path class="st23" d="M478.8,323.5c-1.5-0.8-2.7-1.9-3.5-3.4c-0.9-1.4-1.3-3-1.3-4.8c0-1.8,0.4-3.4,1.3-4.8c0.9-1.4,2-2.6,3.5-3.4
			c1.5-0.8,3.2-1.2,5-1.2s3.5,0.4,5,1.2c1.5,0.8,2.7,1.9,3.5,3.4c0.8,1.4,1.3,3,1.3,4.8c0,1.8-0.4,3.4-1.3,4.8
			c-0.8,1.4-2,2.6-3.5,3.4s-3.2,1.2-5,1.2C481.9,324.7,480.3,324.3,478.8,323.5z M487.4,321.4c1.1-0.6,1.9-1.5,2.6-2.5
			c0.6-1.1,0.9-2.3,0.9-3.6c0-1.3-0.3-2.5-0.9-3.6c-0.6-1.1-1.5-1.9-2.6-2.5c-1.1-0.6-2.3-0.9-3.6-0.9s-2.6,0.3-3.7,0.9
			c-1.1,0.6-2,1.5-2.6,2.5c-0.6,1.1-0.9,2.3-0.9,3.6c0,1.3,0.3,2.5,0.9,3.6c0.6,1.1,1.5,1.9,2.6,2.5s2.3,0.9,3.7,0.9
			S486.4,322,487.4,321.4z"/>
		<path class="st23" d="M510.4,307.8c1.4,1.1,2.1,2.7,2.1,4.7s-0.7,3.6-2.1,4.7c-1.4,1.1-3.2,1.7-5.6,1.7h-4.6v5.6h-2.6V306h7.2
			C507.2,306,509.1,306.6,510.4,307.8z M508.5,315.5c0.9-0.7,1.3-1.7,1.3-3.1s-0.4-2.4-1.3-3.1c-0.9-0.7-2.1-1.1-3.8-1.1h-4.5v8.3
			h4.5C506.4,316.6,507.6,316.2,508.5,315.5z"/>
	</g>
</g>
<g id="Message2">
	<path class="st17" d="M216.5,121.6h363.9c10.5,0,19,8.5,19,19v82.9c0,10.5-8.5,19-19,19H216.5c-10.5,0-19-8.5-19-19v-82.9
		C197.4,130.1,206,121.6,216.5,121.6z"/>
	<path class="st16" d="M584.4,242.6h-372c-8.3,0-15-6.7-15-15v-91c0-8.3,6.7-15,15-15h372c8.3,0,15,6.7,15,15v91
		C599.4,235.9,592.7,242.6,584.4,242.6z"/>
	<path class="st20" d="M579.8,237.6H217.1c-8.1,0-14.7-6.6-14.7-14.7v-81.6c0-8.1,6.6-14.7,14.7-14.7h362.7
		c8.1,0,14.7,6.6,14.7,14.7v81.6C594.4,231,587.9,237.6,579.8,237.6z"/>
	<g class="st21">
		<path class="st22" d="M245.5,204.9v17.6h-2.2v-2c-0.5,0.7-1.1,1.2-1.9,1.6c-0.8,0.4-1.6,0.5-2.6,0.5c-1.2,0-2.3-0.3-3.3-0.8
			s-1.7-1.2-2.2-2.2s-0.8-2.1-0.8-3.4c0-1.3,0.3-2.4,0.8-3.3c0.5-1,1.3-1.7,2.3-2.3s2.1-0.8,3.3-0.8c0.9,0,1.7,0.2,2.5,0.5
			s1.4,0.8,1.9,1.5v-6.9H245.5z M241.2,220.1c0.6-0.4,1.2-0.9,1.5-1.6c0.4-0.7,0.5-1.4,0.5-2.3s-0.2-1.6-0.5-2.3
			c-0.4-0.7-0.9-1.2-1.5-1.6c-0.6-0.4-1.4-0.5-2.2-0.5c-0.8,0-1.5,0.2-2.2,0.5c-0.6,0.4-1.1,0.9-1.5,1.6c-0.4,0.7-0.6,1.4-0.6,2.3
			s0.2,1.6,0.6,2.3c0.4,0.7,0.9,1.2,1.5,1.6c0.6,0.4,1.4,0.6,2.2,0.6C239.8,220.7,240.5,220.5,241.2,220.1z"/>
		<path class="st22" d="M249.8,207.1c-0.3-0.3-0.4-0.6-0.4-1s0.1-0.8,0.4-1.1s0.7-0.4,1.1-0.4c0.4,0,0.8,0.1,1.1,0.4
			c0.3,0.3,0.4,0.6,0.4,1s-0.1,0.8-0.4,1.1s-0.7,0.4-1.1,0.4C250.5,207.5,250.1,207.4,249.8,207.1z M249.8,210h2.3v12.6h-2.3V210z"
			/>
		<path class="st22" d="M257.1,222.3c-0.9-0.3-1.7-0.6-2.2-1.1l0.9-1.8c0.6,0.4,1.2,0.7,2,1c0.8,0.2,1.6,0.4,2.4,0.4
			c2,0,3-0.6,3-1.7c0-0.4-0.1-0.7-0.4-0.9c-0.3-0.2-0.6-0.4-1-0.5s-1-0.2-1.7-0.3c-1-0.2-1.8-0.3-2.5-0.5c-0.6-0.2-1.2-0.6-1.7-1
			c-0.5-0.5-0.7-1.2-0.7-2.1c0-1.1,0.5-2.1,1.4-2.7c1-0.7,2.2-1,3.8-1c0.8,0,1.7,0.1,2.5,0.3c0.8,0.2,1.5,0.5,2.1,0.8l-1,1.8
			c-1-0.7-2.2-1-3.6-1c-1,0-1.7,0.2-2.2,0.5s-0.8,0.7-0.8,1.3c0,0.4,0.1,0.7,0.4,1c0.3,0.3,0.6,0.4,1.1,0.5c0.4,0.1,1,0.2,1.8,0.4
			c1,0.2,1.8,0.4,2.5,0.6c0.6,0.2,1.2,0.5,1.6,1c0.4,0.5,0.7,1.1,0.7,2c0,1.1-0.5,2-1.5,2.7s-2.3,1-4,1
			C259,222.7,258,222.5,257.1,222.3z"/>
		<path class="st22" d="M278.3,210.6c1,0.5,1.7,1.3,2.3,2.3c0.5,1,0.8,2.1,0.8,3.3c0,1.3-0.3,2.4-0.8,3.4s-1.3,1.7-2.3,2.3
			c-1,0.5-2.1,0.8-3.3,0.8c-0.9,0-1.7-0.2-2.5-0.5c-0.8-0.3-1.4-0.9-1.9-1.5v6.5h-2.3V210h2.2v2c0.5-0.7,1.1-1.2,1.9-1.6
			c0.8-0.4,1.6-0.5,2.6-0.5C276.2,209.8,277.3,210.1,278.3,210.6z M277,220.1c0.6-0.4,1.1-0.9,1.5-1.6c0.4-0.7,0.6-1.4,0.6-2.3
			s-0.2-1.6-0.6-2.3s-0.9-1.2-1.5-1.6c-0.6-0.4-1.4-0.5-2.2-0.5c-0.8,0-1.5,0.2-2.1,0.6c-0.6,0.4-1.1,0.9-1.5,1.6
			c-0.4,0.7-0.6,1.4-0.6,2.3s0.2,1.6,0.5,2.3c0.3,0.7,0.9,1.2,1.5,1.6c0.6,0.4,1.4,0.6,2.2,0.6C275.6,220.7,276.3,220.5,277,220.1z"
			/>
		<path class="st22" d="M286.6,221.9c-1-0.6-1.8-1.3-2.3-2.3c-0.6-1-0.8-2.1-0.8-3.3s0.3-2.3,0.8-3.3s1.3-1.7,2.3-2.3
			c1-0.5,2.1-0.8,3.4-0.8s2.4,0.3,3.4,0.8s1.8,1.3,2.3,2.3s0.8,2.1,0.8,3.3s-0.3,2.3-0.8,3.3c-0.6,1-1.3,1.7-2.3,2.3
			s-2.1,0.8-3.4,0.8S287.5,222.4,286.6,221.9z M292.1,220.1c0.6-0.4,1.1-0.9,1.5-1.6c0.4-0.7,0.5-1.4,0.5-2.3s-0.2-1.6-0.5-2.3
			c-0.4-0.7-0.9-1.2-1.5-1.6c-0.6-0.4-1.4-0.5-2.2-0.5c-0.8,0-1.5,0.2-2.2,0.5c-0.6,0.4-1.1,0.9-1.5,1.6c-0.4,0.7-0.6,1.4-0.6,2.3
			s0.2,1.6,0.6,2.3s0.9,1.2,1.5,1.6c0.6,0.4,1.4,0.6,2.2,0.6C290.7,220.7,291.5,220.5,292.1,220.1z"/>
		<path class="st22" d="M310.1,211.2c0.9,0.9,1.4,2.3,1.4,4.1v7.2h-2.3v-7c0-1.2-0.3-2.1-0.9-2.8c-0.6-0.6-1.4-0.9-2.5-0.9
			c-1.2,0-2.2,0.4-2.9,1.1c-0.7,0.7-1.1,1.8-1.1,3.1v6.5h-2.3v-12.6h2.2v1.9c0.5-0.6,1.1-1.1,1.9-1.5c0.8-0.3,1.7-0.5,2.7-0.5
			C307.9,209.8,309.2,210.3,310.1,211.2z"/>
		<path class="st22" d="M315.8,207.1c-0.3-0.3-0.4-0.6-0.4-1s0.1-0.8,0.4-1.1s0.7-0.4,1.1-0.4c0.4,0,0.8,0.1,1.1,0.4
			c0.3,0.3,0.4,0.6,0.4,1s-0.1,0.8-0.4,1.1s-0.7,0.4-1.1,0.4C316.5,207.5,316.1,207.4,315.8,207.1z M315.8,210h2.3v12.6h-2.3V210z"
			/>
		<path class="st22" d="M332.4,210.6c1,0.5,1.7,1.3,2.3,2.3c0.5,1,0.8,2.1,0.8,3.3c0,1.3-0.3,2.4-0.8,3.4s-1.3,1.7-2.3,2.3
			c-1,0.5-2.1,0.8-3.3,0.8c-0.9,0-1.8-0.2-2.6-0.5c-0.8-0.4-1.4-0.9-1.9-1.6v2h-2.2V205h2.3v6.9c0.5-0.7,1.1-1.2,1.9-1.5
			c0.8-0.3,1.6-0.5,2.5-0.5C330.3,209.8,331.4,210.1,332.4,210.6z M331.1,220.1c0.6-0.4,1.1-0.9,1.5-1.6c0.4-0.7,0.6-1.4,0.6-2.3
			s-0.2-1.6-0.6-2.3c-0.4-0.7-0.9-1.2-1.5-1.6c-0.6-0.4-1.4-0.5-2.2-0.5c-0.8,0-1.5,0.2-2.2,0.5c-0.6,0.4-1.2,0.9-1.5,1.6
			c-0.4,0.7-0.5,1.4-0.5,2.3s0.2,1.6,0.5,2.3c0.3,0.7,0.9,1.2,1.5,1.6c0.6,0.4,1.4,0.6,2.2,0.6C329.7,220.7,330.4,220.5,331.1,220.1
			z"/>
		<path class="st22" d="M338.6,204.9h2.3v17.6h-2.3V204.9z"/>
		<path class="st22" d="M356.6,217h-10.2c0.1,1.1,0.6,2,1.5,2.7c0.8,0.7,1.9,1,3.1,1c1.5,0,2.7-0.5,3.6-1.5l1.3,1.5
			c-0.6,0.7-1.3,1.2-2.1,1.5c-0.8,0.3-1.8,0.5-2.8,0.5c-1.3,0-2.5-0.3-3.5-0.8s-1.8-1.3-2.4-2.3c-0.6-1-0.8-2.1-0.8-3.3
			s0.3-2.3,0.8-3.3s1.3-1.7,2.3-2.3c1-0.5,2-0.8,3.2-0.8c1.2,0,2.3,0.3,3.2,0.8s1.7,1.3,2.2,2.3s0.8,2.1,0.8,3.4
			C356.6,216.5,356.6,216.7,356.6,217z M347.7,212.8c-0.7,0.7-1.2,1.5-1.3,2.6h8.1c-0.1-1.1-0.6-1.9-1.3-2.6c-0.7-0.7-1.7-1-2.7-1
			C349.3,211.8,348.4,212.1,347.7,212.8z"/>
		<path class="st22" d="M374.8,211.1c0.9,0.9,1.4,2.1,1.4,3.8v7.6H374v-1.7c-0.4,0.6-0.9,1-1.6,1.3c-0.7,0.3-1.5,0.5-2.5,0.5
			c-1.4,0-2.5-0.3-3.4-1s-1.3-1.6-1.3-2.7c0-1.1,0.4-2,1.2-2.7c0.8-0.7,2.1-1,3.8-1h3.6v-0.5c0-1-0.3-1.7-0.9-2.3
			c-0.6-0.5-1.4-0.8-2.5-0.8c-0.7,0-1.5,0.1-2.2,0.4c-0.7,0.2-1.3,0.6-1.8,1l-1-1.7c0.6-0.5,1.4-0.9,2.3-1.2s1.9-0.4,2.9-0.4
			C372.5,209.8,373.8,210.3,374.8,211.1z M372.5,220.3c0.6-0.4,1.1-0.9,1.4-1.7v-1.8h-3.5c-1.9,0-2.9,0.6-2.9,1.9
			c0,0.6,0.2,1.1,0.7,1.5s1.2,0.5,2,0.5C371.1,220.9,371.9,220.7,372.5,220.3z"/>
		<path class="st22" d="M392.1,210v12.6h-2.2v-2c-0.5,0.6-1.1,1.2-1.8,1.5c-0.8,0.4-1.6,0.5-2.5,0.5c-1.7,0-3-0.5-4-1.4
			s-1.4-2.3-1.4-4.1v-7.2h2.3v7c0,1.2,0.3,2.1,0.9,2.8c0.6,0.6,1.4,0.9,2.5,0.9c1.2,0,2.2-0.4,2.9-1.1c0.7-0.7,1-1.8,1-3.1v-6.5h2.3
			V210z"/>
		<path class="st22" d="M412.8,210.6c1,0.5,1.7,1.3,2.3,2.3c0.5,1,0.8,2.1,0.8,3.3c0,1.3-0.3,2.4-0.8,3.4s-1.3,1.7-2.3,2.3
			c-1,0.5-2.1,0.8-3.3,0.8c-0.9,0-1.7-0.2-2.5-0.5c-0.8-0.3-1.4-0.9-1.9-1.5v6.5h-2.3V210h2.2v2c0.5-0.7,1.1-1.2,1.9-1.6
			s1.6-0.5,2.6-0.5C410.7,209.8,411.8,210.1,412.8,210.6z M411.5,220.1c0.6-0.4,1.1-0.9,1.5-1.6c0.4-0.7,0.6-1.4,0.6-2.3
			s-0.2-1.6-0.6-2.3c-0.4-0.7-0.9-1.2-1.5-1.6c-0.6-0.4-1.4-0.5-2.2-0.5c-0.8,0-1.5,0.2-2.1,0.6c-0.6,0.4-1.1,0.9-1.5,1.6
			c-0.4,0.7-0.6,1.4-0.6,2.3s0.2,1.6,0.5,2.3c0.3,0.7,0.9,1.2,1.5,1.6c0.6,0.4,1.4,0.6,2.2,0.6C410.1,220.7,410.9,220.5,411.5,220.1
			z"/>
		<path class="st22" d="M421.1,221.9c-1-0.6-1.8-1.3-2.3-2.3c-0.6-1-0.8-2.1-0.8-3.3s0.3-2.3,0.8-3.3s1.3-1.7,2.3-2.3
			c1-0.5,2.1-0.8,3.4-0.8s2.4,0.3,3.4,0.8s1.8,1.3,2.3,2.3s0.8,2.1,0.8,3.3s-0.3,2.3-0.8,3.3c-0.6,1-1.3,1.7-2.3,2.3
			s-2.1,0.8-3.4,0.8S422.1,222.4,421.1,221.9z M426.6,220.1c0.6-0.4,1.1-0.9,1.5-1.6c0.4-0.7,0.5-1.4,0.5-2.3s-0.2-1.6-0.5-2.3
			c-0.4-0.7-0.9-1.2-1.5-1.6c-0.6-0.4-1.4-0.5-2.2-0.5s-1.5,0.2-2.2,0.5c-0.6,0.4-1.1,0.9-1.5,1.6c-0.4,0.7-0.6,1.4-0.6,2.3
			s0.2,1.6,0.6,2.3s0.9,1.2,1.5,1.6c0.6,0.4,1.4,0.6,2.2,0.6S426,220.5,426.6,220.1z"/>
		<path class="st22" d="M434.2,207.1c-0.3-0.3-0.4-0.6-0.4-1s0.1-0.8,0.4-1.1s0.7-0.4,1.1-0.4s0.8,0.1,1.1,0.4
			c0.3,0.3,0.4,0.6,0.4,1s-0.1,0.8-0.4,1.1s-0.7,0.4-1.1,0.4S434.5,207.4,434.2,207.1z M434.1,210h2.3v12.6h-2.3V210z"/>
		<path class="st22" d="M451.3,211.2c0.9,0.9,1.4,2.3,1.4,4.1v7.2h-2.3v-7c0-1.2-0.3-2.1-0.9-2.8c-0.6-0.6-1.4-0.9-2.5-0.9
			c-1.2,0-2.2,0.4-2.9,1.1c-0.7,0.7-1.1,1.8-1.1,3.1v6.5h-2.2v-12.6h2.2v1.9c0.5-0.6,1.1-1.1,1.9-1.5c0.8-0.3,1.7-0.5,2.7-0.5
			C449.1,209.8,450.4,210.3,451.3,211.2z"/>
		<path class="st22" d="M464,221.8c-0.3,0.3-0.7,0.5-1.2,0.7s-1,0.2-1.5,0.2c-1.3,0-2.2-0.3-2.9-1c-0.7-0.7-1-1.7-1-2.9v-6.9h-2.1
			V210h2.1v-2.8h2.3v2.8h3.6v1.9h-3.6v6.8c0,0.7,0.2,1.2,0.5,1.6c0.3,0.4,0.8,0.5,1.5,0.5s1.3-0.2,1.8-0.6L464,221.8z"/>
		<path class="st22" d="M477.1,210.4c0.8-0.4,1.7-0.6,2.8-0.6v2.2c-0.1,0-0.3,0-0.5,0c-1.2,0-2.2,0.4-2.9,1.1
			c-0.7,0.7-1.1,1.8-1.1,3.1v6.3h-2.3v-12.6h2.2v2.1C475.7,211.3,476.3,210.8,477.1,210.4z"/>
		<path class="st22" d="M493.9,217h-10.2c0.1,1.1,0.6,2,1.5,2.7c0.8,0.7,1.9,1,3.1,1c1.5,0,2.7-0.5,3.6-1.5l1.3,1.5
			c-0.6,0.7-1.3,1.2-2.1,1.5s-1.8,0.5-2.8,0.5c-1.3,0-2.5-0.3-3.5-0.8s-1.8-1.3-2.4-2.3s-0.8-2.1-0.8-3.3s0.3-2.3,0.8-3.3
			s1.3-1.7,2.3-2.3c1-0.5,2-0.8,3.2-0.8s2.3,0.3,3.2,0.8c0.9,0.5,1.7,1.3,2.2,2.3s0.8,2.1,0.8,3.4C494,216.5,494,216.7,493.9,217z
			 M485,212.8c-0.7,0.7-1.2,1.5-1.3,2.6h8.1c-0.1-1.1-0.6-1.9-1.3-2.6c-0.7-0.7-1.7-1-2.7-1C486.7,211.8,485.8,212.1,485,212.8z"/>
		<path class="st22" d="M504.2,221.8c-0.3,0.3-0.7,0.5-1.2,0.7s-1,0.2-1.5,0.2c-1.3,0-2.2-0.3-2.9-1c-0.7-0.7-1-1.7-1-2.9v-6.9h-2.1
			V210h2.1v-2.8h2.3v2.8h3.6v1.9h-3.7v6.8c0,0.7,0.2,1.2,0.5,1.6c0.3,0.4,0.8,0.5,1.5,0.5s1.3-0.2,1.8-0.6L504.2,221.8z"/>
		<path class="st22" d="M510.9,210.4c0.8-0.4,1.7-0.6,2.8-0.6v2.2c-0.1,0-0.3,0-0.5,0c-1.2,0-2.2,0.4-2.9,1.1
			c-0.7,0.7-1.1,1.8-1.1,3.1v6.3h-2.3v-12.6h2.2v2.1C509.6,211.3,510.2,210.8,510.9,210.4z"/>
		<path class="st22" d="M525.1,211.1c0.9,0.9,1.4,2.1,1.4,3.8v7.6h-2.2v-1.7c-0.4,0.6-0.9,1-1.6,1.3s-1.5,0.5-2.5,0.5
			c-1.4,0-2.5-0.3-3.4-1c-0.9-0.7-1.3-1.6-1.3-2.7c0-1.1,0.4-2,1.2-2.7s2.1-1,3.8-1h3.6v-0.5c0-1-0.3-1.7-0.9-2.3
			c-0.6-0.5-1.4-0.8-2.5-0.8c-0.7,0-1.5,0.1-2.2,0.4c-0.7,0.2-1.3,0.6-1.8,1l-1-1.7c0.6-0.5,1.4-0.9,2.3-1.2
			c0.9-0.3,1.9-0.4,2.9-0.4C522.9,209.8,524.2,210.3,525.1,211.1z M522.9,220.3c0.6-0.4,1.1-0.9,1.4-1.7v-1.8h-3.5
			c-1.9,0-2.9,0.6-2.9,1.9c0,0.6,0.2,1.1,0.7,1.5s1.2,0.5,2,0.5C521.5,220.9,522.2,220.7,522.9,220.3z"/>
		<path class="st22" d="M530.8,207.1c-0.3-0.3-0.4-0.6-0.4-1s0.1-0.8,0.4-1.1s0.7-0.4,1.1-0.4c0.4,0,0.8,0.1,1.1,0.4
			c0.3,0.3,0.4,0.6,0.4,1s-0.1,0.8-0.4,1.1s-0.7,0.4-1.1,0.4C531.5,207.5,531.1,207.4,530.8,207.1z M530.7,210h2.3v12.6h-2.3V210z"
			/>
		<path class="st22" d="M544.4,221.8c-0.3,0.3-0.7,0.5-1.2,0.7s-1,0.2-1.5,0.2c-1.3,0-2.2-0.3-2.9-1c-0.7-0.7-1-1.7-1-2.9v-6.9h-2.1
			V210h2.1v-2.8h2.3v2.8h3.6v1.9h-3.6v6.8c0,0.7,0.2,1.2,0.5,1.6c0.3,0.4,0.8,0.5,1.5,0.5s1.3-0.2,1.8-0.6L544.4,221.8z"/>
		<path class="st22" d="M546.8,222.2c-0.3-0.3-0.5-0.7-0.5-1.2s0.2-0.8,0.5-1.2c0.3-0.3,0.7-0.5,1.1-0.5c0.4,0,0.8,0.2,1.1,0.5
			c0.3,0.3,0.5,0.7,0.5,1.2s-0.2,0.9-0.5,1.2s-0.7,0.5-1.1,0.5C547.5,222.7,547.2,222.5,546.8,222.2z"/>
	</g>
	<g class="st21">
		<path class="st22" d="M248.4,177.4l-7.3,16.6h-2.4l-7.3-16.6h2.6l6,13.7l6-13.7H248.4z"/>
		<path class="st22" d="M251.2,193.4c-1-0.6-1.8-1.3-2.3-2.3c-0.6-1-0.8-2.1-0.8-3.3s0.3-2.3,0.8-3.3s1.3-1.7,2.3-2.3
			c1-0.5,2.1-0.8,3.4-0.8s2.4,0.3,3.4,0.8s1.8,1.3,2.3,2.3s0.8,2.1,0.8,3.3s-0.3,2.3-0.8,3.3c-0.6,1-1.3,1.7-2.3,2.3
			s-2.1,0.8-3.4,0.8S252.2,193.9,251.2,193.4z M256.8,191.6c0.6-0.4,1.1-0.9,1.5-1.6c0.4-0.7,0.5-1.4,0.5-2.3s-0.2-1.6-0.5-2.3
			c-0.4-0.7-0.9-1.2-1.5-1.6c-0.6-0.4-1.4-0.5-2.2-0.5c-0.8,0-1.5,0.2-2.2,0.5c-0.6,0.4-1.1,0.9-1.5,1.6c-0.4,0.7-0.6,1.4-0.6,2.3
			s0.2,1.6,0.6,2.3c0.4,0.7,0.9,1.2,1.5,1.6c0.6,0.4,1.4,0.6,2.2,0.6C255.4,192.2,256.1,192,256.8,191.6z"/>
		<path class="st22" d="M271.4,193.3c-0.3,0.3-0.7,0.5-1.2,0.7s-1,0.2-1.5,0.2c-1.3,0-2.2-0.3-2.9-1c-0.7-0.7-1-1.7-1-2.9v-6.9h-2.1
			v-1.9h2.1v-2.8h2.3v2.8h3.6v1.9h-3.6v6.8c0,0.7,0.2,1.2,0.5,1.6c0.3,0.4,0.8,0.5,1.5,0.5c0.7,0,1.3-0.2,1.8-0.6L271.4,193.3z"/>
		<path class="st22" d="M278.1,181.9c0.8-0.4,1.7-0.6,2.8-0.6v2.2c-0.1,0-0.3,0-0.5,0c-1.2,0-2.2,0.4-2.9,1.1
			c-0.7,0.7-1.1,1.8-1.1,3.1v6.3h-2.3v-12.6h2.2v2.1C276.7,182.8,277.3,182.3,278.1,181.9z"/>
		<path class="st22" d="M294.9,188.5h-10.2c0.1,1.1,0.6,2,1.5,2.7c0.8,0.7,1.9,1,3.1,1c1.5,0,2.7-0.5,3.6-1.5l1.3,1.5
			c-0.6,0.7-1.3,1.2-2.1,1.5c-0.8,0.3-1.8,0.5-2.8,0.5c-1.3,0-2.5-0.3-3.5-0.8s-1.8-1.3-2.4-2.3s-0.8-2.1-0.8-3.3s0.3-2.3,0.8-3.3
			s1.3-1.7,2.3-2.3c1-0.5,2-0.8,3.2-0.8s2.3,0.3,3.2,0.8s1.7,1.3,2.2,2.3s0.8,2.1,0.8,3.4C295,188,294.9,188.2,294.9,188.5z
			 M286,184.3c-0.7,0.7-1.2,1.5-1.3,2.6h8.1c-0.1-1.1-0.6-1.9-1.3-2.6c-0.7-0.7-1.7-1-2.7-1C287.6,183.3,286.7,183.6,286,184.3z"/>
		<path class="st22" d="M306.6,193.4c-1-0.6-1.8-1.3-2.4-2.3s-0.9-2.1-0.9-3.3s0.3-2.3,0.9-3.3c0.6-1,1.4-1.7,2.4-2.3
			c1-0.5,2.1-0.8,3.4-0.8c1.1,0,2.2,0.2,3.1,0.7s1.6,1.1,2.1,2l-1.7,1.1c-0.4-0.6-0.9-1.1-1.5-1.4s-1.2-0.5-1.9-0.5
			c-0.8,0-1.6,0.2-2.2,0.5c-0.7,0.4-1.2,0.9-1.5,1.6c-0.4,0.7-0.6,1.4-0.6,2.3c0,0.9,0.2,1.7,0.6,2.3c0.4,0.6,0.9,1.2,1.5,1.6
			s1.4,0.5,2.2,0.5c0.7,0,1.4-0.2,1.9-0.5s1.1-0.8,1.5-1.4l1.7,1.1c-0.5,0.9-1.2,1.5-2.1,2c-0.9,0.5-1.9,0.7-3.1,0.7
			C308.7,194.2,307.6,193.9,306.6,193.4z"/>
		<path class="st22" d="M319.9,193.4c-1-0.6-1.8-1.3-2.3-2.3c-0.6-1-0.8-2.1-0.8-3.3s0.3-2.3,0.8-3.3s1.3-1.7,2.3-2.3
			c1-0.5,2.1-0.8,3.4-0.8s2.4,0.3,3.4,0.8s1.8,1.3,2.3,2.3s0.8,2.1,0.8,3.3s-0.3,2.3-0.8,3.3c-0.6,1-1.3,1.7-2.3,2.3
			s-2.1,0.8-3.4,0.8S320.9,193.9,319.9,193.4z M325.4,191.6c0.6-0.4,1.1-0.9,1.5-1.6c0.4-0.7,0.5-1.4,0.5-2.3s-0.2-1.6-0.5-2.3
			c-0.4-0.7-0.9-1.2-1.5-1.6c-0.6-0.4-1.4-0.5-2.2-0.5c-0.8,0-1.5,0.2-2.2,0.5c-0.6,0.4-1.1,0.9-1.5,1.6c-0.4,0.7-0.6,1.4-0.6,2.3
			s0.2,1.6,0.6,2.3c0.4,0.7,0.9,1.2,1.5,1.6c0.6,0.4,1.4,0.6,2.2,0.6C324,192.2,324.8,192,325.4,191.6z"/>
		<path class="st22" d="M333,176.4h2.3V194H333V176.4z"/>
		<path class="st22" d="M339.6,178.6c-0.3-0.3-0.4-0.6-0.4-1s0.1-0.8,0.4-1.1c0.3-0.3,0.7-0.4,1.1-0.4c0.4,0,0.8,0.1,1.1,0.4
			c0.3,0.3,0.4,0.6,0.4,1s-0.1,0.8-0.4,1.1s-0.7,0.4-1.1,0.4C340.3,179,339.9,178.9,339.6,178.6z M339.6,181.5h2.3v12.6h-2.3V181.5z
			"/>
		<path class="st22" d="M346.9,193.8c-0.9-0.3-1.7-0.6-2.2-1.1l0.9-1.8c0.6,0.4,1.2,0.7,2,1c0.8,0.2,1.6,0.4,2.4,0.4
			c2,0,3-0.6,3-1.7c0-0.4-0.1-0.7-0.4-0.9s-0.6-0.4-1-0.5s-1-0.2-1.7-0.3c-1-0.2-1.8-0.3-2.5-0.5c-0.6-0.2-1.2-0.6-1.7-1
			c-0.5-0.5-0.7-1.2-0.7-2.1c0-1.1,0.5-2.1,1.4-2.7c1-0.7,2.2-1,3.8-1c0.8,0,1.7,0.1,2.5,0.3c0.8,0.2,1.5,0.5,2.1,0.8l-1,1.8
			c-1-0.7-2.2-1-3.6-1c-1,0-1.7,0.2-2.2,0.5s-0.8,0.7-0.8,1.3c0,0.4,0.1,0.7,0.4,1s0.6,0.4,1.1,0.5c0.4,0.1,1,0.2,1.8,0.4
			c1,0.2,1.8,0.4,2.5,0.6c0.6,0.2,1.2,0.5,1.6,1c0.4,0.5,0.7,1.1,0.7,2c0,1.1-0.5,2-1.5,2.7s-2.3,1-4,1
			C348.8,194.2,347.8,194,346.9,193.8z"/>
		<path class="st22" d="M375,182.7c0.9,0.9,1.4,2.3,1.4,4.1v7.2h-2.3v-7c0-1.2-0.3-2.1-0.9-2.8c-0.6-0.6-1.4-0.9-2.5-0.9
			c-1.2,0-2.2,0.4-2.9,1.1c-0.7,0.7-1.1,1.8-1.1,3.1v6.5h-2.3v-12.6h2.2v1.9c0.5-0.6,1.1-1.1,1.9-1.5c0.8-0.3,1.7-0.5,2.7-0.5
			C372.8,181.3,374.1,181.8,375,182.7z"/>
		<path class="st22" d="M381.1,184.5c-0.6-0.3-1.1-0.8-1.4-1.4c-0.3-0.6-0.5-1.2-0.5-2c0-0.7,0.2-1.3,0.5-1.9
			c0.3-0.6,0.8-1.1,1.4-1.4c0.6-0.3,1.2-0.5,2-0.5c0.7,0,1.4,0.2,2,0.5s1.1,0.8,1.4,1.4c0.3,0.6,0.5,1.2,0.5,1.9s-0.2,1.4-0.5,2
			c-0.3,0.6-0.8,1.1-1.4,1.4c-0.6,0.3-1.3,0.5-2,0.5C382.3,185,381.7,184.8,381.1,184.5z M384.9,183c0.5-0.5,0.7-1.1,0.7-1.8
			s-0.2-1.3-0.7-1.8s-1.1-0.7-1.8-0.7c-0.7,0-1.3,0.2-1.8,0.7s-0.7,1.1-0.7,1.9s0.2,1.4,0.7,1.9s1.1,0.7,1.8,0.7
			C383.8,183.9,384.4,183.5,384.9,183z"/>
		<path class="st22" d="M392.9,179.5v5.8h8.3v2h-8.3v6.7h-2.4v-16.6h11.7v2.1H392.9z"/>
		<path class="st22" d="M416.7,194l-3.6-5.1c-0.4,0-0.8,0-1,0H408v5.1h-2.4v-16.6h6.5c2.2,0,3.8,0.5,5.1,1.5c1.2,1,1.9,2.4,1.9,4.3
			c0,1.3-0.3,2.4-1,3.3s-1.5,1.6-2.7,2l3.9,5.6h-2.6V194z M415.5,186c0.8-0.6,1.2-1.6,1.2-2.8s-0.4-2.1-1.2-2.8
			c-0.8-0.6-1.9-1-3.4-1h-4v7.5h4C413.5,187,414.7,186.6,415.5,186z"/>
		<path class="st22" d="M431.4,185.9c0.9,0.8,1.3,1.9,1.3,3.2c0,1-0.2,1.8-0.7,2.6s-1.2,1.4-2.1,1.8c-0.9,0.5-2.1,0.7-3.5,0.7
			c-1.2,0-2.3-0.2-3.4-0.5c-1.1-0.4-2-0.9-2.7-1.5l1.1-1.9c0.6,0.5,1.3,1,2.2,1.3c0.9,0.3,1.8,0.5,2.8,0.5c1.2,0,2.2-0.3,2.9-0.8
			c0.7-0.5,1-1.2,1-2.2c0-0.9-0.3-1.6-1-2.1s-1.7-0.8-3.1-0.8h-1.3v-1.6l4.2-5.1h-8v-2.1h11v1.6l-4.3,5.4
			C429.4,184.6,430.6,185.1,431.4,185.9z"/>
		<path class="st22" d="M446.5,192v2.1h-11.9v-1.6l6.8-6.5c0.8-0.8,1.4-1.5,1.7-2.1s0.4-1.2,0.4-1.7c0-0.9-0.3-1.5-0.9-2
			s-1.5-0.7-2.6-0.7c-1.8,0-3.3,0.6-4.3,1.8l-1.6-1.4c0.6-0.8,1.5-1.4,2.6-1.9c1.1-0.4,2.2-0.7,3.5-0.7c1.7,0,3.1,0.4,4.2,1.2
			c1,0.8,1.5,2,1.5,3.4c0,0.9-0.2,1.7-0.6,2.5s-1.1,1.7-2.2,2.7L438,192H446.5z"/>
		<path class="st22" d="M453.6,177.4V194h-2.4v-14.6h-3.8v-2.1h6.2V177.4z"/>
		<path class="st22" d="M468.9,192v2.1H457v-1.6l6.8-6.5c0.8-0.8,1.4-1.5,1.7-2.1s0.4-1.2,0.4-1.7c0-0.9-0.3-1.5-0.9-2
			s-1.5-0.7-2.6-0.7c-1.8,0-3.3,0.6-4.3,1.8l-1.6-1.4c0.6-0.8,1.5-1.4,2.6-1.9c1.1-0.4,2.2-0.7,3.5-0.7c1.7,0,3.1,0.4,4.2,1.2
			c1,0.8,1.5,2,1.5,3.4c0,0.9-0.2,1.7-0.6,2.5s-1.1,1.7-2.2,2.7l-5.1,4.9H468.9z"/>
		<path class="st22" d="M481,185.9c0.9,0.8,1.3,1.9,1.3,3.2c0,1-0.2,1.8-0.7,2.6s-1.2,1.4-2.1,1.8c-0.9,0.5-2.1,0.7-3.5,0.7
			c-1.2,0-2.3-0.2-3.4-0.5c-1.1-0.4-2-0.9-2.7-1.5l1.1-1.9c0.6,0.5,1.3,1,2.2,1.3c0.9,0.3,1.8,0.5,2.8,0.5c1.2,0,2.2-0.3,2.9-0.8
			c0.7-0.5,1-1.2,1-2.2c0-0.9-0.3-1.6-1-2.1s-1.7-0.8-3.1-0.8h-1.3v-1.6l4.2-5.1h-8v-2.1h11v1.6l-4.3,5.4
			C478.9,184.6,480.1,185.1,481,185.9z"/>
		<path class="st22" d="M487.8,193.2c-1-0.7-1.8-1.7-2.4-2.9c-0.6-1.3-0.9-2.8-0.9-4.6s0.3-3.3,0.9-4.6s1.4-2.3,2.4-2.9
			c1-0.7,2.2-1,3.5-1s2.5,0.3,3.5,1s1.8,1.7,2.4,2.9c0.6,1.3,0.9,2.8,0.9,4.6s-0.3,3.3-0.9,4.6s-1.4,2.3-2.4,2.9c-1,0.7-2.2,1-3.5,1
			C489.9,194.2,488.8,193.9,487.8,193.2z M494.5,190.5c0.8-1.1,1.2-2.7,1.2-4.8s-0.4-3.7-1.2-4.8c-0.8-1.1-1.9-1.6-3.2-1.6
			c-1.3,0-2.4,0.5-3.2,1.6c-0.8,1.1-1.2,2.7-1.2,4.8s0.4,3.7,1.2,4.8c0.8,1.1,1.9,1.6,3.2,1.6C492.6,192.1,493.7,191.6,494.5,190.5z
			"/>
		<path class="st22" d="M511.9,177.4V194h-2.4v-14.6h-3.7v-2.1h6.1V177.4z"/>
		<path class="st22" d="M526,179.4c1.2,1.4,1.8,3.5,1.8,6.1c0,1.9-0.3,3.4-1,4.7s-1.6,2.3-2.8,3c-1.2,0.7-2.6,1-4.1,1
			c-0.8,0-1.6-0.1-2.3-0.3c-0.7-0.2-1.3-0.4-1.9-0.7l0.9-1.9c0.8,0.5,1.9,0.8,3.2,0.8c1.7,0,3.1-0.5,4-1.6c1-1.1,1.5-2.6,1.5-4.7
			v-0.6c-0.5,0.7-1.1,1.3-2,1.6c-0.9,0.3-1.8,0.6-2.8,0.6c-1.1,0-2.1-0.2-2.9-0.6c-0.9-0.4-1.5-1-2-1.8s-0.7-1.7-0.7-2.6
			c0-1,0.3-2,0.8-2.8s1.2-1.4,2.1-1.8c0.9-0.4,1.9-0.7,3-0.7C523.1,177.2,524.8,177.9,526,179.4z M523.1,185.2
			c0.6-0.3,1-0.7,1.4-1.2c0.3-0.5,0.5-1,0.5-1.6s-0.2-1.1-0.5-1.6s-0.8-0.9-1.4-1.2c-0.6-0.3-1.3-0.4-2.1-0.4c-1.1,0-2,0.3-2.6,0.9
			c-0.7,0.6-1,1.4-1,2.4s0.3,1.8,1,2.3c0.7,0.6,1.6,0.9,2.8,0.9C521.8,185.6,522.5,185.4,523.1,185.2z"/>
		<path class="st22" d="M548.9,188.5h-10.2c0.1,1.1,0.6,2,1.5,2.7c0.8,0.7,1.9,1,3.1,1c1.5,0,2.7-0.5,3.6-1.5l1.3,1.5
			c-0.6,0.7-1.3,1.2-2.1,1.5c-0.8,0.3-1.8,0.5-2.8,0.5c-1.3,0-2.5-0.3-3.5-0.8s-1.8-1.3-2.4-2.3c-0.6-1-0.8-2.1-0.8-3.3
			s0.3-2.3,0.8-3.3s1.3-1.7,2.3-2.3c1-0.5,2-0.8,3.2-0.8s2.3,0.3,3.2,0.8s1.7,1.3,2.2,2.3s0.8,2.1,0.8,3.4
			C548.9,188,548.9,188.2,548.9,188.5z M540,184.3c-0.7,0.7-1.2,1.5-1.3,2.6h8.1c-0.1-1.1-0.6-1.9-1.3-2.6c-0.7-0.7-1.7-1-2.7-1
			C541.6,183.3,540.7,183.6,540,184.3z"/>
		<path class="st22" d="M552.7,193.8c-0.9-0.3-1.7-0.6-2.2-1.1l0.9-1.8c0.6,0.4,1.2,0.7,2,1c0.8,0.2,1.6,0.4,2.4,0.4
			c2,0,3-0.6,3-1.7c0-0.4-0.1-0.7-0.4-0.9s-0.6-0.4-1-0.5c-0.4-0.1-1-0.2-1.7-0.3c-1-0.2-1.8-0.3-2.5-0.5c-0.6-0.2-1.2-0.6-1.7-1
			c-0.5-0.5-0.7-1.2-0.7-2.1c0-1.1,0.5-2.1,1.4-2.7c1-0.7,2.2-1,3.8-1c0.8,0,1.7,0.1,2.5,0.3s1.5,0.5,2.1,0.8l-1,1.8
			c-1-0.7-2.2-1-3.6-1c-1,0-1.7,0.2-2.2,0.5s-0.8,0.7-0.8,1.3c0,0.4,0.1,0.7,0.4,1s0.6,0.4,1.1,0.5c0.4,0.1,1,0.2,1.8,0.4
			c1,0.2,1.8,0.4,2.5,0.6c0.6,0.2,1.2,0.5,1.6,1c0.4,0.5,0.7,1.1,0.7,2c0,1.1-0.5,2-1.5,2.7s-2.3,1-4,1
			C554.7,194.2,553.7,194,552.7,193.8z"/>
		<path class="st22" d="M571.1,193.3c-0.3,0.3-0.7,0.5-1.2,0.7s-1,0.2-1.5,0.2c-1.3,0-2.2-0.3-2.9-1s-1-1.7-1-2.9v-6.9h-2.1v-1.9
			h2.1v-2.8h2.3v2.8h3.6v1.9h-3.6v6.8c0,0.7,0.2,1.2,0.5,1.6c0.3,0.4,0.8,0.5,1.5,0.5s1.3-0.2,1.8-0.6L571.1,193.3z"/>
	</g>
	<g>
		<rect x="231.8" y="139.7" class="st24" width="106.9" height="32.5"/>
		<path class="st23" d="M244.1,150.1c0.9,0.9,1.4,2.1,1.4,3.5c0,1-0.3,2-0.8,2.8c-0.5,0.8-1.3,1.5-2.3,2c-1,0.5-2.3,0.7-3.8,0.7
			c-1.3,0-2.5-0.2-3.7-0.6c-1.2-0.4-2.2-0.9-2.9-1.6l1.2-2.1c0.6,0.6,1.4,1.1,2.4,1.4c1,0.4,2,0.5,3.1,0.5c1.4,0,2.4-0.3,3.2-0.9
			c0.8-0.6,1.1-1.4,1.1-2.4c0-1-0.4-1.8-1.1-2.3s-1.9-0.8-3.4-0.8H237v-1.8l4.6-5.6h-8.8v-2.3h12v1.8l-4.8,5.9
			C241.8,148.6,243.2,149.2,244.1,150.1z"/>
		<path class="st23" d="M261.4,151.2c0.6,0.7,0.8,1.6,0.8,2.7c0,1.1-0.3,2-0.9,2.8c-0.6,0.8-1.4,1.4-2.5,1.9
			c-1.1,0.4-2.4,0.6-3.8,0.6c-1.5,0-2.7-0.2-3.8-0.6c-1.1-0.4-1.9-1.1-2.5-1.9c-0.6-0.8-0.9-1.8-0.9-2.8c0-1,0.3-1.9,0.8-2.7
			c0.5-0.7,1.3-1.3,2.4-1.7c-0.8-0.4-1.5-0.9-1.9-1.6s-0.6-1.4-0.6-2.3c0-1,0.3-1.9,0.8-2.6c0.5-0.7,1.3-1.3,2.3-1.7
			c1-0.4,2.1-0.6,3.4-0.6c1.3,0,2.5,0.2,3.5,0.6c1,0.4,1.8,1,2.3,1.7c0.5,0.7,0.8,1.6,0.8,2.6c0,0.9-0.2,1.7-0.7,2.3
			c-0.4,0.7-1.1,1.2-1.9,1.6C260.1,149.8,260.9,150.4,261.4,151.2z M258.4,156.2c0.8-0.6,1.2-1.4,1.2-2.4c0-1-0.4-1.8-1.2-2.4
			c-0.8-0.6-2-0.9-3.4-0.9c-1.4,0-2.6,0.3-3.4,0.9c-0.8,0.6-1.2,1.4-1.2,2.4c0,1,0.4,1.8,1.2,2.4s1.9,0.9,3.4,0.9
			C256.5,157.1,257.6,156.8,258.4,156.2z M252.1,143.5c-0.7,0.5-1.1,1.2-1.1,2.1s0.4,1.6,1.1,2.1c0.7,0.5,1.7,0.8,2.9,0.8
			c1.3,0,2.3-0.3,3-0.8c0.7-0.5,1.1-1.2,1.1-2.1s-0.4-1.6-1.1-2.1s-1.7-0.8-3-0.8C253.8,142.7,252.8,142.9,252.1,143.5z"/>
		<path class="st23" d="M270.3,140.8V159h-2.6V143h-4.1v-2.3H270.3z"/>
		<path class="st23" d="M287.1,156.7v2.3H274v-1.8l7.4-7.1c0.9-0.9,1.5-1.6,1.8-2.2c0.3-0.6,0.5-1.3,0.5-1.9c0-1-0.3-1.7-1-2.2
			c-0.7-0.5-1.6-0.8-2.9-0.8c-2,0-3.6,0.7-4.7,2l-1.8-1.5c0.7-0.9,1.6-1.5,2.8-2c1.2-0.5,2.4-0.7,3.9-0.7c1.9,0,3.4,0.5,4.5,1.4
			c1.1,0.9,1.7,2.1,1.7,3.7c0,1-0.2,1.9-0.6,2.8c-0.4,0.9-1.2,1.9-2.4,3l-5.6,5.4H287.1z"/>
		<path class="st23" d="M300.3,150.1c0.9,0.9,1.4,2.1,1.4,3.5c0,1-0.3,2-0.8,2.8c-0.5,0.8-1.3,1.5-2.3,2c-1,0.5-2.3,0.7-3.8,0.7
			c-1.3,0-2.5-0.2-3.7-0.6c-1.2-0.4-2.2-0.9-2.9-1.6l1.2-2.1c0.6,0.6,1.4,1.1,2.4,1.4c1,0.4,2,0.5,3.1,0.5c1.4,0,2.4-0.3,3.2-0.9
			c0.8-0.6,1.1-1.4,1.1-2.4c0-1-0.4-1.8-1.1-2.3s-1.9-0.8-3.4-0.8h-1.5v-1.8l4.6-5.6h-8.8v-2.3h12v1.8l-4.8,5.9
			C298,148.6,299.3,149.2,300.3,150.1z"/>
	</g>
</g>
<g id="Message1">
	<path class="st17" d="M216.4,446.5h364c10.5,0,19,8.5,19,19v83c0,10.5-8.5,19-19,19h-364c-10.5,0-19-8.5-19-19v-83
		C197.4,455,205.9,446.5,216.4,446.5z"/>
	<path class="st16" d="M589.7,520.5h-372c-8.3,0-15-6.7-15-15v-91c0-8.3,6.7-15,15-15h372c8.3,0,15,6.7,15,15v91
		C604.7,513.8,598,520.5,589.7,520.5z"/>
	<g>
		<g id="messages_1_">
		</g>
		<g>
			<g class="st21">
				<path class="st22" d="M235.1,516.5h6.4v2h-6.4V516.5z"/>
				<path class="st22" d="M255.3,521.8v2.1h-11.9v-1.6l6.8-6.5c0.8-0.8,1.4-1.5,1.7-2.1c0.3-0.6,0.4-1.2,0.4-1.7
					c0-0.9-0.3-1.5-0.9-2s-1.5-0.7-2.6-0.7c-1.8,0-3.3,0.6-4.3,1.8l-1.6-1.4c0.6-0.8,1.5-1.4,2.6-1.9c1.1-0.4,2.2-0.7,3.5-0.7
					c1.7,0,3.1,0.4,4.2,1.2c1,0.8,1.5,2,1.5,3.4c0,0.9-0.2,1.7-0.6,2.5s-1.1,1.7-2.2,2.7l-5.1,4.9H255.3L255.3,521.8z"/>
				<path class="st22" d="M260.5,523.2c-1-0.7-1.8-1.7-2.4-2.9c-0.6-1.3-0.9-2.8-0.9-4.6c0-1.8,0.3-3.3,0.9-4.6
					c0.6-1.3,1.4-2.3,2.4-2.9c1-0.7,2.2-1,3.5-1s2.5,0.3,3.5,1s1.8,1.7,2.4,2.9c0.6,1.3,0.9,2.8,0.9,4.6c0,1.8-0.3,3.3-0.9,4.6
					s-1.4,2.3-2.4,2.9c-1,0.7-2.2,1-3.5,1S261.5,523.8,260.5,523.2z M267.2,520.3c0.8-1.1,1.2-2.7,1.2-4.8s-0.4-3.7-1.2-4.8
					c-0.8-1.1-1.9-1.6-3.2-1.6c-1.3,0-2.4,0.5-3.2,1.6c-0.8,1.1-1.2,2.7-1.2,4.8c0,2.1,0.4,3.7,1.2,4.8c0.8,1.1,1.9,1.6,3.2,1.6
					S266.4,521.5,267.2,520.3z"/>
				<path class="st22" d="M273.8,515c-0.7-0.8-1.1-1.9-1.1-3.3c0-1.3,0.4-2.4,1.1-3.3c0.7-0.8,1.6-1.3,2.8-1.3
					c1.2,0,2.1,0.4,2.8,1.2c0.7,0.8,1.1,1.9,1.1,3.3c0,1.4-0.4,2.5-1.1,3.3s-1.6,1.2-2.8,1.2C275.5,516.3,274.6,515.8,273.8,515z
					 M278.4,514c0.4-0.6,0.6-1.3,0.6-2.3s-0.2-1.8-0.6-2.3c-0.4-0.6-1-0.8-1.7-0.8s-1.3,0.3-1.7,0.9c-0.4,0.6-0.6,1.3-0.6,2.3
					s0.2,1.8,0.6,2.3s1,0.9,1.7,0.9C277.4,514.8,277.9,514.5,278.4,514z M286.7,507.3h1.8l-11.4,16.6h-1.8L286.7,507.3z
					 M284.4,522.8c-0.7-0.8-1.1-1.9-1.1-3.3c0-1.4,0.4-2.5,1.1-3.3s1.6-1.2,2.8-1.2c1.2,0,2.1,0.4,2.8,1.3c0.7,0.8,1.1,1.9,1.1,3.3
					c0,1.3-0.4,2.4-1.1,3.3c-0.7,0.8-1.6,1.3-2.8,1.3C286,524,285.1,523.7,284.4,522.8z M288.9,521.8c0.4-0.6,0.6-1.3,0.6-2.3
					s-0.2-1.8-0.6-2.3c-0.4-0.6-1-0.9-1.7-0.9s-1.3,0.3-1.7,0.8c-0.4,0.6-0.6,1.3-0.6,2.3s0.2,1.8,0.6,2.3c0.4,0.6,1,0.8,1.7,0.8
					C287.9,522.8,288.4,522.5,288.9,521.8z"/>
				<path class="st22" d="M301.1,523.7c-0.9-0.3-1.7-0.6-2.2-1.1l0.9-1.8c0.6,0.4,1.2,0.7,2,1c0.8,0.2,1.6,0.4,2.4,0.4
					c2,0,3-0.6,3-1.7c0-0.4-0.1-0.7-0.4-0.9s-0.6-0.4-1-0.5c-0.4-0.1-1-0.2-1.7-0.3c-1-0.2-1.8-0.3-2.5-0.5c-0.6-0.2-1.2-0.6-1.7-1
					c-0.5-0.5-0.7-1.2-0.7-2.1c0-1.1,0.5-2.1,1.4-2.7c1-0.7,2.2-1,3.8-1c0.8,0,1.7,0.1,2.5,0.3s1.5,0.5,2.1,0.8l-1,1.8
					c-1-0.7-2.2-1-3.6-1c-1,0-1.7,0.2-2.2,0.5s-0.8,0.7-0.8,1.3c0,0.4,0.1,0.7,0.4,1s0.6,0.4,1.1,0.5c0.4,0.1,1,0.2,1.8,0.4
					c1,0.2,1.8,0.4,2.5,0.6c0.6,0.2,1.2,0.5,1.6,1s0.7,1.1,0.7,2c0,1.1-0.5,2-1.5,2.7s-2.3,1-4,1C303.1,524,302.1,524,301.1,523.7z"
					/>
				<path class="st22" d="M324.1,511.3V524h-2.2V522c-0.5,0.6-1.1,1.2-1.8,1.5c-0.8,0.4-1.6,0.5-2.5,0.5c-1.7,0-3-0.5-4-1.4
					c-1-0.9-1.4-2.3-1.4-4.1v-7.2h2.3v7c0,1.2,0.3,2.1,0.9,2.8c0.6,0.6,1.4,0.9,2.5,0.9c1.2,0,2.2-0.4,2.9-1.1s1-1.8,1-3.1v-6.5
					H324.1L324.1,511.3z"/>
				<path class="st22" d="M332.4,511.8c0.8-0.4,1.7-0.6,2.8-0.6v2.2c-0.1,0-0.3,0-0.5,0c-1.2,0-2.2,0.4-2.9,1.1
					c-0.7,0.7-1.1,1.8-1.1,3.1v6.3h-2.3v-12.6h2.2v2.1C331,512.8,331.6,512.2,332.4,511.8z"/>
				<path class="st22" d="M351.7,523.2c-0.3,0.3-0.7,0.5-1.2,0.7s-1,0.2-1.5,0.2c-1.3,0-2.2-0.3-2.9-1c-0.7-0.7-1-1.7-1-2.9v-6.9
					H343v-1.9h2.1v-2.8h2.3v2.8h3.6v1.9h-3.6v6.8c0,0.7,0.2,1.2,0.5,1.6c0.3,0.4,0.8,0.5,1.5,0.5s1.3-0.2,1.8-0.6L351.7,523.2z"/>
				<path class="st22" d="M356,523.3c-1-0.6-1.8-1.3-2.3-2.3c-0.6-1-0.8-2.1-0.8-3.3c0-1.2,0.3-2.3,0.8-3.3s1.3-1.7,2.3-2.3
					c1-0.5,2.1-0.8,3.4-0.8s2.4,0.3,3.4,0.8s1.8,1.3,2.3,2.3s0.8,2.1,0.8,3.3c0,1.2-0.3,2.3-0.8,3.3c-0.6,1-1.3,1.7-2.3,2.3
					s-2.1,0.8-3.4,0.8S357,523.8,356,523.3z M361.6,521.5c0.6-0.4,1.1-0.9,1.5-1.6s0.5-1.4,0.5-2.3c0-0.9-0.2-1.6-0.5-2.3
					c-0.4-0.7-0.9-1.2-1.5-1.6c-0.6-0.4-1.4-0.5-2.2-0.5s-1.5,0.2-2.2,0.5c-0.6,0.4-1.1,0.9-1.5,1.6s-0.6,1.4-0.6,2.3
					c0,0.9,0.2,1.6,0.6,2.3c0.4,0.7,0.9,1.2,1.5,1.6c0.6,0.4,1.4,0.6,2.2,0.6S360.9,521.8,361.6,521.5z"/>
				<path class="st22" d="M380.8,511.3V524h-2.2V522c-0.5,0.6-1.1,1.2-1.8,1.5c-0.8,0.4-1.6,0.5-2.5,0.5c-1.7,0-3-0.5-4-1.4
					c-1-0.9-1.4-2.3-1.4-4.1v-7.2h2.3v7c0,1.2,0.3,2.1,0.9,2.8c0.6,0.6,1.4,0.9,2.5,0.9c1.2,0,2.2-0.4,2.9-1.1s1-1.8,1-3.1v-6.5
					H380.8L380.8,511.3z"/>
				<path class="st22" d="M385.8,523.7c-0.9-0.3-1.7-0.6-2.2-1.1l0.9-1.8c0.6,0.4,1.2,0.7,2,1c0.8,0.2,1.6,0.4,2.4,0.4
					c2,0,3-0.6,3-1.7c0-0.4-0.1-0.7-0.4-0.9s-0.6-0.4-1-0.5c-0.4-0.1-1-0.2-1.7-0.3c-1-0.2-1.8-0.3-2.5-0.5c-0.6-0.2-1.2-0.6-1.7-1
					c-0.5-0.5-0.7-1.2-0.7-2.1c0-1.1,0.5-2.1,1.4-2.7c1-0.7,2.2-1,3.8-1c0.8,0,1.7,0.1,2.5,0.3s1.5,0.5,2.1,0.8l-1,1.8
					c-1-0.7-2.2-1-3.6-1c-1,0-1.7,0.2-2.2,0.5s-0.8,0.7-0.8,1.3c0,0.4,0.1,0.7,0.4,1s0.6,0.4,1.1,0.5c0.4,0.1,1,0.2,1.8,0.4
					c1,0.2,1.8,0.4,2.5,0.6c0.6,0.2,1.2,0.5,1.6,1s0.7,1.1,0.7,2c0,1.1-0.5,2-1.5,2.7s-2.3,1-4,1C387.7,524,386.7,524,385.8,523.7z"
					/>
				<path class="st22" d="M414,512.7c0.9,0.9,1.4,2.3,1.4,4.1v7.2h-2.3v-7c0-1.2-0.3-2.1-0.9-2.8c-0.6-0.6-1.4-0.9-2.5-0.9
					c-1.2,0-2.2,0.4-2.9,1.1c-0.7,0.7-1.1,1.8-1.1,3.1v6.5h-2.3v-12.6h2.2v1.9c0.5-0.6,1.1-1.1,1.9-1.5c0.8-0.3,1.7-0.5,2.7-0.5
					C411.8,511.3,413,511.7,414,512.7z"/>
				<path class="st22" d="M421.7,523.3c-1-0.6-1.8-1.3-2.3-2.3c-0.6-1-0.8-2.1-0.8-3.3c0-1.2,0.3-2.3,0.8-3.3s1.3-1.7,2.3-2.3
					c1-0.5,2.1-0.8,3.4-0.8s2.4,0.3,3.4,0.8s1.8,1.3,2.3,2.3s0.8,2.1,0.8,3.3c0,1.2-0.3,2.3-0.8,3.3c-0.6,1-1.3,1.7-2.3,2.3
					s-2.1,0.8-3.4,0.8S422.7,523.8,421.7,523.3z M427.3,521.5c0.6-0.4,1.1-0.9,1.5-1.6s0.5-1.4,0.5-2.3c0-0.9-0.2-1.6-0.5-2.3
					c-0.4-0.7-0.9-1.2-1.5-1.6c-0.6-0.4-1.4-0.5-2.2-0.5s-1.5,0.2-2.2,0.5c-0.6,0.4-1.1,0.9-1.5,1.6s-0.6,1.4-0.6,2.3
					c0,0.9,0.2,1.6,0.6,2.3c0.4,0.7,0.9,1.2,1.5,1.6c0.6,0.4,1.4,0.6,2.2,0.6S426.6,521.8,427.3,521.5z"/>
				<path class="st22" d="M435.4,523.7c-0.9-0.3-1.7-0.6-2.2-1.1l0.9-1.8c0.6,0.4,1.2,0.7,2,1c0.8,0.2,1.6,0.4,2.4,0.4
					c2,0,3-0.6,3-1.7c0-0.4-0.1-0.7-0.4-0.9s-0.6-0.4-1-0.5c-0.4-0.1-1-0.2-1.7-0.3c-1-0.2-1.8-0.3-2.5-0.5c-0.6-0.2-1.2-0.6-1.7-1
					c-0.5-0.5-0.7-1.2-0.7-2.1c0-1.1,0.5-2.1,1.4-2.7c1-0.7,2.2-1,3.8-1c0.8,0,1.7,0.1,2.5,0.3s1.5,0.5,2.1,0.8l-1,1.8
					c-1-0.7-2.2-1-3.6-1c-1,0-1.7,0.2-2.2,0.5s-0.8,0.7-0.8,1.3c0,0.4,0.1,0.7,0.4,1s0.6,0.4,1.1,0.5c0.4,0.1,1,0.2,1.8,0.4
					c1,0.2,1.8,0.4,2.5,0.6c0.6,0.2,1.2,0.5,1.6,1s0.7,1.1,0.7,2c0,1.1-0.5,2-1.5,2.7s-2.3,1-4,1C437.4,524,436.4,524,435.4,523.7z"
					/>
				<path class="st22" d="M461.7,512.5c0.9,0.9,1.4,2.1,1.4,3.8v7.6h-2.2v-1.7c-0.4,0.6-0.9,1-1.6,1.3s-1.5,0.5-2.5,0.5
					c-1.4,0-2.5-0.3-3.4-1s-1.3-1.6-1.3-2.7c0-1.1,0.4-2,1.2-2.7c0.8-0.7,2.1-1,3.8-1h3.6V516c0-1-0.3-1.7-0.9-2.3
					c-0.6-0.5-1.4-0.8-2.5-0.8c-0.7,0-1.5,0.1-2.2,0.4c-0.7,0.2-1.3,0.6-1.8,1l-1-1.7c0.6-0.5,1.4-0.9,2.3-1.2s1.9-0.4,2.9-0.4
					C459.4,511.3,460.7,511.7,461.7,512.5z M459.4,521.8c0.6-0.4,1.1-0.9,1.4-1.7v-1.8h-3.5c-1.9,0-2.9,0.6-2.9,1.9
					c0,0.6,0.2,1.1,0.7,1.5c0.5,0.4,1.2,0.5,2,0.5C458,522.3,458.8,522.2,459.4,521.8z"/>
				<path class="st22" d="M471.2,511.8c0.8-0.4,1.7-0.6,2.8-0.6v2.2c-0.1,0-0.3,0-0.5,0c-1.2,0-2.2,0.4-2.9,1.1
					c-0.7,0.7-1.1,1.8-1.1,3.1v6.3h-2.3v-12.6h2.2v2.1C469.9,512.8,470.4,512.2,471.2,511.8z"/>
				<path class="st22" d="M484.4,523.2c-0.3,0.3-0.7,0.5-1.2,0.7s-1,0.2-1.5,0.2c-1.3,0-2.2-0.3-2.9-1c-0.7-0.7-1-1.7-1-2.9v-6.9
					h-2.1v-1.9h2.1v-2.8h2.3v2.8h3.6v1.9h-3.6v6.8c0,0.7,0.2,1.2,0.5,1.6c0.3,0.4,0.8,0.5,1.5,0.5s1.3-0.2,1.8-0.6L484.4,523.2z"/>
				<path class="st22" d="M487.2,508.5c-0.3-0.3-0.4-0.6-0.4-1c0-0.4,0.1-0.8,0.4-1.1c0.3-0.3,0.7-0.4,1.1-0.4s0.8,0.1,1.1,0.4
					c0.3,0.3,0.4,0.6,0.4,1c0,0.4-0.1,0.8-0.4,1.1c-0.3,0.3-0.7,0.4-1.1,0.4S487.5,508.8,487.2,508.5z M487.2,511.3h2.3V524h-2.3
					V511.3z"/>
				<path class="st22" d="M495.9,523.3c-1-0.6-1.8-1.3-2.4-2.3s-0.9-2.1-0.9-3.3c0-1.2,0.3-2.3,0.9-3.3s1.4-1.7,2.4-2.3
					c1-0.5,2.2-0.8,3.4-0.8c1.1,0,2.2,0.2,3.1,0.7s1.6,1.1,2.1,2l-1.7,1.1c-0.4-0.6-0.9-1.1-1.5-1.4s-1.2-0.5-1.9-0.5
					c-0.8,0-1.6,0.2-2.2,0.5c-0.7,0.4-1.2,0.9-1.5,1.6c-0.4,0.7-0.6,1.4-0.6,2.3c0,0.9,0.2,1.7,0.6,2.3s0.9,1.2,1.5,1.6
					c0.6,0.4,1.4,0.5,2.2,0.5c0.7,0,1.4-0.2,1.9-0.5s1.1-0.8,1.5-1.4l1.7,1.1c-0.5,0.9-1.2,1.5-2.1,2s-1.9,0.7-3.1,0.7
					C498,524,496.9,523.8,495.9,523.3z"/>
				<path class="st22" d="M507.2,506.3h2.3v17.6h-2.3V506.3z"/>
				<path class="st22" d="M525.2,518.3H515c0.1,1.1,0.6,2,1.5,2.7c0.8,0.7,1.9,1,3.1,1c1.5,0,2.7-0.5,3.6-1.5l1.3,1.5
					c-0.6,0.7-1.3,1.2-2.1,1.5s-1.8,0.5-2.8,0.5c-1.3,0-2.5-0.3-3.5-0.8s-1.8-1.3-2.4-2.3c-0.6-1-0.8-2.1-0.8-3.3s0.3-2.3,0.8-3.3
					s1.3-1.7,2.3-2.3c1-0.5,2-0.8,3.2-0.8s2.3,0.3,3.2,0.8s1.7,1.3,2.2,2.3s0.8,2.1,0.8,3.4C525.2,517.8,525.2,518.2,525.2,518.3z
					 M516.3,514.2c-0.7,0.7-1.2,1.5-1.3,2.6h8.1c-0.1-1.1-0.6-1.9-1.3-2.6s-1.7-1-2.7-1C517.9,513.2,517,513.5,516.3,514.2z"/>
				<path class="st22" d="M529,523.7c-0.9-0.3-1.7-0.6-2.2-1.1l0.9-1.8c0.6,0.4,1.2,0.7,2,1s1.6,0.4,2.4,0.4c2,0,3-0.6,3-1.7
					c0-0.4-0.1-0.7-0.4-0.9c-0.3-0.2-0.6-0.4-1-0.5c-0.4-0.1-1-0.2-1.7-0.3c-1-0.2-1.8-0.3-2.5-0.5s-1.2-0.6-1.7-1
					c-0.5-0.5-0.7-1.2-0.7-2.1c0-1.1,0.5-2.1,1.4-2.7c1-0.7,2.2-1,3.8-1c0.8,0,1.7,0.1,2.5,0.3s1.5,0.5,2.1,0.8l-1,1.8
					c-1-0.7-2.2-1-3.6-1c-1,0-1.7,0.2-2.2,0.5s-0.8,0.7-0.8,1.3c0,0.4,0.1,0.7,0.4,1s0.6,0.4,1.1,0.5c0.4,0.1,1,0.2,1.8,0.4
					c1,0.2,1.8,0.4,2.5,0.6c0.6,0.2,1.2,0.5,1.6,1c0.4,0.5,0.7,1.1,0.7,2c0,1.1-0.5,2-1.5,2.7s-2.3,1-4,1C531,524,530,524,529,523.7
					z"/>
			</g>
			<g class="st21">
				<path class="st22" d="M247.2,546.8H237c0.1,1.1,0.6,2,1.5,2.7c0.8,0.7,1.9,1,3.1,1c1.5,0,2.7-0.5,3.6-1.5l1.3,1.5
					c-0.6,0.7-1.3,1.2-2.1,1.5s-1.8,0.5-2.8,0.5c-1.3,0-2.5-0.3-3.5-0.8s-1.8-1.3-2.4-2.3c-0.6-1-0.8-2.1-0.8-3.3s0.3-2.3,0.8-3.3
					s1.3-1.7,2.3-2.3c1-0.5,2-0.8,3.2-0.8s2.3,0.3,3.2,0.8s1.7,1.3,2.2,2.3s0.8,2.1,0.8,3.4C247.2,546.3,247.2,546.7,247.2,546.8z
					 M238.3,542.7c-0.7,0.7-1.2,1.5-1.3,2.6h8.1c-0.1-1.1-0.6-1.9-1.3-2.6s-1.7-1-2.7-1C239.9,541.7,239,542,238.3,542.7z"/>
				<path class="st22" d="M260.9,541.2c0.9,0.9,1.4,2.3,1.4,4.1v7.2H260v-7c0-1.2-0.3-2.1-0.9-2.8c-0.6-0.6-1.4-0.9-2.5-0.9
					c-1.2,0-2.2,0.4-2.9,1.1c-0.7,0.7-1.1,1.8-1.1,3.1v6.5h-2.3v-12.6h2.2v1.9c0.5-0.6,1.1-1.1,1.9-1.5c0.8-0.3,1.7-0.5,2.7-0.5
					C258.7,539.8,260,540.2,260.9,541.2z"/>
				<path class="st22" d="M292.5,541c0.9,0.9,1.4,2.3,1.4,4.1v7.2h-2.3v-7c0-1.2-0.3-2.1-0.8-2.8c-0.6-0.6-1.4-0.9-2.4-0.9
					c-1.2,0-2.1,0.4-2.8,1.1c-0.7,0.7-1,1.8-1,3.1v6.5h-2.3v-7c0-1.2-0.3-2.1-0.8-2.8c-0.6-0.6-1.4-0.9-2.4-0.9
					c-1.2,0-2.1,0.4-2.8,1.1c-0.7,0.7-1,1.8-1,3.1v6.5H273v-12.6h2.2v1.9c0.5-0.6,1.1-1.1,1.8-1.5c0.7-0.3,1.6-0.5,2.5-0.5
					c1,0,1.9,0.2,2.6,0.6c0.8,0.4,1.3,1,1.8,1.7c0.5-0.7,1.1-1.3,2-1.7c0.8-0.4,1.8-0.6,2.9-0.6C290.3,539.8,291.6,540.2,292.5,541z
					"/>
				<path class="st22" d="M306.7,541c0.9,0.9,1.4,2.1,1.4,3.8v7.6h-2.2v-1.7c-0.4,0.6-0.9,1-1.6,1.3s-1.5,0.5-2.5,0.5
					c-1.4,0-2.5-0.3-3.4-1s-1.3-1.6-1.3-2.7c0-1.1,0.4-2,1.2-2.7c0.8-0.7,2.1-1,3.8-1h3.6v-0.5c0-1-0.3-1.7-0.9-2.3
					c-0.6-0.5-1.4-0.8-2.5-0.8c-0.7,0-1.5,0.1-2.2,0.4c-0.7,0.2-1.3,0.6-1.8,1l-1-1.7c0.6-0.5,1.4-0.9,2.3-1.2s1.9-0.4,2.9-0.4
					C304.4,539.8,305.7,540.2,306.7,541z M304.4,550.3c0.6-0.4,1.1-0.9,1.4-1.7v-1.8h-3.5c-1.9,0-2.9,0.6-2.9,1.9
					c0,0.6,0.2,1.1,0.7,1.5c0.5,0.4,1.2,0.5,2,0.5C303,550.8,303.8,550.7,304.4,550.3z"/>
				<path class="st22" d="M324.4,539.8v10.9c0,2.2-0.5,3.8-1.6,4.9c-1.1,1.1-2.7,1.6-4.9,1.6c-1.2,0-2.3-0.2-3.4-0.5
					s-1.9-0.8-2.6-1.4l1.1-1.8c0.6,0.5,1.3,0.9,2.2,1.2c0.9,0.3,1.8,0.4,2.7,0.4c1.5,0,2.6-0.3,3.3-1c0.7-0.7,1.1-1.8,1.1-3.2v-1
					c-0.5,0.6-1.2,1.1-2,1.5c-0.8,0.3-1.6,0.5-2.6,0.5c-1.2,0-2.3-0.3-3.3-0.8s-1.7-1.2-2.3-2.2c-0.6-0.9-0.8-2-0.8-3.2
					s0.3-2.2,0.8-3.2c0.6-0.9,1.3-1.6,2.3-2.1s2.1-0.8,3.3-0.8c1,0,1.8,0.2,2.6,0.5c0.8,0.3,1.5,0.9,2,1.5v-1.9L324.4,539.8
					L324.4,539.8z M320.1,549.3c0.7-0.3,1.2-0.8,1.5-1.5c0.4-0.6,0.6-1.3,0.6-2.1c0-1.2-0.4-2.2-1.2-3c-0.8-0.8-1.8-1.1-3.1-1.1
					c-1.3,0-2.3,0.4-3.1,1.1c-0.8,0.8-1.2,1.7-1.2,3c0,0.8,0.2,1.5,0.6,2.1c0.4,0.6,0.9,1.1,1.5,1.5c0.7,0.3,1.4,0.5,2.2,0.5
					C318.7,550,319.4,549.8,320.1,549.3z"/>
				<path class="st22" d="M337.3,541c0.9,0.9,1.4,2.1,1.4,3.8v7.6h-2.2v-1.7c-0.4,0.6-0.9,1-1.6,1.3s-1.5,0.5-2.5,0.5
					c-1.4,0-2.5-0.3-3.4-1s-1.3-1.6-1.3-2.7c0-1.1,0.4-2,1.2-2.7c0.8-0.7,2.1-1,3.8-1h3.6v-0.5c0-1-0.3-1.7-0.9-2.3
					c-0.6-0.5-1.4-0.8-2.5-0.8c-0.7,0-1.5,0.1-2.2,0.4c-0.7,0.2-1.3,0.6-1.8,1l-1-1.7c0.6-0.5,1.4-0.9,2.3-1.2s1.9-0.4,2.9-0.4
					C335.1,539.8,336.4,540.2,337.3,541z M335.1,550.3c0.6-0.4,1.1-0.9,1.4-1.7v-1.8H333c-1.9,0-2.9,0.6-2.9,1.9
					c0,0.6,0.2,1.1,0.7,1.5c0.5,0.4,1.2,0.5,2,0.5C333.7,550.8,334.4,550.7,335.1,550.3z"/>
				<path class="st22" d="M343.6,552.2c-0.9-0.3-1.7-0.6-2.2-1.1l0.9-1.8c0.6,0.4,1.2,0.7,2,1c0.8,0.2,1.6,0.4,2.4,0.4
					c2,0,3-0.6,3-1.7c0-0.4-0.1-0.7-0.4-0.9s-0.6-0.4-1-0.5c-0.4-0.1-1-0.2-1.7-0.3c-1-0.2-1.8-0.3-2.5-0.5c-0.6-0.2-1.2-0.6-1.7-1
					c-0.5-0.5-0.7-1.2-0.7-2.1c0-1.1,0.5-2.1,1.4-2.7c1-0.7,2.2-1,3.8-1c0.8,0,1.7,0.1,2.5,0.3s1.5,0.5,2.1,0.8l-1,1.8
					c-1-0.7-2.2-1-3.6-1c-1,0-1.7,0.2-2.2,0.5s-0.8,0.7-0.8,1.3c0,0.4,0.1,0.7,0.4,1s0.6,0.4,1.1,0.5c0.4,0.1,1,0.2,1.8,0.4
					c1,0.2,1.8,0.4,2.5,0.6c0.6,0.2,1.2,0.5,1.6,1s0.7,1.1,0.7,2c0,1.1-0.5,2-1.5,2.7s-2.3,1-4,1
					C345.5,552.5,344.5,552.5,343.6,552.2z"/>
				<path class="st22" d="M354.9,537c-0.3-0.3-0.4-0.6-0.4-1c0-0.4,0.1-0.8,0.4-1.1c0.3-0.3,0.7-0.4,1.1-0.4s0.8,0.1,1.1,0.4
					c0.3,0.3,0.4,0.6,0.4,1c0,0.4-0.1,0.8-0.4,1.1c-0.3,0.3-0.7,0.4-1.1,0.4S355.2,537.3,354.9,537z M354.8,539.8h2.3v12.6h-2.3
					V539.8z"/>
				<path class="st22" d="M372,541.2c0.9,0.9,1.4,2.3,1.4,4.1v7.2h-2.3v-7c0-1.2-0.3-2.1-0.9-2.8c-0.6-0.6-1.4-0.9-2.5-0.9
					c-1.2,0-2.2,0.4-2.9,1.1c-0.7,0.7-1.1,1.8-1.1,3.1v6.5h-2.3v-12.6h2.2v1.9c0.5-0.6,1.1-1.1,1.9-1.5c0.8-0.3,1.7-0.5,2.7-0.5
					C369.8,539.8,371.1,540.2,372,541.2z"/>
				<path class="st22" d="M377.1,552.2c-0.3-0.3-0.5-0.7-0.5-1.2s0.2-0.8,0.5-1.2c0.3-0.3,0.7-0.5,1.1-0.5s0.8,0.2,1.1,0.5
					s0.5,0.7,0.5,1.2s-0.2,0.9-0.5,1.2c-0.3,0.3-0.7,0.5-1.1,0.5C377.8,552.5,377.4,552.5,377.1,552.2z"/>
			</g>
		</g>
	</g>
	<g class="st25">
		
			<image style="display:inline;overflow:visible;opacity:0.75;" width="417" height="136" xlink:href="FF565B99.png"  transform="matrix(1 0 0 1 196 392)">
		</image>
		<g class="st26">
			<path class="st27" d="M586,515.5H223.3c-8.1,0-14.7-6.6-14.7-14.7v-81.6c0-8.1,6.6-14.7,14.7-14.7H586c8.1,0,14.7,6.6,14.7,14.7
				v81.6C600.7,508.9,594.1,515.5,586,515.5z"/>
		</g>
	</g>
	<g>
		<rect x="233.7" y="469.3" class="st24" width="106.9" height="32.5"/>
		<path class="st23" d="M246,479.6c0.9,0.9,1.4,2.1,1.4,3.5c0,1-0.3,2-0.8,2.8c-0.5,0.8-1.3,1.5-2.3,2c-1,0.5-2.3,0.7-3.8,0.7
			c-1.3,0-2.5-0.2-3.7-0.6c-1.2-0.4-2.2-0.9-2.9-1.6l1.2-2.1c0.6,0.6,1.4,1.1,2.4,1.4s2,0.5,3.1,0.5c1.4,0,2.4-0.3,3.2-0.9
			c0.8-0.6,1.1-1.4,1.1-2.4c0-1-0.4-1.8-1.1-2.3s-1.9-0.8-3.4-0.8h-1.5v-1.8l4.6-5.6h-8.8v-2.3h12v1.8l-4.8,5.9
			C243.7,478.2,245.1,478.7,246,479.6z"/>
		<path class="st23" d="M260.9,478.2c0.9,0.5,1.7,1.1,2.2,1.9c0.5,0.8,0.8,1.8,0.8,2.9c0,1.1-0.3,2.1-0.8,3c-0.6,0.9-1.3,1.5-2.3,2
			c-1,0.5-2.1,0.7-3.3,0.7c-2.4,0-4.3-0.8-5.7-2.4c-1.3-1.6-2-3.8-2-6.7c0-2,0.4-3.8,1.1-5.2c0.7-1.4,1.7-2.5,3-3.3
			c1.3-0.7,2.8-1.1,4.5-1.1c0.9,0,1.7,0.1,2.5,0.3c0.8,0.2,1.5,0.4,2,0.8l-1,2c-0.9-0.6-2-0.9-3.5-0.9c-1.9,0-3.4,0.6-4.4,1.8
			s-1.6,2.9-1.6,5.1c0,0.3,0,0.5,0,0.6c0.5-0.8,1.2-1.4,2.1-1.8s1.9-0.6,3.1-0.6C258.9,477.5,260,477.7,260.9,478.2z M260.3,485.7
			c0.7-0.6,1.1-1.5,1.1-2.6c0-1.1-0.4-1.9-1.1-2.6c-0.8-0.6-1.8-0.9-3-0.9c-0.8,0-1.5,0.2-2.2,0.5c-0.6,0.3-1.1,0.7-1.5,1.3
			c-0.4,0.5-0.5,1.1-0.5,1.8c0,0.6,0.2,1.2,0.5,1.8c0.3,0.5,0.8,1,1.5,1.3c0.6,0.3,1.4,0.5,2.3,0.5
			C258.6,486.7,259.6,486.3,260.3,485.7z"/>
		<path class="st23" d="M271.5,470.3v18.2H269v-15.9h-4.1v-2.3H271.5z"/>
		<path class="st23" d="M288.3,486.3v2.3h-13.1v-1.8l7.4-7.2c0.9-0.9,1.5-1.6,1.8-2.2c0.3-0.6,0.5-1.3,0.5-1.9c0-1-0.3-1.7-1-2.2
			c-0.7-0.5-1.6-0.8-2.9-0.8c-2,0-3.6,0.7-4.7,2l-1.8-1.5c0.7-0.9,1.6-1.5,2.8-2c1.2-0.5,2.4-0.7,3.9-0.7c1.9,0,3.4,0.5,4.5,1.4
			c1.1,0.9,1.7,2.1,1.7,3.7c0,1-0.2,1.9-0.6,2.8c-0.4,0.9-1.2,1.9-2.4,3l-5.6,5.4H288.3z"/>
		<path class="st23" d="M301.5,479.6c0.9,0.9,1.4,2.1,1.4,3.5c0,1-0.3,2-0.8,2.8c-0.5,0.8-1.3,1.5-2.3,2c-1,0.5-2.3,0.7-3.8,0.7
			c-1.3,0-2.5-0.2-3.7-0.6c-1.2-0.4-2.2-0.9-2.9-1.6l1.2-2.1c0.6,0.6,1.4,1.1,2.4,1.4s2,0.5,3.1,0.5c1.4,0,2.4-0.3,3.2-0.9
			c0.8-0.6,1.1-1.4,1.1-2.4c0-1-0.4-1.8-1.1-2.3s-1.9-0.8-3.4-0.8h-1.5v-1.8l4.6-5.6h-8.8v-2.3h12v1.8l-4.8,5.9
			C299.2,478.2,300.5,478.7,301.5,479.6z"/>
	</g>
</g>
</svg>
