<svg width="240" height="240" viewBox="0 0 240 240" fill="none" xmlns="http://www.w3.org/2000/svg">
<mask id="mask0" style="mask-type:alpha" maskUnits="userSpaceOnUse" x="0" y="0" width="240" height="241">
<path d="M120 240C186.274 240 240 186.274 240 120C240 53.7259 186.274 0 120 0C53.7258 0 0 53.7259 0 120C0 186.274 53.7258 240 120 240Z" fill="#A86252"/>
</mask>
<g mask="url(#mask0)">
<path d="M464.934 -144.065H-224.936V181.194H464.934V-144.065Z" fill="#E3E2F7"/>
<path d="M464.934 181.174H-224.936V368.485H464.934V181.174Z" fill="white"/>
<path d="M225.391 -40.957H128.217V161.693H225.391V-40.957Z" fill="white"/>
<path opacity="0.2" d="M150.717 162.261H128.217L186.847 -40.957H209.347L150.717 162.261Z" fill="#E3E2F7"/>
<path opacity="0.2" d="M166.761 162.261H155.479L214.109 -40.957H225.392L166.761 162.261Z" fill="#E3E2F7"/>
<path d="M112.695 -40.957H15.5215V161.693H112.695V-40.957Z" fill="white"/>
<path opacity="0.2" d="M38.0215 162.261H15.5215L74.1519 -40.957H96.6519L38.0215 162.261Z" fill="#E3E2F7"/>
<path opacity="0.2" d="M54.0658 162.261H42.7832L101.414 -40.957H112.696L54.0658 162.261Z" fill="#E3E2F7"/>
<path d="M8.54261 202.5H-41.4139C-41.4139 202.5 -52.8922 242.935 -51.3922 251.022C-49.8922 259.109 -42.8487 267.326 -40.7617 268.304C-38.6748 269.283 -32.9357 270.196 -29.6748 270.457C-22.2293 270.979 -14.7587 271.044 -7.30521 270.652C-0.979126 270.261 6.32521 269.087 7.89043 268.304C9.45565 267.522 16.9556 259.109 18.5209 251.022C20.0861 242.935 8.54261 202.5 8.54261 202.5Z" fill="#474BB4"/>
<path d="M14.7389 222.718C14.6548 223.41 14.3038 224.042 13.7606 224.479C11.7389 226.37 2.34758 227.218 -0.652424 227.413L-6.78286 227.805L-11.2176 228C-13.1089 228.131 -14.935 228.131 -16.5002 228.131H-17.5437C-23.4788 228.143 -29.4071 227.728 -35.2829 226.892C-37.3046 226.631 -39.3915 226.24 -41.4133 225.848C-43.435 225.457 -45.9785 225.653 -47.0872 224.348C-48.1959 223.044 -47.6742 222.392 -47.2829 221.153L-47.022 220.566C-46.9623 220.359 -46.8745 220.161 -46.7611 219.979C-46.6111 219.447 -46.5236 218.9 -46.5002 218.348C-46.435 218.087 -46.435 217.892 -46.3698 217.696C-46.3229 217.465 -46.2345 217.244 -46.1089 217.044C-45.8697 216.641 -45.5333 216.305 -45.1307 216.066C-45.1307 215.935 -45.1959 215.87 -45.1959 215.74L-45.3916 215.022C-45.457 214.393 -45.457 213.76 -45.3916 213.131C-45.3263 212.87 -45.3263 212.674 -45.2611 212.479C-45.1959 212.283 -45.1959 212.218 -45.1307 212.087C-44.9134 211.393 -44.5586 210.75 -44.0872 210.196L-43.6959 209.805C-43.6959 209.74 -43.7611 209.674 -43.7611 209.544C-43.8795 209.048 -43.8697 208.531 -43.7328 208.04C-43.5959 207.55 -43.3363 207.102 -42.9785 206.74C-43.129 206.164 -43.2164 205.573 -43.2394 204.979C-43.2394 204.783 -43.1741 204.522 -43.1741 204.327C-43.1206 203.77 -42.9161 203.24 -42.5828 202.791C-42.2494 202.343 -41.7999 201.994 -41.2828 201.783H-40.6307C-38.0872 201.327 -32.8698 199.631 -16.0437 199.631C0.782352 199.631 8.28236 201.848 8.28236 201.848C9.9128 202.24 10.4998 203.674 10.565 205.109C10.565 205.37 10.4998 205.631 10.4998 205.892L10.3041 206.87C10.8333 207.385 11.138 208.088 11.1519 208.827C11.1946 209.067 11.1721 209.315 11.0867 209.544C11.0867 209.674 11.0215 209.805 11.0215 209.935C11.3382 210.23 11.6224 210.558 11.8693 210.913C11.9998 211.109 12.065 211.37 12.1954 211.566C12.2936 211.778 12.3806 211.996 12.4563 212.218C12.5308 212.405 12.5748 212.603 12.5867 212.805C12.7703 213.641 12.7924 214.504 12.6519 215.348L12.4563 216.066V216.196C12.7254 216.378 12.967 216.598 13.1737 216.848L13.4345 217.174C13.5144 217.265 13.5605 217.38 13.565 217.5C13.9563 218.348 13.7606 219.196 14.0215 220.044C14.0388 220.044 14.0554 220.051 14.0676 220.063C14.0798 220.075 14.0867 220.092 14.0867 220.109L14.2824 220.696C14.4941 221.199 14.6472 221.724 14.7389 222.261V222.718Z" fill="#003668"/>
<path d="M11.153 208.565C11.1957 208.806 11.1732 209.053 11.0878 209.282C6.2617 210.065 1.30518 210.065 -3.58612 210C-9.78177 209.869 -16.1078 209.804 -21.9774 207.652C-26.9339 207.326 -32.0209 207.261 -36.9122 206.478C-39.0858 206.228 -41.2145 205.679 -43.2383 204.847C-43.2383 204.652 -43.1731 204.391 -43.1731 204.195C-40.6948 205.5 -37.4992 205.826 -34.8905 206.087C-30.7166 206.478 -26.6079 206.674 -22.4339 207H-22.1079L-15.26 206.869C-10.3687 206.608 -5.47742 206.674 -0.586117 206.608C3.19649 206.543 6.9791 206.217 10.5661 204.913C10.5661 205.174 10.5008 205.434 10.5008 205.695C2.80519 208.304 -5.99916 207.065 -13.9557 207.456L-20.2166 207.652C-14.8035 209.217 -9.1296 209.282 -3.58612 209.347C1.95736 209.413 6.32692 209.413 11.153 208.565Z" fill="#002A49"/>
<path d="M12.1947 211.304C8.28167 212.217 4.17299 211.957 0.194725 211.957C-5.28354 211.891 -10.7618 211.957 -16.1748 212.413C-18.7183 212.609 -21.1966 212.87 -23.6748 212.544C-26.1531 212.217 -28.7618 211.5 -31.3053 211.174C-33.8488 210.848 -36.6531 211.109 -39.3922 210.913C-40.9777 210.757 -42.548 210.474 -44.0879 210.065L-43.6966 209.674C-43.6966 209.609 -43.7618 209.544 -43.7618 209.413C-41.9152 209.949 -40.0095 210.256 -38.0879 210.326C-35.7818 210.228 -33.4716 210.293 -31.1748 210.522C-28.7618 210.848 -26.4792 211.5 -24.1314 211.826C-21.7835 212.152 -18.8488 211.957 -16.1748 211.761C-10.827 211.304 -5.47921 211.239 -0.0661621 211.239C3.84688 211.304 7.95559 211.565 11.8686 210.652C11.9991 210.848 12.0643 211.109 12.1947 211.304Z" fill="#002A49"/>
<path d="M12.5876 212.543C8.50557 214 4.20467 214.75 -0.129745 214.76C-5.80366 214.826 -11.5428 213.13 -17.1515 213.782C-20.0211 214.108 -22.8254 214.826 -25.695 214.826C-28.5645 214.826 -30.9124 214.239 -33.4558 213.717C-35.9993 213.195 -39.5211 213.195 -42.6515 213.195C-43.568 213.195 -44.4834 213.129 -45.3906 213C-45.3254 212.739 -45.3254 212.543 -45.2602 212.347C-43.7475 212.555 -42.217 212.598 -40.695 212.478C-38.2017 212.348 -35.7023 212.546 -33.2602 213.065C-30.5863 213.652 -27.9124 214.304 -25.108 214.173C-22.3037 214.043 -19.8254 213.456 -17.1515 213.13C-11.8689 212.543 -6.58628 214.043 -1.30367 214.108C3.37243 214.18 8.02646 213.453 12.4572 211.956C12.5317 212.143 12.5757 212.342 12.5876 212.543Z" fill="#002A49"/>
<path d="M-34.1737 222.717C-38.5432 222.195 -42.8476 221.739 -47.0215 220.5C-46.9618 220.293 -46.874 220.095 -46.7606 219.913C-42.5215 221.152 -38.0215 221.543 -33.5867 222.13C-30.9762 222.544 -28.3384 222.762 -25.6954 222.782C-23.0215 222.717 -20.4128 222.391 -17.7389 222.456C-12.1302 222.456 -6.65192 222.847 -1.04322 222.065L14.022 219.782C14.0393 219.782 14.0559 219.789 14.0681 219.801C14.0803 219.814 14.0872 219.83 14.0872 219.847L14.2829 220.434C9.06547 221.217 3.78287 222.065 -1.49974 222.782C-6.78234 223.5 -12.2606 223.108 -17.7389 223.108C-20.6084 223.043 -23.478 223.434 -26.3476 223.434C-28.9686 223.357 -31.5823 223.118 -34.1737 222.717Z" fill="#002A49"/>
<path d="M14.7385 222.718C12.6046 223.293 10.4209 223.664 8.21679 223.826C4.1081 224.218 0.129829 225.392 -3.97887 225.783C-10.9571 226.565 -17.9354 226.174 -24.8484 225.652L-16.1745 226.761C-13.0441 227.152 -9.91364 227.544 -6.78321 227.805L-11.218 228L-18.0658 227.218C-24.0006 226.435 -30.0006 225.718 -35.8049 224.413C-38.6745 223.761 -41.4789 222.978 -44.2832 222.196C-45.3177 221.957 -46.3235 221.607 -47.2832 221.152L-47.0223 220.565C-45.3919 221.413 -43.4354 221.739 -41.7397 222.261C-39.0658 222.978 -36.4571 223.631 -33.7832 224.218C-32.5441 224.413 -30.0006 224.609 -29.8049 224.609C-21.6528 225.261 -13.4354 225.978 -5.28321 225.261C-1.17452 224.935 2.73853 223.826 6.782 223.37C9.46061 223.083 12.1182 222.626 14.7385 222V222.718Z" fill="#002A49"/>
<path d="M12.6528 215.086L12.4572 215.804C8.80503 216.521 5.02242 216.325 1.30502 216.456C-4.85135 216.691 -10.9906 217.257 -17.0863 218.151C-22.3746 218.847 -27.7366 218.759 -32.9993 217.891C-35.9341 217.499 -38.8689 216.978 -41.7384 216.391C-42.9124 216.13 -44.0863 215.934 -45.195 215.608L-45.3906 214.891L-40.9558 215.869C-38.0863 216.456 -35.1515 216.978 -32.2819 217.369C-26.8949 218.119 -21.4299 218.119 -16.0428 217.369C-10.7537 216.521 -5.41759 215.999 -0.0645447 215.804C4.10937 215.673 8.54415 216.065 12.6528 215.086Z" fill="#002A49"/>
<path d="M13.5652 217.239C8.93477 217.37 4.43476 218.348 -0.065239 219.391C-5.19801 220.66 -10.4382 221.446 -15.7174 221.739C-26.087 222.196 -36.3913 220.435 -46.5 218.217C-46.4348 217.956 -46.4348 217.761 -46.3696 217.565C-36.0652 219.783 -25.6305 221.609 -15.0652 221.087C-5.5435 220.565 3.65216 216.913 13.1739 216.587L13.4348 216.913C13.5146 217.003 13.5607 217.119 13.5652 217.239Z" fill="#002A49"/>
<path d="M5.93444 202.499C5.93444 203.217 1.76052 203.869 -4.56556 204.195H-5.93513C-7.63078 204.325 -9.39164 204.391 -11.2829 204.391H-25.109C-33.1308 204.064 -38.8047 203.347 -38.8047 202.499C-38.8047 201.651 -34.5003 201.13 -28.109 200.804L-26.4134 200.673C-23.8047 200.543 -20.8699 200.478 -17.8047 200.478H-10.5003L-4.76121 200.738H-3.39164C2.21706 201.26 5.93444 201.847 5.93444 202.499Z" fill="#002A49"/>
<path d="M50.4775 122.999C50.2166 122.412 49.7601 123.325 50.4123 122.086C50.4775 121.955 50.6731 121.825 50.7384 121.629C50.862 121.299 50.8908 120.941 50.8217 120.595C50.7525 120.25 50.5882 119.93 50.347 119.673C50.1777 119.49 49.9794 119.335 49.7601 119.216L49.3036 118.89C50.2818 117.912 49.6949 116.608 49.0427 115.499C48.3905 114.39 48.847 114.455 48.5862 113.803C48.3253 113.151 48.521 113.738 48.521 113.673L48.2601 113.216C47.8628 112.915 47.4233 112.673 46.9557 112.499L47.4123 111.26C47.439 111.19 47.4405 111.112 47.4168 111.041C47.393 110.97 47.3453 110.909 47.2818 110.869L45.0644 109.825C45.263 109.437 45.3953 109.018 45.4557 108.586C45.4824 108.516 45.484 108.438 45.4602 108.367C45.4365 108.296 45.3888 108.235 45.3253 108.195H45.2601L44.347 107.999L42.521 107.738H41.347C41.8036 105.977 41.9992 104.999 39.9123 105.455H39.7166C38.6954 105.713 37.6931 106.039 36.7166 106.434L35.2166 106.89H34.8905C33.1297 107.151 31.6297 106.369 29.8688 106.564C29.484 106.612 29.1096 106.722 28.7601 106.89L27.8471 107.347H25.6297C24.7174 107.212 23.7876 107.421 23.021 107.934C22.2791 108.461 21.3873 108.735 20.4775 108.716H19.4992L18.9123 108.847L18.6514 108.977H18.5862C17.5994 109.367 16.6406 109.825 15.7166 110.347L15.0644 110.673L14.8688 110.282C14.8688 110.151 14.8036 110.086 14.8036 109.955C14.795 109.955 14.7865 109.954 14.7786 109.951C14.7707 109.947 14.7635 109.942 14.7575 109.936C14.7514 109.93 14.7466 109.923 14.7433 109.915C14.74 109.907 14.7384 109.899 14.7384 109.89C14.6079 109.695 14.3471 109.629 14.2166 109.825L13.9557 110.216C11.4401 113.536 9.62108 117.329 8.60792 121.369L8.21661 122.151C8.1514 122.347 8.02096 122.477 7.95575 122.673C7.89053 122.869 7.7601 123.129 7.62966 123.325L7.17313 124.369C6.3622 126.16 5.77096 128.044 5.41227 129.977C5.29347 130.581 5.20638 131.19 5.15139 131.803C4.76008 135.39 5.21661 140.151 7.89053 142.956L8.34706 143.412C8.34406 143.447 8.34828 143.483 8.3595 143.517C8.37071 143.55 8.38866 143.581 8.41226 143.608V143.803C8.47747 144.064 8.80358 144.064 8.99923 143.869L9.52096 144.26L9.78183 144.39C12.7818 146.151 16.8905 146.477 20.1514 146.803C25.049 147.187 29.9764 146.813 34.7601 145.695L34.9557 145.564C34.9901 145.505 35.0082 145.437 35.0082 145.369C35.0082 145.3 34.9901 145.232 34.9557 145.173C35.6176 145.308 36.2709 145.482 36.9123 145.695C36.993 145.717 37.0783 145.716 37.1588 145.693C37.2393 145.67 37.312 145.626 37.3688 145.564C37.3688 145.499 37.434 145.434 37.434 145.369C37.775 144.961 38.0804 144.524 38.3471 144.064C39.8471 144.847 41.021 143.869 41.6079 142.564C41.7121 142.36 41.7783 142.139 41.8036 141.912L41.9992 141.195C42.5291 141.256 43.0659 141.189 43.5644 140.999C43.7601 140.869 43.8253 140.542 43.6297 140.412C43.9316 140.08 44.2147 139.732 44.4775 139.369L45.1297 139.238C45.355 139.203 45.5745 139.137 45.7818 139.042C46.1154 138.897 46.3909 138.645 46.5644 138.325C46.7929 137.76 46.7929 137.129 46.5644 136.564C46.5048 136.358 46.417 136.16 46.3036 135.977H46.5644C46.7366 135.894 46.8894 135.775 47.0129 135.629C47.1365 135.483 47.2281 135.313 47.2818 135.129C47.6079 134.021 46.4992 133.434 46.9557 132.521L47.347 132.064L47.6731 131.803C48.3253 131.412 48.9123 131.151 48.9775 130.238C48.9903 129.99 48.9438 129.742 48.8417 129.515C48.7396 129.288 48.585 129.089 48.3905 128.934C49.2384 128.216 50.347 128.021 49.9557 126.521C49.5644 125.021 49.2384 126.521 50.0862 125.608C50.3836 125.337 50.6465 125.03 50.8688 124.695C50.934 124.564 50.934 124.369 50.9992 124.173C51.0644 123.977 50.6731 123.455 50.4775 122.999Z" fill="#BEBAF7"/>
<path d="M11.6737 141.978C18.1303 136.761 24.7172 131.674 32.0216 127.63C37.8791 124.434 44.0126 121.771 50.3477 119.674C50.1783 119.49 49.98 119.336 49.7607 119.217C43.5009 121.265 37.4515 123.907 31.6955 127.108C24.4563 131.087 17.9346 136.109 11.4781 141.261L12.5868 139.63C22.7174 128.676 34.9642 119.89 48.5868 113.804C48.5868 113.739 48.5216 113.739 48.5216 113.674L48.2607 113.217C36.0638 118.687 24.9516 126.309 15.4564 135.717L15.7172 135.391C16.0433 134.935 15.7172 134.543 15.3259 134.413C23.3476 123.652 33.3259 114.391 45.3259 108.195H45.2607L44.3476 108C30.652 115.174 19.565 126.456 11.0216 139.369C17.0265 126.614 25.8056 115.362 36.7172 106.435L35.2172 106.891H35.0868C23.8408 116.41 14.9747 128.425 9.19548 141.978C10.8817 134.642 13.7213 127.62 17.6085 121.174C20.549 116.34 23.8866 111.759 27.5868 107.478H26.6737C23.1148 111.678 19.8877 116.148 17.0216 120.848C13.1296 127.322 10.2692 134.363 8.5433 141.717C8.80417 135 10.4998 128.413 12.8477 122.152C14.6156 117.486 16.8439 113.007 19.4998 108.782L18.9129 108.913L18.5868 109.043C16.0303 113.123 13.8892 117.449 12.1955 121.956C10.0433 127.761 8.41288 133.761 8.02157 139.891C6.65201 134.087 7.10852 128.087 8.21722 122.217C7.82591 122.935 7.49982 123.717 7.17374 124.435C6.26069 130.304 6.13026 136.304 7.89113 142.109V143.022L8.34766 143.478C8.34466 143.513 8.34889 143.549 8.3601 143.583C8.37131 143.616 8.38927 143.647 8.41286 143.674C-2.21757 160.956 -7.76105 180.587 -11.8045 200.543C-12.1306 201.848 -12.3915 203.152 -12.6523 204.522H-11.2828L-10.5002 200.609C-6.4567 180.913 -0.978433 161.478 9.52157 144.391L9.78243 144.522L11.739 144.195C19.5104 143.715 27.3113 144.219 34.9563 145.695C34.9907 145.636 35.0088 145.569 35.0088 145.5C35.0088 145.431 34.9907 145.364 34.9563 145.304C35.6182 145.439 36.2715 145.614 36.9129 145.826C36.9936 145.848 37.0789 145.848 37.1594 145.825C37.2399 145.802 37.3126 145.757 37.3694 145.695C37.3694 145.63 37.4346 145.565 37.4346 145.5C30.7032 144.065 23.8391 143.343 16.9563 143.348C21.4127 142.749 25.8969 142.379 30.3911 142.239C33.7206 142.087 37.0569 142.196 40.3694 142.565L41.6085 142.695C41.7127 142.492 41.7789 142.271 41.8042 142.043L40.1085 141.848C36.6634 141.501 33.1971 141.414 29.739 141.587C24.1213 141.79 18.5226 142.356 12.9781 143.282C23.8473 139.665 35.1344 137.451 46.565 136.695C46.5054 136.489 46.4176 136.291 46.3042 136.109H46.565C35.7568 136.804 25.0713 138.796 14.739 142.043C19.9082 139.831 25.1994 137.914 30.5868 136.304C35.8042 134.804 41.4129 133.174 46.9563 132.652L47.3476 132.195L47.6737 131.935C41.8042 132.326 35.9346 134.087 30.3911 135.717C24.4915 137.426 18.7169 139.539 13.1085 142.043C24.8228 135.315 37.2183 129.85 50.0868 125.739C50.3842 125.468 50.6471 125.161 50.8694 124.826C37.209 129.073 24.0631 134.826 11.6737 141.978Z" fill="#A2A6E2"/>
<path d="M39.8479 164.804C39.3965 165.311 38.8938 165.77 38.3479 166.174C38.4408 166.151 38.5378 166.152 38.6303 166.176C38.7228 166.2 38.8081 166.246 38.8788 166.31C38.9495 166.374 39.0034 166.455 39.0359 166.545C39.0684 166.635 39.0785 166.731 39.0653 166.826C39.0704 166.937 39.0495 167.048 39.0042 167.15C38.9589 167.252 38.8905 167.342 38.8044 167.413L36.8479 168.913H37.174L37.6305 169.043C37.7463 169.094 37.8467 169.175 37.9213 169.277C37.9959 169.379 38.0422 169.499 38.0554 169.625C38.0687 169.751 38.0484 169.878 37.9967 169.993C37.945 170.109 37.8636 170.208 37.7609 170.282C36.8783 170.859 36.049 171.514 35.2827 172.239H35.8044C35.8989 172.306 35.9772 172.394 36.0336 172.495C36.09 172.597 36.1231 172.71 36.1305 172.826C36.1282 172.943 36.0972 173.057 36.0404 173.16C35.9836 173.262 35.9025 173.349 35.8044 173.413L32.4131 175.369L32.9349 175.5C33.0715 175.527 33.1959 175.597 33.2898 175.7C33.3837 175.802 33.4422 175.933 33.4568 176.071C33.4714 176.21 33.4413 176.349 33.3708 176.469C33.3004 176.589 33.1933 176.684 33.0653 176.739L29.8044 178.434C29.8044 178.443 29.8027 178.451 29.7995 178.459C29.7962 178.467 29.7914 178.474 29.7853 178.481C29.7793 178.487 29.7721 178.491 29.7642 178.495C29.7563 178.498 29.7478 178.5 29.7392 178.5L30.1305 178.63L30.7175 178.826C30.9131 178.826 30.9783 178.956 31.1088 179.087C31.1676 179.155 31.2098 179.236 31.232 179.324C31.2543 179.412 31.256 179.503 31.2371 179.592C31.2181 179.68 31.179 179.763 31.1229 179.833C31.0667 179.904 30.9949 179.961 30.9131 180C29.9572 180.426 28.9773 180.796 27.9783 181.108L28.5001 181.304C28.6306 181.347 28.7442 181.43 28.8247 181.541C28.9053 181.652 28.9486 181.786 28.9486 181.924C28.9486 182.061 28.9053 182.195 28.8247 182.306C28.7442 182.417 28.6306 182.5 28.5001 182.543C26.9279 183.103 25.2771 183.411 23.6088 183.456H23.5436C21.4854 184.18 19.3319 184.598 17.1523 184.695C12.587 185.087 8.02183 185.217 3.45661 185.282C3.37013 185.282 3.28717 185.248 3.22602 185.187C3.16487 185.126 3.13053 185.043 3.13053 184.956V184.174C2.88942 179.454 3.37329 174.725 4.5653 170.152C5.04409 168.293 5.63208 166.463 6.32618 164.674C6.65226 163.826 8.15225 160.565 8.47834 159.717C8.88482 158.61 9.38672 157.541 9.97835 156.521C10.0958 156.364 10.2685 156.256 10.4618 156.22C10.6552 156.183 10.8551 156.221 11.0218 156.326C11.1004 156.385 11.1605 156.466 11.1951 156.558C11.2298 156.651 11.2375 156.751 11.2175 156.847C11.2282 157.067 11.2062 157.287 11.1523 157.5V157.76C11.8044 156.717 12.4566 155.608 13.174 154.63C13.2564 154.488 13.3895 154.382 13.5467 154.333C13.7039 154.285 13.8736 154.298 14.0218 154.369C14.1418 154.411 14.2449 154.491 14.3155 154.597C14.3861 154.703 14.4203 154.829 14.4131 154.956L16.5653 152.347C16.6409 152.284 16.7288 152.237 16.8235 152.209C16.9181 152.181 17.0175 152.173 17.1155 152.185C17.2134 152.197 17.3078 152.23 17.3927 152.28C17.4776 152.33 17.5511 152.398 17.6088 152.478C17.6088 152.608 17.674 152.674 17.674 152.739L17.8044 152.608L19.3697 151.304H19.6305C19.7939 151.284 19.9585 151.327 20.0916 151.424C20.2246 151.521 20.3162 151.664 20.3479 151.826V151.956L20.8044 151.76C21.2569 151.223 21.811 150.78 22.4349 150.456C22.5575 150.39 22.6969 150.361 22.8359 150.372C22.9749 150.384 23.1075 150.436 23.2175 150.521L23.674 150.978C23.674 150.913 23.7392 150.913 23.8044 150.913L24.5218 150.391L25.8262 149.608C25.9095 149.547 26.0077 149.508 26.1108 149.496C26.2139 149.485 26.3183 149.501 26.4131 149.543C26.5234 149.599 26.6174 149.682 26.6859 149.785C26.7545 149.888 26.7953 150.007 26.8044 150.13C27.3589 149.73 27.9483 149.381 28.5653 149.087C28.9566 148.891 29.6088 149.152 29.5436 149.674C29.5636 149.787 29.5403 149.903 29.4783 150L31.4349 149.282L32.4783 148.956C32.5948 148.937 32.7139 148.945 32.8268 148.979C32.9398 149.013 33.0436 149.072 33.1305 149.152C33.2361 149.251 33.3012 149.386 33.3133 149.531C33.3253 149.675 33.2834 149.819 33.1957 149.934C33.1957 149.985 33.184 150.035 33.1613 150.08C33.1387 150.125 33.1058 150.165 33.0653 150.195C33.8408 150.018 34.6487 150.04 35.4131 150.26C35.5623 150.316 35.6977 150.403 35.8103 150.516C35.9228 150.628 36.0098 150.763 36.0653 150.913C36.1289 151.045 36.1619 151.19 36.1619 151.337C36.1619 151.483 36.1289 151.628 36.0653 151.76H36.9783C37.0435 151.735 37.1141 151.728 37.1829 151.74C37.2517 151.751 37.3162 151.781 37.3697 151.826C37.4884 151.913 37.5771 152.036 37.6238 152.176C37.6705 152.316 37.6729 152.467 37.6305 152.608C37.5653 152.674 37.5653 152.674 37.5653 152.739C37.3851 153.119 37.2325 153.511 37.1088 153.913L38.3479 154.239C38.5436 154.239 38.7392 154.5 38.8044 154.695V155.021C38.6234 155.682 38.3605 156.317 38.0218 156.913L39.1305 157.434C39.2362 157.473 39.3315 157.535 39.4085 157.617C39.4855 157.699 39.5422 157.798 39.5739 157.906C39.6056 158.014 39.6116 158.128 39.5912 158.239C39.5708 158.349 39.5247 158.454 39.4566 158.543L38.2175 159.717C38.7392 159.782 38.9349 160.043 38.9349 160.434C38.8742 160.754 38.7642 161.062 38.6088 161.347H39.3262C39.443 161.371 39.5512 161.425 39.639 161.506C39.7269 161.586 39.7912 161.689 39.8248 161.803C39.8584 161.917 39.86 162.039 39.8296 162.154C39.7992 162.269 39.7379 162.373 39.6523 162.456L38.7392 163.63H39.1305C39.2862 163.535 39.4733 163.506 39.6506 163.548C39.828 163.591 39.981 163.703 40.0762 163.858C40.1713 164.014 40.2007 164.201 40.1579 164.378C40.1151 164.556 40.0036 164.709 39.8479 164.804Z" fill="#A2A6E2"/>
<path d="M34.434 170.087L34.3036 170.217C31.434 172.239 28.1079 173.674 24.9123 175.109C21.6497 176.692 18.2702 178.022 14.8036 179.087C23.1716 175.154 30.8038 169.816 37.3688 163.304C37.3774 163.304 37.3859 163.303 37.3938 163.299C37.4017 163.296 37.4089 163.291 37.4149 163.285C37.421 163.279 37.4258 163.272 37.4291 163.264C37.4323 163.256 37.434 163.248 37.434 163.239C37.9557 162.652 38.5427 162.065 39.0644 161.413H38.6732C38.8286 161.128 38.9386 160.819 38.9992 160.5L36.9775 162.783C29.0137 170.721 19.4551 176.879 8.93403 180.848L8.73836 180.978H8.4775C10.8253 179.478 13.6297 178.565 16.1079 177.13C18.6954 175.608 21.1595 173.886 23.4775 171.978C28.1986 167.865 32.4822 163.276 36.2601 158.283C37.1731 157.109 38.021 155.87 38.8688 154.63C38.8036 154.435 38.6079 154.174 38.4123 154.174C36.8471 156.261 35.3471 158.348 33.7166 160.37C32.0862 162.391 29.6079 165.196 27.3905 167.478C26.0862 168.717 24.7818 169.957 23.4123 171.13C21.0247 173.145 18.4723 174.956 15.7819 176.544C13.8905 177.652 11.8688 178.435 9.97751 179.348C10.6186 178.966 11.21 178.506 11.7384 177.978L13.6297 176.544L17.2166 173.544C19.5644 171.587 21.9123 169.5 24.1949 167.348C26.4775 165.196 28.6297 162.978 30.7819 160.696L33.8471 157.174L35.4123 155.413C35.7384 155.022 36.5862 154.304 36.6514 153.783L37.6949 152.543C37.7372 152.402 37.7349 152.251 37.6882 152.111C37.6415 151.971 37.5527 151.849 37.434 151.761C33.9192 156.233 30.1522 160.501 26.1514 164.544C21.7708 168.905 17.132 172.999 12.2601 176.804L9.45576 179.022C8.73837 179.544 7.89054 180 7.17315 180.587L7.43402 180.326C8.28184 179.478 9.19489 178.565 10.1079 177.783C10.1457 177.749 10.169 177.702 10.1732 177.652L24.9775 163.044C28.7601 159.326 32.4775 155.413 36.3905 151.891H36.1297C36.1933 151.759 36.2263 151.614 36.2263 151.467C36.2263 151.321 36.1933 151.176 36.1297 151.043C36.0741 150.894 35.9872 150.759 35.8746 150.646C35.7621 150.534 35.6266 150.447 35.4775 150.391L34.9558 150.717H34.8253C28.1731 154.239 23.0862 159.848 18.1949 165.391C15.1297 168.848 12.0645 172.304 9.19489 175.957L7.6949 177.783C8.15142 176.935 8.54273 176.087 8.99925 175.304C9.45577 174.522 10.4992 172.761 11.2819 171.587C12.8471 169.174 14.6079 166.826 16.434 164.544C20.1147 160.026 24.2689 155.915 28.8253 152.283C30.1754 151.136 31.6396 150.131 33.1949 149.283C33.1079 149.203 33.0041 149.144 32.8912 149.11C32.7783 149.076 32.6591 149.068 32.5427 149.087L31.4992 149.413L31.1079 149.674C29.8698 150.473 28.7122 151.39 27.6514 152.413C26.4775 153.391 25.3036 154.37 24.1949 155.413C21.913 157.478 19.7569 159.677 17.7384 162C16.1732 163.761 14.7384 165.587 13.3688 167.413C16.3613 162 19.9016 156.908 23.934 152.217H24.0644C24.7657 151.277 25.5757 150.424 26.4775 149.674C26.3826 149.632 26.2783 149.616 26.1752 149.627C26.0721 149.639 25.9739 149.677 25.8905 149.739L24.5862 150.522L23.7384 151.5H23.6732C18.4552 157.544 14.0283 164.229 10.4992 171.391V171.587C9.5862 172.957 8.73838 174.326 7.95577 175.761C8.30256 175.055 8.56522 174.311 8.73836 173.544C9.06445 172.761 9.32534 171.978 9.65142 171.261C9.97751 170.544 10.8905 168.196 11.5427 166.696C12.8471 163.696 14.2166 160.696 15.7166 157.826C16.8565 155.578 18.1645 153.42 19.6297 151.37H19.3688L17.8036 152.674C15.0645 156.783 13.0427 161.413 11.0862 165.913C10.1732 168.065 9.2601 170.283 8.41228 172.5C8.02097 173.609 7.56446 174.717 7.17315 175.891C6.89222 177.028 6.5215 178.14 6.06447 179.217L5.8688 179.674C6.08973 178.928 6.24254 178.164 6.32533 177.391C6.52098 176.609 6.65141 175.761 6.84706 174.978C7.04272 174.196 7.69489 171.848 8.15141 170.283C9.12967 167.152 10.2384 164.022 11.4775 161.022C12.2838 158.942 13.2656 156.935 14.4123 155.022C14.4195 154.895 14.3852 154.769 14.3146 154.663C14.2441 154.557 14.141 154.477 14.021 154.435C13.1793 155.792 12.4381 157.209 11.8036 158.674C11.7863 158.674 11.7697 158.681 11.7575 158.693C11.7452 158.705 11.7384 158.722 11.7384 158.739C8.50412 166.057 6.18234 173.745 4.82532 181.63L4.30359 182.348C4.17315 176.087 6.26011 170.022 8.4775 164.217C9.32532 162 10.1732 159.717 11.1514 157.565C11.2053 157.352 11.2273 157.132 11.2166 156.913C11.2367 156.817 11.2289 156.716 11.1943 156.624C11.1597 156.532 11.0996 156.451 11.021 156.391C9.97749 158.478 9.12968 160.696 8.28185 162.913C7.11408 165.751 6.09101 168.646 5.21663 171.587C4.30543 174.662 3.77967 177.839 3.65142 181.044V181.826C3.68425 182.02 3.68425 182.219 3.65142 182.413C3.56445 182.619 3.54171 182.846 3.58619 183.065C3.58209 183.178 3.60444 183.289 3.65142 183.391C3.45512 183.637 3.28056 183.898 3.12969 184.174C-0.124144 189.4 -2.77167 194.979 -4.76162 200.804C-5.22096 201.932 -5.61296 203.087 -5.93555 204.261H-4.56598L-3.39205 200.935C-1.50393 195.542 0.944211 190.361 3.91228 185.478C4.17315 185.087 4.36881 184.696 4.62968 184.37C7.17315 183.913 20.4123 182.022 27.1297 180.457H27.3253C28.5651 180.018 29.8278 179.648 31.1079 179.348C30.9775 179.217 30.9123 179.087 30.7166 179.087L30.1297 178.891L27.1297 179.804C27.1297 179.822 27.1228 179.838 27.1106 179.851C27.0983 179.863 27.0817 179.87 27.0645 179.87H26.934C19.8381 181.576 12.621 182.732 5.34707 183.326L5.73838 182.804C6.21058 182.416 6.77005 182.147 7.36881 182.022L10.3688 181.565H10.7601C13.1731 181.239 15.521 180.783 17.934 180.326C20.3471 179.87 21.9775 179.544 23.934 178.957C26.2224 178.28 28.4481 177.407 30.5862 176.348C32.4989 175.399 34.3504 174.332 36.1297 173.152C36.1223 173.036 36.0892 172.924 36.0328 172.822C35.9764 172.72 35.8981 172.633 35.8036 172.565C34.6898 173.323 33.5359 174.019 32.3471 174.652C31.1732 175.304 29.934 175.761 28.7601 176.348C27.6462 176.95 26.4911 177.473 25.3036 177.913C22.814 178.631 20.2889 179.218 17.7384 179.674L13.6949 180.457L14.3471 180.13H14.4123C17.9507 179.117 21.3977 177.809 24.7166 176.217C27.3905 174.978 30.0645 173.804 32.6079 172.304C35.1514 170.804 35.6731 170.348 37.1731 169.239H36.8471L38.8036 167.739C38.8897 167.668 38.9581 167.578 39.0034 167.477C39.0487 167.375 39.0696 167.264 39.0644 167.152L34.434 170.087ZM18.6514 165.848C23.5427 160.37 28.5644 154.826 35.1514 151.304H35.2166L36.1297 151.043C35.9992 151.174 33.6514 153.391 32.1514 154.957V155.087H32.021L11.6079 175.239C11.6658 175.089 11.6716 174.924 11.6242 174.77C11.5769 174.616 11.4793 174.483 11.3471 174.391C13.6949 171.522 16.1732 168.652 18.6514 165.848Z" fill="#BEBAF7"/>
<path d="M46.8253 93.3905V93.1948C46.8228 93.0338 46.7778 92.8763 46.6948 92.7383C46.3774 92.3493 45.9761 92.0371 45.5209 91.8253C46.3035 91.1731 47.6731 89.9992 47.1514 89.0861C46.6296 88.1731 45.3253 88.6296 46.1731 87.0644L46.434 86.4775C46.7004 86.1155 46.9196 85.721 47.0861 85.3035C47.1613 85.049 47.2051 84.7861 47.2166 84.5209C47.2121 84.4004 47.166 84.2852 47.0861 84.1948C45.9518 83.7277 44.7196 83.5484 43.4992 83.6731C43.9055 83.2044 44.1157 82.5971 44.0861 81.9774C44.0861 81.847 44.0209 81.7818 43.9557 81.6514L43.3687 81.2601C42.8011 81.0729 42.2054 80.9846 41.6079 80.9992C41.811 80.7323 41.9368 80.4146 41.9713 80.081C42.0058 79.7474 41.9477 79.4107 41.8035 79.1079C41.5413 78.7416 41.2087 78.4312 40.8253 78.1948L40.3035 77.7383C39.5209 77.1514 38.8687 76.4992 39.5209 75.9774C39.5581 75.9423 39.5865 75.8988 39.6038 75.8506C39.6211 75.8024 39.6268 75.7509 39.6204 75.7C39.6141 75.6492 39.5959 75.6007 39.5672 75.5582C39.5386 75.5158 39.5004 75.4806 39.4557 75.4557C39.4253 75.4152 39.3859 75.3823 39.3406 75.3597C39.2954 75.3371 39.2454 75.3253 39.1948 75.3253L38.6079 74.9992C38.0643 74.7459 37.4961 74.5492 36.9122 74.4122L37.1731 73.5644C37.1824 73.5129 37.1813 73.4601 37.1699 73.4091C37.1584 73.358 37.1368 73.3098 37.1064 73.2673C37.076 73.2247 37.0374 73.1887 36.9929 73.1613C36.9483 73.1339 36.8987 73.1158 36.847 73.1079C35.8687 73.1731 34.9557 73.1731 34.0427 73.3035H33.1296C33.26 72.847 33.3253 72.4557 33.4557 72.0644C33.4655 72.0165 33.4644 71.967 33.4524 71.9195C33.4405 71.8721 33.418 71.8279 33.3867 71.7903C33.3554 71.7528 33.316 71.7227 33.2715 71.7024C33.227 71.6821 33.1785 71.6721 33.1296 71.6731C32.4122 71.6731 31.5644 71.8035 30.847 71.7383C30.1296 71.6731 29.9992 71.5427 29.9992 71.1513C29.9992 70.76 30.0644 70.76 30.0644 70.4339C30.0466 70.3364 30.0013 70.2459 29.9339 70.1731C29.8687 70.1079 29.7383 70.0426 29.6731 70.1079L26.0209 71.6079C26.0209 71.4122 26.0861 71.2166 26.0861 71.0861V70.8253C26.0861 70.5644 26.1513 70.3035 26.1513 70.0426C26.1543 70.0073 26.1501 69.9718 26.1389 69.9381C26.1277 69.9045 26.1097 69.8735 26.0861 69.847C26.0293 69.7855 25.9567 69.7408 25.8761 69.7178C25.7956 69.6948 25.7104 69.6943 25.6296 69.7166L23.0209 71.347C22.6419 71.6076 22.2235 71.8058 21.7818 71.934C20.9992 71.9992 20.7383 71.347 20.6079 70.76C20.556 70.6835 20.5329 70.5911 20.5426 70.4992C20.5287 70.454 20.5051 70.4125 20.4735 70.3774C20.4419 70.3423 20.403 70.3145 20.3596 70.2959C20.3162 70.2773 20.2692 70.2683 20.222 70.2696C20.1748 70.271 20.1284 70.2825 20.0861 70.3035H19.9557L17.4774 72.6513C17.2166 72.847 16.6296 73.6296 16.3687 73.6948C16.1079 73.76 15.5209 73.434 15.1296 73.1079C15.0579 73.0437 14.965 73.0082 14.8687 73.0082C14.7725 73.0082 14.6796 73.0437 14.6079 73.1079C14.1513 73.5644 13.76 74.0861 13.3035 74.6079C12.847 75.1296 12.4557 75.7818 12.1296 76.3687C11.8035 76.9557 11.4122 77.6079 11.0861 78.1948C10.76 78.7818 11.0209 78.1948 11.0209 78.1296L10.5644 77.8035C10.434 77.6731 10.2383 77.8035 10.1079 77.934C9.18038 79.3532 8.35232 80.8351 7.62961 82.3688C7.50603 82.2248 7.34937 82.1129 7.17308 82.0427C6.52091 81.847 6.06438 82.3688 5.80351 82.8905L5.67309 83.0209C5.28178 83.8688 5.08614 84.847 4.76005 85.7601C4.43396 86.6731 4.36873 87.9122 3.91221 88.3688L3.78179 88.4992C3.52092 88.6948 3.65134 88.5644 3.26004 88.3035C3.21117 88.1692 3.11952 88.0546 2.99917 87.9774C2.7383 87.847 2.7383 87.847 2.347 87.9122C2.30204 87.9285 2.26119 87.9545 2.22738 87.9883C2.19357 88.0221 2.16763 88.0629 2.15135 88.1079C1.90597 89.5532 1.75348 91.0127 1.69482 92.4775H1.6296C1.43395 92.2166 1.17309 92.4122 1.10787 92.6079C-0.0504451 95.868 -0.538468 99.3285 -0.326919 102.782C-0.261702 103.695 -0.196489 104.608 -0.0660539 105.521C0.0643809 106.434 0.194824 107.738 0.390476 108.847C0.847289 111.502 1.75144 114.06 3.06439 116.412L4.36874 118.564C4.76004 119.086 5.08612 119.608 5.47742 120.064L5.67309 120.391L6.39048 121.238L6.71657 121.564H6.84699L7.17308 121.891L7.36874 122.086C7.43396 122.217 7.43395 122.282 7.56439 122.347L7.9557 122.543H8.28178L8.47743 122.673H8.73829C9.62147 123.045 10.5389 123.328 11.4774 123.521L12.1296 123.651C13.0996 123.824 14.08 123.933 15.0644 123.978H15.7818C16.915 123.977 18.0473 123.912 19.1731 123.782H20.0209L21.5209 123.586L23.7383 123.195L24.9122 122.934L27.6513 122.347L28.8253 122.021L30.5861 121.63C31.76 121.304 32.9992 120.912 34.1731 120.456C35.3521 120.045 36.5063 119.566 37.6296 119.021L38.4774 118.63C39.1605 118.387 39.7994 118.035 40.3687 117.586C40.5421 117.423 40.676 117.222 40.76 116.999C40.8119 116.923 40.835 116.83 40.8253 116.738C40.8253 116.673 40.8253 116.608 40.76 116.608C40.76 116.543 40.6948 116.477 40.6948 116.412C40.4112 116.024 40.0573 115.692 39.6514 115.434L39.9774 115.238C40.2383 115.173 40.1731 114.912 40.0426 114.717L39.7166 114.26C40.6296 114.13 41.4122 113.804 41.6731 112.76C41.7277 112.551 41.7385 112.333 41.7048 112.12C41.6711 111.907 41.5937 111.703 41.4774 111.521C41.4071 111.326 41.2679 111.164 41.0861 111.064L41.6731 110.804C42.3905 110.412 43.1731 109.956 43.3687 109.369V108.977C43.338 108.761 43.2477 108.558 43.1079 108.391C42.9356 108.072 42.7393 107.767 42.5209 107.477C43.0427 107.086 43.5644 106.76 43.6948 106.108C43.7004 106.04 43.6846 105.972 43.6495 105.913C43.6144 105.855 43.5618 105.809 43.4992 105.782C43.2989 105.59 43.0513 105.455 42.7818 105.391C43.5644 104.934 44.5427 104.477 44.8687 103.76C44.9222 103.569 44.9442 103.371 44.9339 103.173C44.8503 102.965 44.7408 102.767 44.6079 102.586L44.0861 102.13L46.5644 100.434C46.6195 100.407 46.666 100.366 46.6985 100.314C46.7311 100.262 46.7483 100.202 46.7483 100.141C46.7483 100.079 46.7311 100.019 46.6985 99.9673C46.666 99.9154 46.6195 99.8737 46.5644 99.847C45.8833 99.3925 45.1631 98.9996 44.4122 98.6731C45.1296 98.021 46.1079 97.5644 46.2383 96.5862C46.2918 96.2757 46.2462 95.9562 46.1079 95.6731C45.7818 95.1514 45.3905 95.4123 45.6513 94.7601C45.9122 94.1079 46.8253 94.2383 46.8253 93.3905Z" fill="#A2A6E2"/>
<path d="M46.8264 93.3902V93.1945C46.824 93.0335 46.779 92.876 46.696 92.738C33.9381 101.141 21.6379 110.219 9.84816 119.934C20.3758 107.084 32.6978 95.8166 46.4351 86.4771C46.7016 86.1152 46.9207 85.7207 47.0873 85.3032C33.6336 94.2719 21.4952 105.071 11.0221 117.39C12.9134 114.325 14.9351 111.325 17.0873 108.455C20.7371 103.795 24.6568 99.3527 28.8264 95.1511C33.4274 90.1783 38.494 85.6577 43.9568 81.651L43.3699 81.2597C37.9455 85.2408 32.9021 89.7165 28.3047 94.6293C24.2766 98.7762 20.4671 103.13 16.8916 107.673C15.0655 110.021 13.3699 112.499 11.8047 114.977C15.2595 108.706 19.0926 102.652 23.2829 96.8467C28.3704 89.9556 34.2596 83.6942 40.8264 78.1945L40.3047 77.738C34.0004 83.0642 28.3127 89.08 23.3482 95.6728C20.4014 99.5491 17.6586 103.576 15.1308 107.738C15.1501 107.558 15.1003 107.376 14.9914 107.231C14.8825 107.086 14.7225 106.987 14.5438 106.955C20.632 96.182 28.1575 86.2869 36.9134 77.5423C37.6308 76.7597 38.4134 76.0423 39.196 75.3249L38.609 74.9989C27.6928 85.4345 18.5707 97.5974 11.609 110.999C10.3699 113.412 9.19598 115.76 8.08729 118.238C13.2395 101.477 22.6308 86.4771 34.0438 73.3032H33.1308C21.8482 86.4771 12.5221 101.477 7.43511 118.108C7.50033 116.934 7.63077 115.76 7.7612 114.521C10.9569 98.4119 19.5655 83.8684 30.0003 71.151C30.0003 70.9554 30.0656 70.7597 30.0656 70.4336C30.0478 70.336 30.0025 70.2456 29.9351 70.1728C21.3916 80.4771 14.0221 92.0206 9.71772 104.673C10.8995 99.5531 12.4917 94.5369 14.4786 89.6728C17.4031 82.855 21.3145 76.5044 26.0873 70.8249C26.0873 70.5641 26.1525 70.3032 26.1525 70.0423C26.1555 70.007 26.1513 69.9714 26.14 69.9378C26.1288 69.9042 26.1109 69.8731 26.0873 69.8467C20.9222 75.822 16.7396 82.5802 13.696 89.8685C11.76 94.7002 10.1904 99.6707 9.00035 104.738C8.20716 107.921 7.5759 111.143 7.10903 114.39C6.78294 116.086 6.52208 117.847 6.32643 119.542C5.60904 102.195 11.4786 85.4337 20.609 70.7597C20.5572 70.6832 20.534 70.5908 20.5438 70.4989C20.5298 70.4537 20.5062 70.4122 20.4746 70.3771C20.443 70.342 20.4042 70.3142 20.3608 70.2955C20.3173 70.2769 20.2704 70.268 20.2232 70.2693C20.176 70.2706 20.1296 70.2822 20.0873 70.3032C11.4134 84.1945 5.60904 100.042 5.60904 116.477C4.43512 108.129 6.00034 99.5206 7.82642 91.3032C9.06555 85.6293 10.696 79.8902 13.3047 74.6728C12.4668 75.8045 11.7251 77.0043 11.0873 78.2597C11.0221 78.2597 11.0221 78.2597 11.0221 78.1945C9.34679 82.3944 8.05883 86.7385 7.17425 91.1728C5.60903 98.2815 4.23947 105.781 4.63077 113.086C3.63087 108.262 3.21485 103.335 3.39165 98.4119C3.51167 94.5495 3.992 90.7068 4.82642 86.9337C5.08729 85.6293 5.41337 84.2597 5.80468 82.9554L5.67426 83.0858C5.28295 83.9336 5.0873 84.9119 4.76122 85.825C4.43513 86.738 4.3699 87.9771 3.91338 88.4337L3.78296 88.5641C3.2065 91.621 2.85771 94.7164 2.73947 97.825C2.44147 104.852 3.30075 111.881 5.28295 118.629L5.67426 120.455C6.12346 121.024 6.62572 121.548 7.17425 122.021C-3.33805 147.042 -10.2122 173.441 -13.2388 200.412C-13.4344 201.782 -13.5649 203.086 -13.6953 204.456H-12.3257L-11.9344 200.477C-8.91912 173.757 -2.11157 147.603 8.28295 122.803L8.4786 122.934H8.73946C12.3761 122.941 16.0029 123.312 19.5655 124.042L21.5221 123.782C17.5866 122.857 13.5639 122.355 9.52208 122.282L10.8264 121.955C16.7612 120.847 22.8264 121.499 28.8264 122.216L30.5873 121.825C25.5003 121.173 20.4786 120.521 15.3916 120.716C20.0873 119.673 24.8482 118.89 29.609 118.173C33.3031 117.621 37.0274 117.294 40.7612 117.195C40.8131 117.118 40.8362 117.026 40.8264 116.934C40.8134 116.795 40.7687 116.661 40.696 116.542C37.1168 116.652 33.5463 116.957 30.0003 117.455C24.3415 118.209 18.7254 119.254 13.1743 120.586C18.4572 118.195 23.8802 116.126 29.4134 114.39C33.1462 113.3 36.9341 112.407 40.7612 111.716H41.4786C41.4083 111.521 41.2691 111.359 41.0873 111.26L41.6742 110.999L40.2395 111.195C36.3176 111.898 32.4412 112.834 28.6308 113.999C22.6496 115.924 16.791 118.211 11.0873 120.847C17.0221 116.934 23.4134 113.738 29.6742 110.412C33.5641 108.195 37.5944 106.235 41.7395 104.542L44.9351 103.368C44.8515 103.16 44.7419 102.963 44.609 102.782L41.5438 103.89C37.5425 105.522 33.644 107.395 29.8699 109.499C22.7612 113.412 15.3264 116.999 8.73946 121.695C8.76306 121.668 8.78101 121.637 8.79222 121.603C8.80344 121.57 8.80768 121.534 8.80468 121.499C20.9982 111.496 33.6883 102.115 46.8264 93.3902Z" fill="#BEBAF7"/>
<path d="M40.043 46.0429C40.0168 45.7977 39.9395 45.5606 39.8159 45.3472C39.6923 45.1337 39.5253 44.9486 39.3256 44.8038C39.5865 44.1516 39.8473 43.4343 40.043 42.7821C40.2386 42.1299 40.5647 41.7386 40.4343 41.2169L40.3039 41.0212C40.2304 40.8822 40.1167 40.7686 39.9778 40.6951H39.6517V37.8908C39.6517 37.6951 39.456 37.5647 39.1952 37.5647C38.9343 37.5647 38.4778 36.7821 38.543 36.1951V36.0647C38.543 35.9962 38.5214 35.9295 38.4814 35.874C38.4414 35.8185 38.3849 35.777 38.32 35.7553C38.2551 35.7337 38.185 35.733 38.1197 35.7534C38.0543 35.7738 37.9971 35.8143 37.956 35.869L37.1734 36.5212L36.9778 36.6516C36.1952 37.2386 35.4778 37.8908 34.7604 38.5429C35.3601 37.4277 35.883 36.2728 36.3256 35.0864C36.3351 35.0435 36.3358 34.9992 36.3277 34.956C36.3196 34.9128 36.3029 34.8717 36.2785 34.8352C36.2541 34.7986 36.2226 34.7674 36.1859 34.7433C36.1492 34.7193 36.108 34.7029 36.0647 34.6951C35.6734 34.5647 35.6082 34.7603 35.3473 34.6951C33.9778 34.4995 34.6299 34.1734 34.3691 33.3255C34.3162 33.088 34.1767 32.8788 33.9778 32.7386C33.6574 32.4737 33.3525 32.1907 33.0647 31.8908C32.9371 31.6163 32.7843 31.3543 32.6082 31.1082C32.5267 30.8576 32.4173 30.6169 32.2821 30.3908L31.8256 29.6734C31.1082 28.6951 31.5647 27.7169 30.8473 26.9342C30.1299 26.1516 30.6517 26.8038 30.5212 26.8038C30.0384 26.9312 29.5769 27.1289 29.1517 27.3908C29.1458 27.2053 29.1023 27.0229 29.0239 26.8547C28.9454 26.6866 28.8336 26.5361 28.6951 26.4125H27.6517L26.6734 26.5429C26.6082 25.7603 26.3473 24.9777 25.6951 24.7821C25.4919 24.746 25.2836 24.7505 25.0821 24.7952C24.8807 24.84 24.6901 24.9242 24.5212 25.0429H24.456L23.4125 23.9342L22.956 23.4125C22.7841 23.2657 22.5845 23.1549 22.3691 23.0864C22.3691 23.0212 22.3038 23.0212 22.1734 23.0212C21.9542 22.9806 21.728 23.0032 21.5212 23.0864C21.0647 23.2168 20.9343 23.4777 20.6082 23.5429C20.4963 23.5663 20.3809 23.5667 20.2688 23.5443C20.1567 23.5219 20.0503 23.4771 19.956 23.4125H19.8256C19.5647 23.2168 19.4995 23.0212 19.1082 22.8908C18.6777 22.8379 18.2418 22.9297 17.8691 23.1516L17.0212 23.8038L16.3691 23.6734C16.1838 23.5314 16.0286 23.3541 15.9125 23.1516L15.5865 22.4994L15.456 22.369C15.3256 22.3038 15.1299 22.3038 15.0647 22.4342L13.3038 24.5864L13.1082 24.1951C13.0263 23.9347 12.8827 23.6979 12.6897 23.5049C12.4967 23.3119 12.2599 23.1683 11.9995 23.0864C11.2821 22.956 10.6299 23.869 10.3039 24.3907C9.97158 24.9566 9.50012 25.428 8.93429 25.7603L8.15167 25.8908H7.10819L6.39082 25.7603H5.93429C5.15771 25.9001 4.42232 26.2121 3.78212 26.6734C3.38732 26.8965 3.01589 27.1587 2.67342 27.456L2.28211 27.7821L1.30385 28.8908L0.260367 30.2603C-0.580984 31.5949 -1.32215 32.99 -1.95702 34.4342C-2.08745 34.6951 -2.21788 35.0212 -2.41353 35.3473C-2.60918 35.6734 -3.45701 37.5647 -4.04396 38.6734L-4.82658 39.9777C-4.97172 40.126 -5.08298 40.304 -5.15267 40.4995L-5.34831 39.8473C-5.34831 39.8387 -5.35001 39.8302 -5.35329 39.8223C-5.35656 39.8144 -5.36136 39.8072 -5.36742 39.8012C-5.37347 39.7951 -5.38066 39.7903 -5.38858 39.787C-5.39649 39.7838 -5.40497 39.7821 -5.41353 39.7821V39.6516C-5.44871 39.6144 -5.49216 39.586 -5.54035 39.5688C-5.58854 39.5515 -5.64011 39.5458 -5.69092 39.5521C-5.74172 39.5585 -5.79031 39.5767 -5.83276 39.6053C-5.87522 39.6339 -5.91035 39.6721 -5.93528 39.7168L-6.71788 41.0212L-6.91354 40.6951C-7.01461 40.5514 -7.10194 40.3986 -7.17441 40.2386L-7.37005 40.1082H-7.76136L-7.95701 40.369L-8.6744 41.4125C-9.02956 41.9717 -9.33507 42.5609 -9.58744 43.1734L-9.78311 42.8473L-9.97875 42.5212L-10.2396 42.0647C-10.2396 41.9995 -10.3048 41.9343 -10.4353 41.9343C-10.4832 41.9245 -10.5327 41.9256 -10.5802 41.9375C-10.6276 41.9494 -10.6717 41.9719 -10.7093 42.0032C-10.7469 42.0345 -10.777 42.0739 -10.7973 42.1184C-10.8175 42.1629 -10.8276 42.2114 -10.8266 42.2603C-10.8804 42.5175 -10.9023 42.7804 -10.8918 43.0429L-11.0875 44.9342V45.1951C-11.1527 46.6951 -11.2179 48.1951 -11.1527 49.7604V50.7386C-10.7435 60.7758 -7.82885 70.5511 -2.67441 79.1734C-2.67441 79.2386 -2.67441 79.2386 -2.60919 79.3039C-2.54398 79.3691 -2.54397 79.4343 -2.47875 79.4995C-2.41353 79.5647 -2.41353 79.8908 -2.15266 79.8908H-1.50049L-0.000497818 79.7604H0.716897C3.19516 79.3039 5.6082 78.5865 7.95603 77.9343L12.1299 76.6952L12.5212 76.5647H12.5865C14.2169 76.043 15.9125 75.456 17.543 74.8039L18.5865 74.4125H18.7169C20.4778 73.6952 22.4995 72.9778 24.456 72.1299L25.8256 71.4778H26.0865C29.3473 69.8473 32.3473 67.8256 34.1734 64.8908C34.2386 64.6951 34.1734 64.3691 33.9778 64.3691H33.9125L33.1951 64.2386L33.5212 63.8473C34.6299 62.4777 36.3908 59.9995 34.956 59.543L36.0647 58.1082C36.3103 57.7117 36.5942 57.3403 36.9125 56.9995L38.0212 55.4343C38.2821 55.1082 37.8256 54.8473 37.5647 54.9777H37.3691L38.9995 52.4343C39.247 52.1422 39.4453 51.8118 39.5865 51.456C39.667 51.2251 39.711 50.9831 39.7169 50.7386H39.6517C39.6352 50.5079 39.5317 50.2921 39.3622 50.1347C39.1928 49.9774 38.9699 49.8902 38.7386 49.8908C38.9995 48.1951 40.3038 47.4125 40.043 46.0429Z" fill="#BEBAF7"/>
<path d="M39.6522 50.3484C26.2826 57.9136 13.1739 66.0658 1.89128 76.5658C8.67388 69.5223 15.7826 62.8701 22.8913 56.2179C28.4493 50.8887 34.3067 45.8805 40.4348 41.2179L40.3043 41.0223C40.2309 40.8833 40.1172 40.7696 39.9782 40.6962C33.9782 45.1962 28.3695 50.2179 22.8261 55.3049C15.3913 62.2832 7.95649 69.1962 0.913015 76.5658C11.7008 61.5542 24.3447 47.968 38.5435 36.1309V36.0005C38.5435 35.9321 38.5219 35.8654 38.4819 35.8099C38.4419 35.7543 38.3854 35.7128 38.3205 35.6912C38.2556 35.6695 38.1855 35.6689 38.1201 35.6893C38.0548 35.7097 37.9976 35.7501 37.9565 35.8049L37.1739 36.457L36.9782 36.5875C23.8737 47.6906 12.0996 60.2745 1.89128 74.0875C10.1791 59.8276 20.3828 46.7713 32.2174 35.2831L34.3695 33.2614C34.3167 33.0239 34.1771 32.8146 33.9782 32.6744C23.3161 42.6797 13.9003 53.935 5.93476 66.1962C3.58694 69.8484 1.30433 73.631 -0.78262 77.4788L-0.195669 75.6527C4.20165 66.3907 9.67409 57.6785 16.1087 49.6962C19.8913 44.9353 23.9348 40.3049 28.0435 35.8701C29.5435 34.2396 31.0435 32.6092 32.6087 31.044C32.5272 30.7934 32.4178 30.5528 32.2826 30.3266C28.1739 34.3701 24.3913 38.7396 20.7391 43.044C14.3478 50.544 8.41302 58.3701 3.52171 66.9136C2.80432 68.2179 2.08694 69.5223 1.43477 70.8266C2.28259 68.2179 3.26085 65.544 4.23911 62.9353C4.28418 62.7594 4.26087 62.573 4.17389 62.4136C4.2391 62.3484 4.23911 62.2179 4.30433 62.0875C6.78259 57.131 9.4565 52.2397 12.3913 47.4788C17.138 39.9612 22.5278 32.8694 28.5 26.2831H27.6521C21.7877 32.7619 16.5064 39.7455 11.8695 47.1527C8.81719 51.9861 6.05154 56.9948 3.58693 62.1527C3.44308 62.1461 3.30108 62.1874 3.18311 62.2699C3.06513 62.3525 2.97781 62.4718 2.93476 62.6092L1.1739 67.3701C0.456509 69.131 -0.195663 70.8919 -0.78262 72.7179C3.13042 54.7179 11.9348 38.0223 22.9565 23.2831C22.7845 23.1364 22.585 23.0255 22.3696 22.957C11.9348 36.9136 3.52172 52.5005 -0.652198 69.4571C1.43476 53.0223 6.78259 36.9136 16.3695 23.544C16.1843 23.402 16.0291 23.2247 15.913 23.0223C6.52171 36.0657 1.1739 51.6527 -1.10871 67.631C-0.563579 60.0113 0.570227 52.4453 2.28259 45.0005C3.48362 39.8861 5.07525 34.8714 7.04347 30.0005C7.63042 28.5005 8.21737 27.0657 8.93477 25.631L8.15215 25.7614C7.69563 26.7396 7.23911 27.7179 6.8478 28.6962C4.75467 33.7249 3.0752 38.9161 1.82607 44.2179C-0.292891 53.2354 -1.60244 62.4241 -2.08697 71.6745C-2.08697 57.3918 -2.47828 42.5223 1.30432 28.7614L0.260841 30.131C-3.2609 44.4136 -2.67393 59.6744 -2.73914 74.2832C-4.43479 62.8701 -5.80437 51.3266 -4.82611 39.8483C-4.97125 39.9966 -5.0825 40.1746 -5.15219 40.3701L-5.34784 39.7179L-5.47828 39.5223C-6.52176 51.5223 -5.02176 63.6527 -3.19567 75.5875C-5.86959 69.131 -6.91307 62.4136 -7.56524 55.4353C-8.02229 50.4056 -8.15298 45.3515 -7.95653 40.3049L-8.67393 41.3483C-8.80417 46.486 -8.60812 51.6268 -8.08698 56.7397C-7.36958 64.1745 -6.06523 71.2832 -2.80436 78.0658C-2.73915 78.3919 -2.73916 78.718 -2.67394 79.044C-14.768 118.287 -18.9575 159.54 -15 200.414L-14.6087 204.457H-13.3044L-13.6957 200.414C-17.5914 159.764 -13.4474 118.745 -1.50002 79.6962C-0.717407 79.6962 -2.09808e-05 79.5658 0.717371 79.5006C11.1522 72.9136 22.3695 68.0223 33.913 63.9788L33.1956 63.8484L33.5217 63.4571C22.2391 67.4353 11.2174 72.1962 1.04346 78.5223C7.54583 73.4588 14.4863 68.9846 21.7826 65.1527C26.4782 62.6745 31.2391 60.0658 36.0652 57.7179C36.3108 57.3214 36.5947 56.9501 36.913 56.6092C31.6304 59.0875 26.5434 61.8918 21.4565 64.5658C15.3629 67.7973 9.52042 71.4816 3.97824 75.5875C14.6739 65.9353 27 58.2397 39.5869 51.131C39.6675 50.9001 39.7115 50.6581 39.7174 50.4136L39.6522 50.3484Z" fill="#A2A6E2"/>
<path d="M24.848 12.8474C23.8698 12.5866 23.6089 11.9996 24.0002 11.217C24.0747 11.0295 24.1187 10.8314 24.1306 10.63C24.2039 10.4649 24.248 10.2884 24.2611 10.1083C24.3366 9.78727 24.3803 9.4596 24.3915 9.13002C24.4385 9.02794 24.4608 8.91624 24.4567 8.80394C24.4781 7.31898 24.3689 5.83503 24.1306 4.36916C24.1248 4.31829 24.1071 4.2695 24.0789 4.22675C24.0508 4.18401 24.0129 4.14849 23.9685 4.12309C23.924 4.09769 23.8742 4.08311 23.8231 4.08054C23.7719 4.07796 23.7209 4.08747 23.6741 4.10828C23.2433 4.41768 22.7558 4.63928 22.2393 4.76046C22.652 3.20935 22.8063 1.60084 22.6959 -0.000419617C22.6959 -0.130856 22.6306 -0.261286 22.5002 -0.261286H21.7828V-0.39172L22.3698 -4.4352C22.3698 -4.69607 22.1089 -4.95694 21.848 -4.82651C20.348 -3.71781 20.5437 -7.0439 20.4785 -7.43521C20.4133 -7.82651 20.4133 -7.7613 20.348 -7.95695L20.1524 -8.41347C20.0872 -8.5439 20.022 -8.54391 19.8915 -8.60912L19.5654 -8.47869L19.3046 -8.28304C19.0437 -9.32652 18.848 -10.4352 18.0002 -11.1526C17.1524 -11.87 17.6089 -11.2178 17.0872 -11.6743L16.9567 -11.8048C16.5654 -12.1961 16.6306 -12.2613 16.5654 -12.8483C16.5993 -13.3978 16.4626 -13.9445 16.1741 -14.4135C16.1484 -14.4477 16.1162 -14.4766 16.0794 -14.4984C16.0426 -14.5202 16.0018 -14.5346 15.9594 -14.5406C15.917 -14.5467 15.8738 -14.5443 15.8323 -14.5337C15.7908 -14.5231 15.7519 -14.5044 15.7176 -14.4787C15.3263 -14.283 14.4785 -13.5656 14.2828 -13.8265C14.0872 -14.0874 14.2176 -14.4135 14.2176 -14.4787C14.0902 -14.8395 13.8349 -15.1411 13.5002 -15.3265C13.2638 -15.4625 12.9981 -15.5394 12.7256 -15.5507C12.4531 -15.5621 12.1819 -15.5075 11.935 -15.3917L11.0219 -14.6743L10.8915 -14.4787C10.7469 -15.4789 10.4384 -16.4484 9.97849 -17.3483C9.97105 -17.3978 9.94953 -17.4441 9.91649 -17.4817C9.88346 -17.5193 9.84031 -17.5466 9.79218 -17.5603C9.74405 -17.5741 9.69299 -17.5737 9.64508 -17.5592C9.59716 -17.5447 9.55442 -17.5168 9.52196 -17.4787H9.45674C9.22957 -17.1862 8.96667 -16.9233 8.67414 -16.6961C8.62548 -17.0736 8.53805 -17.4452 8.41326 -17.8048C8.30089 -18.148 8.14762 -18.4765 7.95675 -18.783C7.80822 -18.994 7.61354 -19.1682 7.38751 -19.2925C7.16148 -19.4168 6.91006 -19.488 6.6524 -19.5004C6.00023 -19.5004 6.13066 -19.1744 5.60892 -19.0439C5.08718 -18.9135 4.95673 -18.3917 4.17413 -19.1743L4.0437 -19.4352L3.91326 -19.5657L3.45675 -20.0874L3.19586 -20.283C3.06543 -20.4135 2.86979 -20.283 2.73935 -20.1526C2.60892 -20.0222 2.28283 -19.1744 1.76109 -19.37L1.50023 -19.5657C1.375 -19.7176 1.2858 -19.896 1.23934 -20.0874V-20.2178C1.1286 -20.3868 0.98489 -20.5317 0.816788 -20.6438C0.648682 -20.7558 0.459656 -20.8328 0.261082 -20.87C-0.521526 -20.87 -1.2389 -20.0222 -1.76064 -19.3048L-2.80412 -21.1961C-2.8554 -21.2649 -2.92785 -21.3149 -3.01034 -21.3385C-3.09282 -21.362 -3.18078 -21.3578 -3.26065 -21.3265C-3.56594 -21.1073 -3.81237 -20.8161 -3.97805 -20.4787C-4.30413 -20.0874 -3.91283 -19.37 -4.89109 -19.5657H-5.21717C-5.34761 -19.5657 -5.41283 -19.6961 -5.54326 -19.7613C-5.6737 -19.8265 -5.67369 -19.957 -5.73891 -19.957C-5.80412 -19.957 -6.8476 -20.2178 -7.43456 -19.7613C-8.02152 -19.3048 -7.2389 -18.9787 -8.60847 -19.0439C-8.80412 -19.0439 -9.13021 -19.3048 -9.39108 -19.37C-9.63309 -19.4584 -9.89017 -19.4982 -10.1476 -19.487C-10.405 -19.4758 -10.6577 -19.4139 -10.8911 -19.3048C-11.1665 -19.2017 -11.4089 -19.026 -11.5925 -18.7964C-11.7762 -18.5668 -11.8944 -18.2917 -11.9346 -18.0004C-13.1085 -18.783 -14.2824 -18.9787 -15.065 -17.4787C-15.8476 -15.9787 -14.8041 -17.0222 -15.7172 -16.8917H-16.1085C-16.3335 -16.9053 -16.5582 -16.8604 -16.7606 -16.7613H-16.8911C-17.6267 -16.3436 -18.1836 -15.6707 -18.4563 -14.87C-18.9128 -15.1309 -19.3693 -15.1961 -19.6954 -14.6091C-20.0215 -14.0222 -19.9563 -12.7178 -19.9563 -12.0004L-20.0867 -8.93521C-20.7985 -10.2419 -21.6514 -11.4667 -22.6302 -12.5874C-22.6654 -12.6246 -22.7088 -12.653 -22.757 -12.6703C-22.8052 -12.6876 -22.8568 -12.6933 -22.9076 -12.6869C-22.9584 -12.6806 -23.007 -12.6623 -23.0495 -12.6337C-23.0919 -12.6051 -23.127 -12.5669 -23.152 -12.5222C-23.5433 -11.8048 -23.478 -10.8917 -23.7389 -10.1743C-23.7602 -10.0623 -23.8057 -9.95625 -23.8722 -9.86363C-23.9387 -9.771 -24.0247 -9.69405 -24.1241 -9.63814C-24.2235 -9.58222 -24.3339 -9.54871 -24.4476 -9.53995C-24.5614 -9.53118 -24.6756 -9.54737 -24.7824 -9.58739H-25.4998L-26.0867 -9.39173C-26.4128 -9.13086 -26.3476 -8.86999 -26.4128 -8.5439C-26.478 -8.21781 -26.6737 -6.91346 -26.7389 -6.06564C-27.3259 -6.52216 -28.1737 -7.0439 -28.7607 -6.91346H-28.8911C-29.1476 -6.74691 -29.3334 -6.4914 -29.4128 -6.19608C-29.5333 -5.55061 -29.5987 -4.89609 -29.6085 -4.23956C-29.8693 -3.32651 -30.1954 -3.19607 -31.0433 -3.00042C-31.4894 -2.90797 -31.8848 -2.6521 -32.1519 -2.28303C-32.4164 -1.98414 -32.5831 -1.61154 -32.6297 -1.2152C-32.6764 -0.818855 -32.6007 -0.41773 -32.4128 -0.0656319C-32.8288 0.0158539 -33.2138 0.21154 -33.5248 0.499508C-33.8358 0.787476 -34.0605 1.15635 -34.1737 1.5648C-34.2913 2.06592 -34.2456 2.59152 -34.0432 3.06481L-34.565 3.32567C-35.478 3.97785 -35.2824 5.41263 -34.8259 6.58655C-35.2567 6.61047 -35.6782 6.7214 -36.065 6.91263C-36.1285 6.95284 -36.1762 7.01374 -36.1999 7.08504C-36.2237 7.15635 -36.2221 7.23368 -36.1954 7.30394L-35.0215 11.6083C-35.4469 11.7328 -35.8216 11.9896 -36.0913 12.3414C-36.361 12.6932 -36.5117 13.1217 -36.5215 13.5648C-36.5148 14.5083 -36.3151 15.4405 -35.9346 16.3039H-36.1954C-36.7637 16.3881 -37.3144 16.5643 -37.8259 16.8257C-37.8874 16.8825 -37.9321 16.9551 -37.9551 17.0357C-37.9781 17.1162 -37.9785 17.2015 -37.9563 17.2822C-37.2359 18.4735 -36.6038 19.716 -36.065 20.9996H-36.6519C-36.8476 20.9996 -36.978 21.1953 -36.9128 21.4561C-36.8443 22.0126 -36.713 22.5596 -36.5215 23.0866L-37.1085 23.2822C-37.1558 23.3033 -37.1985 23.3337 -37.234 23.3714C-37.2695 23.4092 -37.2972 23.4536 -37.3154 23.5022C-37.3336 23.5507 -37.342 23.6024 -37.3401 23.6542C-37.3381 23.706 -37.3259 23.7569 -37.3041 23.804C-35.9928 26.1409 -34.556 28.4051 -32.9998 30.5866L-32.8041 30.717C-31.6302 32.6735 -30.3911 34.5648 -29.0867 36.3909L-29.478 36.13L-31.4998 34.6953L-33.4563 33.3257C-33.7172 33.1301 -34.1085 33.5214 -33.9128 33.7822C-29.0867 40.8909 -23.2172 47.4779 -15.2606 51.1301L-14.8693 51.2605L-14.2172 51.5866H-13.3693L-11.152 50.804L-9.32586 50.217L-8.60847 50.0214L-7.95629 49.8257L-5.80413 48.9779L-5.15195 48.7822L-3.71716 48.1953L-2.28239 47.6735L-1.63022 47.3475C-0.601067 46.9577 0.401131 46.5002 1.36979 45.9779L2.1524 45.5866L4.7611 44.1518L5.67414 43.5649L7.04371 42.717C8.66714 41.676 10.2145 40.5209 11.6741 39.2605L13.2394 37.8257C16.7578 34.5573 19.6721 30.6937 21.848 26.4127C21.8869 26.3395 21.9016 26.2558 21.8898 26.1738C21.8781 26.0917 21.8406 26.0155 21.7828 25.9561C21.7264 25.9138 21.6577 25.8909 21.5872 25.8909C21.5166 25.8909 21.448 25.9138 21.3915 25.9561L20.8046 26.217H20.2176C20.8006 25.4084 21.3237 24.5583 21.7828 23.6735L22.1741 22.8257C22.4907 22.1972 22.7525 21.5426 22.9567 20.8692C22.9537 20.8338 22.958 20.7983 22.9692 20.7646C22.9804 20.731 22.9984 20.7 23.022 20.6735C23.0318 20.6256 23.0306 20.5761 23.0187 20.5286C23.0068 20.4812 22.9843 20.4371 22.953 20.3995C22.9217 20.3619 22.8823 20.3318 22.8378 20.3116C22.7933 20.2913 22.7448 20.2812 22.6959 20.2822H22.2393C23.4272 17.9789 24.4726 15.6048 25.3698 13.1735C25.5002 12.9126 25.1089 12.717 24.848 12.8474Z" fill="#A2A6E2"/>
<path d="M22.6307 11.6088C19.3046 16.3044 15.7829 20.8697 12.0002 25.3044C8.21764 29.7392 4.76113 33.5871 0.848087 37.5001C-3.06496 41.4131 -6.13019 44.8045 -10.1737 47.674C-2.28236 40.1088 3.84809 30.9784 9.65244 21.7827C14.1524 14.5436 18.6524 7.30442 22.5002 -0.260809H21.7829V-0.391241C18.0002 7.04355 13.5655 14.2175 9.06546 21.3262C3.71764 29.8697 -1.89104 38.2827 -8.93452 45.4566C-7.63017 43.761 -6.32583 42.0653 -5.0867 40.3045C-2.15192 36.1958 0.5872 31.8914 3.1959 27.4566C8.34407 18.4862 12.9819 9.23231 17.0872 -0.260809C18.1959 -2.80429 19.2394 -5.34777 20.3481 -7.95647L20.1524 -8.41299C20.0872 -8.54343 20.022 -8.54343 19.8916 -8.60865C15.9785 0.717451 11.8698 9.91312 7.17416 18.8479C4.23938 24.4566 1.10894 29.8697 -2.34758 35.1523C-4.10845 37.761 -5.86931 40.3045 -7.76061 42.8479C-8.60844 44.0219 -9.52149 45.3262 -10.4998 46.5001C-0.73724 30.1937 7.57719 13.0629 14.3481 -4.6956C15.2611 -7.10864 16.1089 -9.45647 16.9568 -11.8043C16.5655 -12.1956 16.6307 -12.2608 16.5655 -12.8478C10.8073 3.63503 3.71869 19.6225 -4.63019 34.9566L-8.8041 42.3262C0.913292 24.2609 6.65244 4.36963 11.935 -15.3913L11.022 -14.6739C5.41329 6.32615 -0.71714 27.3262 -11.6737 46.1088C-3.38052 28.5862 3.06722 10.2483 7.56547 -8.60865C8.28286 -11.5434 8.93504 -14.4782 9.52199 -17.4782H9.45677C9.2296 -17.1857 8.9667 -16.9228 8.67417 -16.6956C5.05204 0.655453 -0.210747 17.623 -7.04322 33.9784C-8.86931 38.4131 -10.8258 42.8479 -12.9128 47.1523C-10.4345 36.1958 -6.78235 25.5653 -3.52148 14.8696C-0.160374 3.63624 2.36822 -7.82961 4.04374 -19.4347L3.91329 -19.5652L3.45678 -20.0869C1.79489 -8.11444 -0.822151 3.70588 -4.3693 15.2609C-7.04322 24.0653 -9.91278 32.8697 -12.2606 41.7392C-10.8258 31.0436 -9.52148 20.2827 -6.78235 9.8479C-4.04322 -0.586897 -0.717133 -9.52169 1.76113 -19.3695L1.50026 -19.5652C1.37503 -19.7172 1.28583 -19.8955 1.23938 -20.0869C-1.23888 -10.0434 -4.82583 -0.326023 -7.43453 9.71747C-10.4997 21.4566 -11.8041 33.7175 -13.4345 45.7175C-14.1519 34.1088 -12.9128 22.2392 -11.7389 10.6957C-10.6954 0.391367 -8.93454 -9.97822 -4.95628 -19.5652H-5.28236C-5.4128 -19.5652 -5.47801 -19.6956 -5.60845 -19.7608C-9.45628 -10.4347 -11.2171 -0.456457 -12.2606 9.58703C-12.9128 15.7827 -13.4345 22.1088 -13.8258 28.3697C-14.2611 33.9455 -14.37 39.542 -14.1519 45.1306C-18.2123 24.7062 -18.8953 3.75416 -16.1737 -16.8913C-16.3987 -16.9049 -16.6234 -16.8599 -16.8258 -16.7608C-19.6355 4.72816 -18.7754 26.5382 -14.2824 47.7393C-14.3229 47.7696 -14.3557 47.809 -14.3784 47.8543C-14.401 47.8996 -14.4128 47.9495 -14.4128 48.0001C-14.441 48.1074 -14.4627 48.2163 -14.478 48.3262C-17.6736 39.261 -20.6084 30.1305 -22.1737 20.6088C-23.7389 11.087 -24.3258 0.521799 -24.7824 -9.58691H-25.4998C-25.0432 0.391365 -24.4563 10.3696 -22.8911 20.2175C-21.3258 30.0653 -18.2606 39.6523 -14.9345 49.1088C-20.0215 41.0219 -22.4997 31.761 -24.5867 22.5001C-25.8258 17.0218 -27.065 11.5436 -27.8476 6.00007C-28.3812 1.715 -28.686 -2.59547 -28.7606 -6.91299H-28.891C-29.1475 -6.74643 -29.3334 -6.49092 -29.4128 -6.1956C-29.3273 -2.27081 -29.0443 1.6472 -28.565 5.54354C-27.7823 11.3479 -26.478 17.0218 -25.2389 22.6957C-23.2171 31.8262 -20.7389 40.9566 -15.7823 48.9132L-16.4345 48.3914C-18.8648 45.5982 -20.9656 42.5345 -22.6954 39.261C-24.9482 34.7866 -26.8454 30.1418 -28.3693 25.3696C-30.8854 17.588 -32.8254 9.63172 -34.1737 1.56528C-34.2913 2.0664 -34.2456 2.592 -34.0432 3.06529L-34.565 3.32615C-33.141 11.2606 -31.1578 19.0845 -28.6302 26.7392C-27.0909 31.2444 -25.2609 35.6449 -23.1519 39.9132C-22.0664 41.9421 -20.8235 43.8829 -19.4345 45.7175C-20.9284 44.3647 -22.3438 42.9275 -23.6737 41.4131C-26.2955 38.3087 -28.3687 34.7798 -29.8041 30.9784C-32.2171 25.2392 -34.4345 19.4349 -36.5215 13.5653C-36.5148 14.5088 -36.3151 15.441 -35.9345 16.3044H-36.1954C-34.3041 21.7175 -32.2171 27.0653 -29.9997 32.2827C-28.7027 35.5319 -26.9217 38.5662 -24.7171 41.2827C-22.3214 44.0159 -19.7038 46.5462 -16.891 48.8479L-16.3693 49.5001C-21.3258 45.6523 -25.4997 40.9566 -29.478 36.1305L-31.4997 34.6958C-26.6084 40.6305 -21.5867 46.6305 -15.2606 51.1305L-14.8693 51.261C-16.1737 61.0436 -16.4345 70.9567 -16.6302 80.8045C-16.8258 92.2176 -17.0215 103.696 -17.0867 115.109C-17.2171 136.892 -16.7606 176.348 -16.4345 200.479C-16.4345 201.848 -16.3693 203.218 -16.3693 204.522H-15.065V200.479C-15.3911 176.805 -15.9128 137.739 -15.7823 116.413C-15.6519 104.935 -15.5215 93.5219 -15.3258 82.0436C-15.1302 71.8697 -14.9345 61.6306 -13.565 51.5219H-13.3693C-13.3693 51.4566 -13.3693 51.3914 -13.4345 51.3914L-12.6519 50.8045C-12.6136 50.8516 -12.5601 50.8839 -12.5006 50.8958C-12.4411 50.9077 -12.3793 50.8984 -12.3258 50.8697C-3.97801 48.0653 3.00025 42.5219 9.78286 36.9784C14.0124 33.5859 18.0206 29.9262 21.7829 26.0218C21.7264 25.9795 21.6578 25.9566 21.5872 25.9566C21.5167 25.9566 21.448 25.9795 21.3916 26.0218L20.5437 26.3479C17.1239 29.8323 13.5094 33.1202 9.71764 36.1958C3.32633 41.4784 -3.32584 46.761 -11.1519 49.761C0.848072 41.0219 12.9133 31.9566 22.9568 21.0001C22.9538 20.9648 22.958 20.9292 22.9692 20.8955C22.9804 20.8619 22.9984 20.8309 23.022 20.8044C23.0318 20.7565 23.0307 20.707 23.0187 20.6596C23.0068 20.6121 22.9843 20.568 22.953 20.5304C22.9217 20.4928 22.8823 20.4628 22.8378 20.4425C22.7933 20.4222 22.7448 20.4121 22.6959 20.4131H22.6307C14.2829 29.5436 4.56548 37.3044 -5.34756 44.674C-3.06496 42.5871 -0.978004 40.3697 1.10895 38.2827C5.19591 34.1523 9.10895 29.8479 12.8481 25.3696C16.5003 21.0653 19.9568 16.6305 23.2176 12.0001C23.5437 11.5809 23.8484 11.1455 24.1307 10.6957C24.2039 10.5306 24.2481 10.3541 24.2611 10.174C24.3366 9.85297 24.3803 9.5253 24.3915 9.19572L22.6307 11.6088Z" fill="#BEBAF7"/>
<path d="M126.326 133.564C126.122 133.56 125.92 133.602 125.734 133.686C125.548 133.771 125.384 133.896 125.253 134.052C125.121 134.208 125.027 134.392 124.975 134.59C124.924 134.787 124.918 134.994 124.957 135.194C125.218 136.303 128.544 147.651 130.696 148.042C132.848 148.433 134.218 147.129 136.565 146.151C138.913 145.172 143.283 143.151 145.044 142.107C146.805 141.064 150.131 139.955 151.37 139.172C152.609 138.39 156.979 135.781 157.826 131.738C158.674 127.694 163.957 100.694 163.565 99.3898C163.174 98.0854 157.044 96.5202 155.739 98.9985C154.435 101.477 150.913 113.672 150.131 116.868C149.348 120.064 146.413 124.107 146.413 124.107C146.413 124.107 136.37 129.585 133.5 130.89C130.631 132.194 128.283 133.172 126.326 133.564Z" fill="#003668"/>
<path d="M125.152 135.129C125.152 135.129 126.196 134.542 127.5 137.086C128.675 139.324 129.657 141.659 130.435 144.064C131.87 143.607 142.044 139.759 146.544 137.933C151.044 136.107 154.109 132.912 153.978 132.325C153.848 131.738 151.891 127.368 150.522 126.585C151.5 126.912 154.761 129.259 155.152 129.651C155.544 130.042 158.544 117.39 159.131 116.346C159.718 115.303 163.891 113.542 163.891 113.542C163.891 113.542 159 132.129 156.196 135.259C153.391 138.39 151.37 139.368 150.783 139.629C150.196 139.89 145.631 141.846 142.957 143.281C140.283 144.716 133.631 147.716 132.783 148.042C131.935 148.368 130.239 148.499 129.783 147.455C129.326 146.412 125.152 135.129 125.152 135.129Z" fill="#002A49"/>
<path d="M165.782 158.085C165.782 158.085 167.086 190.106 168.651 211.433C170.217 232.759 175.304 284.737 175.304 284.737C175.304 284.737 194.608 284.672 194.608 284.215C194.608 283.759 193.63 239.411 192.912 220.954C191.869 193.759 201.586 169.498 198.717 156.454C195.847 143.411 165.064 142.237 165.782 158.085Z" fill="#002A49"/>
<path d="M175.826 159.976C175.826 159.976 177.653 191.411 178.631 212.802C179.609 234.193 186 285.259 186 285.259C186 285.259 205.305 285.78 205.305 285.259C205.305 284.737 205.5 240.454 205.305 221.932C205.044 194.802 215.348 170.737 212.87 157.693C210.392 144.65 175.5 144.128 175.826 159.976Z" fill="#003668"/>
<path d="M124.238 136.564C124.238 136.564 124.238 135.325 124.956 135.194C125.673 135.064 126.912 137.216 128.086 140.02C129.26 142.825 130.499 147.194 129.847 147.455C129.195 147.716 127.303 146.281 126.195 143.477C125.086 140.672 124.63 139.89 124.238 136.564Z" fill="white"/>
<path d="M127.434 144.455C127.434 144.455 127.826 143.02 126.978 140.281C126.13 137.542 125.282 136.107 124.695 135.911C124.108 135.716 119.739 135.455 118.304 135.259C116.869 135.063 115.956 134.868 115.369 135.259C114.782 135.65 107.934 143.15 108.456 144.585C108.978 146.02 112.369 149.607 114.847 149.607C117.326 149.607 122.021 147.65 122.869 147.129L127.434 144.455Z" fill="#A86C54"/>
<path d="M153.587 90.2594C152.357 95.783 152.136 101.483 152.934 107.085C154.304 115.955 156.065 129.781 156.913 135.912C157.76 142.042 159.782 166.629 159.782 166.629C159.782 166.629 188.217 170.477 200.152 169.238C212.087 167.999 216.195 165.194 216.195 165.194C216.195 165.194 216.065 150.781 210.391 137.281C204.717 123.781 203.282 99.1289 201.717 92.542C200.152 85.955 194.739 71.4767 191.087 71.6724C187.434 71.8681 183.847 72.7159 180.652 71.1507C177.456 69.5854 167.673 78.8463 167.217 79.2376C166.76 79.6289 162.065 83.8029 160.5 84.9768C158.934 86.1507 153.847 89.2811 153.587 90.2594Z" fill="#003668"/>
<path d="M166.826 119.347C167.418 113.953 168.311 108.597 169.5 103.303C171.522 94.6944 178.044 79.5639 178.044 79.5639L176.022 78.2596L179.087 76.6944C180 76.0422 180.652 72.2596 180.587 70.89C180 70.6944 177.457 68.6074 177.457 68.6074C177.457 68.6074 164.152 81.39 162.783 82.6292C161.413 83.8683 159.196 91.6292 159.196 91.6292H160.435C160.435 91.6292 160.109 92.9335 159.457 93.1292C157.761 103.303 158.805 116.934 158.805 116.934C158.805 120.912 158.479 155.347 158.479 163.173C158.479 170.999 158.478 175.303 159.522 176.086C160.565 176.868 162.587 176.803 168 175.238C173.413 173.673 175.892 166.629 175.892 166.238C175.892 165.847 166.957 133.303 166.826 119.347Z" fill="#002A49"/>
<path d="M177.196 68.8677L176.348 67.8242C176.348 67.8242 163.239 77.0199 162.066 79.6938L160.957 82.3025L162.131 88.6286C162.131 88.6286 160.044 101.281 159.587 110.868C159.131 120.455 159.587 123.585 160.957 128.346C162.326 133.107 164.544 140.346 165.783 142.368C167.022 144.39 168.196 144.129 169.957 144.063C171.718 143.998 174.522 142.368 174.522 142.368C174.522 142.368 168.326 129.585 166.957 122.15C165.587 114.716 167.935 92.4764 169.696 85.0416C171.457 77.6068 177.196 68.8677 177.196 68.8677Z" fill="white"/>
<path d="M159.979 75.1282C159.979 75.1282 163.826 82.2369 164.348 84.976C165.343 85.8218 166.388 86.6059 167.479 87.3238C167.731 86.9072 167.887 86.4392 167.935 85.9543C167.626 84.9754 167.256 84.017 166.826 83.0847C166.826 83.0847 170.087 73.8891 176.087 68.0195C175.696 67.0412 174.392 65.0195 174.131 62.9325C173.87 60.8456 172.761 49.4977 165.261 51.5195C157.761 53.5412 156.392 65.4108 159.979 75.1282Z" fill="#A86C54"/>
<path d="M163.108 81.4547C163.108 81.4547 167.282 73.0417 167.478 65.7373C165.539 69.5378 163.269 73.1605 160.695 76.5634L163.108 81.4547Z" fill="#885541"/>
<path d="M169.499 62.8025C169.499 62.8025 166.238 73.0417 163.238 75.3895C161.043 77.0715 158.505 78.2513 155.804 78.846C154.369 79.1721 152.151 78.5851 152.151 76.8895C152.151 75.1938 152.086 74.4112 152.151 73.9547C152.217 73.4982 150.586 71.1504 150.325 70.4982C150.155 70 149.936 69.5195 149.673 69.0634C149.673 69.0634 148.238 69.5199 147.456 68.933C146.673 68.346 146.869 67.3025 147.717 65.7373C148.564 64.1721 148.695 63.9764 148.304 61.7591C147.932 59.6704 147.735 57.5543 147.717 55.433C147.782 53.6721 147.651 52.3025 147.717 51.3243C147.782 50.346 148.76 46.3025 158.543 45.7808C168.325 45.259 169.956 56.8025 169.499 62.8025Z" fill="#A86C54"/>
<path d="M145.631 48.5854C145.678 49.3719 145.765 50.1556 145.892 50.9333C146.153 52.7594 147.327 54.9115 147.718 55.1072C148.109 55.3028 153.913 53.1507 155.544 53.2811C155.865 54.0648 156.235 54.8272 156.653 55.5637C157.566 57.1941 158.087 57.1941 158.413 57.1941L160.305 57.3898C161.432 58.6748 162.078 60.3117 162.131 62.0202C162.729 62.0463 163.327 61.9578 163.892 61.7594C163.892 61.7594 164.74 58.8246 164.74 58.6289C166.16 59.8356 167.47 61.167 168.653 62.6072C169.957 64.1724 171.457 65.6724 172.044 65.3463C172.754 64.824 173.584 64.4877 174.457 64.3681C174.457 64.3681 174.392 60.455 174.913 58.6941C175.744 55.526 175.987 52.2325 175.631 48.9767C175.109 44.6724 171.653 42.1289 163.892 42.1289C153.457 42.1289 145.631 47.1506 145.631 48.5854Z" fill="#002A49"/>
<path d="M148.76 59.4112C148.499 59.5416 148.434 60.3243 148.76 60.4547C149.086 60.5851 150.39 60.0634 151.369 59.8677C152.304 59.6212 153.278 59.5548 154.238 59.6721C154.76 59.7373 153.586 59.0199 152.803 58.8243C151.428 58.7119 150.046 58.9126 148.76 59.4112Z" fill="#003668"/>
<path d="M153.26 61.3682L152.934 62.0203C152.934 62.0203 151.304 63.2595 150.978 63.5855C150.652 63.9116 150.391 61.7595 150.391 61.629C150.391 61.4986 153.26 61.3682 153.26 61.3682Z" fill="white"/>
<path d="M151.043 61.6289C151.043 61.6289 151.369 63.1293 150.978 63.325C150.586 63.5207 150.391 61.7594 150.391 61.7594L151.043 61.6289Z" fill="#003668"/>
<path d="M149.609 69.0639C149.609 69.0639 150.131 68.9335 150.262 68.5422C150.392 68.1509 151.892 68.6074 152.153 67.6943C152.022 69.0639 150.196 70.1074 150.196 70.1074L149.609 69.0639Z" fill="#885541"/>
<path d="M150.912 71.7375L151.564 73.1723C151.564 73.1723 153.129 72.3245 153.39 71.8027C153.651 71.281 154.173 70.3027 154.173 70.3027L150.912 71.7375Z" fill="white"/>
<path d="M153.912 69.0632C153.912 69.0632 156 68.8022 155.478 71.0202C155.436 70.5769 155.266 70.1554 154.987 69.8077C154.709 69.46 154.335 69.2012 153.912 69.0632Z" fill="#885541"/>
<path d="M184.825 98.346C184.825 98.346 187.434 120.39 187.042 123.455C186.651 126.52 178.107 168.846 178.107 168.846C178.107 168.846 199.042 172.107 213.39 166.629C214.392 166.296 215.338 165.812 216.194 165.194C216.079 161.569 215.752 157.954 215.216 154.368C214.254 147.646 212.321 141.099 209.477 134.933C207.586 128.607 200.216 95.5416 199.825 94.5634C199.434 93.5851 184.76 90.4547 184.825 98.346Z" fill="#002A49"/>
<path d="M164.805 136.238C164.805 136.238 167.935 121.107 173.87 100.303C179.805 79.4984 184.109 71.7375 187.696 71.4766C191.283 71.2157 195.066 74.3462 198.261 87.3897C201.457 100.433 208.631 137.411 208.631 137.411H207.066C207.066 137.411 199.761 99.4549 197.087 87.9114C194.413 76.3679 191.674 71.4766 186.718 72.7157C181.761 73.9549 174.848 101.216 174.848 101.216C174.848 101.216 167.413 131.151 166.239 137.411C165.326 137.411 164.805 136.238 164.805 136.238Z" fill="#EE685F"/>
<path d="M153.262 61.3682C152.308 61.276 151.35 61.2325 150.392 61.2377L149.414 61.3682C149.414 61.3682 149.349 61.7595 150.001 61.8247C150.653 61.8899 153.262 61.3682 153.262 61.3682Z" fill="#003668"/>
<path d="M150.782 70.4983C150.391 70.4331 150.064 70.4983 150.064 71.02C150.064 71.5418 150.521 71.8679 151.108 71.7374C151.695 71.607 153.391 71.2157 154.108 70.3679C153.606 71.404 152.782 72.2503 151.76 72.7809C150.521 73.3679 150.912 74.0853 151.369 74.4113C151.825 74.7374 152.673 74.4766 153.325 73.3026C153.803 72.2444 154.132 71.1251 154.304 69.9766C153.184 70.4121 151.98 70.5904 150.782 70.4983Z" fill="#885541"/>
<path d="M164.478 140.738C164.478 140.738 163.957 143.607 163.37 149.412C162.783 155.216 163.109 170.868 163.957 173.086C164.805 175.303 164.739 176.151 168.326 176.281C171.913 176.412 200.283 175.955 204.522 175.564C208.761 175.173 210.848 175.173 211.174 172.433C211.5 169.694 212.152 149.999 211.761 146.477C211.37 142.955 210.978 139.694 208.174 139.564C205.37 139.433 171.587 139.76 168.848 140.02C166.109 140.281 164.674 139.694 164.478 140.738Z" fill="#EE685F"/>
<path d="M164.609 140.412C163.174 139.955 162 141.977 161.739 147.455C161.478 152.934 161.152 169.695 161.739 172.042C162.326 174.39 161.739 176.412 166.63 176.086C166.043 175.955 165 174.716 165.065 172.434C165.13 170.151 165.326 151.042 165.456 147.195C165.587 143.347 165.913 140.868 164.609 140.412Z" fill="#CD5B51"/>
<path d="M205.5 139.825C205.883 138.56 206.341 137.319 206.87 136.107C207.261 135.651 208.565 135.586 208.826 136.107C209.087 136.629 210.457 140.151 210.261 140.607C210.065 141.064 205.5 139.825 205.5 139.825Z" fill="#CD5B51"/>
<path d="M163.369 140.737C163.434 140.346 164.347 136.498 164.804 136.237C165.089 136.082 165.412 136.011 165.736 136.035C166.06 136.058 166.37 136.173 166.63 136.367C166.891 136.759 167.739 140.215 167.543 140.346C167.347 140.476 163.369 140.737 163.369 140.737Z" fill="#CD5B51"/>
<path d="M163.174 142.434C163.174 142.434 164.413 142.956 164.283 147.847C164.152 152.738 163.5 161.282 165.978 161.738C168.456 162.195 190.891 162.847 197.739 162.912C204.587 162.978 211.435 162.912 211.891 160.043C212.348 157.173 212.804 148.369 211.5 144.325C210.196 140.282 207.065 141.195 196.63 141.325C186.196 141.456 163.696 141.26 163.174 142.434Z" fill="#CD5B51"/>
<path d="M164.021 140.346C164.021 140.346 165.195 140.868 165.13 145.759C165.065 150.651 164.348 159.194 166.761 159.651C169.174 160.107 191.282 160.759 198 160.824C204.717 160.89 211.435 160.824 211.891 157.955C212.348 155.085 212.804 146.281 211.5 142.237C210.195 138.194 207.195 139.107 196.891 139.237C186.587 139.368 164.543 139.172 164.021 140.346Z" fill="#EE685F"/>
<path d="M184.76 159.325C184.76 159.325 183.325 162.716 182.282 163.173C180.899 163.731 179.637 164.55 178.565 165.586C177.514 166.666 176.33 167.608 175.043 168.39C173.999 169.043 173.021 169.369 173.673 170.282C174.325 171.195 178.108 170.999 179.282 169.369C178.559 170.621 178.156 172.032 178.108 173.477C177.978 174.651 177.978 176.869 179.608 177.064C179.918 177.114 180.236 177.065 180.517 176.925C180.797 176.785 181.027 176.56 181.173 176.282C181.235 176.691 181.438 177.066 181.748 177.34C182.058 177.615 182.455 177.771 182.869 177.782C184.304 177.847 184.695 177.325 185.021 176.282C185.002 176.478 185.026 176.676 185.09 176.862C185.155 177.048 185.258 177.218 185.395 177.361C185.531 177.503 185.696 177.614 185.879 177.687C186.062 177.76 186.259 177.792 186.456 177.782C187.565 177.717 188.412 177.39 188.608 176.608C188.804 177.13 188.999 177.782 189.978 177.782C190.956 177.782 191.869 177.586 191.999 176.282C192.217 174.467 192.678 172.691 193.369 170.999C193.956 169.564 194.478 168.586 194.478 166.825C194.478 165.064 194.934 161.803 194.934 161.803L184.76 159.325Z" fill="#A86C54"/>
<path d="M174.064 168.977C174.064 168.977 174.13 169.369 174.847 169.173C175.543 168.907 176.168 168.482 176.673 167.934C176.804 167.608 176.412 167.412 176.412 167.412C175.575 167.846 174.787 168.371 174.064 168.977Z" fill="#B77D69"/>
<path d="M163.826 62.3464C164.152 61.3681 163.63 59.8681 163.761 58.3029C163.891 56.7377 166.435 55.6942 168.065 57.1942C169.696 58.6942 168.196 63.1942 167.087 64.2377C165.978 65.2811 165.326 65.542 164.413 65.2159C163.5 64.8898 163.37 64.042 163.826 62.3464Z" fill="#A86C54"/>
<path d="M164.934 59.9332C164.665 59.387 164.596 58.7641 164.738 58.1723C165.064 57.4549 166.564 57.1941 167.282 57.8462C167.999 58.4984 167.803 60.5202 166.89 61.7593C165.977 62.9984 165.13 62.3462 165.13 63.5854C164.999 62.9332 164.803 62.9332 164.869 62.3463C164.934 61.7593 165.521 61.8245 165.977 61.4332C166.434 61.0419 165.716 60.7158 165.456 60.5202C165.195 60.3245 166.956 59.7375 166.173 58.6941C165.39 57.6506 164.869 59.4767 164.934 59.9332Z" fill="#885541"/>
<path d="M186.912 161.737C186.912 161.737 191.412 163.889 192.977 164.737C192.52 166.498 191.151 171.194 190.694 173.607C190.238 176.02 189.325 176.216 188.607 176.15C187.89 176.085 185.347 176.933 185.02 175.629C184.564 176.02 181.499 176.998 181.173 175.563C180.52 176.02 178.564 177.063 178.107 175.237C178.107 176.216 178.89 177.194 179.738 177.129C180.019 177.143 180.298 177.084 180.55 176.959C180.801 176.833 181.016 176.644 181.173 176.411C181.263 176.825 181.495 177.195 181.828 177.456C182.161 177.718 182.575 177.856 182.999 177.846C184.238 177.781 184.629 177.65 184.955 176.607C185.02 177.129 185.477 177.911 186.781 177.846C188.086 177.781 188.607 177.129 188.607 176.868C188.714 177.219 188.945 177.519 189.257 177.711C189.57 177.904 189.942 177.975 190.303 177.911C191.542 177.911 191.934 177.063 192.064 176.15C192.302 174.403 192.762 172.694 193.434 171.063C194.151 169.303 195.064 167.281 194.934 165.324C194.803 163.368 194.934 163.303 194.934 163.303L186.912 161.737Z" fill="#885541"/>
<path d="M173.674 170.282C173.674 170.282 176.283 170.673 177.717 170.021C178.773 169.36 179.665 168.468 180.326 167.412L179.152 169.564C179.152 169.564 178.696 170.412 176.935 170.738C175.174 171.064 174.196 170.869 173.674 170.282Z" fill="#885541"/>
<path d="M184.109 158.02C183.85 158.746 183.632 159.487 183.457 160.238C185.19 161.123 187.002 161.844 188.87 162.39C192.196 163.368 195.848 164.02 196.37 163.825C196.892 163.629 197.218 161.803 197.414 160.955C197.609 160.107 184.501 157.694 184.109 158.02Z" fill="white"/>
<path d="M184.5 153.52C184.5 153.52 183.978 156.586 183.848 157.238C183.717 157.89 183.587 158.542 185.413 159.194C187.239 159.847 194.869 161.803 197.217 161.738C199.565 161.673 200.087 161.933 200.478 160.629C200.869 159.325 203.869 147.651 204.456 143.347C205.043 139.042 207.065 124.499 207.13 116.999C207.195 109.499 205.956 97.7595 203.608 89.2812C201.261 80.8029 199.5 70.629 189.456 71.8029C184.826 72.3899 182.413 81.5856 183.913 92.9334C184.923 99.9877 186.515 106.946 188.674 113.738C188.674 113.738 189.652 122.868 189.065 127.89C188.478 132.912 185.087 149.803 184.5 153.52Z" fill="#003668"/>
<path d="M194.936 161.477C199.696 162.259 200.414 161.542 200.805 160.238C201.196 158.933 203.74 148.955 204.392 144.846C205.044 140.738 205.892 134.151 206.479 128.412C207.066 122.672 207.457 116.607 207.131 111.716C206.774 106.139 206.099 100.586 205.109 95.0855C204.262 91.1725 201.849 81.129 199.696 77.542C201.131 82.3029 202.957 93.5855 203.675 107.216C203.826 113.81 203.608 120.407 203.023 126.977C202.957 128.151 196.696 127.759 196.696 127.759L202.827 129.325C202.044 136.238 200.023 145.564 199.24 149.281C198.354 153.52 196.907 157.621 194.936 161.477Z" fill="#002A49"/>
<path d="M200.021 155.607C200.453 155.607 200.804 155.256 200.804 154.824C200.804 154.391 200.453 154.041 200.021 154.041C199.589 154.041 199.238 154.391 199.238 154.824C199.238 155.256 199.589 155.607 200.021 155.607Z" fill="#003668"/>
<path d="M126.913 139.89C126.988 140.65 126.794 141.412 126.365 142.043C125.936 142.675 125.299 143.136 124.565 143.346L118.695 145.433L122.478 147.324L127.5 144.455C127.626 142.909 127.426 141.354 126.913 139.89Z" fill="#885541"/>
<path d="M80.9972 87.5869C82.4764 88.6936 84.073 89.634 85.758 90.3913C88.6276 91.6956 91.758 94.1087 92.1494 98.5434C92.5407 102.978 94.1059 121.174 93.9754 124.761C93.845 128.348 94.758 132.196 95.2798 134.217C95.8015 136.239 96.0624 137.413 96.258 138.261C96.4537 139.109 96.6493 139.5 96.258 139.761C93.0095 140.699 89.6962 141.397 86.345 141.848C84.1276 141.978 82.5624 131.804 82.0407 129.848C81.5189 127.891 79.3015 115.435 78.7146 106.63C78.1276 97.826 79.1059 90.2608 80.9972 87.5869Z" fill="white"/>
<path d="M104.02 179.087C104.412 176.022 99.8465 161.022 98.7378 154.892C97.6291 148.761 95.6073 139.37 95.6073 139.37C92.3473 139.054 89.0734 139.81 86.2812 141.522C86.6073 145.566 93.9769 159.783 95.4117 169.566C95.6726 171.326 94.303 174.131 95.4117 177.979C95.6073 179.283 94.4986 180.196 94.5638 180.848C94.6291 181.5 100.825 182.87 102.52 182.022C104.216 181.174 103.76 180.913 104.02 179.087Z" fill="#E09577"/>
<path d="M109.367 159L78.7148 159.978C78.7148 159.978 79.4974 180.717 79.5627 181.109C79.6279 181.5 79.5627 183.196 81.7148 183.196L107.541 182.739C109.041 182.739 110.28 182.348 110.345 180.587C110.41 178.826 109.693 162.13 109.367 159Z" fill="#00F8F6"/>
<path d="M107.738 159.521L77.0859 160.5C77.0859 160.5 77.8685 181.043 77.9338 181.369C77.999 181.695 77.9338 183.521 80.0859 183.521L106.434 182.804C107.934 182.804 108.651 182.674 108.782 180.848C108.912 179.022 108.064 162.652 107.738 159.521Z" fill="#02C1B7"/>
<path d="M95.2812 181.891C95.2812 181.891 95.3464 179.804 94.2377 179.804C93.129 179.804 92.8682 182.152 92.7377 182.804C92.6073 183.456 93.6508 184.369 94.3029 184.369C94.9551 184.369 96.3247 183.456 96.716 182.934C96.553 182.962 96.3861 182.957 96.2251 182.919C96.0642 182.882 95.9124 182.812 95.7787 182.715C95.645 182.618 95.5321 182.495 95.4466 182.353C95.3612 182.211 95.3049 182.054 95.2812 181.891Z" fill="#B77B65"/>
<path d="M93.9112 180C93.6826 180.419 93.4863 180.855 93.324 181.304C93.1936 181.826 94.433 182.218 94.694 181.565C94.9549 180.913 94.8897 179.478 93.9112 180Z" fill="#E09577"/>
<path d="M96.5858 179.544C96.064 179.544 95.2814 180.327 95.151 181.761C95.0205 183.196 95.6075 184.24 96.4553 184.566C97.3031 184.892 98.7379 183.979 99.3901 183H97.8901C97.8901 183 98.2814 179.674 96.5858 179.544Z" fill="#B77B65"/>
<path d="M96.521 179.674C95.9991 179.739 95.8034 180.522 95.6729 181.5C95.5424 182.479 97.3038 182.022 97.369 181.239C97.4343 180.457 97.1733 179.674 96.521 179.674Z" fill="#E09577"/>
<path d="M99.9107 181.435C99.9759 181.37 99.8454 179.805 98.8019 179.935C97.7585 180.066 97.5628 181.501 97.4324 182.675C97.3019 183.848 98.4106 184.305 99.3889 184.501C99.9768 184.55 100.566 184.428 101.087 184.151C101.608 183.873 102.037 183.451 102.324 182.935H100.172L99.9107 181.435Z" fill="#B77B65"/>
<path d="M98.6729 180.392C98.6729 180.392 98.0858 180.457 97.9553 181.435C97.8248 182.414 99.3252 182.218 99.4557 181.827C99.5862 181.435 99.6514 180.392 98.6729 180.392Z" fill="#E09577"/>
<path d="M104.541 182.869H102.715C102.715 182.869 102.194 180.391 100.694 180.456C99.1935 180.522 99.65 182.543 100.041 183.195C100.309 183.637 100.696 183.993 101.158 184.224C101.619 184.455 102.136 184.55 102.65 184.5C103.889 184.435 105.454 182.869 105.454 182.869H104.541Z" fill="#B77B65"/>
<path d="M99.9106 181.304C100.369 181.192 100.852 181.238 101.281 181.435C101.391 181.543 101.463 181.684 101.487 181.837C101.51 181.99 101.484 182.146 101.411 182.283C101.281 182.479 99.9759 182.609 99.8454 182.348C99.7686 182.001 99.7913 181.639 99.9106 181.304Z" fill="#E09577"/>
<path d="M63.5849 159.131C63.5849 159.131 80.0849 153.979 85.6284 156.914C91.1719 159.848 93.1936 161.74 93.5197 165.587C93.8458 169.435 95.5415 207.587 94.6936 225.001C93.8458 242.414 92.1502 281.805 92.1502 281.805C86.756 282.847 81.2745 283.372 75.7806 283.37C75.7806 276.783 74.998 230.479 73.6936 216.327C72.3893 202.174 62.9328 185.283 63.5849 159.131Z" fill="#7451EB"/>
<path d="M62.086 171.13C62.086 171.13 70.173 200.609 71.5425 207.652C72.9121 214.696 73.4338 212.348 74.0208 230.283C74.6077 248.217 75.1947 283.37 75.1947 283.37C76.8229 283.52 78.4624 283.498 80.086 283.304C79.6947 273.065 78.7817 226.696 78.3251 214.5C77.8686 202.304 72.6512 174.587 72.6512 174.587C72.6512 174.587 79.4338 173.935 83.086 173.282C84.9121 172.695 89.2164 170.022 90.3903 169.63C91.5643 169.239 93.6512 166.695 93.6512 166.695V163.891C93.6512 163.891 79.1077 163.891 74.1512 163.63C69.1947 163.369 67.3686 163.435 65.1512 164.739C62.9338 166.043 61.0425 167.413 62.086 171.13Z" fill="#474BB4"/>
<path d="M76.1061 161.804C76.1061 161.804 76.367 177.521 70.1714 197.021C61.2366 225.064 44.0844 278.673 43.4322 280.564C42.7801 282.456 30.2583 278.021 26.2148 274.238C28.6931 266.412 40.3018 214.891 41.867 197.934C43.4322 180.977 43.7583 164.021 48.1931 155.999C52.6279 147.977 72.3235 151.76 76.1061 161.804Z" fill="#7451EB"/>
<path d="M75.5199 174.261C73.8109 174.664 72.043 174.752 70.3025 174.522C66.9764 174.131 60.5851 176.414 58.4329 177.848C53.9981 180.914 50.7373 188.674 50.4764 189.196C49.6286 191.414 47.5416 196.827 41.9329 224.414C37.0416 248.414 29.5416 276.718 29.5416 276.718C29.5416 276.718 25.5634 275.022 25.2373 274.24C24.9112 273.457 33.7807 239.805 36.9764 223.305C41.8677 197.935 41.672 175.761 45.259 163.696C46.3677 163.174 76.1068 168.066 76.1068 168.066C76.1068 168.066 75.7807 172.174 75.5199 174.261Z" fill="#474BB4"/>
<path d="M76.1076 84.1294C76.825 84.3903 79.825 86.7381 81.7163 88.0425C83.6076 89.3468 86.2163 92.9338 87.6511 96.1946C89.83 101.689 91.681 107.307 93.1946 113.021C94.0424 116.803 93.3902 120.912 92.2163 126.325C91.0424 131.738 90.2598 142.695 91.7598 149.347C93.2598 155.999 94.5641 163.956 94.5641 163.956C94.0097 164.91 93.2795 165.751 92.412 166.434C90.912 167.803 87.4555 167.999 83.2163 170.543C80.5424 170.347 76.825 168.716 72.912 170.086C68.9989 171.456 63.7163 169.108 57.912 171.064C55.3033 172.108 43.4989 167.216 44.0207 163.76C44.4772 162.521 49.825 143.738 48.1294 131.543C46.4337 119.347 41.8033 101.021 48.1946 90.0642C51.9772 88.0425 56.3468 86.8033 58.0424 85.499C59.7381 84.1946 60.3902 83.1511 61.4337 82.7598C62.4772 82.3685 70.4989 82.4338 76.1076 84.1294Z" fill="white"/>
<path d="M80.2153 106.892C80.6622 102.344 80.309 97.7525 79.1718 93.3264C78.8525 91.8231 78.6562 90.2963 78.5848 88.7612L77.9979 88.2395C77.9979 88.2395 78.1283 81.2612 78.3892 79.3047C78.65 77.3481 79.8892 65.1525 74.0196 63.7177C68.15 62.2829 65.9979 62.2177 65.737 66.7829C65.4761 71.3481 65.9979 76.7612 65.0196 78.9133C64.291 80.362 63.3935 81.7193 62.3457 82.9568C62.3457 82.9568 67.6283 88.1742 68.8022 88.5003C69.9761 88.8264 69.2587 91.109 69.2587 91.109C69.2587 91.109 75.0631 101.935 80.2153 106.892Z" fill="#E09577"/>
<path d="M69.2593 91.1088C69.2593 91.1088 73.7593 97.174 76.8246 96.8479C79.8898 96.5219 78.2593 88.5001 78.2593 88.5001L77.9985 88.2393C77.9985 88.2393 79.6289 95.674 76.955 96.4566C74.2811 97.2392 69.1289 90.3262 69.1289 90.3262L69.2593 91.1088Z" fill="#7451EB"/>
<path d="M76.9919 98.2397C77.4519 98.152 77.7264 97.5644 77.6048 96.9274C77.4833 96.2904 77.0119 95.8451 76.5518 95.9329C76.0917 96.0206 75.8173 96.6082 75.9388 97.2452C76.0603 97.8822 76.5318 98.3275 76.9919 98.2397Z" fill="#474BB4"/>
<path d="M77.0843 98.1007C77.4736 98.0264 77.7016 97.5072 77.5936 96.9409C77.4856 96.3747 77.0824 95.9758 76.6932 96.0501C76.3039 96.1244 76.0758 96.6436 76.1839 97.2098C76.2919 97.7761 76.695 98.1749 77.0843 98.1007Z" fill="#7451EB"/>
<path d="M71.0195 73.4346C71.0195 73.4998 72.8456 81.5215 77.9978 86.6737C78.063 85.6302 78.3239 80.8694 78.3239 80.8694L71.0195 73.4346Z" fill="#B77B65"/>
<path d="M70.0423 71.2176C70.264 73.4251 71.1 75.5263 72.4554 77.2828C74.6012 79.9012 77.6486 81.6226 80.9988 82.1089C84.5858 82.6958 85.8249 81.7176 86.0206 80.8045C86.2162 79.8915 85.7597 76.8915 86.2162 76.5654C86.6728 76.2393 85.4336 75.848 85.4336 74.8697C85.4336 73.8915 85.4988 73.3045 86.0858 73.1741C86.6728 73.0436 86.9336 72.9132 86.9336 72.3262V71.5436C86.9336 71.5436 88.5641 71.935 89.0206 70.9567C89.4771 69.9784 88.6945 69.1958 88.1728 67.9567C87.651 66.7176 87.3249 65.6741 87.7815 64.761C88.3681 63.7685 88.751 62.6691 88.9078 61.5269C89.0645 60.3847 88.992 59.2227 88.6945 58.1088C87.7815 54.9784 82.7597 50.8045 75.0641 51.0654C67.3684 51.3262 67.6945 62.2175 70.0423 71.2176Z" fill="#E09577"/>
<path d="M82.106 64.4345C83.3395 64.0687 84.6069 63.8283 85.8887 63.7171C87.193 63.7171 87.9104 63.7823 88.1061 63.5867C88.3017 63.391 87.8452 62.9997 86.7365 62.8693C85.8385 62.7014 84.9112 62.7919 84.0626 63.1302C83.3452 63.391 81.9104 64.2389 82.106 64.4345Z" fill="#474BB4"/>
<path d="M82.7598 65.673C82.7598 65.673 83.6728 67.3034 85.3033 67.1078C85.4989 66.3904 85.7598 64.8252 85.4337 64.76C85.1076 64.6947 82.7598 65.673 82.7598 65.673Z" fill="white"/>
<path d="M82.498 72.5869L86.2154 73.4347L85.9546 75.4565L83.9328 74.9347C83.4715 74.67 83.0889 74.2873 82.8241 73.826C82.6513 73.4326 82.5413 73.0145 82.498 72.5869Z" fill="white"/>
<path d="M64.7591 79.3042L63.9113 75.065L63.3896 75.7824C62.9897 74.4535 62.4657 73.1652 61.8243 71.9346C61.0417 70.8259 55.2374 64.7607 54.7809 62.5433C54.3243 60.3259 55.8896 59.4128 55.8243 57.652C55.7591 55.8911 55.3678 54.652 57.3896 52.8911C59.4113 51.1302 66.7809 45.9781 71.8678 45.5215C76.9548 45.065 83.3461 50.0868 83.3461 50.0868C83.3461 50.0868 86.8678 50.2172 89.02 52.7607C91.1722 55.3041 91.8895 57.1954 91.3026 58.1085C89.8674 59.8254 88.1465 61.2816 86.2156 62.4128C84.0887 63.6005 81.6704 64.1655 79.2374 64.0433C78.8461 64.7607 75.9765 66.9128 74.0852 67.4998C73.2285 68.5086 72.444 69.5764 71.7374 70.6954C71.5417 71.2172 71.4765 67.4346 70.3026 67.3694C69.1287 67.3042 67.4983 71.7389 66.7156 73.8911C65.933 76.0433 65.8026 78.652 64.7591 79.3042Z" fill="#BEBAF7"/>
<path d="M84.9762 64.8917C84.9762 64.8917 84.7805 66.5226 85.1067 66.7835C85.4328 67.0445 85.8895 66.2617 85.759 64.8265C85.7056 64.7748 85.6417 64.7351 85.5716 64.7101C85.5015 64.6851 85.4269 64.6753 85.3528 64.6815C85.2787 64.6877 85.2067 64.7096 85.1418 64.7459C85.0768 64.7821 85.0204 64.8319 84.9762 64.8917Z" fill="#474BB4"/>
<path d="M86.9336 72.5865C85.4519 72.9734 83.8904 72.9282 82.4336 72.4561C82.5043 73.0759 82.7032 73.6743 83.0176 74.2132C83.3319 74.7521 83.7549 75.2198 84.2597 75.5865C85.6945 76.6952 86.2814 76.7604 86.5423 76.3039C86.8032 75.8474 86.7379 75.1952 85.8249 75.13C84.9119 75.0648 83.0858 74.2821 82.564 72.7169C83.6912 73.167 84.8773 73.4525 86.0858 73.5648C87.2597 73.5648 87.1945 72.6517 86.9336 72.5865Z" fill="#AD4949"/>
<path d="M83.6067 70.8906C83.085 70.9558 81.7154 71.2167 81.4545 72.195C81.2763 72.9088 81.3218 73.6601 81.585 74.3471C81.585 74.3471 81.3241 72.7819 82.1067 71.9341C82.4945 71.4477 83.0158 71.085 83.6067 70.8906Z" fill="#B77B65"/>
<path d="M84.8457 70.9572C84.8457 70.892 85.759 71.4791 86.3461 71.2182C86.9332 70.9572 86.6723 71.4791 86.9332 71.5444V72.1967C86.1432 71.9681 85.4246 71.5415 84.8457 70.9572Z" fill="#B77B65"/>
<path d="M71.0196 68.3473C71.4109 66.7168 71.0848 64.4342 68.737 64.4994C66.3892 64.5646 66.324 67.6951 67.3022 69.3907C68.2805 71.0864 69.324 72.2603 70.4327 72.1951C71.5414 72.1299 71.6718 70.1733 71.0196 69.782C70.3675 69.3907 71.0196 68.3473 71.0196 68.3473Z" fill="#E09577"/>
<path d="M70.2363 71.8037C70.5966 71.8037 70.8887 71.5117 70.8887 71.1514C70.8887 70.7911 70.5966 70.499 70.2363 70.499C69.8761 70.499 69.584 70.7911 69.584 71.1514C69.584 71.5117 69.8761 71.8037 70.2363 71.8037Z" fill="#7451EB"/>
<path d="M69.9107 67.0432C69.9107 67.1084 70.2367 65.5432 69.128 65.6084C68.0193 65.6736 67.628 66.4563 67.7585 67.1736C67.7555 67.4941 67.8312 67.8103 67.979 68.0946C68.1269 68.3789 68.3423 68.6225 68.6063 68.8041C68.9599 69.0776 69.2874 69.3832 69.5846 69.7171C69.5193 69.978 70.3672 69.6519 70.3672 69.6519C70.3672 69.6519 70.0411 68.9345 69.5846 68.6084C69.128 68.2824 69.1933 68.0215 69.5846 67.8258C69.9759 67.6302 68.2802 67.4345 68.6715 66.6519C69.0628 65.8693 69.9107 66.6519 69.9107 67.0432Z" fill="#B77B65"/>
<path d="M58.1717 52.2383C58.1717 52.2383 56.6065 55.4992 57.5196 57.5209C59.0848 61.0426 65.8674 62.8035 65.8674 62.8035C65.8674 62.8035 59.2804 61.8252 59.0848 63.5861C58.8891 65.347 61.563 68.4122 62.3456 69.7818C63.1282 71.1513 65.8021 75.1948 64.8891 79.1731C64.6935 78.847 63.9108 75.3905 63.9108 75.3905L63.3891 76.0427C63.3891 76.0427 62.2804 72.6514 61.1065 71.2818C59.9326 69.9122 54.9761 64.8253 54.5195 62.0861C54.063 59.347 55.7587 59.9992 55.6935 56.4774C55.6282 52.9557 58.1717 52.2383 58.1717 52.2383Z" fill="#A2A6E2"/>
<path d="M88.7588 52.5C88.7588 52.5 90.5197 58.7609 84.3241 61.1739C78.1284 63.587 74.6719 63.0652 74.6719 63.0652C74.6719 63.0652 79.1067 65.1522 83.6719 63.587C88.2371 62.0217 91.6936 58.9565 91.7588 57.4565C91.8241 55.9565 88.7588 52.5 88.7588 52.5Z" fill="#A2A6E2"/>
<path d="M80.4104 48.1299C80.4104 48.1299 81.7147 50.8038 79.1713 53.6081C77.6968 55.2604 75.8988 56.5922 73.8887 57.5212C73.8887 57.5212 82.1713 54.456 83.3452 50.0864C83.28 49.4994 80.4104 48.1299 80.4104 48.1299Z" fill="#A2A6E2"/>
<path d="M43.6289 163.63C43.6289 163.63 47.2811 151.957 47.868 140.609C48.455 129.261 43.8246 110.152 44.0202 104.087C45.2593 106.696 49.6941 110.804 55.3028 114.717C63.3246 120.261 73.7594 125.348 80.9985 124.696C88.2376 124.043 90.6507 122.804 90.6507 122.804C90.6507 122.804 86.2159 128.087 81.3898 131.152C76.5637 134.217 70.368 135.587 67.5637 144.391C64.7593 153.196 67.1724 170.413 67.1724 170.413C65.3695 170.312 63.5623 170.312 61.7594 170.413C60.5202 170.609 57.8463 171.391 56.7376 171.326C53.8719 170.935 51.106 170.005 48.5854 168.587C45.1941 166.761 43.8898 165.13 43.6289 163.63Z" fill="#E4E4F9"/>
<path d="M80.3451 100.631C80.3451 100.631 80.0842 96.2609 79.3016 91.1088C79.0408 87.8479 79.0408 87.1305 79.0408 87.1305L78.0625 86.4131V88.2392L78.3234 88.5001C78.3234 88.5001 78.7799 91.5001 79.106 93.1305C79.7698 95.5825 80.1849 98.0952 80.3451 100.631Z" fill="#E4E4F9"/>
<path d="M47.1508 90.3914C47.9334 89.6088 52.9551 88.1088 57.1291 94.174C61.303 100.239 65.803 110.87 67.8247 115.631C68.9597 118.406 70.4269 121.034 72.1943 123.457C72.1943 123.457 77.216 125.348 77.9334 125.478C78.6508 125.609 80.1508 126.065 80.7378 126.848C81.3247 127.631 80.9986 133.631 79.1725 136.826C77.3464 140.022 76.5638 141.326 74.803 141.131C73.0421 140.935 71.4117 140.152 71.0856 139.631C70.7595 139.109 70.6943 138.978 69.8464 138.848C68.9986 138.717 64.4334 136.631 63.1291 135.065C61.8247 133.5 53.0856 123.196 49.4986 119.152C45.9117 115.109 38.4769 98.674 47.1508 90.3914Z" fill="white"/>
<path d="M43.1725 99.1299C43.1725 99.1299 47.6073 110.999 54.8464 119.869C58.5977 124.563 62.6037 129.048 66.8464 133.304C66.9373 132.262 67.2725 131.257 67.8247 130.369C67.8247 130.63 67.4986 132.456 68.1508 133.695C68.8029 134.934 70.9551 135.065 70.9551 135.065C70.9551 135.065 71.1508 131.804 72.2595 129.717C72.2595 129.717 72.8464 133.304 74.3464 135.195L77.9334 138.978C77.9334 138.978 76.9551 141.26 75.1943 141.195C73.7983 141.165 72.4403 140.735 71.2812 139.956C70.8899 139.565 70.6942 139.108 70.3682 139.043C68.6501 138.574 67.0043 137.872 65.4768 136.956C63.5855 135.782 63.716 135.978 59.7377 131.217C55.7595 126.456 49.7595 119.804 48.716 118.304C47.6725 116.804 42.3899 109.369 43.1725 99.1299Z" fill="#E4E4F9"/>
<path d="M79.8243 126.586C79.8243 126.586 77.4765 126.521 75.6504 131.282C74.5626 133.898 74.1586 136.748 74.4765 139.564L95.4765 141.847C100.955 142.434 104.607 143.151 104.607 143.151C104.607 143.151 106.303 144.325 107.346 144.912C108.39 145.499 114.911 151.564 115.89 151.369C116.369 151.292 116.819 151.089 117.194 150.782C117.475 150.91 117.783 150.967 118.092 150.949C118.4 150.93 118.699 150.837 118.963 150.676C119.227 150.515 119.447 150.292 119.605 150.026C119.763 149.76 119.853 149.46 119.868 149.151C119.868 149.151 122.15 149.412 122.281 147.847C123.129 147.716 124.237 147.39 123.65 145.434C123.063 143.477 119.476 140.608 116.346 138.782C116.411 136.564 117.324 135.521 115.629 135.456C113.933 135.39 112.172 136.173 111.063 136.303C108.871 136.185 106.701 135.79 104.607 135.129C102.911 134.608 98.02 133.499 97.433 133.303C96.846 133.108 83.933 128.608 79.8243 126.586Z" fill="#E09577"/>
<path d="M74.5409 135.521L102.258 140.739C104.228 141.227 106.117 141.995 107.867 143.021C108.821 143.408 109.687 143.985 110.41 144.717C111.323 145.761 114.976 149.282 116.15 149.478C117.323 149.674 118.693 149.674 119.345 148.891C119.997 148.108 121.758 148.108 121.823 147.522C121.889 146.935 123.584 147.13 123.65 145.435C123.816 145.666 123.916 145.939 123.939 146.223C123.961 146.508 123.906 146.793 123.778 147.048C123.651 147.303 123.456 147.518 123.215 147.671C122.974 147.823 122.696 147.907 122.41 147.913C122.215 148.435 121.693 149.348 119.997 149.217C119.867 149.608 119.345 151.5 117.258 150.848C116.932 151.108 115.954 151.63 115.432 151.304C113.026 149.661 110.738 147.853 108.584 145.891C107.881 145.34 107.14 144.838 106.367 144.391C105.695 144.046 105.061 143.63 104.476 143.152C104.476 143.152 95.6713 141.913 89.0843 141.261C82.4974 140.608 74.4756 139.565 74.4756 139.565C74.2722 138.223 74.2942 136.856 74.5409 135.521Z" fill="#B77B65"/>
<path d="M82.041 65.9353L83.541 65.6092C84.128 65.4787 85.2367 65.4787 85.8236 65.1526C86.0289 65.0384 86.2058 64.8795 86.3413 64.6875C86.4768 64.4956 86.5673 64.2756 86.6062 64.0439C86.0052 64.2991 85.3662 64.4534 84.7149 64.5005C83.7025 64.7069 82.7728 65.2058 82.041 65.9353Z" fill="#474BB4"/>
<path d="M115.63 135.131C114.633 135.864 113.676 136.648 112.76 137.479C112.173 138.066 112.499 138.718 112.369 139.957C112.238 141.196 112.108 142.37 112.956 142.566C113.803 142.761 114.847 141.196 114.977 140.153V139.435C114.977 139.435 116.086 139.24 116.347 138.522C116.934 139.109 118.695 134.609 115.63 135.131Z" fill="#A86C54"/>
<path d="M112.37 139.893H113.805C113.805 139.893 113.936 141.523 113.153 141.719C112.37 141.915 112.305 141.458 112.305 141.263C112.305 141.067 112.37 139.893 112.37 139.893Z" fill="#B77D69"/>
<path d="M107.477 144.197C106.956 144.262 105.912 144.654 105.782 145.371C105.754 145.561 105.767 145.755 105.819 145.94C105.871 146.125 105.962 146.297 106.085 146.444C106.208 146.592 106.361 146.712 106.533 146.797C106.706 146.882 106.894 146.929 107.086 146.936C107.551 146.956 108.015 146.89 108.456 146.741C108.456 146.741 107.543 148.502 108.325 149.284C109.108 150.067 110.021 149.936 110.282 149.61C110.151 150.328 110.934 150.849 111.717 150.98C112.499 151.11 113.217 151.175 113.412 150.588C113.673 151.436 114.651 151.632 115.369 151.632C116.086 151.632 115.956 150.784 116.086 150.132C116.217 149.48 116.477 148.241 115.89 148.045C115.52 147.889 115.112 147.844 114.717 147.915C114.717 147.915 115.825 146.219 114.521 145.762C114.192 145.632 113.829 145.613 113.488 145.707C113.147 145.801 112.845 146.004 112.63 146.284C112.63 146.284 113.217 144.915 112.043 144.719C110.869 144.523 109.63 145.632 109.63 145.632C109.63 145.632 109.76 143.936 107.477 144.197Z" fill="#A86C54"/>
<path d="M112.826 142.501C112.826 142.501 113.544 142.762 114.196 141.458C114.62 140.681 114.737 139.773 114.522 138.914C114.522 138.914 116.217 138.392 116.413 137.74C116.935 138.132 117.457 139.305 119.022 140.545L116.283 138.849C115.923 139.142 115.498 139.343 115.044 139.436C115.066 139.899 114.997 140.362 114.841 140.799C114.684 141.235 114.443 141.636 114.131 141.979C113.478 142.632 113.087 142.632 112.826 142.501Z" fill="#885541"/>
<path d="M114.717 147.914C114.782 147.979 115.369 147.718 115.891 147.979C116.412 148.24 116.347 148.762 116.217 149.609C116.086 150.457 116.282 152.153 114.521 151.631C114.279 151.574 114.053 151.462 113.861 151.303C113.669 151.145 113.515 150.945 113.412 150.718C113.347 151.109 112.499 151.305 111.456 151.044C110.412 150.783 110.152 150.131 110.217 149.74C110.282 149.349 108.912 150.131 108.391 149.414C107.869 148.696 107.804 148.305 108.325 146.805C107.282 147.131 106.108 147.131 105.782 146.022C105.456 144.914 106.565 144.457 106.891 144.327C107.217 144.196 106.369 146.935 108.782 146.544C108.391 147.718 110.739 149.479 112.108 147.196C111.978 147.718 111.912 148.566 112.565 148.827C112.762 148.933 112.981 148.993 113.205 149.003C113.429 149.014 113.653 148.973 113.859 148.886C114.066 148.798 114.25 148.665 114.398 148.497C114.547 148.329 114.656 148.13 114.717 147.914Z" fill="#885541"/>
<path d="M107.738 144.913C107.607 144.978 108.129 146.153 108.259 146.348C108.39 146.544 109.238 146.218 108.977 145.565C108.949 145.435 108.892 145.312 108.812 145.206C108.731 145.099 108.628 145.012 108.51 144.95C108.391 144.888 108.261 144.852 108.128 144.846C107.994 144.839 107.861 144.862 107.738 144.913Z" fill="#B77D69"/>
<path d="M110.348 145.957L111.848 147.066C111.848 147.066 112.696 146.153 111.848 145.631C111.6 145.496 111.313 145.455 111.037 145.515C110.762 145.575 110.517 145.732 110.348 145.957Z" fill="#B77D69"/>
<path d="M112.826 147.261C112.891 147.196 113.935 148.044 114.327 148.044C114.718 148.044 114.848 146.935 114.261 146.544C113.674 146.152 112.826 147.261 112.826 147.261Z" fill="#B77D69"/>
<path d="M114.651 148.892C115.025 149.071 115.419 149.202 115.826 149.283C115.826 149.283 115.956 148.435 115.434 148.304C115.343 148.272 115.245 148.263 115.149 148.277C115.053 148.292 114.963 148.33 114.885 148.388C114.808 148.446 114.746 148.522 114.705 148.61C114.664 148.698 114.646 148.795 114.651 148.892Z" fill="#A86C54"/>
<path d="M178.956 228.652C178.956 210.354 164.123 195.521 145.826 195.521C127.528 195.521 112.695 210.354 112.695 228.652V253.245C112.695 271.543 127.528 286.376 145.826 286.376C164.123 286.376 178.956 271.543 178.956 253.245V228.652Z" fill="#003668"/>
<path d="M178.956 232.826C178.956 214.528 164.123 199.695 145.826 199.695C127.528 199.695 112.695 214.528 112.695 232.826V257.419C112.695 275.717 127.528 290.55 145.826 290.55C164.123 290.55 178.956 275.717 178.956 257.419V232.826Z" fill="#002A49"/>
<path d="M277.89 228.652C277.89 210.354 263.057 195.521 244.759 195.521C226.462 195.521 211.629 210.354 211.629 228.652V253.245C211.629 271.543 226.462 286.376 244.759 286.376C263.057 286.376 277.89 271.543 277.89 253.245V228.652Z" fill="#003668"/>
<path d="M277.89 232.826C277.89 214.528 263.057 199.695 244.759 199.695C226.462 199.695 211.629 214.528 211.629 232.826V257.419C211.629 275.717 226.462 290.55 244.759 290.55C263.057 290.55 277.89 275.717 277.89 257.419V232.826Z" fill="#002A49"/>
<path d="M80.0206 228.652C80.0206 210.354 65.1876 195.521 46.8902 195.521C28.5928 195.521 13.7598 210.354 13.7598 228.652V253.245C13.7598 271.543 28.5928 286.376 46.8902 286.376C65.1876 286.376 80.0206 271.543 80.0206 253.245V228.652Z" fill="#003668"/>
<path d="M80.0206 232.826C80.0206 214.528 65.1876 199.695 46.8902 199.695C28.5928 199.695 13.7598 214.528 13.7598 232.826V257.419C13.7598 275.717 28.5928 290.55 46.8902 290.55C65.1876 290.55 80.0206 275.717 80.0206 257.419V232.826Z" fill="#002A49"/>
<path d="M464.934 213.652H-224.936V367.037H464.934V213.652Z" fill="#BEBAF7"/>
<path d="M-224.936 -144.065V385.435H464.934V-144.065H-224.936ZM119.999 239.87C53.934 239.87 0.390503 186.261 0.390503 120.196C0.390503 104.488 3.48427 88.935 9.49516 74.4234C15.5061 59.9118 24.3164 46.7262 35.4231 35.6195C57.8541 13.1885 88.277 0.586914 119.999 0.586914C186.064 0.586914 239.673 54.1304 239.673 120.196C239.673 186.261 186.064 239.87 119.999 239.87Z" fill="white"/>
</g>
<path d="M239.5 120C239.5 185.998 185.998 239.5 120 239.5C54.002 239.5 0.5 185.998 0.5 120C0.5 54.002 54.002 0.5 120 0.5C185.998 0.5 239.5 54.002 239.5 120Z" stroke="#E0E0E0"/>
</svg>
