<?xml version="1.0" encoding="utf-8"?>
<!-- Generator: Adobe Illustrator 23.0.3, SVG Export Plug-In . SVG Version: 6.00 Build 0)  -->
<svg version="1.1" xmlns="http://www.w3.org/2000/svg" xmlns:xlink="http://www.w3.org/1999/xlink" x="0px" y="0px"
	 viewBox="0 0 800 800" style="enable-background:new 0 0 800 800;" xml:space="preserve">
<style type="text/css">
	.st0{opacity:0.1;enable-background:new    ;}
	.st1{display:none;opacity:0.5;}
	.st2{display:inline;fill:#36334A;}
	.st3{display:inline;fill:#6C63FF;}
	.st4{display:inline;opacity:0.3;fill:#6C63FF;enable-background:new    ;}
	.st5{fill:#3F3D56;}
	.st6{fill:#E6E8EC;}
	.st7{fill:#36334A;}
	.st8{fill:#3195FF;}
	.st9{fill:#6ED397;}
	.st10{fill:none;stroke:#FFFFFF;stroke-linecap:round;stroke-miterlimit:10;}
	.st11{fill:none;stroke:#FF00FF;stroke-miterlimit:10;}
	.st12{display:none;fill:#6ED397;}
	.st13{fill:#F2F2F2;}
	.st14{fill:none;}
	.st15{fill:#000333;}
	.st16{fill:#4C4C4C;}
	.st17{display:none;}
	.st18{display:inline;fill:#F2F2F2;}
	.st19{display:inline;}
	.st20{enable-background:new    ;}
	.st21{display:inline;enable-background:new    ;}
	.st22{opacity:0.1;fill:#6466AF;enable-background:new    ;}
	.st23{fill:url(#SVGID_1_);}
	.st24{fill:#686363;}
	.st25{opacity:0.1;fill:#010101;enable-background:new    ;}
	.st26{fill:#F9B7B9;}
	.st27{opacity:5.000000e-02;fill:#010101;enable-background:new    ;}
	.st28{fill:#828AA7;}
	.st29{fill:#4D4D78;}
	.st30{fill:#8CCDA4;}
	.st31{opacity:0.3;fill:#FFFFFF;enable-background:new    ;}
	.st32{fill:#FBBEBE;}
	.st33{fill:#3C354C;}
	.st34{fill:#A0616A;}
</style>
<g id="Calque_2">
	<g id="ada6f7ae-8394-4767-8700-18704e9e9034">
		<title>note list</title>
		<path class="st0" d="M627.6,768.5c0,2.2-4.4,4.3-12.4,6.3c-32.2,8-123.2,13.7-230.6,13.7c-105.7,0-195.6-5.5-229-13.3
			c-9-2.1-14-4.3-14-6.7c0-0.8,0.6-1.6,1.8-2.4l481.8-0.4C626.8,766.6,627.6,767.5,627.6,768.5z"/>
		<g class="st1">
			<path class="st2" d="M455,25h364c10.5,0,19,8.5,19,19v83c0,10.5-8.5,19-19,19H455c-10.5,0-19-8.5-19-19V44
				C436,33.5,444.5,25,455,25z"/>
			<rect x="485" y="51" class="st3" width="93" height="21"/>
			<rect x="485" y="85" class="st4" width="285" height="11"/>
			<rect x="485" y="109" class="st4" width="114" height="11"/>
		</g>
		<g class="st1">
			<path class="st2" d="M-49,123.5h364c10.5,0,19,8.5,19,19v82.9c0,10.5-8.5,19-19,19H-49c-10.5,0-19-8.5-19-19v-82.9
				C-68,132-59.5,123.5-49,123.5z"/>
			<rect x="-19" y="149.5" class="st2" width="93" height="21"/>
			<rect x="-19" y="183.5" class="st2" width="285" height="11"/>
			<rect x="-19" y="207.5" class="st2" width="114" height="11"/>
			<path class="st2" d="M-49,123.5h364c10.5,0,19,8.5,19,19v82.9c0,10.5-8.5,19-19,19H-49c-10.5,0-19-8.5-19-19v-82.9
				C-68,132-59.5,123.5-49,123.5z"/>
			<rect x="-19" y="149.5" class="st3" width="93" height="21"/>
			<rect x="-19" y="183.5" class="st4" width="285" height="11"/>
			<rect x="-19" y="207.5" class="st4" width="114" height="11"/>
		</g>
		<path class="st5" d="M553.9,236.5h5.7c1.3,0,2.3,1,2.3,2.3v80.4c0,1.3-1,2.3-2.3,2.3h-5.7c-1.3,0-2.3-1-2.3-2.3v-80.4
			C551.6,237.6,552.6,236.5,553.9,236.5z"/>
		<path class="st5" d="M210.3,169.9h2.8c0.8,0,1.5,0.7,1.5,1.5v25c0,0.8-0.7,1.5-1.5,1.5h-2.8c-0.8,0-1.5-0.7-1.5-1.5v-25
			C208.8,170.6,209.4,169.9,210.3,169.9z"/>
		<path class="st5" d="M210.2,221.2h3.1c0.9,0,1.7,0.8,1.7,1.7v45.3c0,0.9-0.8,1.7-1.7,1.7h-3.1c-0.9,0-1.7-0.8-1.7-1.7v-45.3
			C208.5,221.9,209.3,221.2,210.2,221.2z"/>
		<path class="st5" d="M210.3,286.9h3c0.9,0,1.6,0.7,1.6,1.6v45.9c0,0.9-0.7,1.6-1.6,1.6h-3c-0.9,0-1.6-0.7-1.6-1.6v-45.9
			C208.6,287.7,209.4,286.9,210.3,286.9z"/>
		<path class="st5" d="M247.7,77.4h273.7c19.7,0,35.7,16,35.7,35.7v630c0,19.7-16,35.7-35.7,35.7H247.7c-19.7,0-35.7-16-35.7-35.7
			v-630C212,93.4,228,77.4,247.7,77.4z"/>
		<path class="st6" d="M353.8,98.4H397c1.4,0,2.5,1.1,2.5,2.5v4.7c0,1.4-1.1,2.5-2.5,2.5h-43.1c-1.4,0-2.5-1.1-2.5-2.5v-4.7
			C351.3,99.5,352.4,98.4,353.8,98.4z"/>
		<circle class="st6" cx="412.3" cy="103.3" r="5.5"/>
		<path class="st7" d="M535.8,123.1v610c0,15.1-12.3,27.4-27.4,27.4H260.8c-15.1,0-27.4-12.3-27.4-27.4v-610
			c0-15.1,12.3-27.4,27.4-27.4l0,0h37.1v4.8c0,12.5,10.1,22.6,22.6,22.6h126c12.4,0,22.5-10.1,22.5-22.6v-4.8h39.5
			C523.5,95.7,535.8,108,535.8,123.1z"/>
		<rect x="242" y="154" class="st5" width="31" height="4"/>
		<rect x="242" y="161" class="st5" width="31" height="4"/>
		<rect x="242" y="168" class="st5" width="31" height="4"/>
		<rect x="242" y="154" class="st5" width="31" height="4"/>
		<rect x="242" y="161" class="st5" width="31" height="4"/>
		<rect x="242" y="168" class="st5" width="31" height="4"/>
		<path class="st5" d="M521.7,164h-0.9l-0.3-0.3c1.1-1.4,1.8-3.1,1.8-4.9c0-4.1-3.4-7.4-7.5-7.4s-7.4,3.4-7.4,7.5
			c0,4.1,3.4,7.4,7.5,7.4c1.8,0,3.5-0.6,4.9-1.8l0.3,0.3v0.9l5.7,5.8l1.7-1.7L521.7,164z M514.8,164c-2.9,0-5.2-2.3-5.2-5.2
			s2.3-5.2,5.2-5.2s5.2,2.3,5.2,5.2l0,0C520,161.7,517.7,164,514.8,164L514.8,164L514.8,164z"/>
		<rect x="242" y="225" class="st8" width="93" height="21"/>
		<rect x="242" y="259" class="st9" width="285" height="11"/>
		<rect x="242" y="283" class="st9" width="114" height="11"/>
		<rect x="242" y="339" class="st8" width="93" height="21"/>
		<rect x="242" y="373" class="st9" width="285" height="11"/>
		<rect x="242" y="397" class="st9" width="114" height="11"/>
		<rect x="242" y="469" class="st8" width="93" height="21"/>
		<rect x="242" y="503" class="st9" width="285" height="11"/>
		<rect x="242" y="527" class="st9" width="114" height="11"/>
		<rect x="242" y="591" class="st8" width="93" height="21"/>
		<rect x="242" y="625" class="st9" width="285" height="11"/>
		<rect x="242" y="649" class="st9" width="114" height="11"/>
		<circle class="st8" cx="476" cy="701" r="34"/>
		<path class="st10" d="M493.3,698.3v16.4c0,0.7-0.6,1.3-1.3,1.3h-33.5c-0.7,0-1.3-0.6-1.3-1.3v-26.2c0-0.7,0.6-1.3,1.3-1.3h23.3"/>
		<line class="st10" x1="463.7" y1="697" x2="486.3" y2="697"/>
		<line class="st10" x1="464" y1="701.7" x2="486.7" y2="701.7"/>
		<line class="st10" x1="464.3" y1="706.3" x2="487" y2="706.3"/>
		<line class="st11" x1="489" y1="686" x2="489" y2="697.3"/>
		<line class="st11" x1="494.7" y1="691.7" x2="483.3" y2="691.7"/>
		<line class="st10" x1="489" y1="686" x2="489" y2="697.3"/>
		<line class="st10" x1="494.7" y1="691.7" x2="483.3" y2="691.7"/>
		<path class="st12" d="M111,320h364c10.5,0,19,8.5,19,19v83c0,10.5-8.5,19-19,19H111c-10.5,0-19-8.5-19-19v-83
			C92,328.5,100.5,320,111,320z"/>
	</g>
</g>
<g id="message3">
	<path class="st13" d="M206.4,160.5h364c10.5,0,19,11.4,19,25.5v111.5c0,14.1-8.5,25.5-19,25.5h-364c-10.5,0-19-11.4-19-25.5V186
		C187.4,171.9,195.9,160.5,206.4,160.5z"/>
	<g>
		<rect x="223.7" y="184" class="st14" width="164.3" height="31.7"/>
		<path class="st15" d="M225.8,202.8c-0.9-0.5-1.7-1.1-2.3-1.9l1.5-1.8c1,1.4,2.3,2.2,3.8,2.2c1,0,1.8-0.3,2.3-0.9
			c0.5-0.6,0.8-1.5,0.8-2.8v-10.2h-6.6v-2.3h9.2v12.4c0,2-0.5,3.5-1.4,4.5c-1,1-2.4,1.5-4.3,1.5
			C227.7,203.5,226.7,203.3,225.8,202.8z"/>
		<path class="st15" d="M241.7,201.4c-1.4-1.4-2-3.4-2-6v-10.3h2.6v10.2c0,3.9,1.7,5.9,5.1,5.9c1.7,0,2.9-0.5,3.8-1.4
			c0.9-1,1.3-2.4,1.3-4.4v-10.2h2.5v10.3c0,2.6-0.7,4.6-2,6s-3.2,2.1-5.7,2.1C244.9,203.5,243,202.8,241.7,201.4z"/>
		<path class="st15" d="M276,185.1v18.2h-2.1L263,189.7v13.6h-2.6v-18.2h2.1l10.9,13.6v-13.6H276z"/>
		<path class="st15" d="M294.7,201v2.3h-13.2v-18.2h12.8v2.3h-10.2v5.6h9.1v2.2h-9.1v5.9H294.7z"/>
		<path class="st15" d="M300.2,202.9c-1.3-0.4-2.3-1-3-1.7l1-2c0.7,0.6,1.6,1.1,2.7,1.5c1.1,0.4,2.2,0.6,3.3,0.6
			c1.5,0,2.6-0.3,3.4-0.8c0.7-0.5,1.1-1.2,1.1-2c0-0.6-0.2-1.1-0.6-1.5c-0.4-0.4-0.9-0.7-1.5-0.9s-1.4-0.4-2.5-0.7
			c-1.4-0.3-2.5-0.7-3.3-1c-0.8-0.3-1.6-0.8-2.2-1.5c-0.6-0.7-0.9-1.6-0.9-2.8c0-1,0.3-1.8,0.8-2.6c0.5-0.8,1.3-1.4,2.3-1.9
			c1-0.5,2.3-0.7,3.9-0.7c1.1,0,2.1,0.1,3.2,0.4c1,0.3,1.9,0.7,2.7,1.2l-0.9,2.1c-0.8-0.5-1.6-0.9-2.4-1.1c-0.9-0.3-1.7-0.4-2.5-0.4
			c-1.5,0-2.6,0.3-3.3,0.8c-0.7,0.5-1.1,1.2-1.1,2.1c0,0.6,0.2,1.1,0.6,1.5c0.4,0.4,0.9,0.7,1.5,0.9c0.6,0.2,1.5,0.4,2.5,0.7
			c1.4,0.3,2.5,0.7,3.3,1c0.8,0.3,1.5,0.8,2.1,1.5c0.6,0.7,0.9,1.6,0.9,2.7c0,1-0.3,1.8-0.8,2.6s-1.3,1.4-2.4,1.9
			c-1.1,0.5-2.4,0.7-3.9,0.7C302.8,203.5,301.5,203.3,300.2,202.9z"/>
		<path class="st15" d="M330.7,185.1v18.2h-2.6v-8.1h-10.5v8.1H315v-18.2h2.6v7.8h10.5v-7.8H330.7z"/>
		<path class="st15" d="M339.4,202.3c-1.5-0.8-2.6-1.9-3.5-3.3c-0.8-1.4-1.3-3-1.3-4.8s0.4-3.3,1.3-4.8c0.8-1.4,2-2.5,3.5-3.3
			c1.5-0.8,3.1-1.2,5-1.2c1.8,0,3.5,0.4,4.9,1.2c1.5,0.8,2.6,1.9,3.5,3.3c0.8,1.4,1.2,3,1.2,4.8c0,1.8-0.4,3.4-1.2,4.8
			c-0.8,1.4-2,2.5-3.5,3.3c-1.5,0.8-3.1,1.2-4.9,1.2C342.5,203.5,340.9,203.1,339.4,202.3z M348,200.3c1.1-0.6,1.9-1.4,2.5-2.5
			c0.6-1.1,0.9-2.3,0.9-3.6s-0.3-2.5-0.9-3.6s-1.5-1.9-2.5-2.5s-2.3-0.9-3.6-0.9s-2.5,0.3-3.6,0.9c-1.1,0.6-1.9,1.4-2.5,2.5
			s-0.9,2.3-0.9,3.6s0.3,2.5,0.9,3.6c0.6,1.1,1.5,1.9,2.5,2.5c1.1,0.6,2.3,0.9,3.6,0.9S346.9,200.9,348,200.3z"/>
		<path class="st15" d="M370.6,186.8c1.4,1.1,2,2.7,2,4.7c0,2-0.7,3.5-2,4.7c-1.4,1.1-3.2,1.7-5.6,1.7h-4.5v5.5H358v-18.2h7.1
			C367.4,185.1,369.3,185.7,370.6,186.8z M368.8,194.5c0.9-0.7,1.3-1.7,1.3-3s-0.4-2.3-1.3-3c-0.9-0.7-2.1-1.1-3.8-1.1h-4.4v8.2h4.4
			C366.7,195.5,367.9,195.2,368.8,194.5z"/>
	</g>
	<g>
	</g>
	<g>
		<path class="st16" d="M237.7,227.4c1.3,1.1,1.9,2.5,1.9,4.4s-0.6,3.4-1.9,4.4c-1.3,1.1-3.1,1.6-5.3,1.6h-4.3v5.2h-2.5v-17.3h6.8
			C234.6,225.8,236.4,226.3,237.7,227.4z M235.9,234.7c0.8-0.7,1.2-1.6,1.2-2.9s-0.4-2.2-1.2-2.9c-0.8-0.7-2-1-3.6-1h-4.2v7.8h4.2
			C233.8,235.7,235,235.4,235.9,234.7z"/>
		<path class="st16" d="M244.9,242.4c-1-0.6-1.9-1.4-2.4-2.4c-0.6-1-0.9-2.2-0.9-3.5c0-1.3,0.3-2.4,0.9-3.5c0.6-1,1.4-1.8,2.4-2.4
			c1-0.6,2.2-0.9,3.5-0.9c1.3,0,2.5,0.3,3.5,0.9c1,0.6,1.8,1.4,2.4,2.4c0.6,1,0.9,2.2,0.9,3.5c0,1.3-0.3,2.4-0.9,3.5
			c-0.6,1-1.4,1.8-2.4,2.4c-1,0.6-2.2,0.9-3.5,0.9C247.1,243.2,246,243,244.9,242.4z M250.7,240.6c0.7-0.4,1.2-0.9,1.6-1.6
			c0.4-0.7,0.6-1.5,0.6-2.4s-0.2-1.7-0.6-2.4c-0.4-0.7-0.9-1.2-1.6-1.6c-0.7-0.4-1.4-0.6-2.3-0.6s-1.6,0.2-2.3,0.6
			c-0.7,0.4-1.2,0.9-1.6,1.6s-0.6,1.5-0.6,2.4s0.2,1.7,0.6,2.4c0.4,0.7,0.9,1.2,1.6,1.6c0.7,0.4,1.4,0.6,2.3,0.6
			S250,241,250.7,240.6z"/>
		<path class="st16" d="M270.8,230v13.1h-2.3v-2c-0.5,0.7-1.1,1.2-1.9,1.6c-0.8,0.4-1.6,0.6-2.6,0.6c-1.7,0-3.1-0.5-4.1-1.4
			c-1-1-1.5-2.4-1.5-4.3V230h2.4v7.3c0,1.3,0.3,2.2,0.9,2.9c0.6,0.7,1.5,1,2.6,1c1.3,0,2.2-0.4,3-1.1c0.7-0.8,1.1-1.8,1.1-3.2V230
			H270.8z"/>
		<path class="st16" d="M279.4,230.4c0.8-0.4,1.8-0.6,2.9-0.6v2.3c-0.1,0-0.3,0-0.5,0c-1.3,0-2.3,0.4-3,1.2
			c-0.7,0.8-1.1,1.9-1.1,3.3v6.5h-2.4V230h2.3v2.2C278,231.4,278.6,230.8,279.4,230.4z"/>
		<path class="st16" d="M303.7,230l-5.7,13.1h-2.4l-5.7-13.1h2.5l4.5,10.5l4.6-10.5H303.7z"/>
		<path class="st16" d="M314.5,231.2c1,0.9,1.4,2.2,1.4,4v7.9h-2.3v-1.7c-0.4,0.6-1,1.1-1.7,1.4c-0.7,0.3-1.6,0.5-2.6,0.5
			c-1.5,0-2.6-0.4-3.5-1.1c-0.9-0.7-1.3-1.6-1.3-2.8c0-1.2,0.4-2.1,1.3-2.8c0.8-0.7,2.2-1.1,4-1.1h3.8v-0.5c0-1-0.3-1.8-0.9-2.4
			c-0.6-0.5-1.5-0.8-2.6-0.8c-0.8,0-1.5,0.1-2.3,0.4c-0.7,0.3-1.4,0.6-1.9,1l-1-1.8c0.7-0.5,1.5-1,2.4-1.2s1.9-0.4,3-0.4
			C312.1,229.9,313.5,230.3,314.5,231.2z M312.1,240.8c0.7-0.4,1.1-1,1.4-1.7v-1.8h-3.7c-2,0-3,0.7-3,2c0,0.7,0.3,1.2,0.8,1.6
			c0.5,0.4,1.2,0.6,2.1,0.6S311.4,241.2,312.1,240.8z"/>
		<path class="st16" d="M320.3,224.7h2.4v18.4h-2.4V224.7z"/>
		<path class="st16" d="M327.3,227c-0.3-0.3-0.5-0.7-0.5-1.1s0.2-0.8,0.5-1.1c0.3-0.3,0.7-0.5,1.2-0.5s0.8,0.1,1.2,0.4
			c0.3,0.3,0.5,0.6,0.5,1.1c0,0.4-0.2,0.8-0.5,1.1c-0.3,0.3-0.7,0.5-1.2,0.5S327.6,227.3,327.3,227z M327.2,230h2.4v13.1h-2.4V230z"
			/>
		<path class="st16" d="M346.5,224.7v18.4h-2.3V241c-0.5,0.7-1.2,1.3-2,1.7c-0.8,0.4-1.7,0.6-2.7,0.6c-1.3,0-2.4-0.3-3.4-0.8
			c-1-0.6-1.8-1.3-2.4-2.4c-0.6-1-0.9-2.2-0.9-3.5s0.3-2.5,0.9-3.5c0.6-1,1.4-1.8,2.4-2.4c1-0.6,2.1-0.8,3.4-0.8
			c0.9,0,1.8,0.2,2.6,0.5c0.8,0.4,1.5,0.9,2,1.6v-7.2H346.5z M342,240.6c0.7-0.4,1.2-0.9,1.6-1.6c0.4-0.7,0.6-1.5,0.6-2.4
			s-0.2-1.7-0.6-2.4c-0.4-0.7-0.9-1.2-1.6-1.6c-0.7-0.4-1.4-0.6-2.3-0.6c-0.8,0-1.6,0.2-2.3,0.6c-0.7,0.4-1.2,0.9-1.6,1.6
			s-0.6,1.5-0.6,2.4s0.2,1.7,0.6,2.4c0.4,0.7,0.9,1.2,1.6,1.6c0.7,0.4,1.4,0.6,2.3,0.6C340.6,241.2,341.3,241,342,240.6z"/>
		<path class="st16" d="M362.8,237.3h-10.6c0.1,1.2,0.7,2.1,1.5,2.8c0.9,0.7,1.9,1.1,3.2,1.1c1.6,0,2.8-0.5,3.8-1.6l1.3,1.5
			c-0.6,0.7-1.3,1.2-2.2,1.6c-0.9,0.4-1.9,0.5-3,0.5c-1.4,0-2.6-0.3-3.7-0.9c-1.1-0.6-1.9-1.4-2.5-2.4c-0.6-1-0.9-2.2-0.9-3.5
			c0-1.3,0.3-2.4,0.9-3.4c0.6-1,1.4-1.8,2.4-2.4s2.1-0.9,3.4-0.9c1.3,0,2.4,0.3,3.4,0.9c1,0.6,1.7,1.4,2.3,2.4
			c0.6,1,0.8,2.2,0.8,3.5C362.9,236.8,362.8,237,362.8,237.3z M353.5,232.9c-0.8,0.7-1.2,1.6-1.3,2.7h8.4c-0.1-1.1-0.6-2-1.3-2.7
			c-0.8-0.7-1.7-1.1-2.9-1.1C355.2,231.9,354.3,232.2,353.5,232.9z"/>
		<path class="st16" d="M370.3,230.4c0.8-0.4,1.8-0.6,2.9-0.6v2.3c-0.1,0-0.3,0-0.5,0c-1.3,0-2.3,0.4-3,1.2
			c-0.7,0.8-1.1,1.9-1.1,3.3v6.5h-2.4V230h2.3v2.2C368.8,231.4,369.4,230.8,370.3,230.4z"/>
		<path class="st16" d="M394.6,230l-5.7,13.1h-2.4l-5.7-13.1h2.5l4.5,10.5l4.6-10.5H394.6z"/>
		<path class="st16" d="M398.5,242.4c-1-0.6-1.9-1.4-2.4-2.4c-0.6-1-0.9-2.2-0.9-3.5c0-1.3,0.3-2.4,0.9-3.5c0.6-1,1.4-1.8,2.4-2.4
			s2.2-0.9,3.5-0.9c1.3,0,2.5,0.3,3.5,0.9s1.8,1.4,2.4,2.4c0.6,1,0.9,2.2,0.9,3.5c0,1.3-0.3,2.4-0.9,3.5c-0.6,1-1.4,1.8-2.4,2.4
			c-1,0.6-2.2,0.9-3.5,0.9C400.7,243.2,399.6,243,398.5,242.4z M404.3,240.6c0.7-0.4,1.2-0.9,1.6-1.6c0.4-0.7,0.6-1.5,0.6-2.4
			s-0.2-1.7-0.6-2.4c-0.4-0.7-0.9-1.2-1.6-1.6c-0.7-0.4-1.4-0.6-2.3-0.6s-1.6,0.2-2.3,0.6c-0.7,0.4-1.2,0.9-1.6,1.6
			s-0.6,1.5-0.6,2.4s0.2,1.7,0.6,2.4c0.4,0.7,0.9,1.2,1.6,1.6c0.7,0.4,1.4,0.6,2.3,0.6S403.6,241,404.3,240.6z"/>
		<path class="st16" d="M419.5,242.3c-0.3,0.3-0.8,0.5-1.3,0.7c-0.5,0.2-1,0.2-1.6,0.2c-1.3,0-2.3-0.4-3.1-1.1
			c-0.7-0.7-1.1-1.7-1.1-3v-7.2h-2.2v-2h2.2v-2.9h2.4v2.9h3.8v2h-3.8v7.1c0,0.7,0.2,1.3,0.5,1.6c0.4,0.4,0.9,0.6,1.5,0.6
			c0.7,0,1.3-0.2,1.9-0.6L419.5,242.3z"/>
		<path class="st16" d="M426.5,230.4c0.8-0.4,1.8-0.6,2.9-0.6v2.3c-0.1,0-0.3,0-0.5,0c-1.3,0-2.3,0.4-3,1.2
			c-0.7,0.8-1.1,1.9-1.1,3.3v6.5h-2.4V230h2.3v2.2C425.1,231.4,425.7,230.8,426.5,230.4z"/>
		<path class="st16" d="M444,237.3h-10.6c0.1,1.2,0.7,2.1,1.5,2.8c0.9,0.7,1.9,1.1,3.2,1.1c1.6,0,2.8-0.5,3.8-1.6l1.3,1.5
			c-0.6,0.7-1.3,1.2-2.2,1.6c-0.9,0.4-1.9,0.5-3,0.5c-1.4,0-2.6-0.3-3.7-0.9c-1.1-0.6-1.9-1.4-2.5-2.4c-0.6-1-0.9-2.2-0.9-3.5
			c0-1.3,0.3-2.4,0.9-3.4c0.6-1,1.4-1.8,2.4-2.4s2.1-0.9,3.4-0.9s2.4,0.3,3.4,0.9s1.7,1.4,2.3,2.4c0.6,1,0.8,2.2,0.8,3.5
			C444.1,236.8,444.1,237,444,237.3z M434.7,232.9c-0.8,0.7-1.2,1.6-1.3,2.7h8.4c-0.1-1.1-0.6-2-1.3-2.7c-0.8-0.7-1.7-1.1-2.9-1.1
			C436.5,231.9,435.5,232.2,434.7,232.9z"/>
		<path class="st16" d="M456.2,242.4c-1-0.6-1.9-1.4-2.5-2.4c-0.6-1-0.9-2.2-0.9-3.5c0-1.3,0.3-2.4,0.9-3.5c0.6-1,1.4-1.8,2.5-2.4
			s2.2-0.9,3.6-0.9c1.2,0,2.2,0.2,3.2,0.7c0.9,0.5,1.7,1.2,2.2,2.1l-1.8,1.2c-0.4-0.6-0.9-1.1-1.5-1.4c-0.6-0.3-1.3-0.5-2-0.5
			c-0.9,0-1.6,0.2-2.3,0.6c-0.7,0.4-1.2,0.9-1.6,1.6s-0.6,1.5-0.6,2.4c0,0.9,0.2,1.7,0.6,2.4c0.4,0.7,0.9,1.2,1.6,1.6
			c0.7,0.4,1.5,0.6,2.3,0.6c0.7,0,1.4-0.2,2-0.5s1.1-0.8,1.5-1.4l1.8,1.1c-0.5,0.9-1.2,1.6-2.2,2.1c-0.9,0.5-2,0.7-3.2,0.7
			C458.4,243.2,457.2,243,456.2,242.4z"/>
		<path class="st16" d="M470.1,242.4c-1-0.6-1.9-1.4-2.4-2.4s-0.9-2.2-0.9-3.5c0-1.3,0.3-2.4,0.9-3.5s1.4-1.8,2.4-2.4
			c1-0.6,2.2-0.9,3.5-0.9c1.3,0,2.5,0.3,3.5,0.9s1.8,1.4,2.4,2.4c0.6,1,0.9,2.2,0.9,3.5c0,1.3-0.3,2.4-0.9,3.5
			c-0.6,1-1.4,1.8-2.4,2.4c-1,0.6-2.2,0.9-3.5,0.9C472.3,243.2,471.1,243,470.1,242.4z M475.8,240.6c0.7-0.4,1.2-0.9,1.6-1.6
			c0.4-0.7,0.6-1.5,0.6-2.4s-0.2-1.7-0.6-2.4c-0.4-0.7-0.9-1.2-1.6-1.6c-0.7-0.4-1.4-0.6-2.3-0.6s-1.6,0.2-2.3,0.6
			c-0.7,0.4-1.2,0.9-1.6,1.6s-0.6,1.5-0.6,2.4s0.2,1.7,0.6,2.4c0.4,0.7,0.9,1.2,1.6,1.6c0.7,0.4,1.4,0.6,2.3,0.6
			S475.2,241,475.8,240.6z"/>
		<path class="st16" d="M504,231.3c1,1,1.4,2.4,1.4,4.3v7.5h-2.4v-7.3c0-1.3-0.3-2.2-0.9-2.9c-0.6-0.6-1.4-1-2.5-1
			c-1.2,0-2.2,0.4-2.9,1.1c-0.7,0.8-1.1,1.8-1.1,3.2v6.8h-2.4v-7.3c0-1.3-0.3-2.2-0.9-2.9c-0.6-0.6-1.4-1-2.5-1
			c-1.2,0-2.2,0.4-2.9,1.1c-0.7,0.8-1.1,1.8-1.1,3.2v6.8h-2.4V230h2.3v2c0.5-0.7,1.1-1.2,1.9-1.5c0.8-0.4,1.7-0.5,2.6-0.5
			c1,0,1.9,0.2,2.7,0.6s1.4,1,1.8,1.8c0.5-0.8,1.2-1.4,2.1-1.8c0.9-0.4,1.9-0.6,3-0.6C501.7,229.9,503,230.3,504,231.3z"/>
		<path class="st16" d="M520.2,230.7c1,0.6,1.8,1.3,2.4,2.4s0.9,2.2,0.9,3.5s-0.3,2.5-0.9,3.5s-1.4,1.8-2.4,2.4
			c-1,0.6-2.1,0.8-3.4,0.8c-0.9,0-1.8-0.2-2.6-0.5c-0.8-0.4-1.4-0.9-2-1.6v6.8h-2.4V230h2.3v2.1c0.5-0.7,1.2-1.3,2-1.6
			s1.7-0.6,2.7-0.6C518.1,229.9,519.2,230.1,520.2,230.7z M518.9,240.6c0.7-0.4,1.2-0.9,1.6-1.6c0.4-0.7,0.6-1.5,0.6-2.4
			s-0.2-1.7-0.6-2.4s-0.9-1.2-1.6-1.6c-0.7-0.4-1.4-0.6-2.3-0.6c-0.8,0-1.6,0.2-2.2,0.6c-0.7,0.4-1.2,0.9-1.6,1.6s-0.6,1.5-0.6,2.4
			s0.2,1.7,0.6,2.4c0.4,0.7,0.9,1.2,1.6,1.6c0.7,0.4,1.4,0.6,2.3,0.6C517.4,241.2,518.2,241,518.9,240.6z"/>
		<path class="st16" d="M534.1,242.3c-0.3,0.3-0.8,0.5-1.3,0.7c-0.5,0.2-1,0.2-1.6,0.2c-1.3,0-2.3-0.4-3.1-1.1
			c-0.7-0.7-1.1-1.7-1.1-3v-7.2h-2.2v-2h2.2v-2.9h2.4v2.9h3.8v2h-3.8v7.1c0,0.7,0.2,1.3,0.5,1.6c0.4,0.4,0.9,0.6,1.5,0.6
			c0.7,0,1.3-0.2,1.9-0.6L534.1,242.3z"/>
		<path class="st16" d="M548.3,237.3h-10.6c0.1,1.2,0.7,2.1,1.5,2.8c0.9,0.7,1.9,1.1,3.2,1.1c1.6,0,2.8-0.5,3.8-1.6l1.3,1.5
			c-0.6,0.7-1.3,1.2-2.2,1.6c-0.9,0.4-1.9,0.5-3,0.5c-1.4,0-2.6-0.3-3.7-0.9c-1.1-0.6-1.9-1.4-2.5-2.4c-0.6-1-0.9-2.2-0.9-3.5
			c0-1.3,0.3-2.4,0.9-3.4c0.6-1,1.4-1.8,2.4-2.4s2.1-0.9,3.4-0.9s2.4,0.3,3.4,0.9s1.7,1.4,2.3,2.4c0.6,1,0.8,2.2,0.8,3.5
			C548.4,236.8,548.3,237,548.3,237.3z M539,232.9c-0.8,0.7-1.2,1.6-1.3,2.7h8.4c-0.1-1.1-0.6-2-1.3-2.7c-0.8-0.7-1.7-1.1-2.9-1.1
			C540.7,231.9,539.8,232.2,539,232.9z"/>
		<path class="st16" d="M245.6,261c1,1,1.4,2.4,1.4,4.3v7.5h-2.4v-7.3c0-1.3-0.3-2.2-0.9-2.9c-0.6-0.6-1.4-1-2.5-1
			c-1.2,0-2.2,0.4-2.9,1.1c-0.7,0.8-1.1,1.8-1.1,3.2v6.8H235v-7.3c0-1.3-0.3-2.2-0.9-2.9c-0.6-0.6-1.4-1-2.5-1
			c-1.2,0-2.2,0.4-2.9,1.1c-0.7,0.8-1.1,1.8-1.1,3.2v6.8h-2.4v-13.1h2.3v2c0.5-0.7,1.1-1.2,1.9-1.5c0.8-0.4,1.7-0.5,2.6-0.5
			c1,0,1.9,0.2,2.7,0.6s1.4,1,1.8,1.8c0.5-0.8,1.2-1.4,2.1-1.8c0.9-0.4,1.9-0.6,3-0.6C243.3,259.6,244.6,260,245.6,261z"/>
		<path class="st16" d="M263.3,267h-10.6c0.1,1.2,0.7,2.1,1.5,2.8c0.9,0.7,1.9,1.1,3.2,1.1c1.6,0,2.8-0.5,3.8-1.6l1.3,1.5
			c-0.6,0.7-1.3,1.2-2.2,1.6c-0.9,0.4-1.9,0.5-3,0.5c-1.4,0-2.6-0.3-3.7-0.9c-1.1-0.6-1.9-1.4-2.5-2.4c-0.6-1-0.9-2.2-0.9-3.5
			c0-1.3,0.3-2.4,0.9-3.4c0.6-1,1.4-1.8,2.4-2.4s2.1-0.9,3.4-0.9c1.3,0,2.4,0.3,3.4,0.9c1,0.6,1.7,1.4,2.3,2.4
			c0.6,1,0.8,2.2,0.8,3.5C263.3,266.5,263.3,266.7,263.3,267z M254,262.6c-0.8,0.7-1.2,1.6-1.3,2.7h8.4c-0.1-1.1-0.6-2-1.3-2.7
			c-0.8-0.7-1.7-1.1-2.9-1.1C255.7,261.6,254.8,261.9,254,262.6z"/>
		<path class="st16" d="M270.7,260.1c0.8-0.4,1.8-0.6,2.9-0.6v2.3c-0.1,0-0.3,0-0.5,0c-1.3,0-2.3,0.4-3,1.2
			c-0.7,0.8-1.1,1.9-1.1,3.3v6.5h-2.4v-13.1h2.3v2.2C269.3,261.1,269.9,260.5,270.7,260.1z"/>
		<path class="st16" d="M278.6,272.1c-1-0.6-1.9-1.4-2.5-2.4c-0.6-1-0.9-2.2-0.9-3.5c0-1.3,0.3-2.4,0.9-3.5c0.6-1,1.4-1.8,2.5-2.4
			c1-0.6,2.2-0.9,3.6-0.9c1.2,0,2.2,0.2,3.2,0.7c0.9,0.5,1.7,1.2,2.2,2.1l-1.8,1.2c-0.4-0.6-0.9-1.1-1.5-1.4c-0.6-0.3-1.3-0.5-2-0.5
			c-0.9,0-1.6,0.2-2.3,0.6c-0.7,0.4-1.2,0.9-1.6,1.6s-0.6,1.5-0.6,2.4c0,0.9,0.2,1.7,0.6,2.4c0.4,0.7,0.9,1.2,1.6,1.6
			c0.7,0.4,1.5,0.6,2.3,0.6c0.7,0,1.4-0.2,2-0.5s1.1-0.8,1.5-1.4l1.8,1.1c-0.5,0.9-1.2,1.6-2.2,2.1c-0.9,0.5-2,0.7-3.2,0.7
			C280.9,272.9,279.7,272.7,278.6,272.1z"/>
		<path class="st16" d="M290.6,256.7c-0.3-0.3-0.5-0.7-0.5-1.1s0.2-0.8,0.5-1.1c0.3-0.3,0.7-0.5,1.2-0.5s0.8,0.1,1.2,0.4
			c0.3,0.3,0.5,0.6,0.5,1.1c0,0.4-0.2,0.8-0.5,1.1c-0.3,0.3-0.7,0.5-1.2,0.5S291,257,290.6,256.7z M290.6,259.7h2.4v13.1h-2.4V259.7
			z"/>
		<path class="st16" d="M316.5,254.4v18.4h-2.3v-2.1c-0.5,0.7-1.2,1.3-2,1.7c-0.8,0.4-1.7,0.6-2.7,0.6c-1.3,0-2.4-0.3-3.4-0.8
			c-1-0.6-1.8-1.3-2.4-2.4c-0.6-1-0.9-2.2-0.9-3.5s0.3-2.5,0.9-3.5c0.6-1,1.4-1.8,2.4-2.4c1-0.6,2.1-0.8,3.4-0.8
			c0.9,0,1.8,0.2,2.6,0.5c0.8,0.4,1.5,0.9,2,1.6v-7.2H316.5z M312,270.3c0.7-0.4,1.2-0.9,1.6-1.6c0.4-0.7,0.6-1.5,0.6-2.4
			s-0.2-1.7-0.6-2.4c-0.4-0.7-0.9-1.2-1.6-1.6c-0.7-0.4-1.4-0.6-2.3-0.6c-0.8,0-1.6,0.2-2.3,0.6c-0.7,0.4-1.2,0.9-1.6,1.6
			s-0.6,1.5-0.6,2.4s0.2,1.7,0.6,2.4c0.4,0.7,0.9,1.2,1.6,1.6c0.7,0.4,1.4,0.6,2.3,0.6C310.6,270.9,311.4,270.7,312,270.3z"/>
		<path class="st16" d="M332.9,267h-10.6c0.1,1.2,0.7,2.1,1.5,2.8c0.9,0.7,1.9,1.1,3.2,1.1c1.6,0,2.8-0.5,3.8-1.6l1.3,1.5
			c-0.6,0.7-1.3,1.2-2.2,1.6c-0.9,0.4-1.9,0.5-3,0.5c-1.4,0-2.6-0.3-3.7-0.9c-1.1-0.6-1.9-1.4-2.5-2.4c-0.6-1-0.9-2.2-0.9-3.5
			c0-1.3,0.3-2.4,0.9-3.4c0.6-1,1.4-1.8,2.4-2.4s2.1-0.9,3.4-0.9c1.3,0,2.4,0.3,3.4,0.9c1,0.6,1.7,1.4,2.3,2.4
			c0.6,1,0.8,2.2,0.8,3.5C332.9,266.5,332.9,266.7,332.9,267z M323.6,262.6c-0.8,0.7-1.2,1.6-1.3,2.7h8.4c-0.1-1.1-0.6-2-1.3-2.7
			c-0.8-0.7-1.7-1.1-2.9-1.1C325.3,261.6,324.3,261.9,323.6,262.6z"/>
		<path class="st16" d="M347,260.1c0.8-0.4,1.8-0.6,2.9-0.6v2.3c-0.1,0-0.3,0-0.5,0c-1.3,0-2.3,0.4-3,1.2c-0.7,0.8-1.1,1.9-1.1,3.3
			v6.5h-2.4v-13.1h2.3v2.2C345.5,261.1,346.2,260.5,347,260.1z"/>
		<path class="st16" d="M364.5,267h-10.6c0.1,1.2,0.7,2.1,1.5,2.8c0.9,0.7,1.9,1.1,3.2,1.1c1.6,0,2.8-0.5,3.8-1.6l1.3,1.5
			c-0.6,0.7-1.3,1.2-2.2,1.6c-0.9,0.4-1.9,0.5-3,0.5c-1.4,0-2.6-0.3-3.7-0.9c-1.1-0.6-1.9-1.4-2.5-2.4c-0.6-1-0.9-2.2-0.9-3.5
			c0-1.3,0.3-2.4,0.9-3.4c0.6-1,1.4-1.8,2.4-2.4s2.1-0.9,3.4-0.9c1.3,0,2.4,0.3,3.4,0.9c1,0.6,1.7,1.4,2.3,2.4
			c0.6,1,0.8,2.2,0.8,3.5C364.6,266.5,364.5,266.7,364.5,267z M355.2,262.6c-0.8,0.7-1.2,1.6-1.3,2.7h8.4c-0.1-1.1-0.6-2-1.3-2.7
			c-0.8-0.7-1.7-1.1-2.9-1.1C356.9,261.6,356,261.9,355.2,262.6z"/>
		<path class="st16" d="M378.8,261c1,1,1.5,2.4,1.5,4.2v7.5h-2.4v-7.3c0-1.3-0.3-2.2-0.9-2.9c-0.6-0.6-1.5-1-2.6-1
			c-1.3,0-2.3,0.4-3,1.1c-0.7,0.8-1.1,1.8-1.1,3.2v6.8h-2.4v-13.1h2.3v2c0.5-0.7,1.1-1.2,1.9-1.6c0.8-0.4,1.7-0.5,2.8-0.5
			C376.5,259.6,377.8,260,378.8,261z"/>
		<path class="st16" d="M385.4,272.5c-1-0.3-1.8-0.7-2.3-1.1l1-1.9c0.6,0.4,1.3,0.7,2.1,1c0.8,0.2,1.7,0.4,2.5,0.4
			c2.1,0,3.1-0.6,3.1-1.8c0-0.4-0.1-0.7-0.4-0.9c-0.3-0.2-0.6-0.4-1.1-0.5c-0.4-0.1-1-0.2-1.8-0.4c-1.1-0.2-1.9-0.4-2.6-0.6
			c-0.7-0.2-1.2-0.6-1.7-1.1c-0.5-0.5-0.7-1.2-0.7-2.2c0-1.2,0.5-2.1,1.5-2.9c1-0.7,2.3-1.1,4-1.1c0.9,0,1.7,0.1,2.6,0.3
			c0.9,0.2,1.6,0.5,2.2,0.9l-1,1.9c-1.1-0.7-2.3-1-3.8-1c-1,0-1.8,0.2-2.3,0.5c-0.5,0.3-0.8,0.8-0.8,1.3c0,0.4,0.1,0.8,0.4,1
			c0.3,0.2,0.7,0.4,1.1,0.5c0.4,0.1,1.1,0.2,1.8,0.4c1.1,0.2,1.9,0.4,2.6,0.6c0.7,0.2,1.2,0.6,1.7,1.1s0.7,1.2,0.7,2.1
			c0,1.2-0.5,2.1-1.5,2.8c-1,0.7-2.4,1.1-4.1,1.1C387.4,272.9,386.4,272.8,385.4,272.5z"/>
		<path class="st16" d="M408.9,267h-10.6c0.1,1.2,0.7,2.1,1.5,2.8c0.9,0.7,1.9,1.1,3.2,1.1c1.6,0,2.8-0.5,3.8-1.6l1.3,1.5
			c-0.6,0.7-1.3,1.2-2.2,1.6c-0.9,0.4-1.9,0.5-3,0.5c-1.4,0-2.6-0.3-3.7-0.9c-1.1-0.6-1.9-1.4-2.5-2.4c-0.6-1-0.9-2.2-0.9-3.5
			c0-1.3,0.3-2.4,0.9-3.4c0.6-1,1.4-1.8,2.4-2.4s2.1-0.9,3.4-0.9s2.4,0.3,3.4,0.9s1.7,1.4,2.3,2.4c0.6,1,0.8,2.2,0.8,3.5
			C409,266.5,408.9,266.7,408.9,267z M399.6,262.6c-0.8,0.7-1.2,1.6-1.3,2.7h8.4c-0.1-1.1-0.6-2-1.3-2.7c-0.8-0.7-1.7-1.1-2.9-1.1
			C401.3,261.6,400.4,261.9,399.6,262.6z"/>
		<path class="st16" d="M412.3,256.7c-0.3-0.3-0.5-0.7-0.5-1.1s0.2-0.8,0.5-1.1c0.3-0.3,0.7-0.5,1.2-0.5c0.5,0,0.8,0.1,1.2,0.4
			c0.3,0.3,0.5,0.6,0.5,1.1c0,0.4-0.2,0.8-0.5,1.1c-0.3,0.3-0.7,0.5-1.2,0.5C413,257.2,412.6,257,412.3,256.7z M412.3,259.7h2.4
			v13.1h-2.4V259.7z"/>
		<path class="st16" d="M431.7,259.7V271c0,2.3-0.6,4-1.7,5.1s-2.8,1.6-5.1,1.6c-1.2,0-2.4-0.2-3.5-0.5c-1.1-0.3-2-0.8-2.7-1.4
			l1.1-1.8c0.6,0.5,1.4,0.9,2.3,1.3c0.9,0.3,1.8,0.5,2.8,0.5c1.5,0,2.7-0.4,3.4-1.1s1.1-1.8,1.1-3.3v-1c-0.6,0.7-1.3,1.2-2.1,1.5
			c-0.8,0.3-1.7,0.5-2.7,0.5c-1.3,0-2.4-0.3-3.4-0.8s-1.8-1.3-2.4-2.3c-0.6-1-0.9-2.1-0.9-3.3s0.3-2.3,0.9-3.3
			c0.6-1,1.4-1.7,2.4-2.2c1-0.5,2.1-0.8,3.4-0.8c1,0,1.9,0.2,2.8,0.5s1.5,0.9,2.1,1.6v-2H431.7z M427.2,269.6
			c0.7-0.4,1.2-0.9,1.6-1.5c0.4-0.7,0.6-1.4,0.6-2.2c0-1.3-0.4-2.3-1.3-3.1s-1.9-1.2-3.2-1.2c-1.3,0-2.4,0.4-3.3,1.2
			s-1.3,1.8-1.3,3.1c0,0.8,0.2,1.6,0.6,2.2c0.4,0.7,0.9,1.2,1.6,1.5c0.7,0.4,1.5,0.5,2.3,0.5C425.7,270.2,426.5,270,427.2,269.6z"/>
		<path class="st16" d="M447.2,261c1,1,1.5,2.4,1.5,4.2v7.5h-2.4v-7.3c0-1.3-0.3-2.2-0.9-2.9s-1.5-1-2.6-1c-1.3,0-2.3,0.4-3,1.1
			c-0.7,0.8-1.1,1.8-1.1,3.2v6.8h-2.4v-13.1h2.3v2c0.5-0.7,1.1-1.2,1.9-1.6s1.7-0.5,2.8-0.5C444.9,259.6,446.2,260,447.2,261z"/>
		<path class="st16" d="M465,267h-10.6c0.1,1.2,0.7,2.1,1.5,2.8c0.9,0.7,1.9,1.1,3.2,1.1c1.6,0,2.8-0.5,3.8-1.6l1.3,1.5
			c-0.6,0.7-1.3,1.2-2.2,1.6c-0.9,0.4-1.9,0.5-3,0.5c-1.4,0-2.6-0.3-3.7-0.9c-1.1-0.6-1.9-1.4-2.5-2.4c-0.6-1-0.9-2.2-0.9-3.5
			c0-1.3,0.3-2.4,0.9-3.4c0.6-1,1.4-1.8,2.4-2.4s2.1-0.9,3.4-0.9s2.4,0.3,3.4,0.9s1.7,1.4,2.3,2.4c0.6,1,0.8,2.2,0.8,3.5
			C465,266.5,465,266.7,465,267z M455.7,262.6c-0.8,0.7-1.2,1.6-1.3,2.7h8.4c-0.1-1.1-0.6-2-1.3-2.7c-0.8-0.7-1.7-1.1-2.9-1.1
			C457.4,261.6,456.4,261.9,455.7,262.6z"/>
		<path class="st16" d="M472.4,260.1c0.8-0.4,1.8-0.6,2.9-0.6v2.3c-0.1,0-0.3,0-0.5,0c-1.3,0-2.3,0.4-3,1.2
			c-0.7,0.8-1.1,1.9-1.1,3.3v6.5h-2.4v-13.1h2.3v2.2C471,261.1,471.6,260.5,472.4,260.1z"/>
		<path class="st16" d="M487.2,272.1c-1-0.6-1.9-1.4-2.5-2.4c-0.6-1-0.9-2.2-0.9-3.5c0-1.3,0.3-2.4,0.9-3.5c0.6-1,1.4-1.8,2.5-2.4
			s2.2-0.9,3.6-0.9c1.2,0,2.2,0.2,3.2,0.7c0.9,0.5,1.7,1.2,2.2,2.1l-1.8,1.2c-0.4-0.6-0.9-1.1-1.5-1.4c-0.6-0.3-1.3-0.5-2-0.5
			c-0.9,0-1.6,0.2-2.3,0.6c-0.7,0.4-1.2,0.9-1.6,1.6s-0.6,1.5-0.6,2.4c0,0.9,0.2,1.7,0.6,2.4c0.4,0.7,0.9,1.2,1.6,1.6
			c0.7,0.4,1.5,0.6,2.3,0.6c0.7,0,1.4-0.2,2-0.5s1.1-0.8,1.5-1.4l1.8,1.1c-0.5,0.9-1.2,1.6-2.2,2.1c-0.9,0.5-2,0.7-3.2,0.7
			C489.5,272.9,488.3,272.7,487.2,272.1z"/>
		<path class="st16" d="M510.8,267h-10.6c0.1,1.2,0.7,2.1,1.5,2.8c0.9,0.7,1.9,1.1,3.2,1.1c1.6,0,2.8-0.5,3.8-1.6l1.3,1.5
			c-0.6,0.7-1.3,1.2-2.2,1.6c-0.9,0.4-1.9,0.5-3,0.5c-1.4,0-2.6-0.3-3.7-0.9c-1.1-0.6-1.9-1.4-2.5-2.4c-0.6-1-0.9-2.2-0.9-3.5
			c0-1.3,0.3-2.4,0.9-3.4c0.6-1,1.4-1.8,2.4-2.4s2.1-0.9,3.4-0.9s2.4,0.3,3.4,0.9s1.7,1.4,2.3,2.4c0.6,1,0.8,2.2,0.8,3.5
			C510.9,266.5,510.9,266.7,510.8,267z M501.6,262.6c-0.8,0.7-1.2,1.6-1.3,2.7h8.4c-0.1-1.1-0.6-2-1.3-2.7c-0.8-0.7-1.7-1.1-2.9-1.1
			C503.3,261.6,502.3,261.9,501.6,262.6z"/>
		<path class="st16" d="M227.4,301.8c-1-0.6-1.9-1.4-2.5-2.4c-0.6-1-0.9-2.2-0.9-3.5c0-1.3,0.3-2.4,0.9-3.5c0.6-1,1.4-1.8,2.5-2.4
			c1-0.6,2.2-0.9,3.6-0.9c1.2,0,2.2,0.2,3.2,0.7c0.9,0.5,1.7,1.2,2.2,2.1l-1.8,1.2c-0.4-0.6-0.9-1.1-1.5-1.4c-0.6-0.3-1.3-0.5-2-0.5
			c-0.9,0-1.6,0.2-2.3,0.6c-0.7,0.4-1.2,0.9-1.6,1.6s-0.6,1.5-0.6,2.4c0,0.9,0.2,1.7,0.6,2.4c0.4,0.7,0.9,1.2,1.6,1.6
			c0.7,0.4,1.5,0.6,2.3,0.6c0.7,0,1.4-0.2,2-0.5s1.1-0.8,1.5-1.4l1.8,1.1c-0.5,0.9-1.2,1.6-2.2,2.1c-0.9,0.5-2,0.7-3.2,0.7
			C229.6,302.6,228.4,302.4,227.4,301.8z"/>
		<path class="st16" d="M241.3,301.8c-1-0.6-1.9-1.4-2.4-2.4c-0.6-1-0.9-2.2-0.9-3.5c0-1.3,0.3-2.4,0.9-3.5c0.6-1,1.4-1.8,2.4-2.4
			c1-0.6,2.2-0.9,3.5-0.9c1.3,0,2.5,0.3,3.5,0.9c1,0.6,1.8,1.4,2.4,2.4c0.6,1,0.9,2.2,0.9,3.5c0,1.3-0.3,2.4-0.9,3.5
			c-0.6,1-1.4,1.8-2.4,2.4c-1,0.6-2.2,0.9-3.5,0.9C243.5,302.6,242.3,302.4,241.3,301.8z M247.1,300c0.7-0.4,1.2-0.9,1.6-1.6
			c0.4-0.7,0.6-1.5,0.6-2.4s-0.2-1.7-0.6-2.4c-0.4-0.7-0.9-1.2-1.6-1.6c-0.7-0.4-1.4-0.6-2.3-0.6s-1.6,0.2-2.3,0.6
			c-0.7,0.4-1.2,0.9-1.6,1.6s-0.6,1.5-0.6,2.4s0.2,1.7,0.6,2.4c0.4,0.7,0.9,1.2,1.6,1.6c0.7,0.4,1.4,0.6,2.3,0.6
			S246.4,300.4,247.1,300z"/>
		<path class="st16" d="M267.3,284.1v18.4H265v-2.1c-0.5,0.7-1.2,1.3-2,1.7c-0.8,0.4-1.7,0.6-2.7,0.6c-1.3,0-2.4-0.3-3.4-0.8
			c-1-0.6-1.8-1.3-2.4-2.4c-0.6-1-0.9-2.2-0.9-3.5s0.3-2.5,0.9-3.5c0.6-1,1.4-1.8,2.4-2.4c1-0.6,2.1-0.8,3.4-0.8
			c0.9,0,1.8,0.2,2.6,0.5c0.8,0.4,1.5,0.9,2,1.6v-7.2H267.3z M262.8,300c0.7-0.4,1.2-0.9,1.6-1.6c0.4-0.7,0.6-1.5,0.6-2.4
			s-0.2-1.7-0.6-2.4c-0.4-0.7-0.9-1.2-1.6-1.6c-0.7-0.4-1.4-0.6-2.3-0.6c-0.8,0-1.6,0.2-2.3,0.6c-0.7,0.4-1.2,0.9-1.6,1.6
			s-0.6,1.5-0.6,2.4s0.2,1.7,0.6,2.4c0.4,0.7,0.9,1.2,1.6,1.6c0.7,0.4,1.4,0.6,2.3,0.6C261.3,300.6,262.1,300.4,262.8,300z"/>
		<path class="st16" d="M283.6,296.7h-10.6c0.1,1.2,0.7,2.1,1.5,2.8c0.9,0.7,1.9,1.1,3.2,1.1c1.6,0,2.8-0.5,3.8-1.6l1.3,1.5
			c-0.6,0.7-1.3,1.2-2.2,1.6c-0.9,0.4-1.9,0.5-3,0.5c-1.4,0-2.6-0.3-3.7-0.9c-1.1-0.6-1.9-1.4-2.5-2.4c-0.6-1-0.9-2.2-0.9-3.5
			c0-1.3,0.3-2.4,0.9-3.4c0.6-1,1.4-1.8,2.4-2.4s2.1-0.9,3.4-0.9c1.3,0,2.4,0.3,3.4,0.9c1,0.6,1.7,1.4,2.3,2.4
			c0.6,1,0.8,2.2,0.8,3.5C283.6,296.2,283.6,296.4,283.6,296.7z M274.3,292.3c-0.8,0.7-1.2,1.6-1.3,2.7h8.4c-0.1-1.1-0.6-2-1.3-2.7
			c-0.8-0.7-1.7-1.1-2.9-1.1C276,291.3,275.1,291.6,274.3,292.3z"/>
		<path class="st16" d="M286.3,292.2c-0.3-0.3-0.5-0.7-0.5-1.2c0-0.5,0.2-0.9,0.5-1.2s0.7-0.5,1.2-0.5s0.8,0.2,1.2,0.5
			s0.5,0.7,0.5,1.2s-0.2,0.9-0.5,1.2s-0.7,0.5-1.2,0.5C287,292.6,286.6,292.5,286.3,292.2z M286.3,302.2c-0.3-0.3-0.5-0.7-0.5-1.2
			c0-0.5,0.2-0.9,0.5-1.2s0.7-0.5,1.2-0.5s0.8,0.2,1.2,0.5c0.3,0.3,0.5,0.7,0.5,1.2s-0.2,0.9-0.5,1.2s-0.7,0.5-1.2,0.5
			C287,302.6,286.6,302.5,286.3,302.2z"/>
		<path class="st8" d="M313.2,298.2h-3.3v4.3h-2.4v-4.3h-9.6v-1.7l8.9-11.3h2.7l-8.5,10.9h6.7v-3.8h2.3v3.8h3.3V298.2z"/>
		<path class="st8" d="M329.8,298.2h-3.3v4.3h-2.4v-4.3h-9.6v-1.7l8.9-11.3h2.7l-8.5,10.9h6.7v-3.8h2.3v3.8h3.3V298.2z"/>
		<path class="st8" d="M341.5,294c0.9,0.9,1.3,2,1.3,3.4c0,1-0.2,1.9-0.7,2.7c-0.5,0.8-1.2,1.4-2.2,1.9c-1,0.5-2.2,0.7-3.6,0.7
			c-1.2,0-2.4-0.2-3.6-0.6c-1.1-0.4-2.1-0.9-2.8-1.5l1.1-2c0.6,0.6,1.4,1,2.3,1.3c0.9,0.3,1.9,0.5,2.9,0.5c1.3,0,2.3-0.3,3-0.8
			s1.1-1.3,1.1-2.3s-0.4-1.7-1.1-2.2c-0.7-0.5-1.8-0.8-3.2-0.8h-1.4v-1.7l4.4-5.3h-8.3v-2.2h11.4v1.7l-4.5,5.6
			C339.3,292.6,340.6,293.1,341.5,294z"/>
		<path class="st8" d="M358,295c0.5,0.7,0.8,1.6,0.8,2.5c0,1-0.3,1.9-0.8,2.7c-0.6,0.8-1.4,1.4-2.4,1.8c-1,0.4-2.3,0.6-3.7,0.6
			c-1.4,0-2.6-0.2-3.6-0.6c-1-0.4-1.8-1-2.4-1.8c-0.6-0.8-0.8-1.7-0.8-2.7c0-1,0.3-1.8,0.8-2.5c0.5-0.7,1.3-1.3,2.3-1.6
			c-0.8-0.4-1.4-0.9-1.8-1.5s-0.6-1.4-0.6-2.2c0-1,0.3-1.8,0.8-2.5c0.5-0.7,1.2-1.3,2.2-1.6c0.9-0.4,2-0.6,3.3-0.6
			c1.3,0,2.4,0.2,3.3,0.6c0.9,0.4,1.7,0.9,2.2,1.6c0.5,0.7,0.8,1.5,0.8,2.5c0,0.8-0.2,1.6-0.6,2.2c-0.4,0.6-1,1.1-1.8,1.5
			C356.7,293.8,357.4,294.3,358,295z M355.1,299.8c0.8-0.6,1.2-1.3,1.2-2.3c0-1-0.4-1.7-1.2-2.3c-0.8-0.6-1.9-0.8-3.2-0.8
			c-1.4,0-2.4,0.3-3.2,0.8c-0.8,0.6-1.2,1.3-1.2,2.3c0,1,0.4,1.7,1.2,2.3c0.8,0.6,1.8,0.9,3.2,0.9
			C353.2,300.7,354.3,300.4,355.1,299.8z M349.1,287.7c-0.7,0.5-1,1.2-1,2s0.3,1.5,1,2c0.7,0.5,1.6,0.7,2.8,0.7
			c1.2,0,2.1-0.2,2.8-0.7s1-1.2,1-2s-0.4-1.5-1.1-2c-0.7-0.5-1.6-0.8-2.8-0.8C350.7,287,349.8,287.2,349.1,287.7z"/>
		<path class="st8" d="M371.6,294c0.9,0.9,1.3,2,1.3,3.4c0,1-0.2,1.9-0.7,2.7c-0.5,0.8-1.2,1.4-2.2,1.9c-1,0.5-2.2,0.7-3.6,0.7
			c-1.2,0-2.4-0.2-3.6-0.6c-1.1-0.4-2.1-0.9-2.8-1.5l1.1-2c0.6,0.6,1.4,1,2.3,1.3c0.9,0.3,1.9,0.5,2.9,0.5c1.3,0,2.3-0.3,3-0.8
			s1.1-1.3,1.1-2.3s-0.4-1.7-1.1-2.2c-0.7-0.5-1.8-0.8-3.2-0.8h-1.4v-1.7l4.4-5.3h-8.3v-2.2h11.4v1.7l-4.5,5.6
			C369.4,292.6,370.7,293.1,371.6,294z"/>
		<path class="st8" d="M380.6,285.2v17.3h-2.4v-15.2h-3.9v-2.2H380.6z"/>
	</g>
</g>
<g id="message2" class="st17">
	<path class="st18" d="M202,329.5h363.9c10.5,0,19,8.5,19,19v82.9c0,10.5-8.5,19-19,19H202c-10.5,0-19-8.5-19-19v-82.9
		C183,338,191.5,329.5,202,329.5z"/>
	<g class="st19">
		<g class="st20">
			<path class="st16" d="M233,394.8c0.6,0.7,0.8,1.6,0.8,2.7c0,1.4-0.5,2.5-1.6,3.3c-1.1,0.8-2.7,1.2-4.7,1.2h-7.9v-16.6h7.5
				c1.9,0,3.4,0.4,4.4,1.1c1,0.8,1.6,1.8,1.6,3.2c0,0.9-0.2,1.6-0.6,2.3c-0.4,0.6-0.9,1.1-1.6,1.4
				C231.6,393.6,232.4,394.1,233,394.8z M221.9,387.3v5.3h4.9c1.2,0,2.2-0.2,2.8-0.7c0.7-0.5,1-1.1,1-2c0-0.9-0.3-1.5-1-2
				s-1.6-0.7-2.8-0.7L221.9,387.3L221.9,387.3z M230.4,399.4c0.7-0.4,1-1.1,1-2.1c0-1.9-1.4-2.8-4.1-2.8h-5.4v5.5h5.5
				C228.7,400.1,229.7,399.8,230.4,399.4z"/>
			<path class="st16" d="M248.5,396.5h-10.2c0.1,1.1,0.6,2,1.5,2.7c0.9,0.7,1.9,1,3.1,1c1.5,0,2.7-0.5,3.6-1.5l1.3,1.5
				c-0.6,0.7-1.3,1.2-2.1,1.5c-0.8,0.3-1.8,0.5-2.8,0.5c-1.3,0-2.5-0.3-3.5-0.8s-1.8-1.3-2.4-2.3c-0.6-1-0.8-2.1-0.8-3.3
				s0.3-2.3,0.8-3.3s1.3-1.7,2.3-2.3c1-0.5,2-0.8,3.2-0.8s2.3,0.3,3.2,0.8s1.7,1.3,2.2,2.3s0.8,2.1,0.8,3.4
				C248.5,395.9,248.5,396.2,248.5,396.5z M239.5,392.2c-0.7,0.7-1.2,1.5-1.3,2.6h8.1c-0.1-1.1-0.6-1.9-1.3-2.6
				c-0.7-0.7-1.7-1-2.7-1S240.3,391.5,239.5,392.2z M243.7,384.5h2.9l-4,3.1h-2.1L243.7,384.5z"/>
			<path class="st16" d="M262.2,390.7c0.9,0.9,1.4,2.3,1.4,4.1v7.2h-2.3v-7c0-1.2-0.3-2.1-0.9-2.8c-0.6-0.6-1.4-0.9-2.5-0.9
				c-1.2,0-2.2,0.4-2.9,1.1s-1.1,1.8-1.1,3.1v6.5h-2.3v-12.6h2.2v1.9c0.5-0.6,1.1-1.1,1.9-1.5c0.8-0.3,1.7-0.5,2.7-0.5
				C260,389.3,261.3,389.7,262.2,390.7z"/>
			<path class="st16" d="M279.3,396.5h-10.2c0.1,1.1,0.6,2,1.5,2.7c0.9,0.7,1.9,1,3.1,1c1.5,0,2.7-0.5,3.6-1.5l1.3,1.5
				c-0.6,0.7-1.3,1.2-2.1,1.5c-0.8,0.3-1.8,0.5-2.8,0.5c-1.3,0-2.5-0.3-3.5-0.8s-1.8-1.3-2.4-2.3c-0.6-1-0.8-2.1-0.8-3.3
				s0.3-2.3,0.8-3.3s1.3-1.7,2.3-2.3c1-0.5,2-0.8,3.2-0.8s2.3,0.3,3.2,0.8s1.7,1.3,2.2,2.3s0.8,2.1,0.8,3.4
				C279.3,395.9,279.3,396.2,279.3,396.5z M270.3,392.2c-0.7,0.7-1.2,1.5-1.3,2.6h8.1c-0.1-1.1-0.6-1.9-1.3-2.6
				c-0.7-0.7-1.7-1-2.7-1S271.1,391.5,270.3,392.2z M274.5,384.5h2.9l-4,3.1h-2.1L274.5,384.5z"/>
			<path class="st16" d="M285,388.3v1.1h3.7v1.9h-3.6V402h-2.3v-10.7h-2.1v-1.9h2.1v-1.1c0-1.3,0.4-2.2,1.1-3
				c0.7-0.7,1.8-1.1,3.1-1.1c0.5,0,1,0.1,1.4,0.2s0.8,0.3,1.1,0.5l-0.7,1.7c-0.5-0.4-1.1-0.6-1.8-0.6
				C285.7,386.1,285,386.8,285,388.3z M292.8,386.5c-0.3-0.3-0.4-0.6-0.4-1s0.1-0.8,0.4-1.1c0.3-0.3,0.7-0.4,1.1-0.4
				c0.4,0,0.8,0.1,1.1,0.4c0.3,0.3,0.4,0.6,0.4,1s-0.1,0.8-0.4,1.1c-0.3,0.3-0.7,0.4-1.1,0.4C293.4,387,293.1,386.8,292.8,386.5z
				 M292.7,389.4h2.3V402h-2.3V389.4z"/>
			<path class="st16" d="M301.4,401.3c-1-0.6-1.8-1.3-2.4-2.3c-0.6-1-0.9-2.1-0.9-3.3c0-1.2,0.3-2.3,0.9-3.3s1.4-1.7,2.4-2.3
				c1-0.5,2.2-0.8,3.4-0.8c1.1,0,2.2,0.2,3.1,0.7c0.9,0.5,1.6,1.1,2.1,2l-1.7,1.1c-0.4-0.6-0.9-1.1-1.5-1.4s-1.2-0.5-1.9-0.5
				c-0.8,0-1.6,0.2-2.2,0.5c-0.7,0.4-1.2,0.9-1.5,1.6c-0.4,0.7-0.6,1.4-0.6,2.3c0,0.9,0.2,1.7,0.6,2.3s0.9,1.2,1.5,1.6
				c0.6,0.4,1.4,0.5,2.2,0.5c0.7,0,1.4-0.2,1.9-0.5c0.5-0.3,1.1-0.8,1.5-1.4l1.7,1.1c-0.5,0.9-1.2,1.5-2.1,2
				c-0.9,0.5-1.9,0.7-3.1,0.7C303.6,402.1,302.4,401.9,301.4,401.3z"/>
			<path class="st16" d="M313,386.5c-0.3-0.3-0.4-0.6-0.4-1s0.1-0.8,0.4-1.1c0.3-0.3,0.7-0.4,1.1-0.4s0.8,0.1,1.1,0.4
				c0.3,0.3,0.4,0.6,0.4,1s-0.1,0.8-0.4,1.1s-0.7,0.4-1.1,0.4S313.3,386.8,313,386.5z M312.9,389.4h2.3V402h-2.3V389.4z"/>
			<path class="st16" d="M330.9,396.5h-10.2c0.1,1.1,0.6,2,1.5,2.7c0.9,0.7,1.9,1,3.1,1c1.5,0,2.7-0.5,3.6-1.5l1.3,1.5
				c-0.6,0.7-1.3,1.2-2.1,1.5c-0.8,0.3-1.8,0.5-2.8,0.5c-1.3,0-2.5-0.3-3.5-0.8s-1.8-1.3-2.4-2.3c-0.6-1-0.8-2.1-0.8-3.3
				s0.3-2.3,0.8-3.3s1.3-1.7,2.3-2.3c1-0.5,2-0.8,3.2-0.8s2.3,0.3,3.2,0.8s1.7,1.3,2.2,2.3s0.8,2.1,0.8,3.4
				C330.9,395.9,330.9,396.2,330.9,396.5z M322,392.2c-0.7,0.7-1.2,1.5-1.3,2.6h8.1c-0.1-1.1-0.6-1.9-1.3-2.6c-0.7-0.7-1.7-1-2.7-1
				S322.7,391.5,322,392.2z"/>
			<path class="st16" d="M343.3,400.1v1.9h-10.5v-1.5l7.4-9.2h-7.3v-1.9h10.2v1.5l-7.4,9.2H343.3z"/>
			<path class="st16" d="M364.6,384.4V402h-2.2v-2c-0.5,0.7-1.1,1.2-1.9,1.6c-0.8,0.4-1.6,0.5-2.6,0.5c-1.2,0-2.3-0.3-3.3-0.8
				s-1.7-1.3-2.3-2.3c-0.5-1-0.8-2.1-0.8-3.4c0-1.3,0.3-2.4,0.8-3.3c0.5-1,1.3-1.7,2.3-2.3s2.1-0.8,3.3-0.8c0.9,0,1.7,0.2,2.5,0.5
				c0.8,0.3,1.4,0.8,1.9,1.5v-6.9h2.3V384.4z M360.3,399.6c0.6-0.4,1.2-0.9,1.5-1.6s0.5-1.4,0.5-2.3c0-0.9-0.2-1.6-0.5-2.3
				c-0.4-0.7-0.9-1.2-1.5-1.6c-0.6-0.4-1.4-0.5-2.2-0.5s-1.5,0.2-2.2,0.5c-0.6,0.4-1.1,0.9-1.5,1.6s-0.6,1.4-0.6,2.3
				c0,0.9,0.2,1.6,0.6,2.3s0.9,1.2,1.5,1.6s1.4,0.6,2.2,0.6C358.9,400.1,359.7,399.9,360.3,399.6z"/>
			<path class="st16" d="M380.3,396.5h-10.2c0.1,1.1,0.6,2,1.5,2.7c0.8,0.7,1.9,1,3.1,1c1.5,0,2.7-0.5,3.6-1.5l1.3,1.5
				c-0.6,0.7-1.3,1.2-2.1,1.5c-0.8,0.3-1.8,0.5-2.8,0.5c-1.3,0-2.5-0.3-3.5-0.8s-1.8-1.3-2.4-2.3c-0.6-1-0.8-2.1-0.8-3.3
				s0.3-2.3,0.8-3.3s1.3-1.7,2.3-2.3c1-0.5,2-0.8,3.2-0.8s2.3,0.3,3.2,0.8s1.7,1.3,2.2,2.3s0.8,2.1,0.8,3.4
				C380.3,395.9,380.3,396.2,380.3,396.5z M371.4,392.2c-0.7,0.7-1.2,1.5-1.3,2.6h8.1c-0.1-1.1-0.6-1.9-1.3-2.6
				c-0.7-0.7-1.7-1-2.7-1C373,391.2,372.1,391.5,371.4,392.2z"/>
			<path class="st16" d="M398.8,393.3c1.1,0.9,1.7,2.1,1.7,3.7c0,1-0.2,1.9-0.7,2.6s-1.2,1.4-2.1,1.9c-0.9,0.5-2.1,0.7-3.5,0.7
				c-1.2,0-2.3-0.2-3.4-0.5c-1.1-0.3-2-0.9-2.7-1.5l1.1-1.9c0.6,0.5,1.3,1,2.2,1.3s1.8,0.5,2.8,0.5c1.3,0,2.2-0.3,2.9-0.8
				s1-1.3,1-2.2c0-1-0.4-1.8-1.1-2.3c-0.8-0.5-2.1-0.8-3.9-0.8h-3.8l0.9-8.7h9.4v2.1h-7.4l-0.5,4.6h1.9
				C396,392,397.7,392.4,398.8,393.3z"/>
			<path class="st16" d="M418.1,398.1l1.5,1.5c-0.7,0.9-1.7,1.5-2.8,1.9s-2.3,0.7-3.6,0.7c-1.4,0-2.7-0.3-3.8-0.8s-2.2-1.2-3-2.2
				c-0.8-0.9-1.4-2-1.7-3.3H402v-1.3h2.5c0-0.4,0-0.7,0-1c0-0.2,0-0.6,0-1H402v-1.3h2.7c0.3-1.2,0.9-2.3,1.7-3.3s1.8-1.7,3-2.2
				s2.4-0.8,3.8-0.8c1.3,0,2.5,0.2,3.6,0.7s2,1.1,2.7,1.9l-1.5,1.5c-1.3-1.3-2.8-2-4.7-2c-1.4,0-2.7,0.4-3.8,1.1s-1.9,1.7-2.3,3h7.5
				v1.3h-7.9c0,0.3-0.1,0.6-0.1,1c0,0.3,0,0.7,0.1,1h7.9v1.3h-7.5c0.4,1.2,1.2,2.2,2.3,3c1.1,0.7,2.4,1.1,3.8,1.1
				C415.3,400.1,416.8,399.4,418.1,398.1z"/>
			<path class="st16" d="M440.9,384.4V402h-2.2v-2c-0.5,0.7-1.1,1.2-1.9,1.6c-0.8,0.4-1.6,0.5-2.6,0.5c-1.2,0-2.3-0.3-3.3-0.8
				s-1.7-1.3-2.3-2.3s-0.8-2.1-0.8-3.4c0-1.3,0.3-2.4,0.8-3.3c0.5-1,1.3-1.7,2.3-2.3s2.1-0.8,3.3-0.8c0.9,0,1.7,0.2,2.5,0.5
				c0.8,0.3,1.4,0.8,1.9,1.5v-6.9h2.3V384.4z M436.6,399.6c0.6-0.4,1.2-0.9,1.5-1.6c0.4-0.7,0.5-1.4,0.5-2.3c0-0.9-0.2-1.6-0.5-2.3
				c-0.4-0.7-0.9-1.2-1.5-1.6c-0.6-0.4-1.4-0.5-2.2-0.5s-1.5,0.2-2.2,0.5c-0.6,0.4-1.1,0.9-1.5,1.6s-0.6,1.4-0.6,2.3
				c0,0.9,0.2,1.6,0.6,2.3s0.9,1.2,1.5,1.6s1.4,0.6,2.2,0.6C435.3,400.1,436,399.9,436.6,399.6z"/>
			<path class="st16" d="M456.6,396.5h-10.2c0.1,1.1,0.6,2,1.5,2.7c0.9,0.7,1.9,1,3.1,1c1.5,0,2.7-0.5,3.6-1.5l1.3,1.5
				c-0.6,0.7-1.3,1.2-2.1,1.5c-0.8,0.3-1.8,0.5-2.8,0.5c-1.3,0-2.5-0.3-3.5-0.8s-1.8-1.3-2.4-2.3c-0.6-1-0.8-2.1-0.8-3.3
				s0.3-2.3,0.8-3.3s1.3-1.7,2.3-2.3c1-0.5,2-0.8,3.2-0.8s2.3,0.3,3.2,0.8s1.7,1.3,2.2,2.3s0.8,2.1,0.8,3.4
				C456.6,395.9,456.6,396.2,456.6,396.5z M447.7,392.2c-0.7,0.7-1.2,1.5-1.3,2.6h8.1c-0.1-1.1-0.6-1.9-1.3-2.6
				c-0.7-0.7-1.7-1-2.7-1S448.4,391.5,447.7,392.2z"/>
			<path class="st16" d="M470.1,389.8c0.8-0.4,1.7-0.6,2.8-0.6v2.2c-0.1,0-0.3,0-0.5,0c-1.2,0-2.2,0.4-2.9,1.1s-1.1,1.8-1.1,3.1v6.3
				h-2.3v-12.6h2.2v2.1C468.8,390.8,469.4,390.2,470.1,389.8z"/>
			<path class="st16" d="M487,396.5h-10.2c0.1,1.1,0.6,2,1.5,2.7c0.8,0.7,1.9,1,3.1,1c1.5,0,2.7-0.5,3.6-1.5l1.3,1.5
				c-0.6,0.7-1.3,1.2-2.1,1.5c-0.8,0.3-1.8,0.5-2.8,0.5c-1.3,0-2.5-0.3-3.5-0.8s-1.8-1.3-2.4-2.3c-0.6-1-0.8-2.1-0.8-3.3
				s0.3-2.3,0.8-3.3s1.3-1.7,2.3-2.3c1-0.5,2-0.8,3.2-0.8s2.3,0.3,3.2,0.8s1.7,1.3,2.2,2.3s0.8,2.1,0.8,3.4
				C487,395.9,487,396.2,487,396.5z M478.1,392.2c-0.7,0.7-1.2,1.5-1.3,2.6h8.1c-0.1-1.1-0.6-1.9-1.3-2.6c-0.7-0.7-1.7-1-2.7-1
				C479.7,391.2,478.8,391.5,478.1,392.2z"/>
			<path class="st16" d="M509.7,390.7c0.9,0.9,1.4,2.3,1.4,4.1v7.2h-2.3v-7c0-1.2-0.3-2.1-0.8-2.8c-0.6-0.6-1.4-0.9-2.4-0.9
				c-1.2,0-2.1,0.4-2.8,1.1s-1,1.8-1,3.1v6.5h-2.3v-7c0-1.2-0.3-2.1-0.8-2.8c-0.6-0.6-1.4-0.9-2.4-0.9c-1.2,0-2.1,0.4-2.8,1.1
				s-1,1.8-1,3.1v6.5h-2.3v-12.6h2.2v1.9c0.5-0.6,1.1-1.1,1.8-1.5c0.7-0.3,1.6-0.5,2.5-0.5c1,0,1.9,0.2,2.6,0.6s1.3,1,1.8,1.7
				c0.5-0.7,1.1-1.3,2-1.7c0.8-0.4,1.8-0.6,2.9-0.6C507.5,389.3,508.8,389.7,509.7,390.7z"/>
			<path class="st16" d="M515.3,386.5c-0.3-0.3-0.4-0.6-0.4-1s0.1-0.8,0.4-1.1c0.3-0.3,0.7-0.4,1.1-0.4s0.8,0.1,1.1,0.4
				c0.3,0.3,0.4,0.6,0.4,1s-0.1,0.8-0.4,1.1s-0.7,0.4-1.1,0.4S515.6,386.8,515.3,386.5z M515.3,389.4h2.3V402h-2.3V389.4z"/>
			<path class="st16" d="M522.6,401.7c-0.9-0.3-1.7-0.6-2.2-1.1l1-1.8c0.6,0.4,1.2,0.7,2,1c0.8,0.2,1.6,0.4,2.4,0.4c2,0,3-0.6,3-1.7
				c0-0.4-0.1-0.7-0.4-0.9c-0.3-0.2-0.6-0.4-1-0.5c-0.4-0.1-1-0.2-1.7-0.3c-1-0.2-1.8-0.3-2.5-0.5c-0.6-0.2-1.2-0.6-1.7-1
				c-0.5-0.5-0.7-1.2-0.7-2.1c0-1.1,0.5-2.1,1.4-2.7c1-0.7,2.2-1,3.8-1c0.8,0,1.7,0.1,2.5,0.3s1.5,0.5,2.1,0.8l-1,1.8
				c-1-0.7-2.2-1-3.6-1c-1,0-1.7,0.2-2.2,0.5s-0.8,0.7-0.8,1.3c0,0.4,0.1,0.7,0.4,1c0.3,0.3,0.6,0.4,1.1,0.5c0.4,0.1,1,0.2,1.8,0.4
				c1,0.2,1.8,0.4,2.5,0.6c0.7,0.2,1.2,0.5,1.6,1c0.4,0.5,0.7,1.1,0.7,2c0,1.1-0.5,2-1.5,2.7s-2.3,1-4,1
				C524.5,402.1,523.5,402,522.6,401.7z"/>
			<path class="st16" d="M545.2,396.5h-10.3c0.1,1.1,0.6,2,1.5,2.7c0.8,0.7,1.9,1,3.1,1c1.5,0,2.7-0.5,3.6-1.5l1.3,1.5
				c-0.6,0.7-1.3,1.2-2.1,1.5c-0.8,0.3-1.8,0.5-2.8,0.5c-1.3,0-2.5-0.3-3.5-0.8s-1.8-1.3-2.4-2.3c-0.6-1-0.8-2.1-0.8-3.3
				s0.3-2.3,0.8-3.3s1.3-1.7,2.3-2.3c1-0.5,2-0.8,3.2-0.8s2.3,0.3,3.2,0.8s1.7,1.3,2.2,2.3s0.8,2.1,0.8,3.4
				C545.2,395.9,545.2,396.2,545.2,396.5z M536.2,392.2c-0.7,0.7-1.2,1.5-1.3,2.6h8.1c-0.1-1.1-0.6-1.9-1.3-2.6
				c-0.7-0.7-1.7-1-2.7-1C537.9,391.2,537,391.5,536.2,392.2z"/>
		</g>
		<g class="st20">
			<path class="st16" d="M219.8,430.2c-0.9-0.3-1.7-0.6-2.2-1.1l1-1.8c0.6,0.4,1.2,0.7,2,1c0.8,0.2,1.6,0.4,2.4,0.4c2,0,3-0.6,3-1.7
				c0-0.4-0.1-0.7-0.4-0.9c-0.3-0.2-0.6-0.4-1-0.5c-0.4-0.1-1-0.2-1.7-0.3c-1-0.2-1.8-0.3-2.5-0.5c-0.6-0.2-1.2-0.6-1.7-1
				c-0.5-0.5-0.7-1.2-0.7-2.1c0-1.1,0.5-2.1,1.4-2.7c1-0.7,2.2-1,3.8-1c0.8,0,1.7,0.1,2.5,0.3s1.5,0.5,2.1,0.8l-1,1.8
				c-1-0.7-2.2-1-3.6-1c-1,0-1.7,0.2-2.2,0.5s-0.8,0.7-0.8,1.3c0,0.4,0.1,0.7,0.4,1c0.3,0.3,0.6,0.4,1.1,0.5c0.4,0.1,1,0.2,1.8,0.4
				c1,0.2,1.8,0.4,2.5,0.6s1.2,0.5,1.6,1c0.4,0.5,0.7,1.1,0.7,2c0,1.1-0.5,2-1.5,2.7s-2.3,1-4,1
				C221.7,430.6,220.7,430.5,219.8,430.2z"/>
			<path class="st16" d="M242.8,417.9v12.6h-2.2v-1.9c-0.5,0.6-1.1,1.2-1.8,1.5c-0.8,0.4-1.6,0.5-2.5,0.5c-1.7,0-3-0.5-4-1.4
				s-1.4-2.3-1.4-4.1v-7.2h2.3v7c0,1.2,0.3,2.1,0.9,2.8c0.6,0.6,1.4,0.9,2.5,0.9c1.2,0,2.2-0.4,2.8-1.1c0.7-0.7,1-1.8,1-3.1v-6.5
				H242.8z"/>
			<path class="st16" d="M251.1,418.3c0.8-0.4,1.7-0.6,2.8-0.6v2.2c-0.1,0-0.3,0-0.5,0c-1.2,0-2.2,0.4-2.9,1.1s-1.1,1.8-1.1,3.1v6.3
				h-2.3v-12.6h2.2v2.1C249.7,419.3,250.3,418.7,251.1,418.3z"/>
			<path class="st16" d="M273.2,418.6c1,0.5,1.7,1.3,2.3,2.3c0.5,1,0.8,2.1,0.8,3.3c0,1.3-0.3,2.4-0.8,3.4s-1.3,1.7-2.3,2.3
				c-1,0.5-2.1,0.8-3.3,0.8c-0.9,0-1.7-0.2-2.5-0.5s-1.4-0.9-1.9-1.5v6.5h-2.3V418h2.2v2c0.5-0.7,1.1-1.2,1.9-1.6
				c0.8-0.4,1.6-0.5,2.6-0.5C271.2,417.8,272.3,418,273.2,418.6z M271.9,428.1c0.6-0.4,1.1-0.9,1.5-1.6s0.6-1.4,0.6-2.3
				c0-0.9-0.2-1.6-0.6-2.3c-0.4-0.7-0.9-1.2-1.5-1.6c-0.6-0.4-1.4-0.5-2.2-0.5s-1.5,0.2-2.1,0.6s-1.1,0.9-1.5,1.6s-0.6,1.4-0.6,2.3
				c0,0.9,0.2,1.6,0.5,2.3s0.9,1.2,1.5,1.6c0.6,0.4,1.4,0.6,2.2,0.6C270.6,428.6,271.3,428.4,271.9,428.1z"/>
			<path class="st16" d="M283.4,418.3c0.8-0.4,1.7-0.6,2.8-0.6v2.2c-0.1,0-0.3,0-0.5,0c-1.2,0-2.2,0.4-2.9,1.1s-1.1,1.8-1.1,3.1v6.3
				h-2.3v-12.6h2.2v2.1C282,419.3,282.6,418.7,283.4,418.3z"/>
			<path class="st16" d="M300.3,425h-10.2c0.1,1.1,0.6,2,1.5,2.7c0.8,0.7,1.9,1,3.1,1c1.5,0,2.7-0.5,3.6-1.5l1.3,1.5
				c-0.6,0.7-1.3,1.2-2.1,1.5c-0.8,0.3-1.8,0.5-2.8,0.5c-1.3,0-2.5-0.3-3.5-0.8s-1.8-1.3-2.4-2.3c-0.6-1-0.8-2.1-0.8-3.3
				s0.3-2.3,0.8-3.3s1.3-1.7,2.3-2.3c1-0.5,2-0.8,3.2-0.8s2.3,0.3,3.2,0.8s1.7,1.3,2.2,2.3s0.8,2.1,0.8,3.4
				C300.3,424.4,300.3,424.7,300.3,425z M291.3,420.7c-0.7,0.7-1.2,1.5-1.3,2.6h8.1c-0.1-1.1-0.6-1.9-1.3-2.6s-1.7-1-2.7-1
				C293,419.7,292.1,420,291.3,420.7z"/>
			<path class="st16" d="M304.1,430.2c-0.9-0.3-1.7-0.6-2.2-1.1l1-1.8c0.6,0.4,1.2,0.7,2,1c0.8,0.2,1.6,0.4,2.4,0.4c2,0,3-0.6,3-1.7
				c0-0.4-0.1-0.7-0.4-0.9c-0.3-0.2-0.6-0.4-1-0.5c-0.4-0.1-1-0.2-1.7-0.3c-1-0.2-1.8-0.3-2.5-0.5c-0.6-0.2-1.2-0.6-1.7-1
				c-0.5-0.5-0.7-1.2-0.7-2.1c0-1.1,0.5-2.1,1.4-2.7c1-0.7,2.2-1,3.8-1c0.8,0,1.7,0.1,2.5,0.3s1.5,0.5,2.1,0.8l-1,1.8
				c-1-0.7-2.2-1-3.6-1c-1,0-1.7,0.2-2.2,0.5s-0.8,0.7-0.8,1.3c0,0.4,0.1,0.7,0.4,1c0.3,0.3,0.6,0.4,1.1,0.5c0.4,0.1,1,0.2,1.8,0.4
				c1,0.2,1.8,0.4,2.5,0.6s1.2,0.5,1.6,1c0.4,0.5,0.7,1.1,0.7,2c0,1.1-0.5,2-1.5,2.7s-2.3,1-4,1C306,430.6,305,430.5,304.1,430.2z"
				/>
			<path class="st16" d="M326.7,425h-10.2c0.1,1.1,0.6,2,1.5,2.7c0.9,0.7,1.9,1,3.1,1c1.5,0,2.7-0.5,3.6-1.5l1.3,1.5
				c-0.6,0.7-1.3,1.2-2.1,1.5c-0.8,0.3-1.8,0.5-2.8,0.5c-1.3,0-2.5-0.3-3.5-0.8s-1.8-1.3-2.4-2.3c-0.6-1-0.8-2.1-0.8-3.3
				s0.3-2.3,0.8-3.3s1.3-1.7,2.3-2.3c1-0.5,2-0.8,3.2-0.8s2.3,0.3,3.2,0.8s1.7,1.3,2.2,2.3s0.8,2.1,0.8,3.4
				C326.7,424.4,326.7,424.7,326.7,425z M317.8,420.7c-0.7,0.7-1.2,1.5-1.3,2.6h8.1c-0.1-1.1-0.6-1.9-1.3-2.6s-1.7-1-2.7-1
				S318.5,420,317.8,420.7z"/>
			<path class="st16" d="M340.4,419.2c0.9,0.9,1.4,2.3,1.4,4.1v7.2h-2.3v-7c0-1.2-0.3-2.1-0.9-2.8c-0.6-0.6-1.4-0.9-2.5-0.9
				c-1.2,0-2.2,0.4-2.9,1.1c-0.7,0.7-1.1,1.8-1.1,3.1v6.5h-2.2v-12.6h2.2v1.9c0.5-0.6,1.1-1.1,1.9-1.5c0.8-0.3,1.7-0.5,2.7-0.5
				C338.2,417.8,339.5,418.2,340.4,419.2z"/>
			<path class="st16" d="M353.2,429.8c-0.3,0.3-0.7,0.5-1.2,0.7s-1,0.2-1.5,0.2c-1.3,0-2.2-0.3-2.9-1c-0.7-0.7-1-1.7-1-2.9v-6.9
				h-2.1V418h2.1v-2.8h2.3v2.8h3.6v1.9h-3.6v6.8c0,0.7,0.2,1.2,0.5,1.6s0.8,0.5,1.5,0.5s1.3-0.2,1.8-0.6L353.2,429.8z"/>
			<path class="st16" d="M364.5,419.1c0.9,0.9,1.4,2.1,1.4,3.8v7.6h-2.2v-1.7c-0.4,0.6-0.9,1-1.6,1.3c-0.7,0.3-1.5,0.5-2.5,0.5
				c-1.4,0-2.5-0.3-3.4-1c-0.8-0.7-1.3-1.6-1.3-2.7c0-1.1,0.4-2,1.2-2.7c0.8-0.7,2.1-1,3.8-1h3.6v-0.5c0-1-0.3-1.7-0.9-2.3
				s-1.4-0.8-2.5-0.8c-0.7,0-1.5,0.1-2.2,0.4c-0.7,0.2-1.3,0.6-1.8,1l-1-1.7c0.6-0.5,1.4-0.9,2.3-1.2c0.9-0.3,1.9-0.4,2.9-0.4
				C362.2,417.8,363.6,418.2,364.5,419.1z M362.2,428.3c0.6-0.4,1.1-0.9,1.4-1.7v-1.8h-3.5c-1.9,0-2.9,0.6-2.9,1.9
				c0,0.6,0.2,1.1,0.7,1.5c0.5,0.4,1.2,0.5,2,0.5S361.6,428.7,362.2,428.3z"/>
			<path class="st16" d="M377.2,429.8c-0.3,0.3-0.7,0.5-1.2,0.7s-1,0.2-1.5,0.2c-1.3,0-2.2-0.3-2.9-1c-0.7-0.7-1-1.7-1-2.9v-6.9
				h-2.1V418h2.1v-2.8h2.3v2.8h3.6v1.9h-3.6v6.8c0,0.7,0.2,1.2,0.5,1.6s0.8,0.5,1.5,0.5s1.3-0.2,1.8-0.6L377.2,429.8z"/>
			<path class="st16" d="M380,415c-0.3-0.3-0.4-0.6-0.4-1s0.1-0.8,0.4-1.1c0.3-0.3,0.7-0.4,1.1-0.4s0.8,0.1,1.1,0.4
				c0.3,0.3,0.4,0.6,0.4,1s-0.1,0.8-0.4,1.1s-0.7,0.4-1.1,0.4S380.3,415.3,380,415z M379.9,417.9h2.3v12.6h-2.3V417.9z"/>
			<path class="st16" d="M388.6,429.8c-1-0.6-1.8-1.3-2.3-2.3c-0.6-1-0.8-2.1-0.8-3.3c0-1.2,0.3-2.3,0.8-3.3c0.6-1,1.3-1.7,2.3-2.3
				c1-0.5,2.1-0.8,3.4-0.8s2.4,0.3,3.4,0.8s1.8,1.3,2.3,2.3c0.6,1,0.8,2.1,0.8,3.3c0,1.2-0.3,2.3-0.8,3.3c-0.6,1-1.3,1.7-2.3,2.3
				c-1,0.6-2.1,0.8-3.4,0.8S389.6,430.4,388.6,429.8z M394.1,428.1c0.6-0.4,1.1-0.9,1.5-1.6s0.5-1.4,0.5-2.3c0-0.9-0.2-1.6-0.5-2.3
				c-0.4-0.7-0.9-1.2-1.5-1.6c-0.6-0.4-1.4-0.5-2.2-0.5s-1.5,0.2-2.2,0.5c-0.6,0.4-1.1,0.9-1.5,1.6c-0.4,0.7-0.6,1.4-0.6,2.3
				c0,0.9,0.2,1.6,0.6,2.3s0.9,1.2,1.5,1.6s1.4,0.6,2.2,0.6S393.5,428.4,394.1,428.1z"/>
			<path class="st16" d="M412.2,419.2c0.9,0.9,1.4,2.3,1.4,4.1v7.2h-2.3v-7c0-1.2-0.3-2.1-0.9-2.8c-0.6-0.6-1.4-0.9-2.5-0.9
				c-1.2,0-2.2,0.4-2.9,1.1c-0.7,0.7-1.1,1.8-1.1,3.1v6.5h-2.3v-12.6h2.2v1.9c0.5-0.6,1.1-1.1,1.9-1.5c0.8-0.3,1.7-0.5,2.7-0.5
				C410,417.8,411.2,418.2,412.2,419.2z"/>
			<path class="st16" d="M436.1,412.9v17.6h-2.2v-2c-0.5,0.7-1.1,1.2-1.9,1.6c-0.8,0.4-1.6,0.5-2.6,0.5c-1.2,0-2.3-0.3-3.3-0.8
				s-1.7-1.3-2.3-2.3s-0.8-2.1-0.8-3.4c0-1.3,0.3-2.4,0.8-3.3c0.5-1,1.3-1.7,2.3-2.3s2.1-0.8,3.3-0.8c0.9,0,1.7,0.2,2.5,0.5
				c0.8,0.3,1.4,0.8,1.9,1.5v-6.9h2.3V412.9z M431.8,428.1c0.6-0.4,1.2-0.9,1.5-1.6c0.4-0.7,0.5-1.4,0.5-2.3c0-0.9-0.2-1.6-0.5-2.3
				c-0.4-0.7-0.9-1.2-1.5-1.6c-0.6-0.4-1.4-0.5-2.2-0.5s-1.5,0.2-2.2,0.5c-0.6,0.4-1.1,0.9-1.5,1.6c-0.4,0.7-0.6,1.4-0.6,2.3
				c0,0.9,0.2,1.6,0.6,2.3s0.9,1.2,1.5,1.6s1.4,0.6,2.2,0.6C430.4,428.6,431.1,428.4,431.8,428.1z"/>
			<path class="st16" d="M451.8,425h-10.2c0.1,1.1,0.6,2,1.5,2.7c0.9,0.7,1.9,1,3.1,1c1.5,0,2.7-0.5,3.6-1.5l1.3,1.5
				c-0.6,0.7-1.3,1.2-2.1,1.5c-0.8,0.3-1.8,0.5-2.8,0.5c-1.3,0-2.5-0.3-3.5-0.8s-1.8-1.3-2.4-2.3c-0.6-1-0.8-2.1-0.8-3.3
				s0.3-2.3,0.8-3.3s1.3-1.7,2.3-2.3c1-0.5,2-0.8,3.2-0.8s2.3,0.3,3.2,0.8s1.7,1.3,2.2,2.3s0.8,2.1,0.8,3.4
				C451.8,424.4,451.8,424.7,451.8,425z M442.8,420.7c-0.7,0.7-1.2,1.5-1.3,2.6h8.1c-0.1-1.1-0.6-1.9-1.3-2.6s-1.7-1-2.7-1
				S443.6,420,442.8,420.7z"/>
			<path class="st16" d="M463.4,429.8c-1-0.6-1.8-1.3-2.4-2.3c-0.6-1-0.9-2.1-0.9-3.3c0-1.2,0.3-2.3,0.9-3.3s1.4-1.7,2.4-2.3
				c1-0.5,2.2-0.8,3.4-0.8c1.1,0,2.2,0.2,3.1,0.7c0.9,0.5,1.6,1.1,2.1,2l-1.7,1.1c-0.4-0.6-0.9-1.1-1.5-1.4s-1.2-0.5-1.9-0.5
				c-0.8,0-1.6,0.2-2.2,0.5c-0.7,0.4-1.2,0.9-1.5,1.6c-0.4,0.7-0.6,1.4-0.6,2.3s0.2,1.7,0.6,2.3c0.4,0.6,0.9,1.2,1.5,1.6
				c0.6,0.4,1.4,0.5,2.2,0.5c0.7,0,1.4-0.2,1.9-0.5c0.5-0.3,1.1-0.8,1.5-1.4l1.7,1.1c-0.5,0.9-1.2,1.5-2.1,2
				c-0.9,0.5-1.9,0.7-3.1,0.7C465.6,430.6,464.4,430.4,463.4,429.8z"/>
			<path class="st16" d="M486.1,425h-10.2c0.1,1.1,0.6,2,1.5,2.7c0.9,0.7,1.9,1,3.1,1c1.5,0,2.7-0.5,3.6-1.5l1.3,1.5
				c-0.6,0.7-1.3,1.2-2.1,1.5c-0.8,0.3-1.8,0.5-2.8,0.5c-1.3,0-2.5-0.3-3.5-0.8s-1.8-1.3-2.4-2.3c-0.6-1-0.8-2.1-0.8-3.3
				s0.3-2.3,0.8-3.3s1.3-1.7,2.3-2.3c1-0.5,2-0.8,3.2-0.8s2.3,0.3,3.2,0.8s1.7,1.3,2.2,2.3s0.8,2.1,0.8,3.4
				C486.1,424.4,486.1,424.7,486.1,425z M477.1,420.7c-0.7,0.7-1.2,1.5-1.3,2.6h8.1c-0.1-1.1-0.6-1.9-1.3-2.6s-1.7-1-2.7-1
				S477.9,420,477.1,420.7z"/>
			<path class="st16" d="M497.2,430.1c-1.2-0.4-2.1-0.9-2.7-1.5l0.9-1.9c0.6,0.6,1.4,1,2.4,1.4s2,0.5,3.1,0.5c1.4,0,2.4-0.2,3.1-0.7
				c0.7-0.5,1-1.1,1-1.9c0-0.6-0.2-1-0.6-1.4c-0.4-0.4-0.8-0.6-1.4-0.8c-0.5-0.2-1.3-0.4-2.3-0.6c-1.3-0.3-2.3-0.6-3-0.9
				c-0.8-0.3-1.4-0.8-2-1.4c-0.5-0.6-0.8-1.5-0.8-2.5c0-0.9,0.2-1.7,0.7-2.4s1.2-1.3,2.1-1.7c0.9-0.4,2.1-0.6,3.5-0.6
				c1,0,1.9,0.1,2.9,0.4s1.8,0.6,2.4,1.1l-0.8,1.9c-0.7-0.4-1.4-0.8-2.2-1c-0.8-0.2-1.6-0.3-2.3-0.3c-1.3,0-2.4,0.2-3,0.7
				c-0.7,0.5-1,1.1-1,1.9c0,0.6,0.2,1,0.6,1.4c0.4,0.4,0.9,0.6,1.4,0.8c0.6,0.2,1.3,0.4,2.3,0.6c1.3,0.3,2.3,0.6,3,0.9
				c0.8,0.3,1.4,0.8,2,1.4c0.5,0.6,0.8,1.4,0.8,2.5c0,0.9-0.2,1.7-0.7,2.4s-1.2,1.3-2.2,1.7c-1,0.4-2.2,0.6-3.6,0.6
				C499.6,430.7,498.4,430.5,497.2,430.1z"/>
			<path class="st16" d="M526.2,430.5v-12.1l-6,10.1h-1.1l-6-10v12h-2.3v-16.6h1.9l6.9,11.7l6.8-11.7h1.9v16.6H526.2z"/>
			<path class="st16" d="M534.6,430.1c-1.2-0.4-2.1-0.9-2.7-1.5l0.9-1.9c0.6,0.6,1.4,1,2.4,1.4s2,0.5,3.1,0.5c1.4,0,2.4-0.2,3.1-0.7
				c0.7-0.5,1-1.1,1-1.9c0-0.6-0.2-1-0.6-1.4c-0.4-0.4-0.8-0.6-1.4-0.8c-0.5-0.2-1.3-0.4-2.3-0.6c-1.3-0.3-2.3-0.6-3-0.9
				c-0.8-0.3-1.4-0.8-2-1.4c-0.5-0.6-0.8-1.5-0.8-2.5c0-0.9,0.2-1.7,0.7-2.4s1.2-1.3,2.1-1.7c0.9-0.4,2.1-0.6,3.5-0.6
				c1,0,1.9,0.1,2.9,0.4s1.8,0.6,2.4,1.1l-0.8,1.9c-0.7-0.4-1.4-0.8-2.2-1c-0.8-0.2-1.6-0.3-2.3-0.3c-1.3,0-2.4,0.2-3,0.7
				c-0.7,0.5-1,1.1-1,1.9c0,0.6,0.2,1,0.6,1.4c0.4,0.4,0.9,0.6,1.4,0.8c0.6,0.2,1.3,0.4,2.3,0.6c1.3,0.3,2.3,0.6,3,0.9
				c0.8,0.3,1.4,0.8,2,1.4c0.5,0.6,0.8,1.4,0.8,2.5c0,0.9-0.2,1.7-0.7,2.4s-1.2,1.3-2.2,1.7c-1,0.4-2.2,0.6-3.6,0.6
				C537,430.7,535.8,430.5,534.6,430.1z"/>
			<path class="st16" d="M547.7,430.2c-0.3-0.3-0.5-0.7-0.5-1.2s0.2-0.8,0.5-1.2c0.3-0.4,0.7-0.5,1.1-0.5c0.4,0,0.8,0.2,1.1,0.5
				c0.3,0.3,0.5,0.7,0.5,1.2s-0.2,0.9-0.5,1.2c-0.3,0.3-0.7,0.5-1.1,0.5C548.4,430.6,548,430.5,547.7,430.2z"/>
		</g>
	</g>
	<g class="st21">
		<path class="st15" d="M221.1,366c-1.3-0.4-2.3-1-3-1.7l1-2.1c0.7,0.6,1.6,1.1,2.7,1.5c1.1,0.4,2.2,0.6,3.4,0.6
			c1.5,0,2.7-0.3,3.4-0.8c0.8-0.5,1.1-1.2,1.1-2.1c0-0.6-0.2-1.1-0.6-1.5c-0.4-0.4-0.9-0.7-1.5-0.9s-1.5-0.4-2.6-0.7
			c-1.4-0.3-2.5-0.7-3.4-1c-0.9-0.3-1.6-0.8-2.2-1.5c-0.6-0.7-0.9-1.6-0.9-2.8c0-1,0.3-1.9,0.8-2.7c0.5-0.8,1.3-1.4,2.4-1.9
			c1.1-0.5,2.4-0.7,3.9-0.7c1.1,0,2.2,0.1,3.2,0.4c1.1,0.3,2,0.7,2.7,1.2l-0.9,2.1c-0.8-0.5-1.6-0.9-2.5-1.1
			c-0.9-0.3-1.7-0.4-2.6-0.4c-1.5,0-2.6,0.3-3.4,0.8s-1.1,1.2-1.1,2.1c0,0.6,0.2,1.1,0.6,1.5c0.4,0.4,0.9,0.7,1.6,0.9
			c0.6,0.2,1.5,0.5,2.5,0.7c1.4,0.3,2.5,0.7,3.3,1c0.8,0.3,1.6,0.8,2.2,1.5c0.6,0.7,0.9,1.6,0.9,2.8c0,1-0.3,1.8-0.8,2.6
			c-0.5,0.8-1.3,1.4-2.4,1.9c-1.1,0.5-2.4,0.7-3.9,0.7C223.7,366.7,222.4,366.5,221.1,366z"/>
		<path class="st15" d="M252,348v18.4h-2.6v-8.2h-10.6v8.2h-2.6V348h2.6v8h10.6v-8H252z"/>
		<path class="st15" d="M260.8,365.5c-1.5-0.8-2.7-1.9-3.5-3.4c-0.9-1.4-1.3-3-1.3-4.8c0-1.8,0.4-3.4,1.3-4.8c0.9-1.4,2-2.6,3.5-3.4
			c1.5-0.8,3.2-1.2,5-1.2s3.5,0.4,5,1.2c1.5,0.8,2.7,1.9,3.5,3.4c0.8,1.4,1.3,3,1.3,4.8c0,1.8-0.4,3.4-1.3,4.8
			c-0.8,1.4-2,2.6-3.5,3.4s-3.2,1.2-5,1.2C263.9,366.7,262.3,366.3,260.8,365.5z M269.4,363.4c1.1-0.6,1.9-1.5,2.6-2.5
			c0.6-1.1,0.9-2.3,0.9-3.6c0-1.3-0.3-2.5-0.9-3.6c-0.6-1.1-1.5-1.9-2.6-2.5c-1.1-0.6-2.3-0.9-3.6-0.9s-2.6,0.3-3.7,0.9
			c-1.1,0.6-2,1.5-2.6,2.5c-0.6,1.1-0.9,2.3-0.9,3.6c0,1.3,0.3,2.5,0.9,3.6c0.6,1.1,1.5,1.9,2.6,2.5s2.3,0.9,3.7,0.9
			S268.4,364,269.4,363.4z"/>
		<path class="st15" d="M292.4,349.8c1.4,1.1,2.1,2.7,2.1,4.7s-0.7,3.6-2.1,4.7c-1.4,1.1-3.2,1.7-5.6,1.7h-4.6v5.6h-2.6V348h7.2
			C289.2,348,291.1,348.6,292.4,349.8z M290.5,357.5c0.9-0.7,1.3-1.7,1.3-3.1s-0.4-2.4-1.3-3.1c-0.9-0.7-2.1-1.1-3.8-1.1h-4.5v8.3
			h4.5C288.4,358.6,289.6,358.2,290.5,357.5z"/>
	</g>
</g>
<g id="message1" class="st17">
	<path class="st18" d="M246.5,23.6h363.9c10.5,0,19,8.5,19,19v82.9c0,10.5-8.5,19-19,19H246.5c-10.5,0-19-8.5-19-19V42.6
		C227.4,32.1,236,23.6,246.5,23.6z"/>
	<g class="st21">
		<path class="st16" d="M275.5,106.9v17.6h-2.2v-2c-0.5,0.7-1.1,1.2-1.9,1.6c-0.8,0.4-1.6,0.5-2.6,0.5c-1.2,0-2.3-0.3-3.3-0.8
			s-1.7-1.2-2.2-2.2s-0.8-2.1-0.8-3.4c0-1.3,0.3-2.4,0.8-3.3c0.5-1,1.3-1.7,2.3-2.3s2.1-0.8,3.3-0.8c0.9,0,1.7,0.2,2.5,0.5
			c0.8,0.3,1.4,0.8,1.9,1.5v-6.9H275.5z M271.2,122.1c0.6-0.4,1.2-0.9,1.5-1.6c0.4-0.7,0.5-1.4,0.5-2.3s-0.2-1.6-0.5-2.3
			c-0.4-0.7-0.9-1.2-1.5-1.6c-0.6-0.4-1.4-0.5-2.2-0.5c-0.8,0-1.5,0.2-2.2,0.5c-0.6,0.4-1.1,0.9-1.5,1.6c-0.4,0.7-0.6,1.4-0.6,2.3
			s0.2,1.6,0.6,2.3s0.9,1.2,1.5,1.6c0.6,0.4,1.4,0.6,2.2,0.6C269.8,122.7,270.5,122.5,271.2,122.1z"/>
		<path class="st16" d="M279.8,109.1c-0.3-0.3-0.4-0.6-0.4-1s0.1-0.8,0.4-1.1c0.3-0.3,0.7-0.4,1.1-0.4c0.4,0,0.8,0.1,1.1,0.4
			c0.3,0.3,0.4,0.6,0.4,1s-0.1,0.8-0.4,1.1c-0.3,0.3-0.7,0.4-1.1,0.4C280.5,109.5,280.1,109.4,279.8,109.1z M279.8,112h2.3v12.6
			h-2.3V112z"/>
		<path class="st16" d="M287.1,124.3c-0.9-0.3-1.7-0.6-2.2-1.1l0.9-1.8c0.6,0.4,1.2,0.7,2,1c0.8,0.2,1.6,0.4,2.4,0.4
			c2,0,3-0.6,3-1.7c0-0.4-0.1-0.7-0.4-0.9c-0.3-0.2-0.6-0.4-1-0.5s-1-0.2-1.7-0.3c-1-0.2-1.8-0.3-2.5-0.5c-0.6-0.2-1.2-0.6-1.7-1
			c-0.5-0.5-0.7-1.2-0.7-2.1c0-1.1,0.5-2.1,1.4-2.7c1-0.7,2.2-1,3.8-1c0.8,0,1.7,0.1,2.5,0.3c0.8,0.2,1.5,0.5,2.1,0.8l-1,1.8
			c-1-0.7-2.2-1-3.6-1c-1,0-1.7,0.2-2.2,0.5s-0.8,0.7-0.8,1.3c0,0.4,0.1,0.7,0.4,1c0.3,0.3,0.6,0.4,1.1,0.5c0.4,0.1,1,0.2,1.8,0.4
			c1,0.2,1.8,0.4,2.5,0.6c0.6,0.2,1.2,0.5,1.6,1c0.4,0.5,0.7,1.1,0.7,2c0,1.1-0.5,2-1.5,2.7s-2.3,1-4,1
			C289,124.7,288,124.5,287.1,124.3z"/>
		<path class="st16" d="M308.3,112.6c1,0.5,1.7,1.3,2.3,2.3c0.5,1,0.8,2.1,0.8,3.3c0,1.3-0.3,2.4-0.8,3.4s-1.3,1.7-2.3,2.3
			c-1,0.5-2.1,0.8-3.3,0.8c-0.9,0-1.7-0.2-2.5-0.5c-0.8-0.3-1.4-0.9-1.9-1.5v6.5h-2.3V112h2.2v2c0.5-0.7,1.1-1.2,1.9-1.6
			c0.8-0.4,1.6-0.5,2.6-0.5C306.2,111.8,307.3,112.1,308.3,112.6z M307,122.1c0.6-0.4,1.1-0.9,1.5-1.6c0.4-0.7,0.6-1.4,0.6-2.3
			s-0.2-1.6-0.6-2.3s-0.9-1.2-1.5-1.6c-0.6-0.4-1.4-0.5-2.2-0.5c-0.8,0-1.5,0.2-2.1,0.6c-0.6,0.4-1.1,0.9-1.5,1.6
			c-0.4,0.7-0.6,1.4-0.6,2.3s0.2,1.6,0.5,2.3c0.3,0.7,0.9,1.2,1.5,1.6c0.6,0.4,1.4,0.6,2.2,0.6C305.6,122.7,306.3,122.5,307,122.1z"
			/>
		<path class="st16" d="M316.6,123.9c-1-0.6-1.8-1.3-2.3-2.3c-0.6-1-0.8-2.1-0.8-3.3s0.3-2.3,0.8-3.3s1.3-1.7,2.3-2.3
			c1-0.5,2.1-0.8,3.4-0.8s2.4,0.3,3.4,0.8s1.8,1.3,2.3,2.3s0.8,2.1,0.8,3.3s-0.3,2.3-0.8,3.3c-0.6,1-1.3,1.7-2.3,2.3
			s-2.1,0.8-3.4,0.8S317.5,124.4,316.6,123.9z M322.1,122.1c0.6-0.4,1.1-0.9,1.5-1.6c0.4-0.7,0.5-1.4,0.5-2.3s-0.2-1.6-0.5-2.3
			c-0.4-0.7-0.9-1.2-1.5-1.6c-0.6-0.4-1.4-0.5-2.2-0.5c-0.8,0-1.5,0.2-2.2,0.5c-0.6,0.4-1.1,0.9-1.5,1.6c-0.4,0.7-0.6,1.4-0.6,2.3
			s0.2,1.6,0.6,2.3s0.9,1.2,1.5,1.6c0.6,0.4,1.4,0.6,2.2,0.6C320.7,122.7,321.5,122.5,322.1,122.1z"/>
		<path class="st16" d="M340.1,113.2c0.9,0.9,1.4,2.3,1.4,4.1v7.2h-2.3v-7c0-1.2-0.3-2.1-0.9-2.8c-0.6-0.6-1.4-0.9-2.5-0.9
			c-1.2,0-2.2,0.4-2.9,1.1c-0.7,0.7-1.1,1.8-1.1,3.1v6.5h-2.3v-12.6h2.2v1.9c0.5-0.6,1.1-1.1,1.9-1.5c0.8-0.3,1.7-0.5,2.7-0.5
			C337.9,111.8,339.2,112.3,340.1,113.2z"/>
		<path class="st16" d="M345.8,109.1c-0.3-0.3-0.4-0.6-0.4-1s0.1-0.8,0.4-1.1s0.7-0.4,1.1-0.4c0.4,0,0.8,0.1,1.1,0.4
			c0.3,0.3,0.4,0.6,0.4,1s-0.1,0.8-0.4,1.1s-0.7,0.4-1.1,0.4C346.5,109.5,346.1,109.4,345.8,109.1z M345.8,112h2.3v12.6h-2.3V112z"
			/>
		<path class="st16" d="M362.4,112.6c1,0.5,1.7,1.3,2.3,2.3c0.5,1,0.8,2.1,0.8,3.3c0,1.3-0.3,2.4-0.8,3.4s-1.3,1.7-2.3,2.3
			c-1,0.5-2.1,0.8-3.3,0.8c-0.9,0-1.8-0.2-2.6-0.5c-0.8-0.4-1.4-0.9-1.9-1.6v2h-2.2V107h2.3v6.9c0.5-0.7,1.1-1.2,1.9-1.5
			c0.8-0.3,1.6-0.5,2.5-0.5C360.3,111.8,361.4,112.1,362.4,112.6z M361.1,122.1c0.6-0.4,1.1-0.9,1.5-1.6c0.4-0.7,0.6-1.4,0.6-2.3
			s-0.2-1.6-0.6-2.3c-0.4-0.7-0.9-1.2-1.5-1.6c-0.6-0.4-1.4-0.5-2.2-0.5c-0.8,0-1.5,0.2-2.2,0.5c-0.6,0.4-1.2,0.9-1.5,1.6
			c-0.4,0.7-0.5,1.4-0.5,2.3s0.2,1.6,0.5,2.3c0.3,0.7,0.9,1.2,1.5,1.6c0.6,0.4,1.4,0.6,2.2,0.6C359.7,122.7,360.4,122.5,361.1,122.1
			z"/>
		<path class="st16" d="M368.6,106.9h2.3v17.6h-2.3V106.9z"/>
		<path class="st16" d="M386.6,119h-10.2c0.1,1.1,0.6,2,1.5,2.7c0.8,0.7,1.9,1,3.1,1c1.5,0,2.7-0.5,3.6-1.5l1.3,1.5
			c-0.6,0.7-1.3,1.2-2.1,1.5c-0.8,0.3-1.8,0.5-2.8,0.5c-1.3,0-2.5-0.3-3.5-0.8s-1.8-1.3-2.4-2.3c-0.6-1-0.8-2.1-0.8-3.3
			s0.3-2.3,0.8-3.3s1.3-1.7,2.3-2.3c1-0.5,2-0.8,3.2-0.8c1.2,0,2.3,0.3,3.2,0.8s1.7,1.3,2.2,2.3s0.8,2.1,0.8,3.4
			C386.6,118.5,386.6,118.7,386.6,119z M377.7,114.8c-0.7,0.7-1.2,1.5-1.3,2.6h8.1c-0.1-1.1-0.6-1.9-1.3-2.6c-0.7-0.7-1.7-1-2.7-1
			C379.3,113.8,378.4,114.1,377.7,114.8z"/>
		<path class="st16" d="M404.8,113.1c0.9,0.9,1.4,2.1,1.4,3.8v7.6H404v-1.7c-0.4,0.6-0.9,1-1.6,1.3c-0.7,0.3-1.5,0.5-2.5,0.5
			c-1.4,0-2.5-0.3-3.4-1s-1.3-1.6-1.3-2.7c0-1.1,0.4-2,1.2-2.7c0.8-0.7,2.1-1,3.8-1h3.6v-0.5c0-1-0.3-1.7-0.9-2.3
			c-0.6-0.5-1.4-0.8-2.5-0.8c-0.7,0-1.5,0.1-2.2,0.4c-0.7,0.2-1.3,0.6-1.8,1l-1-1.7c0.6-0.5,1.4-0.9,2.3-1.2s1.9-0.4,2.9-0.4
			C402.5,111.8,403.8,112.3,404.8,113.1z M402.5,122.3c0.6-0.4,1.1-0.9,1.4-1.7v-1.8h-3.5c-1.9,0-2.9,0.6-2.9,1.9
			c0,0.6,0.2,1.1,0.7,1.5s1.2,0.5,2,0.5C401.1,122.9,401.9,122.7,402.5,122.3z"/>
		<path class="st16" d="M422.1,112v12.6h-2.2v-2c-0.5,0.6-1.1,1.2-1.8,1.5c-0.8,0.4-1.6,0.5-2.5,0.5c-1.7,0-3-0.5-4-1.4
			s-1.4-2.3-1.4-4.1v-7.2h2.3v7c0,1.2,0.3,2.1,0.9,2.8c0.6,0.6,1.4,0.9,2.5,0.9c1.2,0,2.2-0.4,2.9-1.1c0.7-0.7,1-1.8,1-3.1v-6.5h2.3
			V112z"/>
		<path class="st16" d="M442.8,112.6c1,0.5,1.7,1.3,2.3,2.3c0.5,1,0.8,2.1,0.8,3.3c0,1.3-0.3,2.4-0.8,3.4s-1.3,1.7-2.3,2.3
			c-1,0.5-2.1,0.8-3.3,0.8c-0.9,0-1.7-0.2-2.5-0.5c-0.8-0.3-1.4-0.9-1.9-1.5v6.5h-2.3V112h2.2v2c0.5-0.7,1.1-1.2,1.9-1.6
			s1.6-0.5,2.6-0.5C440.7,111.8,441.8,112.1,442.8,112.6z M441.5,122.1c0.6-0.4,1.1-0.9,1.5-1.6c0.4-0.7,0.6-1.4,0.6-2.3
			s-0.2-1.6-0.6-2.3c-0.4-0.7-0.9-1.2-1.5-1.6c-0.6-0.4-1.4-0.5-2.2-0.5c-0.8,0-1.5,0.2-2.1,0.6c-0.6,0.4-1.1,0.9-1.5,1.6
			c-0.4,0.7-0.6,1.4-0.6,2.3s0.2,1.6,0.5,2.3c0.3,0.7,0.9,1.2,1.5,1.6c0.6,0.4,1.4,0.6,2.2,0.6C440.1,122.7,440.9,122.5,441.5,122.1
			z"/>
		<path class="st16" d="M451.1,123.9c-1-0.6-1.8-1.3-2.3-2.3c-0.6-1-0.8-2.1-0.8-3.3s0.3-2.3,0.8-3.3s1.3-1.7,2.3-2.3
			c1-0.5,2.1-0.8,3.4-0.8s2.4,0.3,3.4,0.8s1.8,1.3,2.3,2.3s0.8,2.1,0.8,3.3s-0.3,2.3-0.8,3.3c-0.6,1-1.3,1.7-2.3,2.3
			s-2.1,0.8-3.4,0.8S452.1,124.4,451.1,123.9z M456.6,122.1c0.6-0.4,1.1-0.9,1.5-1.6c0.4-0.7,0.5-1.4,0.5-2.3s-0.2-1.6-0.5-2.3
			c-0.4-0.7-0.9-1.2-1.5-1.6c-0.6-0.4-1.4-0.5-2.2-0.5s-1.5,0.2-2.2,0.5c-0.6,0.4-1.1,0.9-1.5,1.6c-0.4,0.7-0.6,1.4-0.6,2.3
			s0.2,1.6,0.6,2.3s0.9,1.2,1.5,1.6c0.6,0.4,1.4,0.6,2.2,0.6S456,122.5,456.6,122.1z"/>
		<path class="st16" d="M464.2,109.1c-0.3-0.3-0.4-0.6-0.4-1s0.1-0.8,0.4-1.1s0.7-0.4,1.1-0.4s0.8,0.1,1.1,0.4
			c0.3,0.3,0.4,0.6,0.4,1s-0.1,0.8-0.4,1.1s-0.7,0.4-1.1,0.4S464.5,109.4,464.2,109.1z M464.1,112h2.3v12.6h-2.3V112z"/>
		<path class="st16" d="M481.3,113.2c0.9,0.9,1.4,2.3,1.4,4.1v7.2h-2.3v-7c0-1.2-0.3-2.1-0.9-2.8c-0.6-0.6-1.4-0.9-2.5-0.9
			c-1.2,0-2.2,0.4-2.9,1.1c-0.7,0.7-1.1,1.8-1.1,3.1v6.5h-2.2v-12.6h2.2v1.9c0.5-0.6,1.1-1.1,1.9-1.5c0.8-0.3,1.7-0.5,2.7-0.5
			C479.1,111.8,480.4,112.3,481.3,113.2z"/>
		<path class="st16" d="M494,123.8c-0.3,0.3-0.7,0.5-1.2,0.7s-1,0.2-1.5,0.2c-1.3,0-2.2-0.3-2.9-1c-0.7-0.7-1-1.7-1-2.9v-6.9h-2.1
			V112h2.1v-2.8h2.3v2.8h3.6v1.9h-3.6v6.8c0,0.7,0.2,1.2,0.5,1.6c0.3,0.4,0.8,0.5,1.5,0.5s1.3-0.2,1.8-0.6L494,123.8z"/>
		<path class="st16" d="M507.1,112.4c0.8-0.4,1.7-0.6,2.8-0.6v2.2c-0.1,0-0.3,0-0.5,0c-1.2,0-2.2,0.4-2.9,1.1
			c-0.7,0.7-1.1,1.8-1.1,3.1v6.3h-2.3v-12.6h2.2v2.1C505.7,113.3,506.3,112.8,507.1,112.4z"/>
		<path class="st16" d="M523.9,119h-10.2c0.1,1.1,0.6,2,1.5,2.7c0.8,0.7,1.9,1,3.1,1c1.5,0,2.7-0.5,3.6-1.5l1.3,1.5
			c-0.6,0.7-1.3,1.2-2.1,1.5c-0.8,0.3-1.8,0.5-2.8,0.5c-1.3,0-2.5-0.3-3.5-0.8s-1.8-1.3-2.4-2.3c-0.6-1-0.8-2.1-0.8-3.3
			s0.3-2.3,0.8-3.3c0.5-1,1.3-1.7,2.3-2.3c1-0.5,2-0.8,3.2-0.8s2.3,0.3,3.2,0.8s1.7,1.3,2.2,2.3s0.8,2.1,0.8,3.4
			C524,118.5,524,118.7,523.9,119z M515,114.8c-0.7,0.7-1.2,1.5-1.3,2.6h8.1c-0.1-1.1-0.6-1.9-1.3-2.6c-0.7-0.7-1.7-1-2.7-1
			C516.7,113.8,515.8,114.1,515,114.8z"/>
		<path class="st16" d="M534.2,123.8c-0.3,0.3-0.7,0.5-1.2,0.7s-1,0.2-1.5,0.2c-1.3,0-2.2-0.3-2.9-1c-0.7-0.7-1-1.7-1-2.9v-6.9h-2.1
			V112h2.1v-2.8h2.3v2.8h3.6v1.9h-3.7v6.8c0,0.7,0.2,1.2,0.5,1.6c0.3,0.4,0.8,0.5,1.5,0.5s1.3-0.2,1.8-0.6L534.2,123.8z"/>
		<path class="st16" d="M540.9,112.4c0.8-0.4,1.7-0.6,2.8-0.6v2.2c-0.1,0-0.3,0-0.5,0c-1.2,0-2.2,0.4-2.9,1.1
			c-0.7,0.7-1.1,1.8-1.1,3.1v6.3h-2.3v-12.6h2.2v2.1C539.6,113.3,540.2,112.8,540.9,112.4z"/>
		<path class="st16" d="M555.1,113.1c0.9,0.9,1.4,2.1,1.4,3.8v7.6h-2.2v-1.7c-0.4,0.6-0.9,1-1.6,1.3s-1.5,0.5-2.5,0.5
			c-1.4,0-2.5-0.3-3.4-1c-0.9-0.7-1.3-1.6-1.3-2.7c0-1.1,0.4-2,1.2-2.7s2.1-1,3.8-1h3.6v-0.5c0-1-0.3-1.7-0.9-2.3
			c-0.6-0.5-1.4-0.8-2.5-0.8c-0.7,0-1.5,0.1-2.2,0.4c-0.7,0.2-1.3,0.6-1.8,1l-1-1.7c0.6-0.5,1.4-0.9,2.3-1.2
			c0.9-0.3,1.9-0.4,2.9-0.4C552.9,111.8,554.2,112.3,555.1,113.1z M552.9,122.3c0.6-0.4,1.1-0.9,1.4-1.7v-1.8h-3.5
			c-1.9,0-2.9,0.6-2.9,1.9c0,0.6,0.2,1.1,0.7,1.5s1.2,0.5,2,0.5C551.5,122.9,552.2,122.7,552.9,122.3z"/>
		<path class="st16" d="M560.8,109.1c-0.3-0.3-0.4-0.6-0.4-1s0.1-0.8,0.4-1.1s0.7-0.4,1.1-0.4c0.4,0,0.8,0.1,1.1,0.4
			c0.3,0.3,0.4,0.6,0.4,1s-0.1,0.8-0.4,1.1s-0.7,0.4-1.1,0.4C561.5,109.5,561.1,109.4,560.8,109.1z M560.7,112h2.3v12.6h-2.3V112z"
			/>
		<path class="st16" d="M574.4,123.8c-0.3,0.3-0.7,0.5-1.2,0.7s-1,0.2-1.5,0.2c-1.3,0-2.2-0.3-2.9-1c-0.7-0.7-1-1.7-1-2.9v-6.9h-2.1
			V112h2.1v-2.8h2.3v2.8h3.6v1.9h-3.6v6.8c0,0.7,0.2,1.2,0.5,1.6c0.3,0.4,0.8,0.5,1.5,0.5s1.3-0.2,1.8-0.6L574.4,123.8z"/>
		<path class="st16" d="M576.8,124.2c-0.3-0.3-0.5-0.7-0.5-1.2s0.2-0.8,0.5-1.2c0.3-0.3,0.7-0.5,1.1-0.5c0.4,0,0.8,0.2,1.1,0.5
			c0.3,0.3,0.5,0.7,0.5,1.2s-0.2,0.9-0.5,1.2s-0.7,0.5-1.1,0.5C577.5,124.7,577.2,124.5,576.8,124.2z"/>
	</g>
	<g class="st21">
		<path class="st16" d="M278.4,79.4L271.1,96h-2.4l-7.3-16.6h2.6l6,13.7l6-13.7H278.4z"/>
		<path class="st16" d="M281.2,95.4c-1-0.6-1.8-1.3-2.3-2.3c-0.6-1-0.8-2.1-0.8-3.3s0.3-2.3,0.8-3.3s1.3-1.7,2.3-2.3
			c1-0.5,2.1-0.8,3.4-0.8c1.3,0,2.4,0.3,3.4,0.8s1.8,1.3,2.3,2.3s0.8,2.1,0.8,3.3s-0.3,2.3-0.8,3.3c-0.6,1-1.3,1.7-2.3,2.3
			s-2.1,0.8-3.4,0.8C283.3,96.2,282.2,95.9,281.2,95.4z M286.8,93.6c0.6-0.4,1.1-0.9,1.5-1.6c0.4-0.7,0.5-1.4,0.5-2.3
			s-0.2-1.6-0.5-2.3c-0.4-0.7-0.9-1.2-1.5-1.6c-0.6-0.4-1.4-0.5-2.2-0.5s-1.5,0.2-2.2,0.5c-0.6,0.4-1.1,0.9-1.5,1.6
			c-0.4,0.7-0.6,1.4-0.6,2.3s0.2,1.6,0.6,2.3c0.4,0.7,0.9,1.2,1.5,1.6c0.6,0.4,1.4,0.6,2.2,0.6S286.1,94,286.8,93.6z"/>
		<path class="st16" d="M301.4,95.3c-0.3,0.3-0.7,0.5-1.2,0.7s-1,0.2-1.5,0.2c-1.3,0-2.2-0.3-2.9-1c-0.7-0.7-1-1.7-1-2.9v-6.9h-2.1
			v-1.9h2.1v-2.8h2.3v2.8h3.6v1.9h-3.6v6.8c0,0.7,0.2,1.2,0.5,1.6c0.3,0.4,0.8,0.5,1.5,0.5c0.7,0,1.3-0.2,1.8-0.6L301.4,95.3z"/>
		<path class="st16" d="M308.1,83.9c0.8-0.4,1.7-0.6,2.8-0.6v2.2c-0.1,0-0.3,0-0.5,0c-1.2,0-2.2,0.4-2.9,1.1
			c-0.7,0.7-1.1,1.8-1.1,3.1V96h-2.3V83.4h2.2v2.1C306.7,84.8,307.3,84.3,308.1,83.9z"/>
		<path class="st16" d="M324.9,90.5h-10.2c0.1,1.1,0.6,2,1.5,2.7c0.8,0.7,1.9,1,3.1,1c1.5,0,2.7-0.5,3.6-1.5l1.3,1.5
			c-0.6,0.7-1.3,1.2-2.1,1.5c-0.8,0.3-1.8,0.5-2.8,0.5c-1.3,0-2.5-0.3-3.5-0.8s-1.8-1.3-2.4-2.3s-0.8-2.1-0.8-3.3s0.3-2.3,0.8-3.3
			s1.3-1.7,2.3-2.3c1-0.5,2-0.8,3.2-0.8s2.3,0.3,3.2,0.8s1.7,1.3,2.2,2.3s0.8,2.1,0.8,3.4C325,90,324.9,90.2,324.9,90.5z M316,86.3
			c-0.7,0.7-1.2,1.5-1.3,2.6h8.1c-0.1-1.1-0.6-1.9-1.3-2.6c-0.7-0.7-1.7-1-2.7-1C317.6,85.3,316.7,85.6,316,86.3z"/>
		<path class="st16" d="M336.6,95.4c-1-0.6-1.8-1.3-2.4-2.3s-0.9-2.1-0.9-3.3s0.3-2.3,0.9-3.3c0.6-1,1.4-1.7,2.4-2.3
			c1-0.5,2.1-0.8,3.4-0.8c1.1,0,2.2,0.2,3.1,0.7s1.6,1.1,2.1,2l-1.7,1.1c-0.4-0.6-0.9-1.1-1.5-1.4s-1.2-0.5-1.9-0.5
			c-0.8,0-1.6,0.2-2.2,0.5c-0.7,0.4-1.2,0.9-1.5,1.6c-0.4,0.7-0.6,1.4-0.6,2.3c0,0.9,0.2,1.7,0.6,2.3c0.4,0.6,0.9,1.2,1.5,1.6
			s1.4,0.5,2.2,0.5c0.7,0,1.4-0.2,1.9-0.5s1.1-0.8,1.5-1.4l1.7,1.1c-0.5,0.9-1.2,1.5-2.1,2c-0.9,0.5-1.9,0.7-3.1,0.7
			C338.7,96.2,337.6,95.9,336.6,95.4z"/>
		<path class="st16" d="M349.9,95.4c-1-0.6-1.8-1.3-2.3-2.3c-0.6-1-0.8-2.1-0.8-3.3s0.3-2.3,0.8-3.3s1.3-1.7,2.3-2.3
			c1-0.5,2.1-0.8,3.4-0.8s2.4,0.3,3.4,0.8s1.8,1.3,2.3,2.3s0.8,2.1,0.8,3.3s-0.3,2.3-0.8,3.3c-0.6,1-1.3,1.7-2.3,2.3
			s-2.1,0.8-3.4,0.8S350.9,95.9,349.9,95.4z M355.4,93.6c0.6-0.4,1.1-0.9,1.5-1.6c0.4-0.7,0.5-1.4,0.5-2.3s-0.2-1.6-0.5-2.3
			c-0.4-0.7-0.9-1.2-1.5-1.6c-0.6-0.4-1.4-0.5-2.2-0.5c-0.8,0-1.5,0.2-2.2,0.5c-0.6,0.4-1.1,0.9-1.5,1.6c-0.4,0.7-0.6,1.4-0.6,2.3
			s0.2,1.6,0.6,2.3c0.4,0.7,0.9,1.2,1.5,1.6c0.6,0.4,1.4,0.6,2.2,0.6C354,94.2,354.8,94,355.4,93.6z"/>
		<path class="st16" d="M363,78.4h2.3V96H363V78.4z"/>
		<path class="st16" d="M369.6,80.6c-0.3-0.3-0.4-0.6-0.4-1s0.1-0.8,0.4-1.1c0.3-0.3,0.7-0.4,1.1-0.4c0.4,0,0.8,0.1,1.1,0.4
			c0.3,0.3,0.4,0.6,0.4,1s-0.1,0.8-0.4,1.1s-0.7,0.4-1.1,0.4C370.3,81,369.9,80.9,369.6,80.6z M369.6,83.5h2.3v12.6h-2.3V83.5z"/>
		<path class="st16" d="M376.9,95.8c-0.9-0.3-1.7-0.6-2.2-1.1l0.9-1.8c0.6,0.4,1.2,0.7,2,1c0.8,0.2,1.6,0.4,2.4,0.4c2,0,3-0.6,3-1.7
			c0-0.4-0.1-0.7-0.4-0.9s-0.6-0.4-1-0.5s-1-0.2-1.7-0.3c-1-0.2-1.8-0.3-2.5-0.5c-0.6-0.2-1.2-0.6-1.7-1c-0.5-0.5-0.7-1.2-0.7-2.1
			c0-1.1,0.5-2.1,1.4-2.7c1-0.7,2.2-1,3.8-1c0.8,0,1.7,0.1,2.5,0.3c0.8,0.2,1.5,0.5,2.1,0.8l-1,1.8c-1-0.7-2.2-1-3.6-1
			c-1,0-1.7,0.2-2.2,0.5s-0.8,0.7-0.8,1.3c0,0.4,0.1,0.7,0.4,1s0.6,0.4,1.1,0.5c0.4,0.1,1,0.2,1.8,0.4c1,0.2,1.8,0.4,2.5,0.6
			c0.6,0.2,1.2,0.5,1.6,1c0.4,0.5,0.7,1.1,0.7,2c0,1.1-0.5,2-1.5,2.7s-2.3,1-4,1C378.8,96.2,377.8,96,376.9,95.8z"/>
		<path class="st16" d="M405,84.7c0.9,0.9,1.4,2.3,1.4,4.1V96h-2.3v-7c0-1.2-0.3-2.1-0.9-2.8c-0.6-0.6-1.4-0.9-2.5-0.9
			c-1.2,0-2.2,0.4-2.9,1.1c-0.7,0.7-1.1,1.8-1.1,3.1V96h-2.3V83.4h2.2v1.9c0.5-0.6,1.1-1.1,1.9-1.5c0.8-0.3,1.7-0.5,2.7-0.5
			C402.8,83.3,404.1,83.8,405,84.7z"/>
		<path class="st16" d="M411.1,86.5c-0.6-0.3-1.1-0.8-1.4-1.4c-0.3-0.6-0.5-1.2-0.5-2c0-0.7,0.2-1.3,0.5-1.9
			c0.3-0.6,0.8-1.1,1.4-1.4c0.6-0.3,1.2-0.5,2-0.5c0.7,0,1.4,0.2,2,0.5s1.1,0.8,1.4,1.4c0.3,0.6,0.5,1.2,0.5,1.9s-0.2,1.4-0.5,2
			c-0.3,0.6-0.8,1.1-1.4,1.4c-0.6,0.3-1.3,0.5-2,0.5C412.3,87,411.7,86.8,411.1,86.5z M414.9,85c0.5-0.5,0.7-1.1,0.7-1.8
			s-0.2-1.3-0.7-1.8s-1.1-0.7-1.8-0.7c-0.7,0-1.3,0.2-1.8,0.7s-0.7,1.1-0.7,1.9s0.2,1.4,0.7,1.9s1.1,0.7,1.8,0.7
			C413.8,85.9,414.4,85.5,414.9,85z"/>
		<path class="st16" d="M422.9,81.5v5.8h8.3v2h-8.3V96h-2.4V79.4h11.7v2.1H422.9z"/>
		<path class="st16" d="M446.7,96l-3.6-5.1c-0.4,0-0.8,0-1,0H438V96h-2.4V79.4h6.5c2.2,0,3.8,0.5,5.1,1.5c1.2,1,1.9,2.4,1.9,4.3
			c0,1.3-0.3,2.4-1,3.3s-1.5,1.6-2.7,2l3.9,5.6h-2.6V96z M445.5,88c0.8-0.6,1.2-1.6,1.2-2.8s-0.4-2.1-1.2-2.8c-0.8-0.6-1.9-1-3.4-1
			h-4v7.5h4C443.5,89,444.7,88.6,445.5,88z"/>
		<path class="st16" d="M461.4,87.9c0.9,0.8,1.3,1.9,1.3,3.2c0,1-0.2,1.8-0.7,2.6s-1.2,1.4-2.1,1.8c-0.9,0.5-2.1,0.7-3.5,0.7
			c-1.2,0-2.3-0.2-3.4-0.5c-1.1-0.4-2-0.9-2.7-1.5l1.1-1.9c0.6,0.5,1.3,1,2.2,1.3c0.9,0.3,1.8,0.5,2.8,0.5c1.2,0,2.2-0.3,2.9-0.8
			c0.7-0.5,1-1.2,1-2.2c0-0.9-0.3-1.6-1-2.1s-1.7-0.8-3.1-0.8h-1.3v-1.6l4.2-5.1h-8v-2.1h11V81l-4.3,5.4
			C459.4,86.6,460.6,87.1,461.4,87.9z"/>
		<path class="st16" d="M476.5,94v2.1h-11.9v-1.6l6.8-6.5c0.8-0.8,1.4-1.5,1.7-2.1s0.4-1.2,0.4-1.7c0-0.9-0.3-1.5-0.9-2
			s-1.5-0.7-2.6-0.7c-1.8,0-3.3,0.6-4.3,1.8l-1.6-1.4c0.6-0.8,1.5-1.4,2.6-1.9c1.1-0.4,2.2-0.7,3.5-0.7c1.7,0,3.1,0.4,4.2,1.2
			c1,0.8,1.5,2,1.5,3.4c0,0.9-0.2,1.7-0.6,2.5s-1.1,1.7-2.2,2.7L468,94H476.5z"/>
		<path class="st16" d="M483.6,79.4V96h-2.4V81.4h-3.8v-2.1h6.2V79.4z"/>
		<path class="st16" d="M498.9,94v2.1H487v-1.6l6.8-6.5c0.8-0.8,1.4-1.5,1.7-2.1s0.4-1.2,0.4-1.7c0-0.9-0.3-1.5-0.9-2
			s-1.5-0.7-2.6-0.7c-1.8,0-3.3,0.6-4.3,1.8l-1.6-1.4c0.6-0.8,1.5-1.4,2.6-1.9c1.1-0.4,2.2-0.7,3.5-0.7c1.7,0,3.1,0.4,4.2,1.2
			c1,0.8,1.5,2,1.5,3.4c0,0.9-0.2,1.7-0.6,2.5s-1.1,1.7-2.2,2.7l-5.1,4.9H498.9z"/>
		<path class="st16" d="M511,87.9c0.9,0.8,1.3,1.9,1.3,3.2c0,1-0.2,1.8-0.7,2.6s-1.2,1.4-2.1,1.8c-0.9,0.5-2.1,0.7-3.5,0.7
			c-1.2,0-2.3-0.2-3.4-0.5c-1.1-0.4-2-0.9-2.7-1.5l1.1-1.9c0.6,0.5,1.3,1,2.2,1.3c0.9,0.3,1.8,0.5,2.8,0.5c1.2,0,2.2-0.3,2.9-0.8
			c0.7-0.5,1-1.2,1-2.2c0-0.9-0.3-1.6-1-2.1s-1.7-0.8-3.1-0.8h-1.3v-1.6l4.2-5.1h-8v-2.1h11V81l-4.3,5.4
			C508.9,86.6,510.1,87.1,511,87.9z"/>
		<path class="st16" d="M517.8,95.2c-1-0.7-1.8-1.7-2.4-2.9c-0.6-1.3-0.9-2.8-0.9-4.6s0.3-3.3,0.9-4.6c0.6-1.3,1.4-2.3,2.4-2.9
			c1-0.7,2.2-1,3.5-1s2.5,0.3,3.5,1s1.8,1.7,2.4,2.9c0.6,1.3,0.9,2.8,0.9,4.6s-0.3,3.3-0.9,4.6c-0.6,1.3-1.4,2.3-2.4,2.9
			c-1,0.7-2.2,1-3.5,1C519.9,96.2,518.8,95.9,517.8,95.2z M524.5,92.5c0.8-1.1,1.2-2.7,1.2-4.8s-0.4-3.7-1.2-4.8s-1.9-1.6-3.2-1.6
			s-2.4,0.5-3.2,1.6s-1.2,2.7-1.2,4.8s0.4,3.7,1.2,4.8c0.8,1.1,1.9,1.6,3.2,1.6C522.6,94.1,523.7,93.6,524.5,92.5z"/>
		<path class="st16" d="M541.9,79.4V96h-2.4V81.4h-3.7v-2.1h6.1V79.4z"/>
		<path class="st16" d="M556,81.4c1.2,1.4,1.8,3.5,1.8,6.1c0,1.9-0.3,3.4-1,4.7s-1.6,2.3-2.8,3c-1.2,0.7-2.6,1-4.1,1
			c-0.8,0-1.6-0.1-2.3-0.3c-0.7-0.2-1.3-0.4-1.9-0.7l0.9-1.9c0.8,0.5,1.9,0.8,3.2,0.8c1.7,0,3.1-0.5,4-1.6c1-1.1,1.5-2.6,1.5-4.7
			v-0.6c-0.5,0.7-1.1,1.3-2,1.6c-0.9,0.3-1.8,0.6-2.8,0.6c-1.1,0-2.1-0.2-2.9-0.6c-0.9-0.4-1.5-1-2-1.8s-0.7-1.7-0.7-2.6
			c0-1,0.3-2,0.8-2.8s1.2-1.4,2.1-1.8c0.9-0.4,1.9-0.7,3-0.7C553.1,79.2,554.8,79.9,556,81.4z M553.1,87.2c0.6-0.3,1-0.7,1.4-1.2
			c0.3-0.5,0.5-1,0.5-1.6s-0.2-1.1-0.5-1.6s-0.8-0.9-1.4-1.2c-0.6-0.3-1.3-0.4-2.1-0.4c-1.1,0-2,0.3-2.6,0.9c-0.7,0.6-1,1.4-1,2.4
			s0.3,1.8,1,2.3c0.7,0.6,1.6,0.9,2.8,0.9C551.8,87.6,552.5,87.4,553.1,87.2z"/>
		<path class="st16" d="M578.9,90.5h-10.2c0.1,1.1,0.6,2,1.5,2.7c0.8,0.7,1.9,1,3.1,1c1.5,0,2.7-0.5,3.6-1.5l1.3,1.5
			c-0.6,0.7-1.3,1.2-2.1,1.5c-0.8,0.3-1.8,0.5-2.8,0.5c-1.3,0-2.5-0.3-3.5-0.8s-1.8-1.3-2.4-2.3c-0.6-1-0.8-2.1-0.8-3.3
			s0.3-2.3,0.8-3.3s1.3-1.7,2.3-2.3c1-0.5,2-0.8,3.2-0.8s2.3,0.3,3.2,0.8s1.7,1.3,2.2,2.3s0.8,2.1,0.8,3.4
			C578.9,90,578.9,90.2,578.9,90.5z M570,86.3c-0.7,0.7-1.2,1.5-1.3,2.6h8.1c-0.1-1.1-0.6-1.9-1.3-2.6c-0.7-0.7-1.7-1-2.7-1
			C571.6,85.3,570.7,85.6,570,86.3z"/>
		<path class="st16" d="M582.7,95.8c-0.9-0.3-1.7-0.6-2.2-1.1l0.9-1.8c0.6,0.4,1.2,0.7,2,1c0.8,0.2,1.6,0.4,2.4,0.4c2,0,3-0.6,3-1.7
			c0-0.4-0.1-0.7-0.4-0.9s-0.6-0.4-1-0.5c-0.4-0.1-1-0.2-1.7-0.3c-1-0.2-1.8-0.3-2.5-0.5c-0.6-0.2-1.2-0.6-1.7-1
			c-0.5-0.5-0.7-1.2-0.7-2.1c0-1.1,0.5-2.1,1.4-2.7c1-0.7,2.2-1,3.8-1c0.8,0,1.7,0.1,2.5,0.3s1.5,0.5,2.1,0.8l-1,1.8
			c-1-0.7-2.2-1-3.6-1c-1,0-1.7,0.2-2.2,0.5s-0.8,0.7-0.8,1.3c0,0.4,0.1,0.7,0.4,1s0.6,0.4,1.1,0.5c0.4,0.1,1,0.2,1.8,0.4
			c1,0.2,1.8,0.4,2.5,0.6c0.6,0.2,1.2,0.5,1.6,1c0.4,0.5,0.7,1.1,0.7,2c0,1.1-0.5,2-1.5,2.7s-2.3,1-4,1
			C584.7,96.2,583.7,96,582.7,95.8z"/>
		<path class="st16" d="M601.1,95.3c-0.3,0.3-0.7,0.5-1.2,0.7s-1,0.2-1.5,0.2c-1.3,0-2.2-0.3-2.9-1s-1-1.7-1-2.9v-6.9h-2.1v-1.9h2.1
			v-2.8h2.3v2.8h3.6v1.9h-3.6v6.8c0,0.7,0.2,1.2,0.5,1.6c0.3,0.4,0.8,0.5,1.5,0.5s1.3-0.2,1.8-0.6L601.1,95.3z"/>
	</g>
	<g class="st19">
		<rect x="261.8" y="41.7" class="st14" width="106.9" height="32.5"/>
		<path class="st15" d="M274.1,52.1c0.9,0.9,1.4,2.1,1.4,3.5c0,1-0.3,2-0.8,2.8c-0.5,0.8-1.3,1.5-2.3,2c-1,0.5-2.3,0.7-3.8,0.7
			c-1.3,0-2.5-0.2-3.7-0.6c-1.2-0.4-2.2-0.9-2.9-1.6l1.2-2.1c0.6,0.6,1.4,1.1,2.4,1.4c1,0.4,2,0.5,3.1,0.5c1.4,0,2.4-0.3,3.2-0.9
			c0.8-0.6,1.1-1.4,1.1-2.4c0-1-0.4-1.8-1.1-2.3s-1.9-0.8-3.4-0.8H267v-1.8l4.6-5.6h-8.8v-2.3h12v1.8l-4.8,5.9
			C271.8,50.6,273.2,51.2,274.1,52.1z"/>
		<path class="st15" d="M291.4,53.2c0.6,0.7,0.8,1.6,0.8,2.7c0,1.1-0.3,2-0.9,2.8c-0.6,0.8-1.4,1.4-2.5,1.9
			c-1.1,0.4-2.4,0.6-3.8,0.6c-1.5,0-2.7-0.2-3.8-0.6c-1.1-0.4-1.9-1.1-2.5-1.9c-0.6-0.8-0.9-1.8-0.9-2.8c0-1,0.3-1.9,0.8-2.7
			c0.5-0.7,1.3-1.3,2.4-1.7c-0.8-0.4-1.5-0.9-1.9-1.6s-0.6-1.4-0.6-2.3c0-1,0.3-1.9,0.8-2.6c0.5-0.7,1.3-1.3,2.3-1.7
			c1-0.4,2.1-0.6,3.4-0.6c1.3,0,2.5,0.2,3.5,0.6c1,0.4,1.8,1,2.3,1.7c0.5,0.7,0.8,1.6,0.8,2.6c0,0.9-0.2,1.7-0.7,2.3
			c-0.4,0.7-1.1,1.2-1.9,1.6C290.1,51.8,290.9,52.4,291.4,53.2z M288.4,58.2c0.8-0.6,1.2-1.4,1.2-2.4c0-1-0.4-1.8-1.2-2.4
			c-0.8-0.6-2-0.9-3.4-0.9c-1.4,0-2.6,0.3-3.4,0.9c-0.8,0.6-1.2,1.4-1.2,2.4c0,1,0.4,1.8,1.2,2.4s1.9,0.9,3.4,0.9
			C286.5,59.1,287.6,58.8,288.4,58.2z M282.1,45.5c-0.7,0.5-1.1,1.2-1.1,2.1s0.4,1.6,1.1,2.1c0.7,0.5,1.7,0.8,2.9,0.8
			c1.3,0,2.3-0.3,3-0.8c0.7-0.5,1.1-1.2,1.1-2.1s-0.4-1.6-1.1-2.1s-1.7-0.8-3-0.8C283.8,44.7,282.8,44.9,282.1,45.5z"/>
		<path class="st15" d="M300.3,42.8V61h-2.6V45h-4.1v-2.3H300.3z"/>
		<path class="st15" d="M317.1,58.7V61H304v-1.8l7.4-7.1c0.9-0.9,1.5-1.6,1.8-2.2c0.3-0.6,0.5-1.3,0.5-1.9c0-1-0.3-1.7-1-2.2
			c-0.7-0.5-1.6-0.8-2.9-0.8c-2,0-3.6,0.7-4.7,2l-1.8-1.5c0.7-0.9,1.6-1.5,2.8-2c1.2-0.5,2.4-0.7,3.9-0.7c1.9,0,3.4,0.5,4.5,1.4
			c1.1,0.9,1.7,2.1,1.7,3.7c0,1-0.2,1.9-0.6,2.8c-0.4,0.9-1.2,1.9-2.4,3l-5.6,5.4H317.1z"/>
		<path class="st15" d="M330.3,52.1c0.9,0.9,1.4,2.1,1.4,3.5c0,1-0.3,2-0.8,2.8c-0.5,0.8-1.3,1.5-2.3,2c-1,0.5-2.3,0.7-3.8,0.7
			c-1.3,0-2.5-0.2-3.7-0.6c-1.2-0.4-2.2-0.9-2.9-1.6l1.2-2.1c0.6,0.6,1.4,1.1,2.4,1.4c1,0.4,2,0.5,3.1,0.5c1.4,0,2.4-0.3,3.2-0.9
			c0.8-0.6,1.1-1.4,1.1-2.4c0-1-0.4-1.8-1.1-2.3s-1.9-0.8-3.4-0.8h-1.5v-1.8l4.6-5.6h-8.8v-2.3h12v1.8l-4.8,5.9
			C328,50.6,329.3,51.2,330.3,52.1z"/>
	</g>
</g>
<g id="Calque_1">
	<ellipse class="st22" cx="73.6" cy="758" rx="168.9" ry="37.7"/>
	
		<linearGradient id="SVGID_1_" gradientUnits="userSpaceOnUse" x1="142.146" y1="51.2155" x2="142.146" y2="634.0217" gradientTransform="matrix(1 0 0 -1 -60 825.43)">
		<stop  offset="0" style="stop-color:#818181;stop-opacity:0.25"/>
		<stop  offset="0.54" style="stop-color:#818181;stop-opacity:0.12"/>
		<stop  offset="1" style="stop-color:#818181;stop-opacity:0.1"/>
	</linearGradient>
	<path class="st23" d="M146,304.9c-0.4-0.6-0.9-1-1.1-1.6c3.1-4.3,6.5-8.5,6.5-13.9c0-6.5-5.1-11.7-7-17.8c-2.6-8.4,1-17.5,2.4-26.3
		c2.3-14.5-1.1-29.3-9.2-40.7c-1.4-2-3.1-4-5.4-4.8c-3.4-1.3-7,0.4-10.4,1c-11.5,1.7-22-9.8-33.7-8.8c-0.9,0-1.6,0.3-2.3,0.6
		c-1.6,0.9-2.3,2.7-3.3,4.3c-3.6,6.1-9.7,9.2-15.6,12.4c-0.7,0.3-1.4,0.6-2.1,1.1c-1.8,1-3.6,2-5.3,3.1c-11.4,7.8-9.7,18.6-3,25.4
		c-1.3,7.5-8,14.2-6.8,22c1,6.1,6.4,10.2,7.4,16.3c0.6,3.6-0.3,6.8-1.7,10.2c-12.8,3.4-27.1,9.7-28.3,20.8
		c-2,19.3-7.8,72.5-7.8,72.5s-6.8,42.5,19,22.5l-0.3,1.1c-4.7,16.3-7.8,33.1-9.5,50.2c-0.3,2.6-0.9,4.5-1.7,5.3
		c-0.3,0.3,0.3,0.6,1.8,1.1c-0.1,0.7-0.3,1.4-0.6,2.1c-2.8,12.5-4.7,25.2-5.4,38.1c-0.7,11.4-2,22.6-4.1,33.8
		c-6.1,35.7,0,81.3,0,81.3l13.4,72.8l2.3,12.5c1.6,2,3.3,3.4,5.4,4.5c0.9,4.4,1.6,9,1.8,13.5c0,0.6,0,1,0,1.6
		c-1.7,0.3-3.1,1.3-4,2.8c-4.8,7.8,0.7,13.9-17.6,29.4c-4.8,4-7.1,7.7-7.7,10.8l0,0c-0.6,3.3,0.7,6,3.1,7.8l0,0
		c0.4,0.3,0.9,0.6,1.3,0.9l0,0c0.1,0.1,0.4,0.3,0.7,0.4l0,0c0.3,0.1,0.4,0.3,0.7,0.3l0,0l0.7,0.3l0,0l0.9,0.3l0,0l0.7,0.1l0,0
		l0.9,0.1l0,0l0.7,0.1h0.1l0.9,0.1h0.1h0.7h0.1h0.9h0.1l0.7-0.1h0.1l0.9-0.1l0,0l0.7-0.1h0.1l0.9-0.1l0,0l0.7-0.3l0.1-0.1
		c0.3-0.1,0.6-0.1,0.9-0.3l0,0l0.7-0.3l0.1-0.1c0.3-0.1,0.6-0.3,0.9-0.4c12.2-6.3,37.4-22.5,37.4-22.5v-0.6c0-0.1,0-0.1,0-0.3
		c0-0.1,0-0.1,0-0.3c0-0.1,0-0.1,0-0.3v-0.3c0-0.1,0-0.3,0-0.3v-0.3c0-0.1,0-0.3,0-0.4s0-0.4,0-0.7l0,0c0-6.7-0.7-22.3-3.3-21.6
		c-1,0.3-1.6,1.7-2.1,3.4l-0.3-0.7c-2.6-5.8-6.3-15.8-6.7-25.4c2-1.7,4.1-3.7,5.8-6c0,0-1.4-6.7-2.6-13.6c-1-6.1-1.8-12.5-1.6-14.9
		c0.7-5.4-8.2-47.2-8.2-47.2s1-9.2,2.7-22c3.6-24.9,10.5-63.2,21-74.2c0.3-0.3,0.4-0.4,0.7-0.7c0,0,7.5,1.6,13.6,50.3l1.8,21.7
		c0.6,6,1.4,11.9,2.7,17.9c1.1,5.8,2.6,15.5,1.7,28.6c-0.9,12.8-1.1,27.9-1.3,38.5c-0.1,8-0.1,13.5-0.1,13.5
		c1.3,1.3,2.7,2.3,4.1,3.3v7.1c0,1.6-0.6,3-1.4,4.1l0,0c-1,1.3-1.7,2.7-2,4.4c-1.1,2.4-2.1,6.5-2.6,12.9c-1.3,20.9-2,18.6-2,18.6
		c-0.9,2.3-1.3,4.5-1.6,7.1l0,0c0,0.4,0,0.9,0,1.4c0,0.1,0,0.1,0,0.3c0,0.3,0,0.4,0,0.6s0,0.3,0,0.3c0,0.1,0,0.3,0,0.4s0,0.3,0,0.4
		s0,0.3,0,0.3s0,0.4,0.1,0.6v0.3c0,0.3,0,0.4,0.1,0.6v0.1c0,0.1,0.1,0.3,0.1,0.4v0.1c0,0.1,0.1,0.4,0.3,0.6v0.1
		c0.1,0.1,0.1,0.3,0.3,0.6v0.1c0.1,0.1,0.3,0.3,0.4,0.4v0.1c0.1,0.1,0.3,0.3,0.4,0.4v0.1c0.1,0.1,0.4,0.3,0.6,0.4l0.1,0.1
		c0.1,0.1,0.4,0.3,0.7,0.3h0.1c0.3,0.1,0.6,0.1,0.7,0.3l0,0c0.3,0.1,0.6,0.1,0.9,0.1h0.1c0.3,0,0.6,0.1,1,0.1H94c0.3,0,0.7,0,1,0
		h0.1c0.4,0,0.9-0.1,1.1-0.1c14.4-2.3,21.2-3.8,20.5-13.1c-0.4-5.5-1.6-13.8-2.4-19.3c-0.4-2.8-1.1-5.5-2.3-8.1c0-0.4,0-0.9,0.1-1.4
		c0.3-3.8,0.1-8.4-0.9-11.5l0.3-6.8c3.6-1.1,6.7-3.3,9.2-6.4c0,0,0.1-5,0.4-11.7c0.4-10.2,1.3-24.4,3-30.1c2.7-9.2,0-41.9,0-41.9
		s-10.2-55.7-0.7-79.9c8.4-21.2,8.2-42.4,0.3-63c0.1-0.1,0.3-0.3,0.4-0.4c0,0-2-1.6-1.3-19.3c0.6-13.6-3-27.7-4.5-33.5
		c2.6,1.3,5.3,2.4,8,3.3c15.6,5.4,17.1-14.8,17.1-14.8l3.4-30.1l4.1-45.1l0,0C152.4,324.1,153.9,315.3,146,304.9z M76.8,275.1
		c0,0.4,0,1,0,1.4c-0.1,1.6-0.4,3.1-0.9,4.7c0.4-2.1,0.7-4.1,0.9-6.3V275.1z M118,385.1c0.3,0.6,0.4,1,0.7,1.6l-1.7-1
		c0.7-3.7,1.7-7.2,3.1-10.5c1.7-4,3.1-8,4.1-12.1c0,4.8,0.1,9.7,0.6,14.5C126.1,389.6,118,385.1,118,385.1L118,385.1z"/>
	<path class="st24" d="M60.2,216.7c-2.1,1.7-4.4,3.7-5.3,6.5c-1.3,4.7,1.8,9.4,2.1,14.4c0.6,9-8.2,16.3-6.8,25
		c0.9,6.1,6.3,10.1,7.2,16.1c1.6,8.8-6.7,16.5-6.1,25.3c0.3,4.8,3.1,8.8,6.4,11.7c4.5,4.1,9.9,6.7,15.6,7.4
		c-0.4-7.7-5.3-14.5-4.4-22.2c0.6-5.3,3.7-9.4,5.5-14.2c3.1-8.4,2.1-18.2,0.3-27c-2-9-4.7-17.8-4.8-26.9c0-5.5,2.1-13.6,0.6-18.9
		C68.7,207.7,64,213.7,60.2,216.7z"/>
	<path class="st25" d="M60.2,216.8c-2.1,1.7-4.4,3.7-5.3,6.5c-1.3,4.7,1.8,9.4,2.1,14.4c0.6,9-8.2,16.3-6.8,25
		c0.9,6.1,6.3,10.1,7.2,16.1c1.6,8.8-6.7,16.5-6.1,25.3c0.3,4.8,3.1,8.8,6.4,11.7c4.5,4.1,9.9,6.7,15.6,7.4
		c-0.4-7.7-5.3-14.5-4.4-22.2c0.6-5.3,3.7-9.4,5.5-14.2c3.1-8.4,2.1-18.2,0.3-27c-2-9-4.7-17.8-4.8-26.9c0-5.5,2.1-13.6,0.6-18.9
		C68.7,207.8,64,213.8,60.2,216.8z"/>
	<path class="st26" d="M66.6,730.7l-6,7c0,0-21.3,13.1-18.6-4.5c0.7-5.3,0.9-10.7,0.4-15.9c-0.6-7.4-1.8-14.6-3.8-21.7l19.9-4.5
		c-3.3,12.1,2.1,27.1,5.5,35C65.6,728.9,66.6,730.7,66.6,730.7z"/>
	<path class="st26" d="M111.9,716.8c-0.1,2.4-0.4,4.7-0.7,7.1c0,0-16.6,13.1-17.9-1.6c-0.9-9.5,1-13.8,2.6-15.6l0,0
		c0.9-1.1,1.4-2.6,1.4-4v-17.2l14.6,5.4l-0.7,14.6C112.2,708.4,112.2,713,111.9,716.8z"/>
	<path class="st27" d="M66.6,730.7l-6,7c0,0-21.3,13.1-18.6-4.5c0.7-5.3,0.9-10.7,0.4-15.9c4.7-0.7,10.2,5.1,10.2,5.1
		c7.8,12.6,9.9,8,11.5,3.4C65.6,728.9,66.6,730.7,66.6,730.7z"/>
	<path class="st28" d="M52.7,723.9c0,0-9.2-9.9-13.9-2.3s0.7,13.8-17.3,29.1c-17.9,15.4,0,25.3,11.9,19.2
		c11.9-6.1,36.5-22.3,36.5-22.3s0-25.3-3.3-24.6C63.3,723.8,64,742.4,52.7,723.9z"/>
	<path class="st27" d="M111.9,716.8c-0.1,2.4-0.4,4.7-0.7,7.1c0,0-16.6,13.1-17.9-1.6c-0.9-9.5,1-13.8,2.6-15.6
		c1.1-1,2.7-1.3,4.1-0.4c2.7-1.4,5.5,0.9,8,3.8C109.5,712.1,110.8,714.3,111.9,716.8z"/>
	<path class="st28" d="M99.8,707.7c0,0-7.2-4.5-8.7,16.1c-1.4,20.6-2,18.5-2,18.5s-6.7,18.5,7.2,16.1s20.6-3.8,19.9-13.1
		c-0.4-5.5-1.6-13.6-2.3-19.2c-0.9-5.4-3-10.5-6.3-14.6C105.4,708.6,102.5,706.4,99.8,707.7z"/>
	<path class="st29" d="M123.7,609.5c0,0,2.7,32.3,0,41.5c-1.6,5.5-2.6,19.6-3,29.8c-0.3,6.5-0.4,11.7-0.4,11.7
		c-12.6,15.4-27.3,0-27.3,0s0-5.4,0.1-13.4c0.1-10.5,0.4-25.4,1.1-38.2c0.9-12.9-0.4-22.6-1.7-28.3c-1.1-5.8-2-11.8-2.6-17.6
		l-1.7-21.6c-6-48.3-13.4-49.9-13.4-49.9c-0.3,0.3-0.4,0.4-0.7,0.7C64,535,57.2,573.1,53.8,597.7c-1.8,12.6-2.7,21.7-2.7,21.7
		s8.7,41.5,8,46.9c-0.3,2.6,0.6,8.8,1.6,14.8c1.1,7,2.4,13.6,2.4,13.6c-16.6,20.8-27.9,4.5-27.9,4.5L32.9,687l-13.1-72.2
		c0,0-6-45.3,0-80.6c2-11.1,3.3-22.3,4-33.5c0.7-12.8,2.6-25.3,5.3-37.7c0.9-3.7,1.7-7.2,2.7-10.9c1.4-5.4,24.9-5,48.5-5
		c17.6,0,34.4,2.8,39.2,12.6c1.1,2.3,2.1,4.5,3.1,6.8c8.4,20.9,8.7,42.4,0.3,63.8C113.8,554.1,123.7,609.5,123.7,609.5z"/>
	<path class="st26" d="M68,330.6c0,0-35.2-41.5-8.7-38.4c6.1,0.7,10.1-0.6,12.8-3c3.1-2.7,4.4-6.8,4.7-10.9
		c0.7-8.4-2.3-17.6-2.3-17.6s36-33,28.6,8.4c-0.9,4.3-1.3,8.5-1.4,12.8c-0.1,8.8,2.4,12.2,6,13.5c6,2.3,14.8-0.9,18.8,6.7
		C133.8,316,68,330.6,68,330.6z"/>
	<path class="st27" d="M103.3,269.1c-0.9,4.3-1.3,8.5-1.4,12.8c-1,0.4-2,0.7-3,1c-7.5,2-15.5,0.3-22-4.5c0.7-8.4-2.3-17.6-2.3-17.6
		S110.5,227.6,103.3,269.1z"/>
	<path class="st26" d="M121.2,249.2c0,18.2-12.8,33-28.6,33S64,267.4,64,249.2c0-0.6,0-1.3,0-1.8c1-18.2,14.4-32.1,30.1-31.1
		C109.4,217.2,121.2,231.7,121.2,249.2z"/>
	<path class="st27" d="M68,330.6c0,0-35.2-41.5-8.7-38.4c6.1,0.7,10.1-0.6,12.8-3c-5.1,9.8-10.9,27.6,15.1,26
		c23.7-1.6,23.5-12.5,20.5-19.8c6,2.4,14.8-0.9,18.8,6.7C133.8,316,68,330.6,68,330.6z"/>
	<path class="st25" d="M123.7,469.6c-6.1,9.1-83.1-2.8-94.4-6.8c0.9-3.7,1.7-7.2,2.7-10.9c1.4-5.4,24.9-5,48.5-5
		c17.6,0,34.4,2.8,39.2,12.6c1.1,2.3,2.1,4.5,3.1,6.8C123.3,469.2,123.7,469.6,123.7,469.6z"/>
	<path class="st30" d="M75.3,285.3c0,0-44.9,4.3-46.9,24.2c-2,19.2-7.7,71.8-7.7,71.8s-6.7,42.2,18.6,22.3l-0.3,1.1
		c-4.5,16.2-7.7,32.8-9.2,49.7c-0.3,2.6-0.9,4.5-1.7,5.1c-3.3,2.3,89.1,17.6,95.7,7.7c0,0-2-1.6-1.3-19.2
		c0.7-17.6-5.3-36.1-5.3-36.1s-5.3-18.5,2-36.1c7.2-17.6,4.7-23,4.7-23l25.3-22.3c0,0,5.4-10.8-4.5-24.2c-6.1-8-14.5-12.8-23.7-13.5
		l-17.5-1.4c0,0,19,23.7-16.8,26C50.7,319.8,75.3,285.3,75.3,285.3z"/>
	<path class="st25" d="M74.5,524.1c-10.2,10.8-17.1,48.9-20.5,73.5c-4.8-34.4,15.4-91.1,15.4-91.1L74.5,524.1z"/>
	<path class="st25" d="M63.3,694.6c-16.6,20.8-27.9,4.5-27.9,4.5l-2.3-12.4c6.3,3.7,16.9,6.7,27.7-5.8
		C62,688.1,63.3,694.6,63.3,694.6z"/>
	<path class="st25" d="M120.9,680.9c-0.3,6.5-0.4,11.7-0.4,11.7c-12.6,15.4-27.3,0-27.3,0s0-5.4,0.1-13.4
		C98.9,683.1,108.7,687.5,120.9,680.9z"/>
	<path class="st29" d="M53.9,389.3l-4.1-46.2c-0.1-1.6,0.9-3,2.3-3.1l13.5-1.6c1.4-0.1,2.6,1,2.7,2.6l4.1,46.2
		c0.1,1.6-0.9,3-2.3,3.1l-13.5,1.6C55.4,392,54.1,390.9,53.9,389.3z"/>
	<path class="st27" d="M29.5,387.6c1.1-4.1,4-7.5,7.5-9.1c2.3-1.1,5.1-3.1,6.4-6.7c2.6-6.7,7.2-13.6,19.2-9
		c11.9,4.7-3.3,7.7-3.3,7.7s27.3-4.5,16.6,4.5c-10.7,9.2-23.9,14.6-23.9,14.6l-6.5,8c-4,5-10.9,4.8-14.6-0.3
		C29.2,395,28.2,391.9,29.5,387.6z"/>
	<path class="st26" d="M28.8,386.1c1.1-4.1,4-7.5,7.5-9.1c2.3-1.1,5.1-3.1,6.4-6.7c2.6-6.7,7.2-13.6,19.2-9
		c11.9,4.5-3.3,7.7-3.3,7.7s27.3-4.5,16.6,4.5c-10.7,9.1-23.9,14.6-23.9,14.6l-6.5,8c-4,5-10.9,4.8-14.6-0.3
		C28.5,393.5,27.6,390.3,28.8,386.1z"/>
	<path class="st27" d="M122.4,402l-4.7,13.1l-6-5.1l-16.6-14.1l-11.2-8.4c-15.9-13.8,0-16.1,0-16.1c-6-3.1,0-6.1,0-6.1
		c21.3-5.4,17.3,14.6,17.3,14.6l13.5,8.1l4.4,2.7L122.4,402z"/>
	<path class="st26" d="M123.7,400.4l-4.7,13.1l-6-5.1l-16.6-14.1l-11.2-8.4c-15.9-13.8,0-16.1,0-16.1c-6-3.1,0-6.1,0-6.1
		c21.3-5.4,17.3,14.6,17.3,14.6l13.5,8.1l4.4,2.7L123.7,400.4z"/>
	<path class="st27" d="M123.7,400.4l-4.7,13.1l-6-5.1c5.4,0.3,11.8-2.7,2.8-22.2l4.4,2.7L123.7,400.4z"/>
	<path class="st30" d="M148.3,323l1.3,6.1l-4,44.6l-3.3,30c0,0-1.3,20-16.6,14.6c-15.4-5.4-16.6-10.8-16.6-10.8s21.9,8.4,8-21.5
		c0,0,8,4.5,6.7-7.7c-1.3-12.2,0-33.8,0-33.8L148.3,323z"/>
	<path class="st27" d="M121.2,249.2c0,15.5-9.2,28.9-22.3,32.1c-1-3.3-1.7-6.4-1-9.7c1.3-6.3,7.7-10.8,7-17.3c0-0.7-0.3-1.4-0.7-2
		c-1.4-2.1-4.3-1.1-6.5-0.6c-5.8,1.4-12.4-3.3-13.9-9.9c-5.1,6-12.8,8-19.8,5.3c1-18.2,14.4-32.1,30.1-31.1
		C109.2,217.2,121,231.7,121.2,249.2L121.2,249.2z"/>
	<path class="st24" d="M84.5,240.5c1.6,6.7,8.1,11.2,13.9,9.9c2.3-0.6,5.1-1.6,6.5,0.6c0.3,0.6,0.6,1.3,0.7,2
		c0.7,6.4-5.5,10.9-7,17.3c-1.4,6.4,2.7,12.6,3.6,19.3c0.4,3.6,0,7.2,0,10.9c0,3.6,0.7,7.5,3.1,9.9c2.3,2.4,6.7,2.4,8.2-0.7
		c7.5,4.5,4.5,18.8,10.2,26c3.1,4,8.2,5,12.9,4.4c1,0,2.1-0.4,3.1-1.1c0.9-0.9,1.3-2,1.4-3.3c1.1-5.1,1-10.5-0.6-15.5
		c-0.7-2.4-1.8-4.8-1.6-7.2c0.1-2,1.1-3.7,2.3-5.3c3.6-5.1,8.4-10.1,8.4-16.6c0-6.5-5-11.5-6.8-17.6c-2.6-8.4,1-17.3,2.4-26.2
		c2.3-14.4-1-29-9.1-40.4c-1.4-2-3.1-4-5.3-4.8c-3.3-1.3-6.8,0.4-10.2,1c-11.2,1.6-21.6-9.8-32.8-8.8c-0.7,0-1.4,0.3-2.1,0.6
		c-1.4,0.9-2.3,2.6-3.1,4.3c-5,8.7-14.8,11.1-22.6,16.5C37.5,231.3,67.3,259.6,84.5,240.5z"/>
	<path class="st31" d="M33.3,766.8c-7.8,4-18.1,1.1-19.5-5.4c-1.7,8.8,10.5,13.1,19.5,8.5c11.9-6.1,36.5-22.3,36.5-22.3s0-1.1,0-3.1
		C69.3,745.1,45.1,760.7,33.3,766.8z"/>
	<path class="st31" d="M116.5,745c-0.9,7-7.4,8.4-19.9,10.5c-6.4,1.1-8.4-2.3-8.8-6.1c-0.4,5,0.9,10.5,8.8,9.1
		c13.9-2.3,20.6-3.8,19.9-13.1C116.5,745.2,116.5,745.1,116.5,745z"/>
</g>
<g id="Calque_3">
	<g>
		<ellipse class="st5" cx="667.9" cy="299.1" rx="29.6" ry="23.1"/>
		<circle class="st5" cx="608.7" cy="377.2" r="42.6"/>
		<rect x="595.7" y="479.5" class="st32" width="42.6" height="54.4"/>
		<rect x="566.2" y="464.1" class="st32" width="13" height="26"/>
		<path class="st33" d="M619.7,742.9c0,0-5.3,13-7.1,17.7c-1.8,4.7,0,10.1,0,10.1s12.4,2.4,20.1,1.8c7.7-0.6,5.3-12.4,5.3-12.4
			l-5.3-16L619.7,742.9z"/>
		<path class="st33" d="M578.2,744.6c0,0-8.3,0-8.3,2.4s-14.2,13-14.2,13c-13,1.8-10.6,8.3-10.6,8.3s19.5,7.1,26.6,4.1
			c7.1-3,16,0,22.5-3.5c6.5-3.5-1.8-24.2-1.8-24.2H578.2z"/>
		<path class="st5" d="M577.7,507.6c0,0,3,22.5-4.7,31.3c-7.7,8.8-5.9,85.1-4.7,88.7c1.2,3.5,2.4,38.4,2.4,38.4s0.6,45,1.7,48.5
			c1.2,3.5,3.6,29,3.6,29c0.6,4.1,17.7,5.9,18.3,3.6c0.6-2.4-1.8-18.3,1.2-32.5c3-14.2,3-40.8,2.4-44.3c-0.6-3.5-1.2-10.6,0.6-13
			c1.8-2.4,4.7-37.8,4.7-43.2s7.7-31.3,10.6-36.7c3-5.3,8.3,24.9,7.1,39s6.5,51.4,6.5,51.4s-4.7,29.6-3.5,44.9s-5.9,31.9-5.9,31.9
			c0.6,4.1,17.7,2.4,17.7,2.4s0-14.2,8.9-29.6c8.9-15.4,10.1-48.5,10.1-48.5s-8.3-17.2,0-52s5.9-60.9,5.9-60.9s-5.9-43.2-11.8-40.2
			c-5.9,3-54.4-7.1-54.4-7.1L577.7,507.6z"/>
		<path class="st32" d="M629.3,396.6c-0.8-2.1,0.1-5.5-1.8-7c-2.2-1.7-6.1,0.6-8.2,1.5c-3.5,1.4-7,2.9-10.6,4.4
			c-0.8,0.3-1.4,0.7-2,1.2c-0.8,1-0.8,2.5-0.8,3.9c-0.1,2.8-1,5.5-2.6,7.7c-1.3,1.9-3.1,3.7-3.6,5.9c-0.2,1.3-0.2,2.6,0,3.9
			c1,8.1,2.6,16.1,4.9,23.9c1,3.3,2.2,6.7,4.8,8.9c0.6,0.6,1.4,1,2.2,1.2c1,0.2,2.1,0.2,3.1,0.1c6-0.6,12.5-1.5,17-5.5
			c1.9-1.9,3.5-4.1,4.8-6.4c1.6-2.5,2.9-5.2,3.8-8c1.3-4.5,0.8-9.4-0.6-13.8s-3.6-8.6-5.8-12.8C632.5,402.7,630.5,399.8,629.3,396.6
			z"/>
		<path class="st0" d="M629.3,396.6c-0.8-2.1,0.1-5.5-1.8-7c-2.2-1.7-6.1,0.6-8.2,1.5c-3.5,1.4-7,2.9-10.6,4.4
			c-0.8,0.3-1.4,0.7-2,1.2c-0.8,1-0.8,2.5-0.8,3.9c-0.1,2.8-1,5.5-2.6,7.7c-1.3,1.9-3.1,3.7-3.6,5.9c-0.2,1.3-0.2,2.6,0,3.9
			c1,8.1,2.6,16.1,4.9,23.9c1,3.3,2.2,6.7,4.8,8.9c0.6,0.6,1.4,1,2.2,1.2c1,0.2,2.1,0.2,3.1,0.1c6-0.6,12.5-1.5,17-5.5
			c1.9-1.9,3.5-4.1,4.8-6.4c1.6-2.5,2.9-5.2,3.8-8c1.3-4.5,0.8-9.4-0.6-13.8s-3.6-8.6-5.8-12.8C632.5,402.7,630.5,399.8,629.3,396.6
			z"/>
		<circle class="st32" cx="610.8" cy="386.3" r="20.7"/>
		<path class="st13" d="M598.6,436c-1.1-1-1.6-3-3.2-1.6c-2.2,2-1.1,10-1,12.7c0.3,10.1,0.6,20.3,2.8,30.2c0.8,3.8,2.1,7.5,4,10.9
			c1.1,1.9,2.6,3.7,4.6,4.6c3.4,1.4,7.2-0.2,10.8-1c6.2-1.4,12.7-0.6,18.3,2.3c1.3,0.6,2.4,1.4,3.3,2.5c1.1,1.4,1.8,3.1,2,4.9
			c2.8-10.5,2-21.6,2.8-32.5c0.7-8.5,2.4-17,2-25.6c-0.1-2.8-0.5-5.7-1.7-8.2c-6,2.3-12.2,4-18.5,5.3c-3,0.7-6.2,1-9.3,1
			c-4.2-0.1-8.2-1.4-12.1-2.8C601.7,438,600,437.1,598.6,436z"/>
		<path class="st9" d="M635,415.3c0,1.8-4.7,55.6-10.1,68c-5.3,12.4-7.2,99.4-7.2,99.4c3.4,0.7,6.9,1,10.3,0.2
			c7.3-1.7,12.4-8.2,18.6-12.3c3.1-2,6.6-3.5,9.8-5.5s6.2-4.5,7.7-7.9c1.4-3.3,1.3-7,1.1-10.6c-0.8-10.8-2.4-21.5-5-32
			c-1.3-5.3-2.6-10.6-2.4-16.2c0.2-5.6,1.9-11,3.6-16.3l3.7-11.5c0.6-1.7,1-3.4,1.2-5.1c0.3-3.1-0.6-6.1-1.4-9.1
			c-2.8-11.3-3.4-23-4.2-34.6c-0.3-4.6-1-9.8-4.8-12.3c-4.1-2.7-9.8-1-14.1-3.3c-1.5-0.8-2.8-2.1-4.3-3c-1.5-0.9-3.6-1.3-4.9-0.2
			C632.7,403,635,413.5,635,415.3z"/>
		<path class="st9" d="M606.1,431.2c1.2,9.5,4.1,43.8,4.7,47.9c0.6,4.1-10.1,73.3-10.1,73.3s-0.6,37.8-3.5,30.7s-14.8-7.1-14.8-7.1
			s-8.9-18.9-11.2-29.6c-1.4-6.7-1-13.6,1.2-20.1c0,0-1.2-9.4,1.8-14.2c3-4.7,9.5-52.6,9.5-52.6s-16-24.2-11.8-39
			c4.1-14.8,32.1-14.8,32.1-14.8C602.3,409.4,604.9,421.8,606.1,431.2z"/>
		<path class="st9" d="M587.3,443.1l-3.8,33.7c0,0-20.7,1.2-18.9-1.8c1.8-3,0-4.1,0-12.4c0-8.3,4.2-33.7,4.2-38.4s13.6-8.9,13.6-8.9
			L587.3,443.1z"/>
		<path class="st34" d="M665.2,478c0,0-22.5-7.1-27.2-7.1c-4.7,0-34.9-0.6-33.1-5.3s21.9-13,26.6-9.5c4.7,3.6,31.3,1.8,31.3,1.8
			L665.2,478z"/>
		<path class="st5" d="M693.4,738.7c-0.5-3.1-2.2-5.8-4.9-7.5c-4.3-2.7-4.9,9.2-4.9,9.2s-8.1,8.1-15.1,12.4s-17.8,4.9-17.8,4.9
			c-12.9,4.9-1.6,11.9-1.6,11.9s68,2.7,74.4-1.1c6.4-3.7-6-35-6-35L693.4,738.7z"/>
		<path class="st0" d="M693.4,738.7c-0.5-3.1-2.2-5.8-4.9-7.5c-4.3-2.7-4.9,9.2-4.9,9.2s-8.1,8.1-15.1,12.4s-17.8,4.9-17.8,4.9
			c-12.9,4.9-1.6,11.9-1.6,11.9s68,2.7,74.4-1.1c6.4-3.7-6-35-6-35L693.4,738.7z"/>
		<path class="st5" d="M710.2,748.8c-0.5-3.4-2.5-6.4-5.3-8.3c-4.7-3-5.3,10.1-5.3,10.1s-8.9,8.9-16.6,13.6
			c-7.7,4.7-19.5,5.3-19.5,5.3c-14.2,5.3-1.8,13-1.8,13s74.5,3,81.6-1.2c7.1-4.2-6.5-38.4-6.5-38.4L710.2,748.8z"/>
		<path class="st33" d="M691.2,510.5L709.6,643l5.9,95.2c0,0-27.8,1.2-28.4,0c-0.6-1.2,2.4-10.6,1.8-13.6c-0.6-3,5.3-20.1,5.3-20.1
			l-4.1-46.7c-3-3.5-3-14.8-3-14.8c-8.8-7.7-11.8-43.2-11.8-43.2l-8.3-74.5L691.2,510.5z"/>
		<path class="st0" d="M691.2,510.5L709.6,643l5.9,95.2c0,0-27.8,1.2-28.4,0c-0.6-1.2,2.4-10.6,1.8-13.6c-0.6-3,5.3-20.1,5.3-20.1
			l-4.1-46.7c-3-3.5-3-14.8-3-14.8c-8.8-7.7-11.8-43.2-11.8-43.2l-8.3-74.5L691.2,510.5z"/>
		<path class="st33" d="M742.6,507.5c0,0,7.1,27.2,1.2,34.9c-5.9,7.7-10.6,55.6-10.6,55.6s3,42,9.5,57.4c6.5,15.4-0.6,68-0.6,68
			s1.8,11.2,0,13c-1.8,1.8-1.8,4.7-1.8,8.3c0,3.5-32.5,3.5-35.5-1.2c-2.9-4.7,0-10.6,3-17.7c3-7.1-2.4-66.8-2.4-66.8
			c0.1-4.4-1.6-8.7-4.7-11.8c-5.3-5.3-5.9-24.2-5.9-24.2c-0.5-8.8-1.7-17.5-3.5-26c-3-13-9.5-73.9-9.5-73.9L742.6,507.5z"/>
		<path class="st34" d="M692.2,326.5c-1.5-3.2-1.6-6.3-1.7-9.7c-2.5-0.4-7.1,3.1-9.3,4.5c-3.2,1.9-6.2,4-9.1,6.2
			c-1.2,1-2.5,2.1-3,3.6c-0.6,2.1,0.5,4.2,1.4,6.2c2.5,5.8,2.9,12.3,1.1,18.4c7.2-6.9,14.4-13.8,23.1-18.6c1.5-0.8,3.1-1.7,3.8-3.3
			C698.1,334.4,692.5,327.3,692.2,326.5z"/>
		<circle class="st34" cx="668.2" cy="317.1" r="24.2"/>
		<path class="st5" d="M654.6,428.9c1.8,8.3,5.9,81,5.9,81s4.7,17.2,4.7,20.1c0,3,4.1,7.1,4.1,7.1s41.4-27.2,65-20.1
			c23.7,7.1,18.3,2.4,18.3,2.4c-6.5-21.9-11.8-62.7-11.8-62.7s5.9-46.7,2.4-78.6S706,339.6,706,339.6c-1.8-8.9-5.9-8.3-5.9-8.3
			s-13.6,8.3-25.4,15.4c-11.8,7.1-7.7,27.8-7.7,27.8C661.7,375.7,652.8,420.6,654.6,428.9z"/>
		<path class="st9" d="M695.4,352.6c23.1-27.2,44.3,16,44.3,16l1.2-11.2c-19.5-24.8-42.6-17.1-42.6-17.1s-14.2,7.7-20.7,31.9
			c-6.5,24.2,26,43.2,26,43.2S672.3,379.8,695.4,352.6z"/>
		<path class="st9" d="M765.1,365c7.7,8.9,31.9,56.8,31.9,56.8v71.5l-29,10.6h-20.7l-2.8-15.4l-6-33.1v-97
			C738.5,358.5,757.4,356.2,765.1,365z"/>
		<polygon class="st0" points="797.1,493.3 768.1,504 747.4,504 744.6,488.6 		"/>
		<polygon class="st9" points="744.4,471.5 739.7,470.3 694.8,405.8 745.6,467.9 		"/>
		<path class="st5" d="M676.4,324.6c1.8,1,4.9-1.1,6-2.4c0.4-0.5,0.7-1.1,1.4-1.3c0.5-0.1,1,0,1.5,0.2c3.8,1.5,6.5,4.8,7.3,8.7
			c0.4-7,6.6-12.6,7.7-19.6c0.5-3.4-0.2-6.8-0.8-10.1l-2.2-10.8c-0.8-3.9-1.7-8-3.6-11.5c-2-3.5-5.3-6.5-9.3-7.1
			c-3.1-0.5-6.3,0.6-9.4,1c-3.8,0.5-7.7,0-11.6-0.1c-3.9,0-7.9,0.4-11.1,2.7c-2.2,1.6-3.9,3.7-5,6.2c-0.9,2-1.7,4.3-3.4,5.7
			c-1.7,1.3-4.1,1.7-5.6,3.2c-2.2,2.2-1.6,5.8-0.7,8.8c0.7,2.5,1.8,5.2,3.9,6.6c2.1,1.4,4.9,1.2,7.5,1.1c4.2-0.2,9,0.2,11.4,3.7
			c1.7,2.3,1.8,5.7,4.1,7.5c1.3,1,3,1.2,4.7,1.4c1.7,0.2,3.4,0.3,4.8,1.3C675.9,321,674.7,323.7,676.4,324.6z"/>
		<path class="st34" d="M717.8,424.2c0,0-20.1-1.2-27.2,2.3c-7.1,3.6-18.9,0-18.9,0l-22.5-1.2c0,0-16.6,2.4-27.2,13
			c-10.6,10.6,24.8,7.1,28.4,3.6c3.5-3.5,10.6-1.2,10.6-1.2c5.9,6.5,49.7,14.2,50.9,13c1.2-1.2,10.1,0,10.1,0
			c17.1,2.4,13-23.6,13-23.6L717.8,424.2z"/>
		<path class="st5" d="M692.4,384c-1.2,8.9,12.4,40.8,12.4,40.8s11.8,8.3,14.8,7.7s17.7,5.9,17.7,5.9v-49.1
			c0-38.4-26.6-41.4-26.6-41.4C693,349.1,693.6,375.1,692.4,384z"/>
		<polygon class="st5" points="575.9,444.3 599,463.8 615.5,462 588.9,443.1 		"/>
		<path class="st32" d="M570.6,479.8l14-12.1c0,0,4.3-18,15-13.9s-5.3,23.1-5.3,23.1s-14.8,26.6-23.7,20.7c-8.9-5.9-2.4-26-2.4-26
			L570.6,479.8z"/>
		<ellipse class="st5" cx="608.7" cy="370.9" rx="23.6" ry="15.1"/>
		<circle class="st5" cx="604.6" cy="334.6" r="17.1"/>
		<ellipse class="st5" cx="668.2" cy="302.1" rx="22.8" ry="11.8"/>
		<ellipse class="st5" cx="689.4" cy="304.1" rx="8" ry="19.8"/>
	</g>
	<g>
	</g>
	<g>
	</g>
	<g>
	</g>
	<g>
	</g>
	<g>
	</g>
	<g>
	</g>
	<g>
	</g>
	<g>
	</g>
	<g>
	</g>
	<g>
	</g>
	<g>
	</g>
	<g>
	</g>
	<g>
	</g>
	<g>
	</g>
	<g>
	</g>
</g>
</svg>
